<svg id="Layer_1" data-name="Layer 1" xmlns="http://www.w3.org/2000/svg" viewBox="0 0 1920 1080"><defs><style>.cls-1{fill:#666;}.cls-2{fill:#6d6e70;}.cls-3{fill:#9c9;}.cls-4{fill:#ffee90;}.cls-5{fill:#fc0;}.cls-6{fill:#fff;}</style></defs><title>Artboard 1</title><path class="cls-1" d="M1920-1V954.83H1.09L1,914.26H1106.49c28-38.17,46.06-82.88,50.52-130.72,4.72-50.75-10.23-97-34-140.88q-17.32-31.92-35.61-63.37a13.72,13.72,0,0,0,.9-2.84,30.68,30.68,0,0,0,.55-6.1,34.18,34.18,0,0,0-.5-6.2,12.1,12.1,0,0,0-1.7-4.45,7.22,7.22,0,0,0-3.25-2.67,12.78,12.78,0,0,0-5.15-.83,13,13,0,0,0-4,.55c-15.92-27.17-32.11-54.2-48.2-81.27-14.44-24.31-28.73-48.68-42.54-73.25l.33-.33c1.53-1.63,2.37-4,2.5-7.15h-6.2c0,.41-.11.79-.17,1.15-.85-1.5-1.68-3-2.51-4.5h9.28v-1.55a35.69,35.69,0,0,0-.4-5.62,11.56,11.56,0,0,0-1.5-4.3,7.4,7.4,0,0,0-3-2.75,10.85,10.85,0,0,0-4.92-1,11.76,11.76,0,0,0-5.6,1.15,9.49,9.49,0,0,0-1.15.75c-26.42-48.47-50.59-97.9-70-149.35C880.8,177.57,856,66,853.64,55.81L1,55.65V-1Z"/><path class="cls-2" d="M980.14,388.3h-4.95c-.62-1.11-1.23-2.22-1.84-3.34a5.69,5.69,0,0,1,.49-1.33,3.29,3.29,0,0,1,1.08-1.25,2.89,2.89,0,0,1,1.72-.48,3.15,3.15,0,0,1,1.73.43,2.84,2.84,0,0,1,1,1.25,6.93,6.93,0,0,1,.52,2C980,386.36,980.11,387.27,980.14,388.3Z"/><path class="cls-2" d="M1081.14,564.1a22.61,22.61,0,0,1,.8,6.78q-2.54-4.35-5.09-8.69a3.16,3.16,0,0,1,1.39-.29A2.94,2.94,0,0,1,1081.14,564.1Z"/><polygon class="cls-3" points="1.1 954.63 1920 955 1920 1080 1 1080 1.1 954.63"/><path class="cls-4" d="M1.3,1079.93c4.21.12,8.48.06,12.76,0,167-3.28,306.63-126.82,320.86-279.33,5.19-55.76-11.21-106.58-37.36-154.83C263.85,583.65,227.19,522.94,191,462,138.81,374.22,88.42,285.69,52.61,190.87,30.46,132.28,1.72,1.67,1.3,0,.81.06,1.3,1079.93,1.3,1079.93Z"/><path class="cls-5" d="M1.29,945c2.87.1,5.8,0,8.72,0,114.1-2.43,209.56-94,219.29-207.07,3.54-41.34-7.67-79-25.53-114.77-23.05-46.05-48.1-91.06-72.81-136.21C95.27,421.8,75.61,377.22,53.21,306.24,14.89,184.8,1.58,1.24,1.29,0,1,.05,1.29,945,1.29,945Z"/><path class="cls-3" d="M727.5,401.65a6.53,6.53,0,0,1-2.85,2.85,9,9,0,0,1-4,.85,7,7,0,0,1-5.08-1.72c-1.18-1.15-1.78-3.08-1.78-5.78v-20h6.91v18.55a4.6,4.6,0,0,0,.7,2.93,2.78,2.78,0,0,0,2.25.82q3.65,0,3.64-4.45V377.9h6.91v26.9h-6.6v-3.15Z"/><path class="cls-3" d="M745.4,377.9v3.6h.1a9.71,9.71,0,0,1,2.54-3.12,5.72,5.72,0,0,1,3.66-1.18l.62,0,.63.07v6.6c-.37,0-.73-.06-1.08-.07s-.71,0-1.08,0a7,7,0,0,0-1.79.25,4.93,4.93,0,0,0-1.65.83,4.07,4.07,0,0,0-1.2,1.5,5.16,5.16,0,0,0-.45,2.27V404.8h-6.91V377.9Z"/><path class="cls-3" d="M762.59,368.7v5.9h-6.9v-5.9Zm0,9.2v26.9h-6.9V377.9Z"/><path class="cls-3" d="M772.49,396.9a4.18,4.18,0,0,0,.93,2.83,3.36,3.36,0,0,0,2.67,1.07,3.78,3.78,0,0,0,2.55-.8,2.93,2.93,0,0,0,1-2.4,2.52,2.52,0,0,0-.75-2,5.86,5.86,0,0,0-1.75-1.08l-4.85-1.75a9.23,9.23,0,0,1-4.3-2.82,7.34,7.34,0,0,1-1.45-4.68,9,9,0,0,1,.55-3.12,6.62,6.62,0,0,1,1.75-2.58,8.88,8.88,0,0,1,3.08-1.75,14,14,0,0,1,4.52-.65c3.14,0,5.45.67,7,2a7.18,7.18,0,0,1,2.25,5.65V386h-6.2a5.48,5.48,0,0,0-.67-3.07,2.69,2.69,0,0,0-2.38-1,3.73,3.73,0,0,0-2.27.73,2.53,2.53,0,0,0-1,2.17,2.82,2.82,0,0,0,.63,1.8,4.74,4.74,0,0,0,2.37,1.35l4.15,1.4a9.38,9.38,0,0,1,4.6,2.88,7.77,7.77,0,0,1,1.35,4.82,8.59,8.59,0,0,1-.75,3.73,7.31,7.31,0,0,1-2.07,2.62,8.09,8.09,0,0,1-3.15,1.5,16.85,16.85,0,0,1-4,.45,17.71,17.71,0,0,1-4.82-.55,6.92,6.92,0,0,1-3-1.65,5.93,5.93,0,0,1-1.58-2.67,12.86,12.86,0,0,1-.45-3.53V396h6.2Z"/><path class="cls-3" d="M796.24,377.9v2.75h.1a8.07,8.07,0,0,1,2.93-2.65,8.7,8.7,0,0,1,3.87-.8,7.08,7.08,0,0,1,4,1.1,5.33,5.33,0,0,1,2.17,3.2h.1a6.14,6.14,0,0,1,2.58-3.22,8,8,0,0,1,4.22-1.08,6.07,6.07,0,0,1,5.08,2.08,9.52,9.52,0,0,1,1.62,6V404.8H816V386a4.6,4.6,0,0,0-.62-2.6,2.36,2.36,0,0,0-2.08-.9,3.33,3.33,0,0,0-2.62,1.1,5.21,5.21,0,0,0-1,3.5v17.7h-6.9V386a4.52,4.52,0,0,0-.62-2.6,2.36,2.36,0,0,0-2.08-.9,3.33,3.33,0,0,0-2.62,1.1,5.21,5.21,0,0,0-1,3.5v17.7h-6.9V377.9Z"/><path class="cls-3" d="M827.49,385.5a9.1,9.1,0,0,1,.75-3.92,6.87,6.87,0,0,1,2-2.55,8,8,0,0,1,3-1.4,15,15,0,0,1,3.67-.43,17,17,0,0,1,5,.6,6.85,6.85,0,0,1,2.95,1.7,5.74,5.74,0,0,1,1.43,2.63,13.89,13.89,0,0,1,.37,3.32V399.6a18.49,18.49,0,0,0,.18,2.95,10.09,10.09,0,0,0,.67,2.25h-6.6a5.53,5.53,0,0,1-.52-1.37c-.12-.49-.23-1-.33-1.43H840a5.88,5.88,0,0,1-2.77,2.73,11.37,11.37,0,0,1-4.08.62,6.88,6.88,0,0,1-3-.62,5.18,5.18,0,0,1-2-1.73,7.9,7.9,0,0,1-1.1-2.47,11.23,11.23,0,0,1-.35-2.73,12,12,0,0,1,.4-3.27,6.35,6.35,0,0,1,1.23-2.35,6.79,6.79,0,0,1,2.1-1.63,17.26,17.26,0,0,1,3.07-1.15l3.9-1a4.07,4.07,0,0,0,2.15-1.1,3.06,3.06,0,0,0,.6-2.05,3.7,3.7,0,0,0-.72-2.42,3.05,3.05,0,0,0-2.48-.88,3,3,0,0,0-2.4,1,3.87,3.87,0,0,0-.8,2.55v.75h-6.2Zm11.1,6.73a10.05,10.05,0,0,1-1.45.47,5.3,5.3,0,0,0-3,1.5,4.23,4.23,0,0,0-.9,2.85,5.43,5.43,0,0,0,.6,2.65,2.09,2.09,0,0,0,2,1.1,5,5,0,0,0,1.45-.22,4,4,0,0,0,1.38-.73,3.72,3.72,0,0,0,1-1.3,4.13,4.13,0,0,0,.4-1.9v-5.3A6,6,0,0,1,838.59,392.23Z"/><path class="cls-3" d="M858.19,377.9v3.6h.1a9.73,9.73,0,0,1,2.55-3.12,5.71,5.71,0,0,1,3.65-1.18l.63,0,.62.07v6.6c-.36,0-.72-.06-1.07-.07s-.71,0-1.08,0a7,7,0,0,0-1.8.25,4.93,4.93,0,0,0-1.65.83,4.07,4.07,0,0,0-1.2,1.5,5.16,5.16,0,0,0-.45,2.27V404.8h-6.9V377.9Z"/><path class="cls-3" d="M876.64,370.2v7.7h4v4.7h-4v14.55a4.07,4.07,0,0,0,.48,2.28,2.28,2.28,0,0,0,2,.67l.8,0c.27,0,.52,0,.75-.08v4.8c-.76,0-1.51,0-2.22.08s-1.48.07-2.28.07a16.25,16.25,0,0,1-3.27-.27,3.31,3.31,0,0,1-2-1.1,4.8,4.8,0,0,1-.93-2.18,19.8,19.8,0,0,1-.25-3.4V382.6h-3.5v-4.7h3.5v-7.7Z"/><path class="cls-3" d="M890,404.8h-6.6V397H890Z"/><path class="cls-3" d="M900.94,394.55a14.76,14.76,0,0,0,.18,2.33,7.32,7.32,0,0,0,.57,2,3.88,3.88,0,0,0,1,1.4,2.46,2.46,0,0,0,1.6.52,2.78,2.78,0,0,0,2.55-1.25,9.26,9.26,0,0,0,1.1-3.8h6.2c-.13,3.14-1,5.52-2.5,7.15s-4,2.45-7.25,2.45a11.4,11.4,0,0,1-5.85-1.25,7.74,7.74,0,0,1-3.1-3.3,12.9,12.9,0,0,1-1.22-4.6c-.15-1.7-.23-3.4-.23-5.1a35.05,35.05,0,0,1,.38-5.2,12.58,12.58,0,0,1,1.5-4.45,8.15,8.15,0,0,1,3.22-3.1,11.76,11.76,0,0,1,5.6-1.15,10.92,10.92,0,0,1,4.93,1,7.44,7.44,0,0,1,3,2.75,11.56,11.56,0,0,1,1.5,4.3,35.69,35.69,0,0,1,.4,5.62v1.55H900.94Zm6.85-9a6.93,6.93,0,0,0-.52-2,2.78,2.78,0,0,0-1-1.25,3.15,3.15,0,0,0-1.73-.43,2.89,2.89,0,0,0-1.72.48,3.38,3.38,0,0,0-1.08,1.25,5.9,5.9,0,0,0-.57,1.72,10.27,10.27,0,0,0-.18,1.9v1.05h7C908,387.27,907.89,386.36,907.79,385.58Z"/><path class="cls-3" d="M931.89,401.65A6.43,6.43,0,0,1,929,404.5a9,9,0,0,1-4,.85,7,7,0,0,1-5.07-1.72q-1.79-1.72-1.78-5.78v-20h6.9v18.55a4.6,4.6,0,0,0,.7,2.93,2.8,2.8,0,0,0,2.25.82q3.65,0,3.65-4.45V377.9h6.9v26.9H932v-3.15Z"/><path class="cls-3" d="M962.34,377.9v28.6a10.8,10.8,0,0,1-.37,3,4.88,4.88,0,0,1-1.28,2.18,5.79,5.79,0,0,1-2.42,1.32,13.82,13.82,0,0,1-3.83.45l-1.25,0c-.43,0-.9,0-1.4-.08v-5a1.65,1.65,0,0,0,.55.1h.55q1.7,0,2.13-1a8.79,8.79,0,0,0,.42-3.13V377.9Zm0-9.2v5.9h-6.9v-5.9Z"/><path class="cls-3" d="M980,396.9a7.81,7.81,0,0,1-.93,2.65,2.78,2.78,0,0,1-2.55,1.25,2.46,2.46,0,0,1-1.6-.52,3.88,3.88,0,0,1-1-1.4,7.32,7.32,0,0,1-.57-2,14.76,14.76,0,0,1-.18-2.33V392.4h4.37q-1.14-2-2.27-4.1h-2.1v-1.05a10.27,10.27,0,0,1,.18-1.9c0-.13.05-.26.08-.39-1.08-1.95-2.14-3.9-3.21-5.86a7.79,7.79,0,0,0-2.08,2.35,12.58,12.58,0,0,0-1.5,4.45,35.07,35.07,0,0,0-.37,5.2c0,1.7.08,3.4.23,5.1a12.69,12.69,0,0,0,1.22,4.6,7.74,7.74,0,0,0,3.1,3.3,11.4,11.4,0,0,0,5.85,1.25c3.07,0,5.38-.7,6.92-2.12Q981.73,400.08,980,396.9Z"/><path class="cls-6" d="M986.34,395.75c-.13,3.14-1,5.52-2.5,7.15l-.33.33q-1.78-3.15-3.54-6.33c.06-.36.12-.74.17-1.15Z"/><path class="cls-6" d="M986.74,390.85v1.55h-9.28q-1.14-2-2.27-4.1h4.95c0-1-.1-1.94-.2-2.72a6.93,6.93,0,0,0-.52-2,2.84,2.84,0,0,0-1-1.25,3.15,3.15,0,0,0-1.73-.43,2.89,2.89,0,0,0-1.72.48,3.29,3.29,0,0,0-1.08,1.25,5.69,5.69,0,0,0-.49,1.33c-1.08-1.95-2.14-3.9-3.21-5.86a9.49,9.49,0,0,1,1.15-.75,11.76,11.76,0,0,1,5.6-1.15,10.85,10.85,0,0,1,4.92,1,7.4,7.4,0,0,1,3,2.75,11.56,11.56,0,0,1,1.5,4.3A35.69,35.69,0,0,1,986.74,390.85Z"/><path class="cls-6" d="M1016,401.65a6.43,6.43,0,0,1-2.85,2.85,9,9,0,0,1-4,.85,7,7,0,0,1-5.07-1.72q-1.79-1.72-1.78-5.78v-20h6.9v18.55a4.6,4.6,0,0,0,.7,2.93,2.8,2.8,0,0,0,2.25.82q3.64,0,3.65-4.45V377.9h6.9v26.9h-6.6v-3.15Z"/><path class="cls-6" d="M1046.49,368.7v5.9h-6.9v-5.9Zm0,9.2v26.9h-6.9V377.9Z"/><path class="cls-6" d="M1061,383.5h-10.25v-5.6h18.4v5.3l-10.75,16h10.75v5.6h-18.9v-5.3Z"/><path class="cls-6" d="M1092.79,403.45q0,5.21-2.58,7.8c-1.71,1.74-4.59,2.6-8.62,2.6-2.94,0-5.19-.62-6.78-1.87a6.41,6.41,0,0,1-2.37-5.33h6.6a2.38,2.38,0,0,0,1,2.05,4,4,0,0,0,1.07.55,3.61,3.61,0,0,0,1.23.2,3.21,3.21,0,0,0,2.95-1.35,6.22,6.22,0,0,0,.85-3.35V401.2h-.1a8.2,8.2,0,0,1-2.58,2.4,6.13,6.13,0,0,1-3.17.9,7,7,0,0,1-6.18-3.12q-2.07-3.13-2.07-10.48a44,44,0,0,1,.27-4.8,15.33,15.33,0,0,1,1.15-4.42,8.13,8.13,0,0,1,2.55-3.23,7.35,7.35,0,0,1,4.48-1.25,6.61,6.61,0,0,1,3,.8,6.05,6.05,0,0,1,2.55,2.9h.1v-3h6.6Zm-13.68-8.6a8.82,8.82,0,0,0,.5,2.23,3.74,3.74,0,0,0,1.05,1.55,2.68,2.68,0,0,0,1.78.57,2.85,2.85,0,0,0,1.82-.57,3.8,3.8,0,0,0,1.15-1.58,8.48,8.48,0,0,0,.6-2.42,25,25,0,0,0,.18-3.13,21.7,21.7,0,0,0-.78-6.95,2.82,2.82,0,0,0-2.82-2.05,3.14,3.14,0,0,0-1.85.5,3.25,3.25,0,0,0-1.1,1.63,11.61,11.61,0,0,0-.53,3c-.08,1.25-.12,2.77-.12,4.57C1079,393.14,1079,394,1079.11,394.85Z"/><path class="cls-6" d="M1104.24,377.9v3.6h.1a9.73,9.73,0,0,1,2.55-3.12,5.71,5.71,0,0,1,3.65-1.18l.62,0,.63.07v6.6c-.37,0-.73-.06-1.08-.07s-.71,0-1.07,0a7,7,0,0,0-1.8.25,4.93,4.93,0,0,0-1.65.83,4.07,4.07,0,0,0-1.2,1.5,5.16,5.16,0,0,0-.45,2.27V404.8h-6.9V377.9Z"/><path class="cls-6" d="M1114.24,385.5a9.1,9.1,0,0,1,.75-3.92,6.84,6.84,0,0,1,2-2.55,8,8,0,0,1,3-1.4,15,15,0,0,1,3.68-.43,17.09,17.09,0,0,1,5,.6,6.91,6.91,0,0,1,3,1.7,5.73,5.73,0,0,1,1.42,2.63,13.88,13.88,0,0,1,.38,3.32V399.6a20,20,0,0,0,.17,2.95,10.15,10.15,0,0,0,.68,2.25h-6.6a5.56,5.56,0,0,1-.53-1.37c-.12-.49-.22-1-.32-1.43h-.1a5.9,5.9,0,0,1-2.78,2.73,11.35,11.35,0,0,1-4.07.62,6.85,6.85,0,0,1-3.05-.62,5.1,5.1,0,0,1-2-1.73,7.68,7.68,0,0,1-1.1-2.47,10.76,10.76,0,0,1-.35-2.73,11.65,11.65,0,0,1,.4-3.27,6.19,6.19,0,0,1,1.22-2.35,6.79,6.79,0,0,1,2.1-1.63,17.39,17.39,0,0,1,3.08-1.15l3.9-1a4.11,4.11,0,0,0,2.15-1.1,3.06,3.06,0,0,0,.6-2.05,3.64,3.64,0,0,0-.73-2.42,3,3,0,0,0-2.47-.88,3,3,0,0,0-2.4,1,3.82,3.82,0,0,0-.8,2.55v.75h-6.2Zm11.1,6.73a10.91,10.91,0,0,1-1.45.47,5.3,5.3,0,0,0-3,1.5,4.23,4.23,0,0,0-.9,2.85,5.43,5.43,0,0,0,.6,2.65,2.08,2.08,0,0,0,2,1.1,5.06,5.06,0,0,0,1.45-.22,3.86,3.86,0,0,0,1.37-.73,3.74,3.74,0,0,0,1-1.3,4.26,4.26,0,0,0,.4-1.9v-5.3A6.34,6.34,0,0,1,1125.34,392.23Z"/><path class="cls-6" d="M1152,402a6.92,6.92,0,0,1-2.58,2.65,7.48,7.48,0,0,1-3.52.75,6.79,6.79,0,0,1-6.25-3.25q-2-3.24-2-10.75t2-10.82a6.76,6.76,0,0,1,6.25-3.33,6.53,6.53,0,0,1,3.32.8,8,8,0,0,1,2.48,2.4h.1V369.1h6.9v35.7h-6.6V402Zm-6.78-4a3.07,3.07,0,0,0,5.9,0,32.61,32.61,0,0,0,0-13.25,3.07,3.07,0,0,0-5.9,0,33.09,33.09,0,0,0,0,13.25Z"/><path class="cls-6" d="M1169.94,377.9v3.15h.1a7,7,0,0,1,2.85-2.92,8.37,8.37,0,0,1,4-.93A6.79,6.79,0,0,1,1182,379c1.18,1.2,1.78,3.15,1.78,5.85V404.8h-6.9V386.25a4.63,4.63,0,0,0-.7-2.92,2.81,2.81,0,0,0-2.25-.83c-2.44,0-3.65,1.49-3.65,4.45V404.8h-6.9V377.9Z"/><path class="cls-6" d="M1195.49,377.9v28.6a10.78,10.78,0,0,1-.38,3,4.87,4.87,0,0,1-1.27,2.18,5.77,5.77,0,0,1-2.43,1.32,13.74,13.74,0,0,1-3.82.45l-1.25,0c-.44,0-.9,0-1.4-.08v-5a1.65,1.65,0,0,0,.55.1h.55c1.13,0,1.84-.34,2.12-1a8.53,8.53,0,0,0,.43-3.13V377.9Zm0-9.2v5.9h-6.9v-5.9Z"/><path class="cls-6" d="M1207.49,368.7v5.9h-6.9v-5.9Zm0,9.2v26.9h-6.9V377.9Z"/><path class="cls-5" d="M760.62,481.75a5.34,5.34,0,0,1,.45-2.17,5.7,5.7,0,0,1,1.22-1.78,6.16,6.16,0,0,1,1.8-1.2,5.39,5.39,0,0,1,2.18-.45,5.3,5.3,0,0,1,2.17.45,5.91,5.91,0,0,1,1.8,1.2,5.56,5.56,0,0,1,1.23,1.78,5.48,5.48,0,0,1,0,4.35,5.52,5.52,0,0,1-1.23,1.77,5.91,5.91,0,0,1-1.8,1.2,5.3,5.3,0,0,1-2.17.45,5.39,5.39,0,0,1-2.18-.45,6.16,6.16,0,0,1-1.8-1.2,5.65,5.65,0,0,1-1.22-1.77A5.35,5.35,0,0,1,760.62,481.75Zm2.3.05a3.36,3.36,0,0,0,1,2.43,3.45,3.45,0,0,0,4.8,0,3.57,3.57,0,0,0,0-4.85,3.43,3.43,0,0,0-4.8,0A3.35,3.35,0,0,0,762.92,481.8Z"/><path class="cls-5" d="M799.52,481.75a5.34,5.34,0,0,1,.45-2.17,5.7,5.7,0,0,1,1.22-1.78,6.16,6.16,0,0,1,1.8-1.2,5.39,5.39,0,0,1,2.18-.45,5.3,5.3,0,0,1,2.17.45,5.91,5.91,0,0,1,1.8,1.2,5.56,5.56,0,0,1,1.23,1.78,5.48,5.48,0,0,1,0,4.35,5.52,5.52,0,0,1-1.23,1.77,5.91,5.91,0,0,1-1.8,1.2,5.3,5.3,0,0,1-2.17.45,5.39,5.39,0,0,1-2.18-.45,6.16,6.16,0,0,1-1.8-1.2,5.65,5.65,0,0,1-1.22-1.77A5.35,5.35,0,0,1,799.52,481.75Zm2.3.05a3.36,3.36,0,0,0,.95,2.43,3.45,3.45,0,0,0,4.8,0,3.57,3.57,0,0,0,0-4.85,3.43,3.43,0,0,0-4.8,0A3.35,3.35,0,0,0,801.82,481.8Z"/><path class="cls-5" d="M838.42,481.75a5.34,5.34,0,0,1,.45-2.17,5.7,5.7,0,0,1,1.22-1.78,6.16,6.16,0,0,1,1.8-1.2,5.48,5.48,0,0,1,4.35,0,5.91,5.91,0,0,1,1.8,1.2,5.56,5.56,0,0,1,1.23,1.78,5.48,5.48,0,0,1,0,4.35A5.52,5.52,0,0,1,848,485.7a5.91,5.91,0,0,1-1.8,1.2,5.48,5.48,0,0,1-4.35,0,6.16,6.16,0,0,1-1.8-1.2,5.65,5.65,0,0,1-1.22-1.77A5.35,5.35,0,0,1,838.42,481.75Zm2.3.05a3.32,3.32,0,0,0,.95,2.43,3.45,3.45,0,0,0,4.8,0,3.57,3.57,0,0,0,0-4.85,3.43,3.43,0,0,0-4.8,0A3.31,3.31,0,0,0,840.72,481.8Z"/><path class="cls-5" d="M877.32,481.75a5.34,5.34,0,0,1,.45-2.17A5.7,5.7,0,0,1,879,477.8a6.16,6.16,0,0,1,1.8-1.2,5.48,5.48,0,0,1,4.35,0,5.91,5.91,0,0,1,1.8,1.2,5.56,5.56,0,0,1,1.23,1.78,5.48,5.48,0,0,1,0,4.35,5.52,5.52,0,0,1-1.23,1.77,5.91,5.91,0,0,1-1.8,1.2,5.48,5.48,0,0,1-4.35,0,6.16,6.16,0,0,1-1.8-1.2,5.65,5.65,0,0,1-1.22-1.77A5.35,5.35,0,0,1,877.32,481.75Zm2.3.05a3.32,3.32,0,0,0,1,2.43,3.45,3.45,0,0,0,4.8,0,3.57,3.57,0,0,0,0-4.85,3.43,3.43,0,0,0-4.8,0A3.31,3.31,0,0,0,879.62,481.8Z"/><path class="cls-5" d="M916.22,481.75a5.34,5.34,0,0,1,.45-2.17,5.53,5.53,0,0,1,1.22-1.78,6.16,6.16,0,0,1,1.8-1.2,5.48,5.48,0,0,1,4.35,0,6.16,6.16,0,0,1,1.8,1.2,5.56,5.56,0,0,1,1.23,1.78,5.48,5.48,0,0,1,0,4.35,5.52,5.52,0,0,1-1.23,1.77,6.16,6.16,0,0,1-1.8,1.2,5.48,5.48,0,0,1-4.35,0,6.16,6.16,0,0,1-1.8-1.2,5.49,5.49,0,0,1-1.22-1.77A5.35,5.35,0,0,1,916.22,481.75Zm2.3.05a3.32,3.32,0,0,0,1,2.43,3.45,3.45,0,0,0,4.8,0,3.57,3.57,0,0,0,0-4.85,3.43,3.43,0,0,0-4.8,0A3.31,3.31,0,0,0,918.52,481.8Z"/><path class="cls-5" d="M955.12,481.75a5.34,5.34,0,0,1,.45-2.17,5.53,5.53,0,0,1,1.22-1.78,6.16,6.16,0,0,1,1.8-1.2,5.48,5.48,0,0,1,4.35,0,6.16,6.16,0,0,1,1.8,1.2,5.56,5.56,0,0,1,1.23,1.78,5.48,5.48,0,0,1,0,4.35,5.52,5.52,0,0,1-1.23,1.77,6.16,6.16,0,0,1-1.8,1.2,5.48,5.48,0,0,1-4.35,0,6.16,6.16,0,0,1-1.8-1.2,5.49,5.49,0,0,1-1.22-1.77A5.35,5.35,0,0,1,955.12,481.75Zm2.3.05a3.32,3.32,0,0,0,1,2.43,3.45,3.45,0,0,0,4.8,0,3.57,3.57,0,0,0,0-4.85,3.43,3.43,0,0,0-4.8,0A3.31,3.31,0,0,0,957.42,481.8Z"/><path class="cls-5" d="M994,481.75a5.5,5.5,0,0,1,.44-2.17,5.72,5.72,0,0,1,1.23-1.78,6.16,6.16,0,0,1,1.8-1.2,5.48,5.48,0,0,1,4.35,0,6.16,6.16,0,0,1,1.8,1.2,5.56,5.56,0,0,1,1.23,1.78,5.48,5.48,0,0,1,0,4.35,5.52,5.52,0,0,1-1.23,1.77,6.16,6.16,0,0,1-1.8,1.2,5.48,5.48,0,0,1-4.35,0,6.16,6.16,0,0,1-1.8-1.2,5.68,5.68,0,0,1-1.23-1.77A5.51,5.51,0,0,1,994,481.75Zm2.3.05a3.32,3.32,0,0,0,.95,2.43,3.45,3.45,0,0,0,4.8,0,3.57,3.57,0,0,0,0-4.85,3.43,3.43,0,0,0-4.8,0A3.31,3.31,0,0,0,996.32,481.8Z"/><path class="cls-5" d="M1032.91,481.75a5.34,5.34,0,0,1,.45-2.17,5.56,5.56,0,0,1,1.23-1.78,6.16,6.16,0,0,1,1.8-1.2,5.48,5.48,0,0,1,4.35,0,6.16,6.16,0,0,1,1.8,1.2,5.53,5.53,0,0,1,1.22,1.78,5.48,5.48,0,0,1,0,4.35,5.49,5.49,0,0,1-1.22,1.77,6.16,6.16,0,0,1-1.8,1.2,5.48,5.48,0,0,1-4.35,0,6.16,6.16,0,0,1-1.8-1.2,5.52,5.52,0,0,1-1.23-1.77A5.35,5.35,0,0,1,1032.91,481.75Zm2.3.05a3.36,3.36,0,0,0,1,2.43,3.45,3.45,0,0,0,4.8,0,3.57,3.57,0,0,0,0-4.85,3.43,3.43,0,0,0-4.8,0A3.35,3.35,0,0,0,1035.21,481.8Z"/><path class="cls-5" d="M1071.81,481.75a5.34,5.34,0,0,1,.45-2.17,5.56,5.56,0,0,1,1.23-1.78,6,6,0,0,1,1.8-1.2,5.48,5.48,0,0,1,4.35,0,6.16,6.16,0,0,1,1.8,1.2,5.53,5.53,0,0,1,1.22,1.78,5.48,5.48,0,0,1,0,4.35,5.49,5.49,0,0,1-1.22,1.77,6.16,6.16,0,0,1-1.8,1.2,5.48,5.48,0,0,1-4.35,0,6,6,0,0,1-1.8-1.2,5.52,5.52,0,0,1-1.23-1.77A5.35,5.35,0,0,1,1071.81,481.75Zm2.3.05a3.36,3.36,0,0,0,1,2.43,3.45,3.45,0,0,0,4.8,0,3.57,3.57,0,0,0,0-4.85,3.43,3.43,0,0,0-4.8,0A3.35,3.35,0,0,0,1074.11,481.8Z"/><path class="cls-5" d="M1110.71,481.75a5.34,5.34,0,0,1,.45-2.17,5.56,5.56,0,0,1,1.23-1.78,5.91,5.91,0,0,1,1.8-1.2,5.48,5.48,0,0,1,4.35,0,6.16,6.16,0,0,1,1.8,1.2,5.7,5.7,0,0,1,1.22,1.78,5.48,5.48,0,0,1,0,4.35,5.65,5.65,0,0,1-1.22,1.77,6.16,6.16,0,0,1-1.8,1.2,5.48,5.48,0,0,1-4.35,0,5.91,5.91,0,0,1-1.8-1.2,5.52,5.52,0,0,1-1.23-1.77A5.35,5.35,0,0,1,1110.71,481.75Zm2.3.05a3.36,3.36,0,0,0,1,2.43,3.45,3.45,0,0,0,4.8,0,3.57,3.57,0,0,0,0-4.85,3.43,3.43,0,0,0-4.8,0A3.35,3.35,0,0,0,1113,481.8Z"/><path class="cls-5" d="M1149.61,481.75a5.34,5.34,0,0,1,.45-2.17,5.56,5.56,0,0,1,1.23-1.78,5.91,5.91,0,0,1,1.8-1.2,5.3,5.3,0,0,1,2.17-.45,5.39,5.39,0,0,1,2.18.45,6.16,6.16,0,0,1,1.8,1.2,5.7,5.7,0,0,1,1.22,1.78,5.48,5.48,0,0,1,0,4.35,5.65,5.65,0,0,1-1.22,1.77,6.16,6.16,0,0,1-1.8,1.2,5.39,5.39,0,0,1-2.18.45,5.3,5.3,0,0,1-2.17-.45,5.91,5.91,0,0,1-1.8-1.2,5.52,5.52,0,0,1-1.23-1.77A5.35,5.35,0,0,1,1149.61,481.75Zm2.3.05a3.36,3.36,0,0,0,.95,2.43,3.45,3.45,0,0,0,4.8,0,3.57,3.57,0,0,0,0-4.85,3.43,3.43,0,0,0-4.8,0A3.35,3.35,0,0,0,1151.91,481.8Z"/><path class="cls-1" d="M644.7,581.65a6.53,6.53,0,0,1-2.85,2.85,9,9,0,0,1-4,.85,7,7,0,0,1-5.08-1.72q-1.77-1.73-1.77-5.78v-20h6.9v18.55a4.6,4.6,0,0,0,.7,2.93,2.78,2.78,0,0,0,2.25.82q3.64,0,3.65-4.45V557.9h6.9v26.9h-6.6v-3.15Z"/><path class="cls-1" d="M662.6,557.9v3.6h.1a9.73,9.73,0,0,1,2.55-3.12,5.69,5.69,0,0,1,3.65-1.18l.62,0,.63.07v6.6c-.37,0-.73-.06-1.08-.07s-.71,0-1.07,0a7,7,0,0,0-1.8.25,4.93,4.93,0,0,0-1.65.83,4.07,4.07,0,0,0-1.2,1.5,5.16,5.16,0,0,0-.45,2.27V584.8H656V557.9Z"/><path class="cls-1" d="M679.8,548.7v5.9h-6.9v-5.9Zm0,9.2v26.9h-6.9V557.9Z"/><path class="cls-1" d="M689.69,576.9a4.18,4.18,0,0,0,.93,2.83,3.33,3.33,0,0,0,2.67,1.07,3.78,3.78,0,0,0,2.55-.8,2.93,2.93,0,0,0,.95-2.4,2.52,2.52,0,0,0-.75-2,5.86,5.86,0,0,0-1.75-1.08l-4.85-1.75a9.15,9.15,0,0,1-4.3-2.82,7.34,7.34,0,0,1-1.45-4.68,9,9,0,0,1,.55-3.12A6.69,6.69,0,0,1,686,559.6a8.88,8.88,0,0,1,3.08-1.75,14,14,0,0,1,4.52-.65c3.14,0,5.45.67,6.95,2a7.18,7.18,0,0,1,2.25,5.65V566h-6.2a5.48,5.48,0,0,0-.67-3.07,2.69,2.69,0,0,0-2.38-1,3.67,3.67,0,0,0-2.27.73,2.53,2.53,0,0,0-1,2.17,2.82,2.82,0,0,0,.63,1.8,4.74,4.74,0,0,0,2.37,1.35l4.15,1.4a9.38,9.38,0,0,1,4.6,2.88,7.77,7.77,0,0,1,1.35,4.82,8.59,8.59,0,0,1-.75,3.73,7.31,7.31,0,0,1-2.07,2.62,8.09,8.09,0,0,1-3.15,1.5,16.85,16.85,0,0,1-4,.45,17.71,17.71,0,0,1-4.82-.55,6.92,6.92,0,0,1-3.05-1.65,5.93,5.93,0,0,1-1.58-2.67,12.86,12.86,0,0,1-.45-3.53v-1h6.2Z"/><path class="cls-1" d="M713.44,557.9v2.75h.1a8.07,8.07,0,0,1,2.93-2.65,8.7,8.7,0,0,1,3.87-.8,7.05,7.05,0,0,1,4,1.1,5.33,5.33,0,0,1,2.17,3.2h.1a6.19,6.19,0,0,1,2.58-3.22,8,8,0,0,1,4.22-1.08,6,6,0,0,1,5.08,2.08,9.52,9.52,0,0,1,1.62,6V584.8h-6.9V566a4.52,4.52,0,0,0-.62-2.6,2.36,2.36,0,0,0-2.08-.9,3.33,3.33,0,0,0-2.62,1.1,5.21,5.21,0,0,0-1,3.5v17.7H720V566a4.52,4.52,0,0,0-.62-2.6,2.36,2.36,0,0,0-2.08-.9,3.33,3.33,0,0,0-2.62,1.1,5.21,5.21,0,0,0-1,3.5v17.7h-6.9V557.9Z"/><path class="cls-1" d="M744.69,565.5a9.1,9.1,0,0,1,.75-3.92,6.87,6.87,0,0,1,2-2.55,8,8,0,0,1,3-1.4,15,15,0,0,1,3.67-.43,17,17,0,0,1,5,.6,6.85,6.85,0,0,1,3,1.7,5.74,5.74,0,0,1,1.43,2.63,13.83,13.83,0,0,1,.37,3.32V579.6a18.49,18.49,0,0,0,.18,2.95,10.64,10.64,0,0,0,.67,2.25h-6.6a6,6,0,0,1-.52-1.37c-.12-.48-.23-1-.33-1.43h-.1a5.88,5.88,0,0,1-2.77,2.73,11.37,11.37,0,0,1-4.08.62,6.88,6.88,0,0,1-3.05-.62,5.18,5.18,0,0,1-2-1.73,7.8,7.8,0,0,1-1.1-2.47,11.23,11.23,0,0,1-.35-2.73,12.08,12.08,0,0,1,.4-3.27,6.35,6.35,0,0,1,1.23-2.35,6.79,6.79,0,0,1,2.1-1.63,17.26,17.26,0,0,1,3.07-1.15l3.9-1a4.07,4.07,0,0,0,2.15-1.1,3.06,3.06,0,0,0,.6-2,3.7,3.7,0,0,0-.72-2.42,3.07,3.07,0,0,0-2.48-.88,3,3,0,0,0-2.4,1,3.87,3.87,0,0,0-.8,2.55v.75h-6.2Zm11.1,6.73a9,9,0,0,1-1.45.47,5.3,5.3,0,0,0-3,1.5,4.23,4.23,0,0,0-.9,2.85,5.43,5.43,0,0,0,.6,2.65,2.09,2.09,0,0,0,2,1.1,5,5,0,0,0,1.45-.22,4,4,0,0,0,1.38-.73,3.61,3.61,0,0,0,1-1.3,4.13,4.13,0,0,0,.4-1.9v-5.3A6,6,0,0,1,755.79,572.23Z"/><path class="cls-1" d="M775.39,557.9v3.6h.1a9.73,9.73,0,0,1,2.55-3.12,5.71,5.71,0,0,1,3.65-1.18l.63,0,.62.07v6.6c-.36,0-.72-.06-1.07-.07s-.71,0-1.08,0a7,7,0,0,0-1.8.25,4.93,4.93,0,0,0-1.65.83,4.07,4.07,0,0,0-1.2,1.5,5.16,5.16,0,0,0-.45,2.27V584.8h-6.9V557.9Z"/><path class="cls-1" d="M793.84,550.2v7.7h4v4.7h-4v14.55a4.07,4.07,0,0,0,.48,2.28,2.28,2.28,0,0,0,2,.67l.8,0c.27,0,.52,0,.75-.08v4.8c-.76,0-1.51,0-2.22.08s-1.48.07-2.28.07a16.25,16.25,0,0,1-3.27-.27,3.31,3.31,0,0,1-2-1.1,4.8,4.8,0,0,1-.93-2.18,19.8,19.8,0,0,1-.25-3.4V562.6h-3.5v-4.7h3.5v-7.7Z"/><path class="cls-1" d="M807.24,584.8h-6.6V577h6.6Z"/><path class="cls-1" d="M818.14,574.55a14.76,14.76,0,0,0,.18,2.33,7.32,7.32,0,0,0,.57,2,3.88,3.88,0,0,0,1.05,1.4,2.46,2.46,0,0,0,1.6.52,2.78,2.78,0,0,0,2.55-1.25,9.26,9.26,0,0,0,1.1-3.8h6.2c-.13,3.14-1,5.52-2.5,7.15s-3.95,2.45-7.25,2.45a11.4,11.4,0,0,1-5.85-1.25,7.74,7.74,0,0,1-3.1-3.3,12.9,12.9,0,0,1-1.22-4.6c-.15-1.7-.23-3.4-.23-5.1a35.05,35.05,0,0,1,.38-5.2,12.58,12.58,0,0,1,1.5-4.45,8.15,8.15,0,0,1,3.22-3.1,11.76,11.76,0,0,1,5.6-1.15,10.92,10.92,0,0,1,4.93,1,7.44,7.44,0,0,1,3,2.75,11.56,11.56,0,0,1,1.5,4.3,35.69,35.69,0,0,1,.4,5.62v1.55H818.14Zm6.85-9a6.93,6.93,0,0,0-.52-2,2.78,2.78,0,0,0-1.05-1.25,3.15,3.15,0,0,0-1.73-.43,2.89,2.89,0,0,0-1.72.48,3.46,3.46,0,0,0-1.08,1.25,5.8,5.8,0,0,0-.57,1.72,10.27,10.27,0,0,0-.18,1.9v1h7.05C825.16,567.27,825.09,566.36,825,565.58Z"/><path class="cls-1" d="M849.09,581.65a6.43,6.43,0,0,1-2.85,2.85,9,9,0,0,1-4,.85,7,7,0,0,1-5.07-1.72q-1.78-1.73-1.78-5.78v-20h6.9v18.55a4.6,4.6,0,0,0,.7,2.93,2.8,2.8,0,0,0,2.25.82q3.64,0,3.65-4.45V557.9h6.9v26.9h-6.6v-3.15Z"/><path class="cls-1" d="M879.54,548.7v5.9h-6.9v-5.9Zm0,9.2v26.9h-6.9V557.9Z"/><path class="cls-1" d="M889.44,576.9a4.18,4.18,0,0,0,.93,2.83A3.3,3.3,0,0,0,893,580.8a3.78,3.78,0,0,0,2.55-.8,3,3,0,0,0,.95-2.4,2.52,2.52,0,0,0-.75-2,5.86,5.86,0,0,0-1.75-1.08l-4.85-1.75a9.15,9.15,0,0,1-4.3-2.82,7.29,7.29,0,0,1-1.45-4.68,8.76,8.76,0,0,1,.55-3.12,6.69,6.69,0,0,1,1.75-2.58,8.88,8.88,0,0,1,3.08-1.75,13.93,13.93,0,0,1,4.52-.65q4.7,0,6.95,2a7.18,7.18,0,0,1,2.25,5.65V566h-6.2a5.48,5.48,0,0,0-.67-3.07,2.7,2.7,0,0,0-2.38-1,3.65,3.65,0,0,0-2.27.73,2.53,2.53,0,0,0-1,2.17,2.82,2.82,0,0,0,.63,1.8A4.65,4.65,0,0,0,893,568l4.15,1.4a9.38,9.38,0,0,1,4.6,2.88,7.77,7.77,0,0,1,1.35,4.82,8.59,8.59,0,0,1-.75,3.73,7.31,7.31,0,0,1-2.07,2.62,8.22,8.22,0,0,1-3.15,1.5,16.85,16.85,0,0,1-4,.45,17.71,17.71,0,0,1-4.82-.55,6.86,6.86,0,0,1-3.05-1.65,5.93,5.93,0,0,1-1.58-2.67,12.86,12.86,0,0,1-.45-3.53v-1h6.2Z"/><path class="cls-1" d="M932.29,581.65a6.43,6.43,0,0,1-2.85,2.85,9,9,0,0,1-4,.85,7,7,0,0,1-5.08-1.72q-1.77-1.73-1.77-5.78v-20h6.9v18.55a4.6,4.6,0,0,0,.7,2.93,2.8,2.8,0,0,0,2.25.82q3.64,0,3.65-4.45V557.9H939v26.9h-6.6v-3.15Z"/><path class="cls-1" d="M950.19,557.9v3.15h.1a7,7,0,0,1,2.85-2.92,8.4,8.4,0,0,1,4-.93,6.79,6.79,0,0,1,5.07,1.8q1.78,1.8,1.78,5.85V584.8h-6.9V566.25a4.57,4.57,0,0,0-.7-2.92,2.81,2.81,0,0,0-2.25-.83c-2.43,0-3.65,1.49-3.65,4.45V584.8h-6.9V557.9Z"/><path class="cls-1" d="M982.29,582a6.92,6.92,0,0,1-2.58,2.65,7.48,7.48,0,0,1-3.52.75,6.8,6.8,0,0,1-6.25-3.25q-2-3.24-2-10.75t2-10.82a6.77,6.77,0,0,1,6.25-3.33,6.5,6.5,0,0,1,3.32.8,7.93,7.93,0,0,1,2.48,2.4h.1V549.1H989v35.7h-6.6V582Zm-6.78-4a3.07,3.07,0,0,0,5.9,0,32.61,32.61,0,0,0,0-13.25,3.07,3.07,0,0,0-5.9,0,33.09,33.09,0,0,0,0,13.25Z"/><path class="cls-1" d="M999.49,574.55a16.07,16.07,0,0,0,.17,2.33,7.69,7.69,0,0,0,.58,2,3.88,3.88,0,0,0,1,1.4,2.46,2.46,0,0,0,1.6.52,2.78,2.78,0,0,0,2.55-1.25,9.26,9.26,0,0,0,1.1-3.8h6.2c-.13,3.14-1,5.52-2.5,7.15s-4,2.45-7.25,2.45a11.4,11.4,0,0,1-5.85-1.25,7.74,7.74,0,0,1-3.1-3.3,12.9,12.9,0,0,1-1.23-4.6c-.15-1.7-.22-3.4-.22-5.1a35.07,35.07,0,0,1,.37-5.2,12.58,12.58,0,0,1,1.5-4.45,8.18,8.18,0,0,1,3.23-3.1,11.76,11.76,0,0,1,5.6-1.15,10.85,10.85,0,0,1,4.92,1,7.4,7.4,0,0,1,3,2.75,11.56,11.56,0,0,1,1.5,4.3,35.69,35.69,0,0,1,.4,5.62v1.55H999.49Zm6.85-9a6.92,6.92,0,0,0-.53-2,2.78,2.78,0,0,0-1-1.25,3.11,3.11,0,0,0-1.72-.43,2.92,2.92,0,0,0-1.73.48,3.53,3.53,0,0,0-1.07,1.25,6.11,6.11,0,0,0-.58,1.72,11.18,11.18,0,0,0-.17,1.9v1h7C1006.51,567.27,1006.44,566.36,1006.34,565.58Z"/><path class="cls-1" d="M1023.34,557.9v3.6h.1a9.73,9.73,0,0,1,2.55-3.12,5.71,5.71,0,0,1,3.65-1.18l.62,0,.63.07v6.6c-.37,0-.73-.06-1.08-.07s-.7,0-1.07,0a7,7,0,0,0-1.8.25,4.93,4.93,0,0,0-1.65.83,4.07,4.07,0,0,0-1.2,1.5,5.16,5.16,0,0,0-.45,2.27V584.8h-6.9V557.9Z"/><path class="cls-1" d="M1058.21,565.65a6.48,6.48,0,0,0-.45-1.72,3,3,0,0,0-.92-1.25,2.48,2.48,0,0,0-1.6-.48,3.38,3.38,0,0,0-2,.58,3.46,3.46,0,0,0-1.2,1.7,11.52,11.52,0,0,0-.55,2.85c-.1,1.15-.15,2.51-.15,4.07s0,3.1.15,4.28a12,12,0,0,0,.55,2.92,3.39,3.39,0,0,0,1.12,1.68,3.14,3.14,0,0,0,1.88.52,2.68,2.68,0,0,0,2.55-1.5,10.79,10.79,0,0,0,.8-4.8h6.6q0,5.31-2.38,8.08t-7.87,2.77a15,15,0,0,1-4.53-.62,6.63,6.63,0,0,1-3.2-2.25,11.16,11.16,0,0,1-1.92-4.35,30,30,0,0,1-.65-6.78,25,25,0,0,1,.8-6.87,11,11,0,0,1,2.25-4.35,7.78,7.78,0,0,1,3.45-2.28,14.26,14.26,0,0,1,4.4-.65c3.2,0,5.61.94,7.22,2.8a11.2,11.2,0,0,1,2.43,7.6h-6.6A14,14,0,0,0,1058.21,565.65Z"/><path class="cls-1" d="M1081.94,570.9v.45a23.37,23.37,0,0,1-.8,7.25,2.93,2.93,0,0,1-2.9,2.2,2.79,2.79,0,0,1-2-.7,4.22,4.22,0,0,1-1.13-2,13.3,13.3,0,0,1-.47-3c-.07-1.16-.1-2.43-.1-3.8s0-2.63.1-3.8a13.49,13.49,0,0,1,.47-3,4.33,4.33,0,0,1,1.13-1.95,2.11,2.11,0,0,1,.61-.41c-.86-1.48-1.72-3-2.6-4.44a8.86,8.86,0,0,0-1,.38,7.92,7.92,0,0,0-3.27,2.7,11.54,11.54,0,0,0-1.8,4.42,30,30,0,0,0-.55,6.1,33.3,33.3,0,0,0,.5,6.18,11.72,11.72,0,0,0,1.7,4.45,7,7,0,0,0,3.25,2.6,13.19,13.19,0,0,0,5.15.77,12.77,12.77,0,0,0,5-.85,7.47,7.47,0,0,0,3.28-2.62,9.38,9.38,0,0,0,.9-1.59Q1084.67,575.6,1081.94,570.9Z"/><path class="cls-6" d="M1088.84,571.35a30.68,30.68,0,0,1-.55,6.1,13.72,13.72,0,0,1-.9,2.84q-2.72-4.69-5.45-9.39v0a22.61,22.61,0,0,0-.8-6.78,2.94,2.94,0,0,0-2.9-2.2,3.16,3.16,0,0,0-1.39.29c-.86-1.48-1.72-3-2.6-4.44a13,13,0,0,1,4-.55,12.78,12.78,0,0,1,5.15.83,7.22,7.22,0,0,1,3.25,2.67,12.1,12.1,0,0,1,1.7,4.45A34.18,34.18,0,0,1,1088.84,571.35Z"/><path class="cls-6" d="M1099.14,557.9v3.15h.1a7,7,0,0,1,2.85-2.92,8.37,8.37,0,0,1,4-.93,6.79,6.79,0,0,1,5.07,1.8q1.78,1.8,1.78,5.85V584.8H1106V566.25a4.63,4.63,0,0,0-.7-2.92,2.81,2.81,0,0,0-2.25-.83c-2.44,0-3.65,1.49-3.65,4.45V584.8h-6.9V557.9Z"/><path class="cls-6" d="M1122.59,576.9a4.22,4.22,0,0,0,.92,2.83,3.33,3.33,0,0,0,2.68,1.07,3.82,3.82,0,0,0,2.55-.8,3,3,0,0,0,1-2.4,2.52,2.52,0,0,0-.75-2,6,6,0,0,0-1.75-1.08l-4.85-1.75A9.1,9.1,0,0,1,1118,570a7.29,7.29,0,0,1-1.45-4.68,8.76,8.76,0,0,1,.55-3.12,6.59,6.59,0,0,1,1.75-2.58,8.83,8.83,0,0,1,3.07-1.75,14,14,0,0,1,4.53-.65q4.69,0,7,2a7.18,7.18,0,0,1,2.25,5.65V566h-6.2a5.47,5.47,0,0,0-.68-3.07,2.68,2.68,0,0,0-2.37-1,3.68,3.68,0,0,0-2.28.73,2.53,2.53,0,0,0-1,2.17,2.87,2.87,0,0,0,.62,1.8,4.73,4.73,0,0,0,2.38,1.35l4.15,1.4a9.43,9.43,0,0,1,4.6,2.88,7.77,7.77,0,0,1,1.35,4.82,8.59,8.59,0,0,1-.75,3.73,7.23,7.23,0,0,1-2.08,2.62,8.09,8.09,0,0,1-3.15,1.5,16.77,16.77,0,0,1-4,.45,17.78,17.78,0,0,1-4.83-.55,6.92,6.92,0,0,1-3-1.65,5.92,5.92,0,0,1-1.57-2.67,12.86,12.86,0,0,1-.45-3.53v-1h6.2Z"/><path class="cls-6" d="M1148.14,550.2v7.7h4v4.7h-4v14.55a4.08,4.08,0,0,0,.47,2.28,2.32,2.32,0,0,0,2,.67l.8,0c.26,0,.51,0,.75-.08v4.8c-.77,0-1.51,0-2.23.08s-1.47.07-2.27.07a16.29,16.29,0,0,1-3.28-.27,3.31,3.31,0,0,1-1.95-1.1,4.68,4.68,0,0,1-.92-2.18,18.84,18.84,0,0,1-.25-3.4V562.6h-3.5v-4.7h3.5v-7.7Z"/><path class="cls-6" d="M1161.14,557.9v3.6h.1a9.73,9.73,0,0,1,2.55-3.12,5.69,5.69,0,0,1,3.65-1.18l.62,0,.63.07v6.6c-.37,0-.73-.06-1.08-.07s-.71,0-1.07,0a7,7,0,0,0-1.8.25,4.93,4.93,0,0,0-1.65.83,4.07,4.07,0,0,0-1.2,1.5,5.16,5.16,0,0,0-.45,2.27V584.8h-6.9V557.9Z"/><path class="cls-6" d="M1184.89,581.65a6.53,6.53,0,0,1-2.85,2.85,9,9,0,0,1-4,.85,7,7,0,0,1-5.08-1.72q-1.77-1.73-1.77-5.78v-20h6.9v18.55a4.6,4.6,0,0,0,.7,2.93,2.78,2.78,0,0,0,2.25.82q3.64,0,3.65-4.45V557.9h6.9v26.9H1185v-3.15Z"/><path class="cls-6" d="M1209,565.65a6.48,6.48,0,0,0-.45-1.72,3.09,3.09,0,0,0-.92-1.25,2.5,2.5,0,0,0-1.6-.48,3.16,3.16,0,0,0-3.25,2.28,11.52,11.52,0,0,0-.55,2.85c-.1,1.15-.15,2.51-.15,4.07s.05,3.1.15,4.28a12,12,0,0,0,.55,2.92,3.32,3.32,0,0,0,1.12,1.68,3.12,3.12,0,0,0,1.88.52,2.7,2.7,0,0,0,2.55-1.5,10.79,10.79,0,0,0,.8-4.8h6.6c0,3.54-.8,6.23-2.38,8.08s-4.21,2.77-7.87,2.77a14.9,14.9,0,0,1-4.53-.62,6.63,6.63,0,0,1-3.2-2.25,11.16,11.16,0,0,1-1.92-4.35,29.48,29.48,0,0,1-.65-6.78,24.57,24.57,0,0,1,.8-6.87,11,11,0,0,1,2.25-4.35,7.72,7.72,0,0,1,3.45-2.28,14.26,14.26,0,0,1,4.4-.65c3.2,0,5.6.94,7.22,2.8a11.2,11.2,0,0,1,2.43,7.6h-6.6A15.7,15.7,0,0,0,1209,565.65Z"/><path class="cls-6" d="M1227.74,550.2v7.7h4v4.7h-4v14.55a4.08,4.08,0,0,0,.47,2.28,2.32,2.32,0,0,0,2,.67l.8,0c.26,0,.51,0,.75-.08v4.8c-.77,0-1.51,0-2.23.08s-1.47.07-2.27.07a16.29,16.29,0,0,1-3.28-.27,3.31,3.31,0,0,1-2-1.1,4.68,4.68,0,0,1-.92-2.18,18.84,18.84,0,0,1-.25-3.4V562.6h-3.5v-4.7h3.5v-7.7Z"/><path class="cls-6" d="M1241.29,548.7v5.9h-6.9v-5.9Zm0,9.2v26.9h-6.9V557.9Z"/><path class="cls-6" d="M1245.79,565.25a11.54,11.54,0,0,1,1.8-4.42,7.92,7.92,0,0,1,3.27-2.7,11.9,11.9,0,0,1,5-.93,12.78,12.78,0,0,1,5.15.83,7.22,7.22,0,0,1,3.25,2.67,12.1,12.1,0,0,1,1.7,4.45,34.18,34.18,0,0,1,.5,6.2,29.9,29.9,0,0,1-.56,6.1,11.67,11.67,0,0,1-1.79,4.43,7.47,7.47,0,0,1-3.28,2.62,12.8,12.8,0,0,1-5,.85,13.16,13.16,0,0,1-5.15-.77,7,7,0,0,1-3.25-2.6,11.56,11.56,0,0,1-1.7-4.45,33.3,33.3,0,0,1-.5-6.18A30,30,0,0,1,1245.79,565.25Zm6.45,9.9a12.76,12.76,0,0,0,.47,3,4.22,4.22,0,0,0,1.13,2,2.79,2.79,0,0,0,2,.7,2.93,2.93,0,0,0,2.9-2.2,33.25,33.25,0,0,0,0-14.5,2.94,2.94,0,0,0-2.9-2.2,2.83,2.83,0,0,0-2,.7,4.33,4.33,0,0,0-1.13,1.95,12.94,12.94,0,0,0-.47,3c-.07,1.17-.11,2.44-.11,3.8S1252.17,574,1252.24,575.15Z"/><path class="cls-6" d="M1276.74,557.9v3.15h.1a7,7,0,0,1,2.85-2.92,8.37,8.37,0,0,1,4-.93,6.81,6.81,0,0,1,5.07,1.8c1.18,1.2,1.78,3.15,1.78,5.85V584.8h-6.91V566.25a4.64,4.64,0,0,0-.69-2.92,2.81,2.81,0,0,0-2.25-.83c-2.44,0-3.65,1.49-3.65,4.45V584.8h-6.91V557.9Z"/><path class="cls-3" d="M1768.94,586.07a52.53,52.53,0,0,0,10-.88,17.38,17.38,0,0,0,7.57-3.29,16.07,16.07,0,0,0,4.82-6.47,25.75,25.75,0,0,0,1.76-10.2,20.15,20.15,0,0,0-4.72-13q-4.71-5.81-14.58-5.82a26.18,26.18,0,0,0-9.1,1.43,18.2,18.2,0,0,0-6.9,4.71,33.37,33.37,0,0,0-5.59,8.67,123.28,123.28,0,0,0-5.16,13.26,112.25,112.25,0,0,1-7.67,18.2,49,49,0,0,1-9.76,12.83,34.77,34.77,0,0,1-12.94,7.56,54.33,54.33,0,0,1-17,2.42q-23.24,0-34.64-12.94T1653.6,567a76.84,76.84,0,0,1,2.31-19.4,40.7,40.7,0,0,1,7.45-15.36,34.88,34.88,0,0,1,13.16-10.08q8-3.63,19.18-3.62h4.39v30.26q-11.19,0-17.21,4t-6,13.15a22,22,0,0,0,1.53,8.78,14.89,14.89,0,0,0,4.06,5.58,14.09,14.09,0,0,0,5.81,2.86,30.48,30.48,0,0,0,6.8.76,22.51,22.51,0,0,0,12.17-3.07q4.93-3.06,9.09-13.15l10.53-24.34a74.35,74.35,0,0,1,8.22-14.69,39.76,39.76,0,0,1,9.21-9.1,30.66,30.66,0,0,1,10.86-4.71,59.87,59.87,0,0,1,13.15-1.32q24.78,0,36.07,14.36t11.29,40q0,26.75-11.62,38.26t-33.33,11.51h-6.36V586.07Z"/><path class="cls-3" d="M1695.27,469.64h12v-.44q-8.1-5.7-11.62-12.83a38.24,38.24,0,0,1-3.51-17q0-10.53,4.83-17.65a23.42,23.42,0,0,1,14-9.54v-.44a26.83,26.83,0,0,1-14.14-11.29,35.13,35.13,0,0,1-4.72-18.53q0-15.14,9.11-22.26t26.2-7.12h85.73v30.26h-82.44c-5,0-8.78.91-11.4,2.74s-4,4.86-4,9.1q0,7.23,4.82,11.51t15.35,4.28h77.62v30.25h-82.44c-5,0-8.78.92-11.4,2.74s-4,4.87-4,9.1q0,7.25,4.82,11.51t15.35,4.28h77.62v30.26h-118Z"/><path class="cls-3" d="M1728.59,332.6q-10.3,0-17.21-3.29a30.23,30.23,0,0,1-11.18-8.88,35.28,35.28,0,0,1-6.14-13.16,67.27,67.27,0,0,1-1.87-16.12q0-13.59,2.64-21.92t7.45-12.94a25.1,25.1,0,0,1,11.51-6.25,61.34,61.34,0,0,1,14.58-1.64h62.06a83.61,83.61,0,0,0,12.93-.77,45.2,45.2,0,0,0,9.87-3v28.94a24.74,24.74,0,0,1-6,2.31q-3.18.76-6.25,1.42v.44q9.21,5.27,12,12.17t2.74,17.87a29.61,29.61,0,0,1-2.74,13.37,22.52,22.52,0,0,1-7.57,8.77,33.66,33.66,0,0,1-10.85,4.83,48.42,48.42,0,0,1-12,1.53,51.8,51.8,0,0,1-14.36-1.75,27.75,27.75,0,0,1-10.31-5.37,29.39,29.39,0,0,1-7.12-9.21,72.8,72.8,0,0,1-5-13.49l-4.61-17.1q-1.75-6.79-4.82-9.43c-2-1.75-5-2.63-9-2.63q-6.79,0-10.64,3.18t-3.83,10.85q0,7,4.16,10.53t11.19,3.51h3.28V332.6Zm29.5-48.68a42.78,42.78,0,0,1,2.08,6.36q2,9.21,6.58,13.15t12.49,3.95a24,24,0,0,0,11.63-2.63q4.82-2.64,4.82-8.77a22,22,0,0,0-1-6.36,17.68,17.68,0,0,0-3.18-6,16.7,16.7,0,0,0-5.7-4.49,18.38,18.38,0,0,0-8.33-1.76h-23.24A27.47,27.47,0,0,1,1758.09,283.92Z"/><path class="cls-3" d="M1695.27,198h15.78v-.44a42.8,42.8,0,0,1-13.7-11.18,25.21,25.21,0,0,1-5.16-16c0-.88,0-1.79.11-2.74s.19-1.86.33-2.74h28.95q-.22,2.41-.33,4.71c-.07,1.54-.11,3.11-.11,4.72a29.39,29.39,0,0,0,1.1,7.89,21.22,21.22,0,0,0,3.61,7.24,18.29,18.29,0,0,0,6.58,5.26,22.65,22.65,0,0,0,10,2h70.82v30.26h-118Z"/><path class="cls-3" d="M1661.5,108.29h33.77V90.75h20.61v17.54h63.8q7,0,10-2.08c2-1.39,3-4.27,3-8.66,0-1.17,0-2.34-.11-3.51s-.18-2.26-.33-3.29h21q0,5.06.33,9.76t.33,10a70.37,70.37,0,0,1-1.21,14.36,14.58,14.58,0,0,1-4.82,8.55,20.78,20.78,0,0,1-9.54,4.06,84.22,84.22,0,0,1-14.91,1.09h-67.53V153.9h-20.61V138.55H1661.5Z"/><path class="cls-5" d="M1766,884.43a71.11,71.11,0,0,0,10.86-.77,24.62,24.62,0,0,0,8.55-2.85,15.29,15.29,0,0,0,5.7-5.7,21.19,21.19,0,0,0,0-18.31,15.6,15.6,0,0,0-5.7-5.59,24.62,24.62,0,0,0-8.55-2.85,71.11,71.11,0,0,0-10.86-.77H1656.79V816H1766q14.93,0,24.67,4.16a39.41,39.41,0,0,1,15.46,11.18,38,38,0,0,1,7.67,16,86.49,86.49,0,0,1,2,18.64,97.16,97.16,0,0,1-1.75,18.64,37.84,37.84,0,0,1-7.12,16q-5.39,7-15.24,11.19T1766,916H1656.79V884.43Z"/><path class="cls-5" d="M1656.79,737.74q0-19.74,10-30.7t30.36-11q15.8,0,25.77,6.36t12.83,19.73h.43q1.75-11.83,7.68-17.32t19.07-6.8q4.39-.43,9.54-.65c3.44-.15,7.27-.29,11.51-.45q12.49-.44,19.08-1.31,6.57-1.3,9-5.7h1.31v34.21a17,17,0,0,1-7.56,3.07,85.62,85.62,0,0,1-8.88.87l-30,.88c-6.14.3-11,1.82-14.47,4.6s-5.26,7.46-5.26,14v16.88h66.21v31.58H1656.79Zm68.41,13.59q0-11.4-5.37-17.54t-18.09-6.14q-21.71,0-21.71,21.93v14.9h45.17Z"/><path class="cls-5" d="M1656.79,672.61V641.05h156.55v31.56Z"/><path class="cls-5" d="M1678.38,90.75a16.07,16.07,0,0,1-6.56-1.34,17.18,17.18,0,0,1-9-9,16.7,16.7,0,0,1,0-13.11,17.18,17.18,0,0,1,9-9,16.7,16.7,0,0,1,13.11,0,17.18,17.18,0,0,1,9,9,16.7,16.7,0,0,1,0,13.11,17.18,17.18,0,0,1-9,9A16,16,0,0,1,1678.38,90.75Zm0-2.45a14.14,14.14,0,0,0,5.62-1.13,14.49,14.49,0,0,0,7.67-7.67,14.57,14.57,0,0,0,0-11.25,14.49,14.49,0,0,0-7.67-7.67,14.57,14.57,0,0,0-11.25,0,14.49,14.49,0,0,0-7.67,7.67,14.57,14.57,0,0,0,0,11.25,14.49,14.49,0,0,0,7.67,7.67A14.15,14.15,0,0,0,1678.38,88.3ZM1688,77.55V80h-19.46V72.51c0-2.2.46-3.78,1.38-4.71a5.38,5.38,0,0,1,4-1.41,6.13,6.13,0,0,1,2.31.39,4.61,4.61,0,0,1,1.61,1.06,5.06,5.06,0,0,1,1,1.57,8.21,8.21,0,0,1,.57,1.88l8.53-5.81v2.77l-8.53,5.81v3.49Zm-10.71,0V74.42c0-.67,0-1.33-.07-2a5.53,5.53,0,0,0-.4-1.8,3.13,3.13,0,0,0-1-1.29,3.09,3.09,0,0,0-1.88-.5,3,3,0,0,0-1.57.38,3.12,3.12,0,0,0-1,1,4.63,4.63,0,0,0-.52,1.41,8.43,8.43,0,0,0-.16,1.56v4.36Z"/></svg>