<?xml version="1.0" encoding="utf-8"?>
<!-- Generator: Adobe Illustrator 22.1.0, SVG Export Plug-In . SVG Version: 6.00 Build 0)  -->
<svg version="1.1" id="Layer_1" xmlns="http://www.w3.org/2000/svg" xmlns:xlink="http://www.w3.org/1999/xlink" x="0px" y="0px"
	 viewBox="0 0 1910 921" style="enable-background:new 0 0 1910 921;" xml:space="preserve">
<style type="text/css">
	.st0{fill:#99CC99;}
	.st1{fill:#FFEE90;}
	.st2{fill:#666666;}
	.st3{fill:#FFFFFF;}
	.st4{fill:url(#SVGID_1_);}
	.st5{fill:url(#SVGID_2_);}
	.st6{fill:#FFCC00;}
</style>
<g>
	<rect x="0" y="768" class="st2" width="1910" height="153.3"/>
	<g>
		<path class="st0" d="M1501.5,2.1c-104.6-9.7-199.9,21-290.4,70.1c-116.5,63.2-230.4,132-344.6,199.8
			C701.8,369.9,535.8,464.4,358,531.6C248.7,572.9,6,626.4,0.1,627.8H0v140.5h1910V248.7C1814.1,111.6,1666.8,17.6,1501.5,2.1z"/>
	</g>
	<g>
		<g>
			<path class="st6" d="M479,841.1c0,0.7,0.1,1.4,0.2,1.9c0.1,0.6,0.3,1.1,0.6,1.5c0.3,0.4,0.7,0.7,1.3,0.9c0.5,0.2,1.2,0.3,2,0.3
				c0.9,0,1.8-0.3,2.5-0.9c0.7-0.6,1.1-1.6,1.1-2.8c0-0.7-0.1-1.3-0.3-1.8c-0.2-0.5-0.5-0.9-0.9-1.3c-0.4-0.4-1-0.8-1.7-1.1
				c-0.7-0.3-1.6-0.7-2.6-1c-1.4-0.5-2.5-0.9-3.5-1.5c-1-0.5-1.8-1.2-2.5-1.9c-0.7-0.7-1.2-1.6-1.5-2.5c-0.3-0.9-0.5-2-0.5-3.3
				c0-3,0.8-5.2,2.5-6.7c1.7-1.5,4-2.2,6.9-2.2c1.4,0,2.6,0.1,3.8,0.4c1.1,0.3,2.1,0.8,3,1.4c0.8,0.7,1.5,1.5,2,2.5
				c0.5,1,0.7,2.3,0.7,3.7v0.8h-5.9c0-1.4-0.3-2.6-0.8-3.3c-0.5-0.8-1.4-1.2-2.5-1.2c-0.7,0-1.2,0.1-1.7,0.3
				c-0.5,0.2-0.8,0.5-1.1,0.8c-0.3,0.3-0.5,0.7-0.6,1.1c-0.1,0.4-0.1,0.9-0.1,1.3c0,0.9,0.2,1.7,0.6,2.4c0.4,0.6,1.2,1.2,2.5,1.8
				l4.7,2c1.2,0.5,2.1,1,2.8,1.6c0.7,0.6,1.3,1.1,1.8,1.8c0.4,0.6,0.7,1.3,0.9,2.1c0.2,0.8,0.3,1.6,0.3,2.5c0,3.2-0.9,5.5-2.8,7
				c-1.9,1.5-4.4,2.2-7.8,2.2c-3.5,0-5.9-0.8-7.4-2.3c-1.5-1.5-2.2-3.7-2.2-6.5v-1.2h6.1V841.1z"/>
			<path class="st6" d="M501.5,826.8v2.3h0.1c0.7-1,1.6-1.8,2.5-2.3c0.9-0.5,2-0.7,3.3-0.7c1.4,0,2.5,0.3,3.4,0.9
				c0.9,0.6,1.5,1.5,1.8,2.7h0.1c0.5-1.2,1.2-2.1,2.2-2.7c1-0.6,2.2-0.9,3.6-0.9c2,0,3.4,0.6,4.3,1.8c0.9,1.2,1.4,2.9,1.4,5.1v16.6
				h-5.9v-16c0-1-0.2-1.7-0.5-2.2c-0.4-0.5-0.9-0.8-1.8-0.8c-0.9,0-1.7,0.3-2.2,0.9c-0.6,0.6-0.8,1.6-0.8,3v15h-5.9v-16
				c0-1-0.2-1.7-0.5-2.2c-0.4-0.5-0.9-0.8-1.8-0.8c-0.9,0-1.7,0.3-2.2,0.9c-0.6,0.6-0.8,1.6-0.8,3v15h-5.9v-22.9H501.5z"/>
			<path class="st6" d="M528.1,833.3c0-1.3,0.2-2.4,0.6-3.3c0.4-0.9,1-1.6,1.7-2.2c0.7-0.6,1.6-0.9,2.6-1.2c1-0.2,2-0.4,3.1-0.4
				c1.8,0,3.2,0.2,4.2,0.5c1.1,0.3,1.9,0.8,2.5,1.4c0.6,0.6,1,1.4,1.2,2.2c0.2,0.9,0.3,1.8,0.3,2.8v12c0,1.1,0,1.9,0.1,2.5
				c0.1,0.6,0.3,1.2,0.6,1.9h-5.6c-0.2-0.4-0.3-0.8-0.4-1.2c-0.1-0.4-0.2-0.8-0.3-1.2h-0.1c-0.7,1.2-1.5,2-2.4,2.3
				c-0.9,0.4-2,0.5-3.5,0.5c-1,0-1.9-0.2-2.6-0.5c-0.7-0.4-1.3-0.8-1.7-1.5c-0.4-0.6-0.7-1.3-0.9-2.1c-0.2-0.8-0.3-1.6-0.3-2.3
				c0-1.1,0.1-2,0.3-2.8c0.2-0.8,0.6-1.4,1-2c0.5-0.6,1.1-1,1.8-1.4c0.7-0.4,1.6-0.7,2.6-1l3.3-0.9c0.9-0.2,1.5-0.5,1.8-0.9
				c0.3-0.4,0.5-1,0.5-1.7c0-0.9-0.2-1.6-0.6-2.1c-0.4-0.5-1.1-0.7-2.1-0.7c-0.9,0-1.6,0.3-2,0.8c-0.5,0.5-0.7,1.3-0.7,2.2v0.6h-5.3
				V833.3z M537.5,839c-0.5,0.2-0.9,0.3-1.2,0.4c-1.2,0.3-2,0.7-2.5,1.3c-0.5,0.6-0.8,1.4-0.8,2.4c0,0.9,0.2,1.6,0.5,2.3
				c0.3,0.6,0.9,0.9,1.7,0.9c0.4,0,0.8-0.1,1.2-0.2c0.4-0.1,0.8-0.3,1.2-0.6c0.4-0.3,0.6-0.7,0.9-1.1c0.2-0.5,0.3-1,0.3-1.6v-4.5
				C538.4,838.6,538,838.8,537.5,839z"/>
			<path class="st6" d="M554.2,826.8v3.1h0.1c0.6-1.1,1.3-2,2.2-2.7c0.8-0.7,1.9-1,3.1-1c0.2,0,0.3,0,0.5,0c0.2,0,0.4,0,0.5,0.1v5.6
				c-0.3,0-0.6,0-0.9-0.1c-0.3,0-0.6,0-0.9,0c-0.5,0-1,0.1-1.5,0.2c-0.5,0.1-1,0.4-1.4,0.7c-0.4,0.3-0.8,0.8-1,1.3
				c-0.3,0.5-0.4,1.2-0.4,1.9v13.7h-5.9v-22.9H554.2z"/>
			<path class="st6" d="M571.6,820.3v6.5h3.4v4h-3.4v12.4c0,0.9,0.1,1.6,0.4,1.9c0.3,0.4,0.8,0.6,1.7,0.6c0.2,0,0.5,0,0.7,0
				c0.2,0,0.4,0,0.6-0.1v4.1c-0.7,0-1.3,0-1.9,0.1c-0.6,0-1.3,0.1-1.9,0.1c-1.1,0-2.1-0.1-2.8-0.2c-0.7-0.2-1.3-0.5-1.7-0.9
				c-0.4-0.5-0.6-1.1-0.8-1.8c-0.1-0.8-0.2-1.7-0.2-2.9v-13.1h-3v-4h3v-6.5H571.6z"/>
		</g>
		<g>
			<g>
				<path class="st0" d="M421.1,840.6c0,0.8,0,1.5,0.1,2.1c0.1,0.6,0.3,1.2,0.6,1.7c0.3,0.5,0.6,0.8,1.1,1.1
					c0.5,0.3,1.1,0.4,1.8,0.4c0.7,0,1.3-0.1,1.8-0.4c0.5-0.3,0.8-0.6,1.1-1.1c0.3-0.5,0.5-1,0.6-1.7c0.1-0.6,0.1-1.3,0.1-2.1v-21.2
					h6.1v21.2c0,1.9-0.3,3.5-0.8,4.8c-0.5,1.3-1.3,2.3-2.2,3c-0.9,0.7-1.9,1.2-3.1,1.5c-1.2,0.3-2.4,0.4-3.6,0.4
					c-1.2,0-2.5-0.1-3.6-0.3c-1.2-0.2-2.2-0.7-3.1-1.4c-0.9-0.7-1.6-1.7-2.2-3c-0.5-1.3-0.8-2.9-0.8-5v-21.2h6.1V840.6z"/>
				<path class="st0" d="M449.6,819.4c2.5,0,4.5,0.6,6,1.9c1.4,1.3,2.1,3.3,2.1,5.9c0,2-0.4,3.7-1.2,5c-0.8,1.3-2.1,2.1-3.8,2.5v0.1
					c1.5,0.2,2.6,0.7,3.4,1.5c0.7,0.8,1.1,2,1.3,3.7c0.1,0.6,0.1,1.2,0.1,1.8c0,0.7,0.1,1.4,0.1,2.2c0.1,1.6,0.1,2.8,0.3,3.7
					c0.2,0.8,0.5,1.4,1.1,1.7v0.3h-6.6c-0.3-0.4-0.5-0.9-0.6-1.5c-0.1-0.6-0.1-1.1-0.2-1.7l-0.2-5.8c-0.1-1.2-0.4-2.1-0.9-2.8
					c-0.5-0.7-1.4-1-2.7-1h-3.3v12.8h-6.1v-30.3H449.6z M446.9,832.6c1.5,0,2.6-0.3,3.4-1c0.8-0.7,1.2-1.9,1.2-3.5
					c0-2.8-1.4-4.2-4.3-4.2h-2.9v8.8H446.9z"/>
				<path class="st0" d="M462.2,819.4h6.1v30.3h-6.1V819.4z"/>
			</g>
			<g>
				<path class="st0" d="M575,823.6c0-0.5,0.1-0.9,0.3-1.3c0.2-0.4,0.4-0.7,0.7-1c0.3-0.3,0.6-0.5,1-0.7s0.8-0.3,1.3-0.3
					c0.5,0,0.9,0.1,1.3,0.3s0.7,0.4,1,0.7c0.3,0.3,0.5,0.6,0.7,1c0.2,0.4,0.3,0.8,0.3,1.3c0,0.5-0.1,0.9-0.3,1.3
					c-0.2,0.4-0.4,0.7-0.7,1c-0.3,0.3-0.6,0.5-1,0.7c-0.4,0.2-0.8,0.3-1.3,0.3c-0.5,0-0.9-0.1-1.3-0.3c-0.4-0.2-0.7-0.4-1-0.7
					c-0.3-0.3-0.5-0.6-0.7-1C575,824.4,575,824,575,823.6z M575.4,823.6c0,0.4,0.1,0.8,0.2,1.1c0.1,0.3,0.3,0.6,0.6,0.9
					c0.3,0.3,0.5,0.5,0.9,0.6c0.3,0.1,0.7,0.2,1.1,0.2c0.4,0,0.8-0.1,1.1-0.2c0.3-0.1,0.6-0.3,0.9-0.6c0.3-0.3,0.5-0.5,0.6-0.9
					c0.1-0.3,0.2-0.7,0.2-1.1s-0.1-0.8-0.2-1.1c-0.1-0.3-0.3-0.6-0.6-0.9c-0.3-0.3-0.5-0.5-0.9-0.6c-0.3-0.1-0.7-0.2-1.1-0.2
					c-0.4,0-0.8,0.1-1.1,0.2c-0.3,0.1-0.6,0.3-0.9,0.6c-0.3,0.3-0.5,0.5-0.6,0.9C575.5,822.8,575.4,823.2,575.4,823.6z M577.5,825.4
					H577v-3.8h1.5c0.4,0,0.7,0.1,0.9,0.3c0.2,0.2,0.3,0.4,0.3,0.8c0,0.2,0,0.3-0.1,0.4c0,0.1-0.1,0.2-0.2,0.3
					c-0.1,0.1-0.2,0.2-0.3,0.2c-0.1,0.1-0.2,0.1-0.4,0.1l1.1,1.7h-0.5l-1.1-1.7h-0.7V825.4z M577.5,823.4h0.6c0.1,0,0.3,0,0.4,0
					c0.1,0,0.2,0,0.3-0.1c0.1,0,0.2-0.1,0.3-0.2c0.1-0.1,0.1-0.2,0.1-0.4c0-0.1,0-0.2-0.1-0.3c-0.1-0.1-0.1-0.1-0.2-0.2
					c-0.1,0-0.2-0.1-0.3-0.1c-0.1,0-0.2,0-0.3,0h-0.8V823.4z"/>
			</g>
		</g>
	</g>
	<g>
		<path class="st1" d="M416.7,855.4c0.5-0.8,1.2-1.1,2.1-1.1c0.8,0,1.4,0.3,1.9,1c0.5,0.7,0.8,1.6,0.8,2.7c0,0.8-0.1,1.5-0.4,2.2
			c-0.3,0.7-0.8,1.7-1.6,2.9l-2,3.1v0.1h4.1v1.5H416v-1.1l3-4.8c0.6-0.9,0.9-1.6,1.1-2.1s0.3-1,0.3-1.6c0-0.7-0.1-1.3-0.4-1.7
			c-0.3-0.5-0.7-0.7-1.2-0.7c-0.5,0-0.9,0.2-1.3,0.7c-0.3,0.5-0.5,1.1-0.5,1.9h-1.1C415.9,857.1,416.2,856.2,416.7,855.4z"/>
		<path class="st1" d="M424.1,866.3c-0.5-1.2-0.8-2.9-0.8-5.1c0-2.2,0.3-3.9,0.8-5.1c0.5-1.2,1.3-1.8,2.3-1.8c1,0,1.7,0.6,2.3,1.8
			c0.5,1.2,0.8,2.9,0.8,5.1s-0.3,3.9-0.8,5.1s-1.3,1.8-2.3,1.8C425.4,868.1,424.7,867.5,424.1,866.3z M427.9,865.2
			c0.3-0.9,0.5-2.3,0.5-4.1c0-1.7-0.2-3.1-0.5-4c-0.3-0.9-0.8-1.4-1.5-1.4s-1.1,0.5-1.5,1.4c-0.3,0.9-0.5,2.3-0.5,4
			c0,1.8,0.2,3.1,0.5,4.1c0.3,0.9,0.8,1.4,1.5,1.4C427.1,866.6,427.5,866.2,427.9,865.2z"/>
		<path class="st1" d="M433.4,867.8c0-1.1,0-2.1,0-2.9s0-1.8,0-2.7c0-1,0-1.9,0-2.7s0-1.8,0-2.9h-0.1c-0.4,0.5-0.8,0.9-1.1,1.2
			c-0.3,0.3-0.7,0.7-1.1,1.2v-1.7c0.5-0.5,0.9-0.9,1.2-1.3c0.3-0.3,0.7-0.8,1.2-1.3h1.1v13.2H433.4z"/>
		<path class="st1" d="M437.8,867c-0.6-0.7-0.9-1.6-0.9-2.8c0-0.9,0.2-1.6,0.5-2.2c0.3-0.6,0.8-1,1.3-1.2v-0.1
			c-0.4-0.2-0.8-0.5-1.1-1.1s-0.4-1.2-0.4-1.9c0-1,0.3-1.9,0.8-2.5s1.2-1,2-1c0.8,0,1.5,0.3,2,1s0.8,1.5,0.8,2.5
			c0,0.7-0.1,1.3-0.4,1.9c-0.3,0.5-0.6,0.9-1.1,1.1v0.1c0.5,0.2,1,0.5,1.3,1.2c0.3,0.6,0.5,1.4,0.5,2.2c0,1.1-0.3,2-0.9,2.8
			c-0.6,0.7-1.3,1.1-2.3,1.1C439.1,868.1,438.4,867.7,437.8,867z M441.5,866c0.4-0.5,0.6-1.1,0.6-1.8s-0.2-1.4-0.6-1.8
			s-0.9-0.7-1.5-0.7c-0.6,0-1.1,0.2-1.5,0.7s-0.6,1.1-0.6,1.8s0.2,1.4,0.6,1.8s0.9,0.7,1.5,0.7C440.7,866.7,441.2,866.4,441.5,866z
			 M441.3,859.6c0.3-0.4,0.5-1,0.5-1.6c0-0.7-0.2-1.2-0.5-1.6c-0.3-0.4-0.7-0.6-1.2-0.6c-0.5,0-0.9,0.2-1.2,0.6s-0.5,1-0.5,1.6
			c0,0.7,0.2,1.2,0.5,1.6c0.3,0.4,0.7,0.6,1.2,0.6C440.6,860.2,441,860,441.3,859.6z"/>
		<path class="st1" d="M450.4,868.3c-0.7-0.6-1.3-1.5-1.7-2.6s-0.6-2.3-0.6-3.7c0-1.4,0.2-2.6,0.6-3.7s1-2,1.7-2.6
			c0.7-0.6,1.5-1,2.4-1c0.9,0,1.7,0.3,2.5,1c0.7,0.6,1.3,1.5,1.7,2.6s0.6,2.3,0.6,3.7c0,1.4-0.2,2.6-0.6,3.7s-1,2-1.7,2.6
			c-0.7,0.6-1.5,1-2.5,1C451.9,869.3,451.1,869,450.4,868.3z M454.8,867.2c0.6-0.5,1.1-1.2,1.4-2.1s0.5-1.9,0.5-3
			c0-1.1-0.2-2.1-0.5-3c-0.3-0.9-0.8-1.6-1.4-2.1c-0.6-0.5-1.3-0.8-2-0.8c-0.7,0-1.4,0.3-2,0.8c-0.6,0.5-1.1,1.2-1.4,2.1
			c-0.3,0.9-0.5,1.9-0.5,3c0,1.1,0.2,2.1,0.5,3c0.3,0.9,0.8,1.6,1.4,2.1s1.3,0.8,2,0.8C453.6,868,454.2,867.7,454.8,867.2z
			 M455.1,860.7c-0.3,0-0.6,0-0.8,0c-0.1-0.4-0.2-0.8-0.5-1c-0.2-0.3-0.5-0.4-0.9-0.4c-0.5,0-0.8,0.2-1.1,0.7
			c-0.3,0.5-0.4,1.1-0.4,2c0,0.8,0.1,1.5,0.4,2c0.3,0.5,0.6,0.7,1.1,0.7c0.4,0,0.7-0.1,0.9-0.4c0.2-0.2,0.4-0.6,0.5-1h0.8
			c-0.1,0.8-0.3,1.4-0.7,1.8c-0.4,0.5-0.9,0.7-1.5,0.7c-0.7,0-1.3-0.3-1.7-1s-0.7-1.6-0.7-2.8c0-1.2,0.2-2.1,0.6-2.8
			c0.4-0.7,1-1,1.7-1c0.6,0,1.1,0.2,1.5,0.7C454.8,859.4,455,860,455.1,860.7z"/>
		<path class="st1" d="M463.1,858.6c0.5-0.5,1-0.8,1.7-0.8c0.7,0,1.3,0.2,1.7,0.7c0.4,0.5,0.7,1.1,0.8,1.9h-1
			c-0.1-0.4-0.2-0.7-0.5-1c-0.2-0.2-0.6-0.4-1-0.4c-0.4,0-0.7,0.1-1,0.4c-0.3,0.3-0.4,0.6-0.4,1.1c0,0.3,0.1,0.6,0.3,0.8
			c0.2,0.2,0.5,0.4,0.9,0.5l1,0.4c0.6,0.2,1.1,0.5,1.4,1c0.3,0.4,0.5,1,0.5,1.7c0,0.9-0.3,1.6-0.8,2.2c-0.5,0.6-1.1,0.8-1.9,0.8
			c-0.7,0-1.3-0.2-1.8-0.7c-0.5-0.5-0.7-1.1-0.8-2h1.1c0.1,0.4,0.3,0.7,0.5,1c0.3,0.2,0.6,0.4,1,0.4c0.4,0,0.8-0.1,1.1-0.4
			c0.3-0.3,0.4-0.7,0.4-1.1c0-0.3-0.1-0.6-0.3-0.9c-0.2-0.2-0.4-0.4-0.8-0.5l-1.1-0.4c-0.6-0.2-1.1-0.5-1.3-1
			c-0.3-0.4-0.4-1-0.4-1.7C462.4,859.8,462.7,859.1,463.1,858.6z"/>
		<path class="st1" d="M474.4,857.9c-0.3,1.3-0.6,2.5-0.8,3.5c-0.2,1-0.5,2-0.7,2.9c-0.2,1-0.5,2.1-0.9,3.5h-1.1l-2.4-9.8h1.1
			l1.8,8.1h0.1l1.8-8.1H474.4z"/>
		<path class="st1" d="M476.1,867.1c-0.4-0.5-0.6-1.2-0.6-2.1c0-1.8,0.8-2.8,2.4-2.9l1.9-0.2V861c0-0.6-0.1-1.1-0.4-1.4
			c-0.2-0.3-0.6-0.5-1.1-0.5c-0.4,0-0.7,0.1-1,0.3c-0.3,0.2-0.4,0.5-0.5,0.9h-1.1c0.1-0.8,0.3-1.4,0.8-1.9c0.5-0.5,1.1-0.7,1.8-0.7
			c0.8,0,1.4,0.3,1.8,0.9c0.4,0.6,0.6,1.4,0.6,2.4v6.7h-1v-1.5h-0.1c-0.2,0.5-0.5,0.9-0.8,1.2c-0.3,0.3-0.7,0.4-1.2,0.4
			C477,867.9,476.5,867.7,476.1,867.1z M479.2,865.8c0.4-0.5,0.5-1.1,0.5-1.8v-0.9l-1.8,0.2c-1,0.1-1.4,0.6-1.4,1.6
			c0,0.5,0.1,0.9,0.4,1.2c0.3,0.3,0.6,0.4,0.9,0.4C478.4,866.5,478.8,866.3,479.2,865.8z"/>
		<path class="st1" d="M491.3,859.1c0.5,0.9,0.7,2.2,0.7,3.7c0,1.5-0.2,2.8-0.7,3.7c-0.5,0.9-1.2,1.4-2,1.4c-0.5,0-0.9-0.1-1.2-0.4
			c-0.4-0.3-0.6-0.7-0.8-1.2h-0.1v4.8h-1v-13.1h1v1.6h0.1c0.2-0.6,0.5-1,0.9-1.3c0.4-0.3,0.8-0.5,1.2-0.5
			C490.2,857.7,490.8,858.2,491.3,859.1z M490.5,865.5c0.3-0.7,0.5-1.6,0.5-2.7s-0.2-2.1-0.5-2.7s-0.8-1-1.4-1c-0.6,0-1.1,0.3-1.4,1
			c-0.3,0.7-0.5,1.6-0.5,2.7c0,1.1,0.2,2,0.5,2.7c0.3,0.7,0.8,1,1.4,1C489.7,866.5,490.2,866.2,490.5,865.5z"/>
		<path class="st1" d="M493.7,867.8c0-1.3,0-2.5,0-3.5c0-1,0-2,0-2.9c0-1,0-2.1,0-3.5h1v1.5h0.1c0.1-0.5,0.3-0.9,0.7-1.2
			c0.3-0.3,0.7-0.5,1.2-0.5c0.1,0,0.2,0,0.3,0c0.1,0,0.2,0,0.2,0v1.6c0,0-0.1,0-0.3-0.1c-0.1,0-0.3,0-0.4,0c-0.5,0-0.9,0.2-1.2,0.7
			c-0.3,0.5-0.5,1-0.5,1.7v6.1H493.7z"/>
		<path class="st1" d="M498.7,867.1c-0.4-0.5-0.6-1.2-0.6-2.1c0-1.8,0.8-2.8,2.4-2.9l1.9-0.2V861c0-0.6-0.1-1.1-0.4-1.4
			c-0.2-0.3-0.6-0.5-1.1-0.5c-0.4,0-0.7,0.1-1,0.3c-0.3,0.2-0.4,0.5-0.5,0.9h-1.1c0.1-0.8,0.3-1.4,0.8-1.9c0.5-0.5,1.1-0.7,1.8-0.7
			c0.8,0,1.4,0.3,1.8,0.9c0.4,0.6,0.6,1.4,0.6,2.4v6.7h-1v-1.5h-0.1c-0.2,0.5-0.5,0.9-0.8,1.2c-0.3,0.3-0.7,0.4-1.2,0.4
			C499.6,867.9,499.1,867.7,498.7,867.1z M501.8,865.8c0.4-0.5,0.5-1.1,0.5-1.8v-0.9l-1.8,0.2c-1,0.1-1.4,0.6-1.4,1.6
			c0,0.5,0.1,0.9,0.4,1.2c0.3,0.3,0.6,0.4,0.9,0.4C501,866.5,501.5,866.3,501.8,865.8z"/>
		<path class="st1" d="M510.6,857.9c-0.3,1.3-0.6,2.5-0.8,3.5c-0.2,1-0.5,2-0.7,2.9c-0.2,1-0.5,2.1-0.9,3.5h-1.1l-2.4-9.8h1.1
			l1.8,8.1h0.1l1.8-8.1H510.6z"/>
		<path class="st1" d="M512.3,867.1c-0.4-0.5-0.6-1.2-0.6-2.1c0-1.8,0.8-2.8,2.4-2.9l1.9-0.2V861c0-0.6-0.1-1.1-0.4-1.4
			c-0.2-0.3-0.6-0.5-1.1-0.5c-0.4,0-0.7,0.1-1,0.3c-0.3,0.2-0.4,0.5-0.5,0.9h-1.1c0.1-0.8,0.3-1.4,0.8-1.9c0.5-0.5,1.1-0.7,1.8-0.7
			c0.8,0,1.4,0.3,1.8,0.9c0.4,0.6,0.6,1.4,0.6,2.4v6.7h-1v-1.5h-0.1c-0.2,0.5-0.5,0.9-0.8,1.2c-0.3,0.3-0.7,0.4-1.2,0.4
			C513.2,867.9,512.7,867.7,512.3,867.1z M515.4,865.8c0.4-0.5,0.5-1.1,0.5-1.8v-0.9l-1.8,0.2c-1,0.1-1.4,0.6-1.4,1.6
			c0,0.5,0.1,0.9,0.4,1.2c0.3,0.3,0.6,0.4,0.9,0.4C514.6,866.5,515,866.3,515.4,865.8z"/>
		<path class="st1" d="M522.2,867.8c0-0.4,0-0.8,0-1.2l3.8-7.2v-0.1h-3.8v-1.3h5v1.2l-3.8,7.2v0.1h3.8v1.3H522.2z"/>
		<path class="st1" d="M529.3,867.1c-0.4-0.5-0.6-1.2-0.6-2.1c0-1.8,0.8-2.8,2.4-2.9l1.9-0.2V861c0-0.6-0.1-1.1-0.4-1.4
			c-0.2-0.3-0.6-0.5-1.1-0.5c-0.4,0-0.7,0.1-1,0.3c-0.3,0.2-0.4,0.5-0.5,0.9H529c0.1-0.8,0.3-1.4,0.8-1.9c0.5-0.5,1.1-0.7,1.8-0.7
			c0.8,0,1.4,0.3,1.8,0.9c0.4,0.6,0.6,1.4,0.6,2.4v6.7h-1v-1.5h-0.1c-0.2,0.5-0.5,0.9-0.8,1.2c-0.3,0.3-0.7,0.4-1.2,0.4
			C530.3,867.9,529.7,867.7,529.3,867.1z M532.4,865.8c0.4-0.5,0.5-1.1,0.5-1.8v-0.9l-1.8,0.2c-1,0.1-1.4,0.6-1.4,1.6
			c0,0.5,0.1,0.9,0.4,1.2c0.3,0.3,0.6,0.4,0.9,0.4C531.6,866.5,532.1,866.3,532.4,865.8z"/>
		<path class="st1" d="M536.4,866.5c-0.5-0.9-0.7-2.2-0.7-3.7s0.3-2.8,0.8-3.7c0.5-0.9,1.2-1.4,2-1.4c0.5,0,0.9,0.2,1.2,0.5
			s0.6,0.7,0.8,1.3h0.1V854h1v13.8h-1v-1.6h-0.1c-0.2,0.5-0.5,1-0.9,1.3c-0.4,0.3-0.8,0.5-1.2,0.5
			C537.5,867.9,536.9,867.5,536.4,866.5z M537.2,860.1c-0.3,0.7-0.5,1.6-0.5,2.7c0,1.2,0.2,2.1,0.5,2.7s0.8,1,1.4,1
			c0.6,0,1.1-0.3,1.4-1c0.3-0.7,0.5-1.6,0.5-2.7c0-1.1-0.2-2-0.5-2.7c-0.3-0.7-0.8-1-1.4-1C538,859.2,537.5,859.5,537.2,860.1z"/>
		<path class="st1" d="M543.6,867.8c0-1.3,0-2.5,0-3.5c0-1,0-2,0-2.9c0-1,0-2.1,0-3.5h1v1.5h0.1c0.1-0.5,0.3-0.9,0.7-1.2
			c0.3-0.3,0.7-0.5,1.2-0.5c0.1,0,0.2,0,0.3,0c0.1,0,0.2,0,0.2,0v1.6c0,0-0.1,0-0.3-0.1c-0.1,0-0.3,0-0.4,0c-0.5,0-0.9,0.2-1.2,0.7
			c-0.3,0.5-0.5,1-0.5,1.7v6.1H543.6z"/>
		<path class="st1" d="M548.1,867.8c0-0.4,0-0.8,0-1.2l3.8-7.2v-0.1h-3.8v-1.3h5v1.2l-3.8,7.2v0.1h3.8v1.3H548.1z M550,856.5
			c-0.3-0.6-0.5-1.1-0.7-1.6c-0.2-0.4-0.4-0.9-0.7-1.6h1.1l0.9,2.1h0.1l0.9-2.1h1.1l-1.5,3.1H550z"/>
		<path class="st1" d="M555.2,867.1c-0.4-0.5-0.6-1.2-0.6-2.1c0-1.8,0.8-2.8,2.4-2.9l1.9-0.2V861c0-0.6-0.1-1.1-0.4-1.4
			c-0.2-0.3-0.6-0.5-1.1-0.5c-0.4,0-0.7,0.1-1,0.3c-0.3,0.2-0.4,0.5-0.5,0.9h-1.1c0.1-0.8,0.3-1.4,0.8-1.9c0.5-0.5,1.1-0.7,1.8-0.7
			c0.8,0,1.4,0.3,1.8,0.9c0.4,0.6,0.6,1.4,0.6,2.4v6.7h-1v-1.5h-0.1c-0.2,0.5-0.5,0.9-0.8,1.2c-0.3,0.3-0.7,0.4-1.2,0.4
			C556.2,867.9,555.6,867.7,555.2,867.1z M558.3,865.8c0.4-0.5,0.5-1.1,0.5-1.8v-0.9l-1.8,0.2c-1,0.1-1.4,0.6-1.4,1.6
			c0,0.5,0.1,0.9,0.4,1.2c0.3,0.3,0.6,0.4,0.9,0.4C557.5,866.5,558,866.3,558.3,865.8z"/>
		<path class="st1" d="M561.8,867.8c0-1.3,0-2.5,0-3.5c0-1,0-2,0-2.9c0-1,0-2.1,0-3.5h1v1.6h0.1c0.2-0.5,0.4-1,0.7-1.3
			s0.7-0.5,1.2-0.5c0.7,0,1.3,0.3,1.7,0.9s0.6,1.5,0.6,2.7v6.4h-1v-6c0-0.9-0.1-1.5-0.4-2c-0.3-0.4-0.6-0.6-1.2-0.6
			s-0.9,0.2-1.2,0.7c-0.3,0.5-0.5,1.2-0.5,2v5.8H561.8z"/>
		<path class="st1" d="M569.3,867.1c-0.4-0.5-0.6-1.2-0.6-2.1c0-1.8,0.8-2.8,2.4-2.9l1.9-0.2V861c0-0.6-0.1-1.1-0.4-1.4
			c-0.2-0.3-0.6-0.5-1.1-0.5c-0.4,0-0.7,0.1-1,0.3c-0.3,0.2-0.4,0.5-0.5,0.9H569c0.1-0.8,0.3-1.4,0.8-1.9c0.5-0.5,1.1-0.7,1.8-0.7
			c0.8,0,1.4,0.3,1.8,0.9c0.4,0.6,0.6,1.4,0.6,2.4v6.7h-1v-1.5h-0.1c-0.2,0.5-0.5,0.9-0.8,1.2c-0.3,0.3-0.7,0.4-1.2,0.4
			C570.3,867.9,569.7,867.7,569.3,867.1z M572.4,865.8c0.4-0.5,0.5-1.1,0.5-1.8v-0.9l-1.8,0.2c-1,0.1-1.4,0.6-1.4,1.6
			c0,0.5,0.1,0.9,0.4,1.2c0.3,0.3,0.6,0.4,0.9,0.4C571.6,866.5,572.1,866.3,572.4,865.8z"/>
	</g>
	<g>
		<path class="st0" d="M1396.3,841c-0.2,1.2-0.4,2.3-0.6,3.1c-0.2,0.9-0.3,1.8-0.5,2.7c-0.2,0.9-0.4,1.9-0.6,3.1h-1l-1.3-6.9h-0.1
			l-1.3,6.9h-1l-1.7-8.9h1l1.2,7.2h0.1l1.3-7.2h0.9l1.3,7.2h0.1l1.2-7.2H1396.3z"/>
		<path class="st0" d="M1401.5,847.7c0.2,0,0.3,0,0.5,0s0.3,0,0.5,0c-0.1,0.8-0.4,1.4-0.9,1.8c-0.4,0.4-1,0.7-1.6,0.7
			c-0.8,0-1.5-0.4-2-1.2s-0.7-2-0.7-3.4c0-1.4,0.2-2.5,0.7-3.4s1.1-1.3,2-1.3c0.8,0,1.4,0.4,1.9,1.2c0.5,0.8,0.7,1.9,0.7,3.3v0.5
			h-4.3v0.1c0,0.9,0.2,1.6,0.5,2.1c0.3,0.5,0.7,0.8,1.2,0.8c0.4,0,0.7-0.1,1-0.3C1401.2,848.4,1401.4,848.1,1401.5,847.7z
			 M1398.8,842.9c-0.3,0.5-0.5,1.1-0.5,1.9h3.3c0-0.8-0.2-1.4-0.5-1.9c-0.3-0.5-0.7-0.7-1.1-0.7
			C1399.5,842.1,1399.1,842.4,1398.8,842.9z"/>
		<path class="st0" d="M1405.9,849.7c-0.3-0.3-0.6-0.7-0.8-1.2h-0.1v1.4h-0.9v-12.5h0.9v5h0.1c0.2-0.5,0.4-0.9,0.7-1.1
			c0.3-0.3,0.7-0.4,1.1-0.4c0.8,0,1.4,0.4,1.8,1.3c0.5,0.8,0.7,2,0.7,3.4c0,1.4-0.2,2.5-0.7,3.4c-0.5,0.8-1.1,1.3-1.8,1.3
			C1406.6,850.2,1406.2,850,1405.9,849.7z M1405.5,843.1c-0.3,0.6-0.5,1.4-0.5,2.4c0,1,0.2,1.9,0.5,2.4c0.3,0.6,0.7,0.9,1.3,0.9
			c0.5,0,1-0.3,1.3-0.9c0.3-0.6,0.5-1.4,0.5-2.5c0-1-0.2-1.9-0.5-2.5c-0.3-0.6-0.7-0.9-1.3-0.9
			C1406.2,842.2,1405.8,842.5,1405.5,843.1z"/>
		<path class="st0" d="M1418.9,842.1c0.5,0.8,0.7,2,0.7,3.4c0,1.4-0.2,2.5-0.7,3.4c-0.5,0.8-1.1,1.3-1.8,1.3c-0.4,0-0.8-0.1-1.1-0.4
			s-0.6-0.6-0.7-1.1h-0.1v4.3h-0.9V841h0.9v1.5h0.1c0.2-0.5,0.5-0.9,0.8-1.2s0.7-0.4,1.1-0.4
			C1417.8,840.9,1418.4,841.3,1418.9,842.1z M1418.1,848c0.3-0.6,0.5-1.4,0.5-2.5c0-1-0.2-1.9-0.5-2.5c-0.3-0.6-0.7-0.9-1.3-0.9
			c-0.5,0-1,0.3-1.3,0.9s-0.5,1.4-0.5,2.4c0,1,0.2,1.8,0.5,2.4c0.3,0.6,0.7,0.9,1.3,0.9C1417.4,848.9,1417.8,848.6,1418.1,848z"/>
		<path class="st0" d="M1421.5,848.9c-0.5-0.8-0.7-2-0.7-3.4c0-1.4,0.2-2.6,0.7-3.4c0.5-0.8,1.2-1.2,2-1.2c0.8,0,1.5,0.4,2,1.2
			s0.7,2,0.7,3.4c0,1.4-0.2,2.6-0.7,3.4s-1.2,1.2-2,1.2C1422.6,850.2,1421.9,849.7,1421.5,848.9z M1424.8,848
			c0.3-0.6,0.5-1.4,0.5-2.5c0-1.1-0.2-1.9-0.5-2.5c-0.3-0.6-0.7-0.9-1.3-0.9c-0.6,0-1,0.3-1.3,0.9s-0.5,1.4-0.5,2.5
			c0,1.1,0.2,1.9,0.5,2.5s0.7,0.9,1.3,0.9C1424,848.9,1424.5,848.6,1424.8,848z"/>
		<path class="st0" d="M1428.1,848.9c-0.5-0.8-0.7-2-0.7-3.4c0-1.4,0.2-2.5,0.7-3.4c0.5-0.8,1.1-1.3,1.8-1.3c0.4,0,0.8,0.1,1.1,0.4
			c0.3,0.3,0.6,0.7,0.7,1.2h0.1v-5h0.9V850h-0.9v-1.4h-0.1c-0.2,0.5-0.4,0.9-0.8,1.2s-0.7,0.4-1.1,0.4
			C1429.1,850.2,1428.5,849.7,1428.1,848.9z M1428.8,843.1c-0.3,0.6-0.5,1.4-0.5,2.5c0,1,0.2,1.9,0.5,2.5c0.3,0.6,0.7,0.9,1.3,0.9
			c0.5,0,1-0.3,1.3-0.9c0.3-0.6,0.5-1.4,0.5-2.4c0-1-0.2-1.8-0.5-2.4c-0.3-0.6-0.7-0.9-1.3-0.9
			C1429.6,842.2,1429.1,842.5,1428.8,843.1z"/>
		<path class="st0" d="M1434.6,850c0-1.2,0-2.3,0-3.1c0-0.9,0-1.8,0-2.7c0-0.9,0-1.9,0-3.1h0.9v1.3h0.1c0.1-0.4,0.3-0.8,0.6-1.1
			c0.3-0.3,0.7-0.4,1.1-0.4c0.1,0,0.2,0,0.3,0c0.1,0,0.2,0,0.2,0v1.4c0,0-0.1,0-0.3-0.1c-0.1,0-0.3,0-0.3,0c-0.5,0-0.8,0.2-1.1,0.6
			s-0.4,0.9-0.4,1.6v5.5H1434.6z"/>
		<path class="st0" d="M1439.4,841.6c0.4-0.5,0.9-0.7,1.6-0.7c0.6,0,1.1,0.2,1.5,0.6c0.4,0.4,0.6,1,0.7,1.8h-0.9
			c-0.1-0.4-0.2-0.6-0.4-0.9c-0.2-0.2-0.5-0.3-0.9-0.3c-0.4,0-0.7,0.1-0.9,0.4c-0.2,0.2-0.4,0.6-0.4,1c0,0.3,0.1,0.6,0.3,0.8
			c0.2,0.2,0.4,0.4,0.8,0.5l0.9,0.3c0.6,0.2,1,0.5,1.2,0.9s0.4,0.9,0.4,1.5c0,0.8-0.2,1.5-0.7,2c-0.5,0.5-1,0.8-1.7,0.8
			c-0.7,0-1.2-0.2-1.6-0.7c-0.4-0.4-0.7-1-0.7-1.8h1c0.1,0.4,0.2,0.7,0.5,0.9c0.2,0.2,0.5,0.3,0.9,0.3c0.4,0,0.7-0.1,1-0.4
			c0.3-0.3,0.4-0.6,0.4-1c0-0.3-0.1-0.6-0.2-0.8c-0.2-0.2-0.4-0.4-0.7-0.5l-1-0.4c-0.6-0.2-1-0.5-1.2-0.9c-0.3-0.4-0.4-0.9-0.4-1.5
			C1438.8,842.8,1439,842.1,1439.4,841.6z M1440.4,839.8c-0.3-0.6-0.5-1-0.7-1.4c-0.2-0.4-0.4-0.8-0.7-1.4h1l0.8,1.9h0.1l0.8-1.9h1
			l-1.3,2.8H1440.4z"/>
		<path class="st0" d="M1445.9,845c0.3-0.5,0.7-1,0.9-1.4c0.3-0.4,0.5-0.8,0.8-1.2c0.3-0.4,0.6-0.8,0.9-1.4h1.2l-2.6,3.8l2.7,5.1
			h-1.2l-2.2-4.2l-0.6,0.8v3.4h-0.9v-12.5h0.9L1445.9,845L1445.9,845z"/>
		<path class="st0" d="M1451.2,849.4c-0.4-0.5-0.6-1.1-0.6-1.9c0-1.6,0.7-2.5,2.2-2.6l1.7-0.2v-0.8c0-0.6-0.1-1-0.3-1.3
			c-0.2-0.3-0.6-0.4-1-0.4c-0.4,0-0.7,0.1-0.9,0.3c-0.2,0.2-0.4,0.5-0.5,0.8h-1c0.1-0.7,0.3-1.3,0.7-1.7s1-0.7,1.6-0.7
			c0.7,0,1.3,0.3,1.7,0.8c0.4,0.5,0.6,1.3,0.6,2.2v6.1h-0.9v-1.3h-0.1c-0.2,0.5-0.4,0.8-0.8,1.1c-0.3,0.3-0.7,0.4-1.1,0.4
			C1452,850.2,1451.6,849.9,1451.2,849.4z M1454,848.3c0.3-0.4,0.5-1,0.5-1.6v-0.8l-1.6,0.2c-0.9,0.1-1.3,0.6-1.3,1.5
			c0,0.5,0.1,0.8,0.3,1.1c0.2,0.3,0.5,0.4,0.9,0.4C1453.3,848.9,1453.7,848.7,1454,848.3z"/>
		<path class="st0" d="M1457.5,843.3c-0.1-0.2-0.2-0.5-0.2-0.8c0-0.3,0.1-0.6,0.2-0.8s0.3-0.3,0.5-0.3c0.2,0,0.4,0.1,0.5,0.3
			s0.2,0.5,0.2,0.8c0,0.3-0.1,0.5-0.2,0.8s-0.3,0.3-0.5,0.3C1457.8,843.7,1457.6,843.5,1457.5,843.3z M1457.5,849.8
			c-0.1-0.2-0.2-0.5-0.2-0.8c0-0.3,0.1-0.6,0.2-0.8s0.3-0.3,0.5-0.3c0.2,0,0.4,0.1,0.5,0.3s0.2,0.5,0.2,0.8c0,0.3-0.1,0.5-0.2,0.8
			s-0.3,0.3-0.5,0.3C1457.8,850.1,1457.6,850,1457.5,849.8z"/>
		<path class="st1" d="M1355.5,863.9c0.2,0,0.4,0,0.5,0c0.1,0,0.3,0,0.5,0c0.1,0.6,0.3,1.1,0.6,1.5c0.4,0.4,0.8,0.6,1.4,0.6
			c0.5,0,1-0.2,1.3-0.6c0.4-0.4,0.5-0.9,0.5-1.5c0-0.5-0.1-0.9-0.4-1.3c-0.3-0.3-0.7-0.6-1.2-0.8l-1-0.4c-0.7-0.3-1.2-0.7-1.6-1.2
			s-0.5-1.2-0.5-2c0-1,0.3-1.8,0.8-2.5c0.5-0.6,1.2-0.9,2-0.9c0.8,0,1.4,0.3,1.9,0.9c0.5,0.6,0.8,1.4,0.8,2.4h-1
			c-0.1-0.6-0.3-1.1-0.6-1.4c-0.3-0.3-0.7-0.5-1.2-0.5c-0.5,0-1,0.2-1.3,0.5s-0.5,0.9-0.5,1.5c0,0.5,0.1,0.9,0.4,1.1
			s0.6,0.5,1.2,0.8l0.8,0.3c0.8,0.3,1.4,0.7,1.8,1.2c0.4,0.5,0.5,1.2,0.5,2.1c0,1.1-0.3,2-0.8,2.6c-0.5,0.7-1.3,1-2.2,1
			c-0.8,0-1.5-0.3-2.1-0.9S1355.5,864.9,1355.5,863.9z"/>
		<path class="st1" d="M1363,867c0-1.2,0-2.3,0-3.2s0-2,0-3s0-2.1,0-3s0-2,0-3.2h0.9V867H1363z"/>
		<path class="st1" d="M1366.2,865.9c-0.5-0.8-0.7-2-0.7-3.4c0-1.4,0.2-2.6,0.7-3.4s1.2-1.2,2-1.2s1.5,0.4,2,1.2
			c0.5,0.8,0.7,2,0.7,3.4c0,1.4-0.2,2.6-0.7,3.4c-0.5,0.8-1.2,1.2-2,1.2S1366.7,866.7,1366.2,865.9z M1369.5,865
			c0.3-0.6,0.5-1.4,0.5-2.5c0-1.1-0.2-1.9-0.5-2.5s-0.7-0.9-1.3-0.9c-0.6,0-1,0.3-1.3,0.9c-0.3,0.6-0.5,1.4-0.5,2.5
			c0,1.1,0.2,1.9,0.5,2.5c0.3,0.6,0.7,0.9,1.3,0.9C1368.8,865.9,1369.2,865.6,1369.5,865z"/>
		<path class="st1" d="M1377.3,858c-0.3,1.2-0.6,2.3-0.8,3.1c-0.2,0.9-0.4,1.8-0.7,2.7c-0.2,0.9-0.5,1.9-0.8,3.1h-1l-2.2-8.9h1
			l1.6,7.4h0.1l1.6-7.4H1377.3z"/>
		<path class="st1" d="M1379,865.9c-0.5-0.8-0.7-2-0.7-3.4c0-1.4,0.2-2.6,0.7-3.4s1.2-1.2,2-1.2s1.5,0.4,2,1.2
			c0.5,0.8,0.7,2,0.7,3.4c0,1.4-0.2,2.6-0.7,3.4c-0.5,0.8-1.2,1.2-2,1.2S1379.5,866.7,1379,865.9z M1382.3,865
			c0.3-0.6,0.5-1.4,0.5-2.5c0-1.1-0.2-1.9-0.5-2.5s-0.7-0.9-1.3-0.9c-0.6,0-1,0.3-1.3,0.9c-0.3,0.6-0.5,1.4-0.5,2.5
			c0,1.1,0.2,1.9,0.5,2.5c0.3,0.6,0.7,0.9,1.3,0.9C1381.6,865.9,1382,865.6,1382.3,865z"/>
		<path class="st1" d="M1385,863.9c0.2,0,0.4,0,0.5,0c0.1,0,0.3,0,0.5,0c0.1,0.6,0.3,1.1,0.6,1.5c0.4,0.4,0.8,0.6,1.4,0.6
			c0.5,0,1-0.2,1.3-0.6c0.4-0.4,0.5-0.9,0.5-1.5c0-0.5-0.1-0.9-0.4-1.3c-0.3-0.3-0.7-0.6-1.2-0.8l-1-0.4c-0.7-0.3-1.2-0.7-1.6-1.2
			s-0.5-1.2-0.5-2c0-1,0.3-1.8,0.8-2.5c0.5-0.6,1.2-0.9,2-0.9c0.8,0,1.4,0.3,1.9,0.9c0.5,0.6,0.8,1.4,0.8,2.4h-1
			c-0.1-0.6-0.3-1.1-0.6-1.4c-0.3-0.3-0.7-0.5-1.2-0.5c-0.5,0-1,0.2-1.3,0.5s-0.5,0.9-0.5,1.5c0,0.5,0.1,0.9,0.4,1.1
			c0.2,0.3,0.6,0.5,1.2,0.8l0.8,0.3c0.8,0.3,1.4,0.7,1.8,1.2c0.4,0.5,0.5,1.2,0.5,2.1c0,1.1-0.3,2-0.8,2.6c-0.5,0.7-1.3,1-2.2,1
			c-0.8,0-1.5-0.3-2.1-0.9S1385,864.9,1385,863.9z"/>
		<path class="st1" d="M1392.5,867c0-1.2,0-2.3,0-3.2s0-2,0-3s0-2.1,0-3s0-2,0-3.2h0.9V867H1392.5z"/>
		<path class="st1" d="M1395.5,866.4c-0.4-0.5-0.6-1.1-0.6-1.9c0-1.6,0.7-2.5,2.2-2.6l1.7-0.2v-0.8c0-0.6-0.1-1-0.3-1.3
			c-0.2-0.3-0.6-0.4-1-0.4c-0.4,0-0.7,0.1-0.9,0.3c-0.2,0.2-0.4,0.5-0.5,0.8h-1c0.1-0.7,0.3-1.3,0.7-1.7c0.4-0.4,1-0.7,1.6-0.7
			c0.7,0,1.3,0.3,1.7,0.8s0.6,1.3,0.6,2.2v6.1h-0.9v-1.3h-0.1c-0.2,0.5-0.4,0.8-0.8,1.1c-0.3,0.3-0.7,0.4-1.1,0.4
			C1396.3,867.2,1395.9,866.9,1395.5,866.4z M1398.3,865.3c0.3-0.4,0.5-1,0.5-1.6v-0.8l-1.6,0.2c-0.9,0.1-1.3,0.6-1.3,1.5
			c0,0.5,0.1,0.8,0.3,1.1s0.5,0.4,0.9,0.4C1397.6,865.9,1398,865.7,1398.3,865.3z"/>
		<path class="st1" d="M1402.2,869.8c-0.4-0.4-0.7-1-0.8-1.8h1c0.1,0.4,0.2,0.7,0.5,0.9c0.3,0.2,0.6,0.3,1,0.3
			c0.5,0,0.9-0.2,1.2-0.6c0.3-0.4,0.4-0.9,0.4-1.5v-1.8h-0.1c-0.2,0.5-0.4,0.9-0.8,1.1s-0.7,0.4-1.1,0.4c-0.8,0-1.4-0.4-1.8-1.2
			c-0.4-0.8-0.7-1.9-0.7-3.2c0-1.3,0.2-2.4,0.7-3.3c0.4-0.8,1.1-1.2,1.8-1.2c0.4,0,0.8,0.1,1.1,0.4s0.6,0.7,0.8,1.1h0.1V858h0.9v9.1
			c0,1-0.2,1.8-0.7,2.4c-0.5,0.6-1.1,0.9-1.9,0.9C1403.2,870.4,1402.6,870.2,1402.2,869.8z M1405.2,864.7c0.3-0.6,0.5-1.4,0.5-2.3
			c0-1-0.2-1.8-0.5-2.3c-0.3-0.6-0.7-0.9-1.3-0.9c-0.6,0-1,0.3-1.3,0.9c-0.3,0.6-0.4,1.4-0.4,2.3c0,1,0.1,1.8,0.4,2.3
			c0.3,0.6,0.7,0.9,1.3,0.9C1404.4,865.6,1404.9,865.3,1405.2,864.7z"/>
		<path class="st1" d="M1408.6,866.4c-0.4-0.5-0.6-1.1-0.6-1.9c0-1.6,0.7-2.5,2.2-2.6l1.7-0.2v-0.8c0-0.6-0.1-1-0.3-1.3
			c-0.2-0.3-0.6-0.4-1-0.4c-0.4,0-0.7,0.1-0.9,0.3c-0.2,0.2-0.4,0.5-0.5,0.8h-1c0.1-0.7,0.3-1.3,0.7-1.7s1-0.7,1.6-0.7
			c0.7,0,1.3,0.3,1.7,0.8c0.4,0.5,0.6,1.3,0.6,2.2v6.1h-0.9v-1.3h-0.1c-0.2,0.5-0.4,0.8-0.8,1.1c-0.3,0.3-0.7,0.4-1.1,0.4
			C1409.4,867.2,1409,866.9,1408.6,866.4z M1411.4,865.3c0.3-0.4,0.5-1,0.5-1.6v-0.8l-1.6,0.2c-0.9,0.1-1.3,0.6-1.3,1.5
			c0,0.5,0.1,0.8,0.3,1.1c0.2,0.3,0.5,0.4,0.9,0.4C1410.7,865.9,1411.1,865.7,1411.4,865.3z"/>
		<path class="st1" d="M1419.5,860.8c-0.2,0-0.4,0-0.5,0s-0.3,0-0.5,0c-0.1-0.4-0.2-0.8-0.5-1.1c-0.3-0.3-0.6-0.5-1-0.5
			c-0.5,0-1,0.3-1.3,0.9c-0.3,0.6-0.5,1.4-0.5,2.4c0,1,0.2,1.9,0.5,2.5c0.3,0.6,0.7,0.9,1.3,0.9c0.4,0,0.7-0.1,1-0.4
			c0.3-0.3,0.4-0.7,0.5-1.2h1c-0.1,0.8-0.3,1.5-0.8,2c-0.4,0.5-1,0.8-1.7,0.8c-0.8,0-1.5-0.4-2-1.3s-0.7-2-0.7-3.4
			c0-1.4,0.2-2.5,0.7-3.3s1.2-1.3,2-1.3c0.7,0,1.3,0.3,1.7,0.9C1419.2,859.3,1419.4,860,1419.5,860.8z M1416.5,856.8
			c-0.3-0.6-0.5-1-0.7-1.4c-0.2-0.4-0.4-0.8-0.7-1.4h1l0.8,1.9h0.1l0.8-1.9h1l-1.3,2.8H1416.5z"/>
		<path class="st1" d="M1425.5,869.5c-0.2,0-0.3,0-0.4,0s-0.2,0-0.4,0v-15h0.8V869.5z"/>
		<path class="st1" d="M1430.8,863.9c0.2,0,0.4,0,0.5,0c0.1,0,0.3,0,0.5,0c0.1,0.6,0.3,1.1,0.6,1.5c0.4,0.4,0.8,0.6,1.4,0.6
			c0.5,0,1-0.2,1.3-0.6c0.4-0.4,0.5-0.9,0.5-1.5c0-0.5-0.1-0.9-0.4-1.3c-0.3-0.3-0.7-0.6-1.2-0.8l-1-0.4c-0.7-0.3-1.2-0.7-1.6-1.2
			s-0.5-1.2-0.5-2c0-1,0.3-1.8,0.8-2.5c0.5-0.6,1.2-0.9,2-0.9c0.8,0,1.4,0.3,1.9,0.9c0.5,0.6,0.8,1.4,0.8,2.4h-1
			c-0.1-0.6-0.3-1.1-0.6-1.4c-0.3-0.3-0.7-0.5-1.2-0.5c-0.5,0-1,0.2-1.3,0.5s-0.5,0.9-0.5,1.5c0,0.5,0.1,0.9,0.4,1.1
			s0.6,0.5,1.2,0.8l0.8,0.3c0.8,0.3,1.4,0.7,1.8,1.2c0.4,0.5,0.5,1.2,0.5,2.1c0,1.1-0.3,2-0.8,2.6c-0.5,0.7-1.3,1-2.2,1
			c-0.8,0-1.5-0.3-2.1-0.9S1430.8,864.9,1430.8,863.9z M1434.3,853.9c-0.2,0-0.3,0-0.5,0s-0.3,0-0.5,0l-1.7-2.5h1.1l0.9,1.5h0.1
			l0.9-1.5h1.1L1434.3,853.9z"/>
		<path class="st1" d="M1438.6,855.7c0.2,0,0.3,0,0.5,0s0.3,0,0.5,0v2.3h1.3v1.2h-1.3v5.1c0,0.5,0.1,0.9,0.2,1.1s0.4,0.4,0.7,0.4
			c0.1,0,0.2,0,0.2,0s0.1,0,0.2,0v1.2c-0.1,0-0.2,0-0.3,0.1s-0.2,0-0.3,0c-0.6,0-1-0.2-1.3-0.6c-0.3-0.4-0.4-1-0.4-1.8v-5.4h-1V858
			h1V855.7z"/>
		<path class="st1" d="M1442.5,866.4c-0.4-0.5-0.6-1.1-0.6-1.9c0-1.6,0.7-2.5,2.2-2.6l1.7-0.2v-0.8c0-0.6-0.1-1-0.3-1.3
			c-0.2-0.3-0.6-0.4-1-0.4c-0.4,0-0.7,0.1-0.9,0.3c-0.2,0.2-0.4,0.5-0.5,0.8h-1c0.1-0.7,0.3-1.3,0.7-1.7c0.4-0.4,1-0.7,1.6-0.7
			c0.7,0,1.3,0.3,1.7,0.8s0.6,1.3,0.6,2.2v6.1h-0.9v-1.3h-0.1c-0.2,0.5-0.4,0.8-0.8,1.1c-0.3,0.3-0.7,0.4-1.1,0.4
			C1443.4,867.2,1442.9,866.9,1442.5,866.4z M1445.4,865.3c0.3-0.4,0.5-1,0.5-1.6v-0.8l-1.6,0.2c-0.9,0.1-1.3,0.6-1.3,1.5
			c0,0.5,0.1,0.8,0.3,1.1s0.5,0.4,0.9,0.4C1444.6,865.9,1445.1,865.7,1445.4,865.3z"/>
		<path class="st1" d="M1453.3,859.1c0.5,0.8,0.7,2,0.7,3.4c0,1.4-0.2,2.5-0.7,3.4c-0.5,0.8-1.1,1.3-1.8,1.3c-0.4,0-0.8-0.1-1.1-0.4
			s-0.6-0.6-0.7-1.1h-0.1v4.3h-0.9V858h0.9v1.5h0.1c0.2-0.5,0.5-0.9,0.8-1.2c0.3-0.3,0.7-0.4,1.1-0.4
			C1452.2,857.9,1452.8,858.3,1453.3,859.1z M1452.5,865c0.3-0.6,0.5-1.4,0.5-2.5c0-1-0.2-1.9-0.5-2.5c-0.3-0.6-0.7-0.9-1.3-0.9
			c-0.5,0-1,0.3-1.3,0.9c-0.3,0.6-0.5,1.4-0.5,2.4c0,1,0.2,1.8,0.5,2.4c0.3,0.6,0.7,0.9,1.3,0.9
			C1451.8,865.9,1452.2,865.6,1452.5,865z"/>
		<path class="st1" d="M1461.2,867c-0.2-0.4-0.5-0.8-0.7-1.2c-0.3,0.4-0.7,0.8-1.2,1s-0.9,0.4-1.4,0.4c-0.8,0-1.4-0.3-1.9-1
			c-0.5-0.6-0.8-1.5-0.8-2.5c0-0.7,0.1-1.3,0.4-1.9s0.7-1,1.2-1.5c0,0,0.1,0,0.1-0.1s0.1-0.1,0.1-0.1c0,0,0.1-0.1,0.1-0.1
			c-0.4-0.6-0.6-1.1-0.8-1.5c-0.1-0.4-0.2-0.9-0.2-1.3c0-0.8,0.2-1.4,0.6-1.9c0.4-0.5,0.9-0.8,1.4-0.8c0.6,0,1.1,0.3,1.5,0.8
			c0.4,0.5,0.6,1.2,0.6,1.9c0,0.6-0.1,1.2-0.4,1.6s-0.7,1-1.3,1.5l2,3.2c0.1-0.4,0.2-0.8,0.3-1.3s0.1-1.1,0.1-1.9v-0.2h0.9v0.2
			c0,0.9-0.1,1.7-0.2,2.4c-0.1,0.7-0.3,1.3-0.5,1.8l1.4,2.2H1461.2z M1456.5,862.4c-0.2,0.4-0.3,0.8-0.3,1.3c0,0.7,0.2,1.2,0.5,1.6
			s0.8,0.6,1.3,0.6c0.4,0,0.7-0.1,1.1-0.3c0.3-0.2,0.6-0.5,0.8-0.8l-2.2-3.7c0,0,0,0-0.1,0.1c0,0-0.1,0-0.1,0.1c0,0-0.1,0-0.1,0.1
			C1456.9,861.6,1456.7,862,1456.5,862.4z M1458.9,858.6c0.2-0.3,0.3-0.7,0.3-1.1c0-0.5-0.1-0.8-0.3-1.1s-0.5-0.4-0.8-0.4
			c-0.3,0-0.6,0.1-0.8,0.4c-0.2,0.3-0.3,0.7-0.3,1.1c0,0.3,0.1,0.7,0.2,1c0.1,0.3,0.3,0.7,0.7,1.2
			C1458.4,859.3,1458.7,859,1458.9,858.6z"/>
		<path class="st1" d="M1464.6,867c-0.2,0-0.4,0-0.5,0c-0.1,0-0.3,0-0.5,0v-12h1v5.8h0.1l3.5-5.8h1.2l-3.2,5.2l3.5,6.8h-1.3
			l-2.9-5.8l-1,1.6V867z"/>
		<path class="st1" d="M1471.1,866.4c-0.4-0.5-0.6-1.1-0.6-1.9c0-1.6,0.7-2.5,2.2-2.6l1.7-0.2v-0.8c0-0.6-0.1-1-0.3-1.3
			c-0.2-0.3-0.6-0.4-1-0.4c-0.4,0-0.7,0.1-0.9,0.3c-0.2,0.2-0.4,0.5-0.5,0.8h-1c0.1-0.7,0.3-1.3,0.7-1.7s1-0.7,1.6-0.7
			c0.7,0,1.3,0.3,1.7,0.8c0.4,0.5,0.6,1.3,0.6,2.2v6.1h-0.9v-1.3h-0.1c-0.2,0.5-0.4,0.8-0.8,1.1c-0.3,0.3-0.7,0.4-1.1,0.4
			C1472,867.2,1471.5,866.9,1471.1,866.4z M1473.9,865.3c0.3-0.4,0.5-1,0.5-1.6v-0.8l-1.6,0.2c-0.9,0.1-1.3,0.6-1.3,1.5
			c0,0.5,0.1,0.8,0.3,1.1c0.2,0.3,0.5,0.4,0.9,0.4C1473.2,865.9,1473.6,865.7,1473.9,865.3z"/>
		<path class="st1" d="M1477.1,867c0-1.2,0-2.3,0-3.1c0-0.9,0-1.8,0-2.7c0-0.9,0-1.9,0-3.1h0.9v1.4h0.1c0.2-0.5,0.4-0.9,0.7-1.2
			c0.3-0.3,0.7-0.4,1.1-0.4c0.7,0,1.2,0.3,1.5,0.9c0.4,0.6,0.5,1.4,0.5,2.5v5.8h-0.9v-5.4c0-0.8-0.1-1.4-0.3-1.8s-0.6-0.6-1.1-0.6
			c-0.5,0-0.9,0.2-1.1,0.7c-0.3,0.4-0.4,1.1-0.4,1.9v5.3H1477.1z"/>
		<path class="st1" d="M1483.9,866.4c-0.4-0.5-0.6-1.1-0.6-1.9c0-1.6,0.7-2.5,2.2-2.6l1.7-0.2v-0.8c0-0.6-0.1-1-0.3-1.3
			c-0.2-0.3-0.6-0.4-1-0.4c-0.4,0-0.7,0.1-0.9,0.3c-0.2,0.2-0.4,0.5-0.5,0.8h-1c0.1-0.7,0.3-1.3,0.7-1.7s1-0.7,1.6-0.7
			c0.7,0,1.3,0.3,1.7,0.8c0.4,0.5,0.6,1.3,0.6,2.2v6.1h-0.9v-1.3h-0.1c-0.2,0.5-0.4,0.8-0.8,1.1c-0.3,0.3-0.7,0.4-1.1,0.4
			C1484.8,867.2,1484.3,866.9,1483.9,866.4z M1486.8,865.3c0.3-0.4,0.5-1,0.5-1.6v-0.8l-1.6,0.2c-0.9,0.1-1.3,0.6-1.3,1.5
			c0,0.5,0.1,0.8,0.3,1.1c0.2,0.3,0.5,0.4,0.9,0.4C1486,865.9,1486.4,865.7,1486.8,865.3z"/>
		<path class="st1" d="M1494.6,859.1c0.5,0.8,0.7,2,0.7,3.4c0,1.4-0.2,2.5-0.7,3.4c-0.5,0.8-1.1,1.3-1.8,1.3c-0.4,0-0.8-0.1-1.1-0.4
			s-0.6-0.6-0.7-1.1h-0.1v4.3h-0.9V858h0.9v1.5h0.1c0.2-0.5,0.5-0.9,0.8-1.2s0.7-0.4,1.1-0.4
			C1493.6,857.9,1494.2,858.3,1494.6,859.1z M1493.9,865c0.3-0.6,0.5-1.4,0.5-2.5c0-1-0.2-1.9-0.5-2.5c-0.3-0.6-0.7-0.9-1.3-0.9
			c-0.5,0-1,0.3-1.3,0.9s-0.5,1.4-0.5,2.4c0,1,0.2,1.8,0.5,2.4c0.3,0.6,0.7,0.9,1.3,0.9C1493.2,865.9,1493.6,865.6,1493.9,865z"/>
	</g>
</g>
</svg>
