<?xml version="1.0" encoding="utf-8"?>
<!-- Generator: Adobe Illustrator 22.1.0, SVG Export Plug-In . SVG Version: 6.00 Build 0)  -->
<svg version="1.1" id="Layer_1" xmlns="http://www.w3.org/2000/svg" xmlns:xlink="http://www.w3.org/1999/xlink" x="0px" y="0px"
	 viewBox="0 0 250 180" style="enable-background:new 0 0 250 180;" xml:space="preserve">
<style type="text/css">
	.st0{fill:#99CC99;}
	.st1{fill:#FFEE90;}
	.st2{fill:#666666;}
	.st3{fill:#FFFFFF;}
	.st4{fill:url(#SVGID_1_);}
	.st5{fill:url(#SVGID_2_);}
	.st6{fill:#FFCC00;}
</style>
<g>
	<g>
		<g>
			<linearGradient id="SVGID_1_" gradientUnits="userSpaceOnUse" x1="125" y1="180" x2="125" y2="0">
				<stop  offset="0" style="stop-color:#666666"/>
				<stop  offset="1" style="stop-color:#99CC99"/>
			</linearGradient>
			<path class="st4" d="M61.8,163.4C42.8,170.5,0.5,179.9,0,180V0h250v71.6c-14.5,0.5-28.1,5.3-41,12.4
				c-20.1,10.9-39.8,22.8-59.5,34.5C121.1,135.4,92.5,151.8,61.8,163.4z"/>
			<linearGradient id="SVGID_2_" gradientUnits="userSpaceOnUse" x1="125" y1="180" x2="125" y2="179.99">
				<stop  offset="0" style="stop-color:#666666"/>
				<stop  offset="1" style="stop-color:#99CC99"/>
			</linearGradient>
			<polygon class="st5" points="250,180 0,180 250,180 			"/>
			<g>
				<path class="st1" d="M250,71.6V180L0,180c0.5-0.1,42.8-9.5,61.8-16.6c30.7-11.6,59.3-28,87.8-44.9
					c19.7-11.7,39.4-23.6,59.5-34.5C221.9,76.9,235.5,72.1,250,71.6z"/>
			</g>
		</g>
	</g>
	<g>
		<path class="st2" d="M192.3,111.8l27.3-0.1l6.8,0c2.3-0.1,4.6,0.1,6.7,1.1c2.1,1,3.9,2.5,5.2,4.5c1.3,1.9,1.9,4.3,2,6.6l0.2,27.3
			l0,6.8l0,1.7c0,0.6,0,1.2-0.1,1.8c-0.1,1.2-0.5,2.3-1,3.4c-1,2.2-2.6,4-4.6,5.3c-2,1.3-4.3,2-6.7,2l-27.3-0.1l-6.8,0
			c-2.2,0.1-4.7-0.1-6.8-1.2c-2.1-1-3.9-2.6-5.2-4.6c-1.3-2-1.9-4.3-1.9-6.6l0.2-27.3l0-6.8c-0.1-2.3,0.1-4.6,1.1-6.7
			c1-2.1,2.5-3.8,4.4-5.1C187.8,112.4,190,111.8,192.3,111.8z M192.3,111.8c-2.3,0-4.5,0.7-6.4,1.9c-1.9,1.2-3.5,3-4.4,5.1
			c-1,2.1-1.2,4.4-1.1,6.6l0,6.8l0.2,27.3c0,2.2,0.7,4.4,1.9,6.3c1.2,1.9,2.9,3.4,4.9,4.3c1,0.5,2.1,0.8,3.2,0.9
			c1.1,0.2,2.2,0.1,3.3,0.1l6.8,0l27.3-0.1c2.2,0,4.4-0.6,6.2-1.8c1.8-1.2,3.3-2.9,4.3-4.9c0.5-1,0.8-2,0.9-3.1
			c0.2-1.1,0.1-2.2,0.1-3.3l0-6.8l0.2-27.3c0-2.2-0.6-4.5-1.8-6.4c-1.2-1.9-2.9-3.5-4.9-4.4c-2-1-4.3-1.2-6.6-1.2l-6.8,0
			L192.3,111.8z"/>
	</g>
</g>
</svg>
