<?xml version="1.0" encoding="utf-8"?>
<!-- Generator: Adobe Illustrator 22.1.0, SVG Export Plug-In . SVG Version: 6.00 Build 0)  -->
<svg version="1.1" id="Layer_1" xmlns="http://www.w3.org/2000/svg" xmlns:xlink="http://www.w3.org/1999/xlink" x="0px" y="0px"
	 viewBox="0 0 250 47.2" style="enable-background:new 0 0 250 47.2;" xml:space="preserve">
<style type="text/css">
	.st0{fill:#99CC99;}
	.st1{fill:#FFEE90;}
	.st2{fill:#666666;}
	.st3{fill:#FFFFFF;}
	.st4{fill:url(#SVGID_1_);}
	.st5{fill:url(#SVGID_2_);}
	.st6{fill:#FFCC00;}
</style>
<g>
	<g>
		<path class="st2" d="M96,33.6c0,1.1,0.1,2,0.3,2.9c0.2,0.9,0.5,1.6,1,2.2c0.5,0.6,1.1,1.1,1.9,1.4c0.8,0.3,1.8,0.5,3,0.5
			c1.4,0,2.7-0.5,3.8-1.4c1.1-0.9,1.7-2.3,1.7-4.2c0-1-0.1-1.9-0.4-2.6c-0.3-0.7-0.7-1.4-1.4-2c-0.6-0.6-1.5-1.1-2.5-1.6
			s-2.3-1-3.9-1.5c-2-0.7-3.8-1.4-5.3-2.2c-1.5-0.8-2.7-1.8-3.7-2.8c-1-1.1-1.7-2.3-2.2-3.8c-0.5-1.4-0.7-3.1-0.7-4.9
			c0-4.5,1.3-7.9,3.8-10.1c2.5-2.2,6-3.3,10.3-3.3c2,0,3.9,0.2,5.6,0.7c1.7,0.4,3.2,1.2,4.5,2.2c1.3,1,2.2,2.3,2.9,3.8
			c0.7,1.6,1.1,3.4,1.1,5.6v1.3h-8.8c0-2.2-0.4-3.8-1.1-5c-0.8-1.2-2-1.8-3.8-1.8c-1,0-1.9,0.1-2.6,0.4c-0.7,0.3-1.2,0.7-1.6,1.2
			c-0.4,0.5-0.7,1.1-0.8,1.7c-0.1,0.6-0.2,1.3-0.2,2c0,1.4,0.3,2.6,0.9,3.5c0.6,1,1.9,1.8,3.8,2.6l7.1,3.1c1.7,0.8,3.2,1.6,4.3,2.4
			c1.1,0.8,2,1.7,2.6,2.7c0.7,1,1.1,2,1.4,3.2c0.3,1.1,0.4,2.4,0.4,3.8c0,4.8-1.4,8.3-4.2,10.5c-2.8,2.2-6.7,3.3-11.6,3.3
			c-5.2,0-8.9-1.1-11.1-3.4c-2.2-2.3-3.4-5.5-3.4-9.7v-1.8H96V33.6z"/>
		<path class="st2" d="M129.9,12.1v3.5h0.1c1.1-1.6,2.4-2.7,3.7-3.4c1.4-0.7,3-1,4.9-1c2,0,3.8,0.5,5.1,1.4c1.4,0.9,2.3,2.3,2.8,4.1
			h0.1c0.7-1.8,1.8-3.2,3.3-4.1c1.5-0.9,3.3-1.4,5.4-1.4c2.9,0,5.1,0.9,6.5,2.6c1.4,1.8,2.1,4.3,2.1,7.6v25h-8.8v-24
			c0-1.4-0.3-2.6-0.8-3.3c-0.5-0.8-1.4-1.1-2.6-1.1c-1.4,0-2.5,0.5-3.4,1.4c-0.8,0.9-1.2,2.4-1.2,4.5v22.6h-8.8v-24
			c0-1.4-0.3-2.6-0.8-3.3c-0.5-0.8-1.4-1.1-2.6-1.1c-1.4,0-2.5,0.5-3.4,1.4c-0.8,0.9-1.2,2.4-1.2,4.5v22.6h-8.8V12.1H129.9z"/>
		<path class="st2" d="M169.8,21.8c0-2,0.3-3.7,1-5c0.6-1.3,1.5-2.4,2.6-3.3c1.1-0.8,2.4-1.4,3.8-1.8c1.5-0.4,3-0.5,4.7-0.5
			c2.6,0,4.8,0.3,6.4,0.8c1.6,0.5,2.9,1.2,3.8,2.2c0.9,0.9,1.5,2.1,1.8,3.4c0.3,1.3,0.5,2.7,0.5,4.2v18.1c0,1.6,0.1,2.9,0.2,3.8
			c0.1,0.9,0.4,1.9,0.9,2.9H187c-0.3-0.6-0.5-1.1-0.7-1.8c-0.1-0.6-0.3-1.2-0.4-1.8h-0.1c-1,1.8-2.2,2.9-3.5,3.5
			c-1.3,0.5-3.1,0.8-5.2,0.8c-1.5,0-2.8-0.3-3.9-0.8c-1.1-0.5-1.9-1.3-2.6-2.2c-0.6-0.9-1.1-2-1.4-3.2c-0.3-1.2-0.4-2.3-0.4-3.5
			c0-1.6,0.2-3,0.5-4.2c0.3-1.2,0.9-2.2,1.6-3c0.7-0.8,1.6-1.5,2.7-2.1c1.1-0.6,2.4-1,3.9-1.5l5-1.3c1.3-0.3,2.2-0.8,2.7-1.4
			c0.5-0.6,0.8-1.5,0.8-2.6c0-1.3-0.3-2.4-0.9-3.1c-0.6-0.7-1.7-1.1-3.2-1.1c-1.4,0-2.4,0.4-3.1,1.2c-0.7,0.8-1,1.9-1,3.3v1h-7.9
			V21.8z M184,30.4c-0.7,0.3-1.3,0.5-1.9,0.6c-1.8,0.4-3.1,1-3.8,1.9c-0.8,0.9-1.1,2.1-1.1,3.6c0,1.3,0.3,2.4,0.8,3.4
			c0.5,0.9,1.4,1.4,2.6,1.4c0.6,0,1.2-0.1,1.9-0.3c0.6-0.2,1.2-0.5,1.8-0.9c0.5-0.4,1-1,1.3-1.7c0.3-0.7,0.5-1.5,0.5-2.4v-6.8
			C185.3,29.7,184.6,30.1,184,30.4z"/>
		<path class="st2" d="M209,12.1v4.6h0.1c0.9-1.7,2-3,3.3-4c1.3-1,2.8-1.5,4.7-1.5c0.3,0,0.5,0,0.8,0c0.3,0,0.5,0.1,0.8,0.1v8.4
			c-0.5,0-0.9-0.1-1.4-0.1c-0.4,0-0.9,0-1.4,0c-0.8,0-1.5,0.1-2.3,0.3c-0.8,0.2-1.5,0.6-2.1,1.1c-0.6,0.5-1.1,1.1-1.5,1.9
			c-0.4,0.8-0.6,1.8-0.6,2.9v20.6h-8.8V12.1H209z"/>
		<path class="st2" d="M235.1,2.3v9.8h5.1v6h-5.1v18.6c0,1.4,0.2,2.3,0.6,2.9c0.4,0.6,1.2,0.9,2.5,0.9c0.3,0,0.7,0,1,0
			c0.3,0,0.7-0.1,1-0.1v6.1c-1,0-1.9,0-2.8,0.1c-0.9,0.1-1.9,0.1-2.9,0.1c-1.7,0-3.1-0.1-4.2-0.4c-1.1-0.2-1.9-0.7-2.5-1.4
			c-0.6-0.7-1-1.6-1.2-2.8c-0.2-1.1-0.3-2.6-0.3-4.3V18.1h-4.5v-6h4.5V2.3H235.1z"/>
	</g>
	<g>
		<g>
			<path class="st0" d="M9.2,32.7c0,1.1,0.1,2.2,0.2,3.2c0.1,1,0.4,1.8,0.8,2.5c0.4,0.7,1,1.3,1.7,1.7c0.7,0.4,1.6,0.6,2.6,0.6
				c1.1,0,2-0.2,2.7-0.6c0.7-0.4,1.2-1,1.6-1.7c0.4-0.7,0.7-1.5,0.8-2.5c0.1-1,0.2-2,0.2-3.2V0.9h9.2v31.8c0,2.9-0.4,5.3-1.2,7.2
				c-0.8,1.9-1.9,3.4-3.3,4.5c-1.4,1.1-2.9,1.8-4.7,2.2c-1.7,0.4-3.6,0.6-5.4,0.6s-3.7-0.2-5.4-0.5c-1.7-0.3-3.3-1-4.7-2.1
				c-1.4-1-2.4-2.5-3.3-4.4C0.4,38.2,0,35.8,0,32.7V0.9h9.2V32.7z"/>
			<path class="st0" d="M51.9,0.9c3.8,0,6.8,1,8.9,2.9c2.1,1.9,3.2,4.9,3.2,8.8c0,3.1-0.6,5.6-1.8,7.5c-1.2,1.9-3.1,3.2-5.7,3.7V24
				c2.3,0.3,4,1.1,5,2.2c1.1,1.1,1.7,3,2,5.6c0.1,0.9,0.1,1.8,0.2,2.8c0,1,0.1,2.1,0.1,3.4c0.1,2.4,0.2,4.3,0.4,5.6
				c0.3,1.3,0.8,2.1,1.7,2.6v0.4h-10c-0.5-0.6-0.8-1.4-0.9-2.2c-0.1-0.8-0.2-1.7-0.3-2.6l-0.3-8.7c-0.1-1.8-0.5-3.2-1.3-4.2
				c-0.8-1-2.2-1.5-4.1-1.5h-4.9v19.3h-9.2V0.9H51.9z M47.9,20.8c2.2,0,3.9-0.5,5.1-1.6c1.2-1,1.8-2.8,1.8-5.3
				c0-4.2-2.1-6.3-6.4-6.3h-4.3v13.1H47.9z"/>
			<path class="st0" d="M70.8,0.9H80v45.6h-9.2V0.9z"/>
		</g>
		<g>
			<path class="st0" d="M240.2,7.2c0-0.7,0.1-1.3,0.4-1.9c0.3-0.6,0.6-1.1,1.1-1.6c0.4-0.4,1-0.8,1.6-1.1s1.2-0.4,1.9-0.4
				s1.3,0.1,1.9,0.4c0.6,0.3,1.1,0.6,1.6,1.1c0.4,0.4,0.8,1,1.1,1.6c0.3,0.6,0.4,1.2,0.4,1.9c0,0.7-0.1,1.3-0.4,1.9
				c-0.3,0.6-0.6,1.1-1.1,1.6c-0.4,0.4-1,0.8-1.6,1.1c-0.6,0.3-1.2,0.4-1.9,0.4s-1.3-0.1-1.9-0.4s-1.1-0.6-1.6-1.1
				c-0.4-0.4-0.8-1-1.1-1.6C240.3,8.5,240.2,7.9,240.2,7.2z M240.9,7.2c0,0.6,0.1,1.1,0.3,1.6c0.2,0.5,0.5,1,0.9,1.3
				c0.4,0.4,0.8,0.7,1.3,0.9c0.5,0.2,1.1,0.3,1.6,0.3c0.6,0,1.1-0.1,1.6-0.3c0.5-0.2,1-0.5,1.3-0.9c0.4-0.4,0.7-0.8,0.9-1.3
				c0.2-0.5,0.3-1.1,0.3-1.6s-0.1-1.1-0.3-1.6c-0.2-0.5-0.5-1-0.9-1.3c-0.4-0.4-0.8-0.7-1.3-0.9c-0.5-0.2-1.1-0.3-1.6-0.3
				c-0.6,0-1.1,0.1-1.6,0.3c-0.5,0.2-1,0.5-1.3,0.9c-0.4,0.4-0.7,0.8-0.9,1.3C241,6.1,240.9,6.6,240.9,7.2z M244,10h-0.7V4.3h2.2
				c0.6,0,1.1,0.1,1.4,0.4c0.3,0.3,0.4,0.7,0.4,1.2c0,0.3,0,0.5-0.1,0.7c-0.1,0.2-0.2,0.3-0.3,0.5c-0.1,0.1-0.3,0.2-0.5,0.3
				c-0.2,0.1-0.4,0.1-0.5,0.2l1.7,2.5h-0.8L245,7.5h-1V10z M244,6.9h0.9c0.2,0,0.4,0,0.6,0c0.2,0,0.4-0.1,0.5-0.1
				c0.2-0.1,0.3-0.2,0.4-0.3c0.1-0.1,0.1-0.3,0.1-0.5c0-0.2,0-0.3-0.1-0.5c-0.1-0.1-0.2-0.2-0.3-0.3c-0.1-0.1-0.3-0.1-0.4-0.2
				c-0.2,0-0.3,0-0.5,0H244V6.9z"/>
		</g>
	</g>
</g>
</svg>
