<svg id="Layer_1" data-name="Layer 1" xmlns="http://www.w3.org/2000/svg" viewBox="0 0 132.97 25.46"><defs><style>.cls-1,.cls-2{fill:none;stroke-miterlimit:10;stroke-width:0.4px;}.cls-1{stroke:#9c9;}.cls-2{stroke:#fc0;}.cls-3{fill:#fc0;}</style></defs><title>Artboard 1</title><path class="cls-1" d="M51.19,18a8,8,0,0,0,.14,1.54,2.61,2.61,0,0,0,.51,1.17,2.47,2.47,0,0,0,1,.75,4,4,0,0,0,1.57.27,3.1,3.1,0,0,0,2-.73,2.72,2.72,0,0,0,.9-2.25,4.26,4.26,0,0,0-.22-1.41,2.88,2.88,0,0,0-.73-1.07A5.44,5.44,0,0,0,55,15.44a18.83,18.83,0,0,0-2-.8,17.48,17.48,0,0,1-2.81-1.18,7.72,7.72,0,0,1-2-1.51A5.18,5.18,0,0,1,47,10a8.38,8.38,0,0,1-.38-2.63,6.77,6.77,0,0,1,2-5.35A8,8,0,0,1,54.14.21a11.76,11.76,0,0,1,3,.35,6.24,6.24,0,0,1,2.37,1.15,5.38,5.38,0,0,1,1.56,2,7,7,0,0,1,.56,3v.68H57a4.91,4.91,0,0,0-.61-2.66,2.26,2.26,0,0,0-2-.93A3.33,3.33,0,0,0,53,4a2.18,2.18,0,0,0-.87.62,2.23,2.23,0,0,0-.44.9,4.57,4.57,0,0,0-.12,1.05A3.45,3.45,0,0,0,52,8.49,4.2,4.2,0,0,0,54,9.9l3.76,1.62a11.39,11.39,0,0,1,2.27,1.28,6.11,6.11,0,0,1,1.41,1.42,4.85,4.85,0,0,1,.73,1.68,9.7,9.7,0,0,1,.2,2q0,3.83-2.22,5.57A9.73,9.73,0,0,1,54,25.25q-4.14,0-5.92-1.8a7,7,0,0,1-1.78-5.15v-1h4.88Z"/><path class="cls-1" d="M69.19,6.64V8.51h.07a5.3,5.3,0,0,1,2-1.8,5.9,5.9,0,0,1,2.63-.54,4.71,4.71,0,0,1,2.72.75,3.59,3.59,0,0,1,1.48,2.16h.07A4.15,4.15,0,0,1,79.88,6.9a5.38,5.38,0,0,1,2.86-.73,4.09,4.09,0,0,1,3.44,1.41,6.39,6.39,0,0,1,1.11,4.05V24.88H82.61V12.14a3.13,3.13,0,0,0-.42-1.77,1.63,1.63,0,0,0-1.41-.61,2.25,2.25,0,0,0-1.78.75,3.53,3.53,0,0,0-.66,2.37v12H73.66V12.14a3.13,3.13,0,0,0-.42-1.77,1.6,1.6,0,0,0-1.41-.61,2.26,2.26,0,0,0-1.78.75,3.53,3.53,0,0,0-.66,2.37v12H64.72V6.64Z"/><path class="cls-1" d="M90.37,11.8a6.12,6.12,0,0,1,.51-2.66,4.55,4.55,0,0,1,1.37-1.73,5.44,5.44,0,0,1,2-1,10.51,10.51,0,0,1,2.5-.29,11.52,11.52,0,0,1,3.38.41,4.56,4.56,0,0,1,2,1.15,3.84,3.84,0,0,1,1,1.78,9.4,9.4,0,0,1,.25,2.25v9.59a12.72,12.72,0,0,0,.12,2,6.74,6.74,0,0,0,.46,1.53H99.49a4.07,4.07,0,0,1-.36-.93c-.08-.33-.15-.65-.22-1h-.07A4,4,0,0,1,97,24.83a7.63,7.63,0,0,1-2.76.42,4.66,4.66,0,0,1-2.07-.42,3.66,3.66,0,0,1-1.35-1.17A5.33,5.33,0,0,1,90,22a7.4,7.4,0,0,1-.24-1.85,7.64,7.64,0,0,1,.28-2.22,4.16,4.16,0,0,1,.83-1.59,4.39,4.39,0,0,1,1.42-1.1,11.68,11.68,0,0,1,2.08-.78l2.65-.71A2.76,2.76,0,0,0,98.5,13a2.08,2.08,0,0,0,.41-1.39A2.47,2.47,0,0,0,98.42,10a2.06,2.06,0,0,0-1.68-.59,2,2,0,0,0-1.63.64,2.61,2.61,0,0,0-.54,1.73v.51h-4.2Zm7.52,4.55a6.65,6.65,0,0,1-1,.33,3.56,3.56,0,0,0-2,1,2.86,2.86,0,0,0-.61,1.93,3.71,3.71,0,0,0,.4,1.8,1.44,1.44,0,0,0,1.36.75A3.14,3.14,0,0,0,97,22a2.6,2.6,0,0,0,.93-.49,2.46,2.46,0,0,0,.7-.88,2.86,2.86,0,0,0,.27-1.29V15.76A4,4,0,0,1,97.89,16.35Z"/><path class="cls-1" d="M111.18,6.64V9.08h.07A6.63,6.63,0,0,1,113,7a3.92,3.92,0,0,1,2.48-.8l.42,0,.42,0v4.47l-.72-.05-.73,0a4.6,4.6,0,0,0-1.22.17,3.37,3.37,0,0,0-1.12.56,2.74,2.74,0,0,0-.81,1,3.41,3.41,0,0,0-.31,1.54v11H106.7V6.64Z"/><path class="cls-1" d="M125,1.43V6.64h2.71V9.83H125v9.86a2.7,2.7,0,0,0,.32,1.54c.21.31.66.46,1.34.46a4.87,4.87,0,0,0,.54,0,4,4,0,0,0,.51-.05v3.26c-.52,0-1,0-1.51.05s-1,.05-1.54.05a10.34,10.34,0,0,1-2.22-.19,2.21,2.21,0,0,1-1.32-.74,3.19,3.19,0,0,1-.63-1.48,13.19,13.19,0,0,1-.17-2.3V9.83H118V6.64h2.37V1.43Z"/><path class="cls-2" d="M5.08,17.58a10.84,10.84,0,0,0,.12,1.67,3.67,3.67,0,0,0,.44,1.32,2.26,2.26,0,0,0,.88.88,2.72,2.72,0,0,0,1.41.33,2.71,2.71,0,0,0,1.42-.33,2.27,2.27,0,0,0,.86-.88,3.88,3.88,0,0,0,.45-1.32,12.32,12.32,0,0,0,.11-1.67V.7h4.88V17.58A9.78,9.78,0,0,1,15,21.39a6.18,6.18,0,0,1-1.73,2.39A5.9,5.9,0,0,1,10.81,25a13,13,0,0,1-2.88.31A15,15,0,0,1,5.05,25a5.87,5.87,0,0,1-2.48-1.1A5.72,5.72,0,0,1,.84,21.54a10.31,10.31,0,0,1-.64-4V.7H5.08Z"/><path class="cls-2" d="M27.75.7A6.81,6.81,0,0,1,32.5,2.24a6,6,0,0,1,1.69,4.69,7.37,7.37,0,0,1-1,4,4.6,4.6,0,0,1-3.05,2V13a4.38,4.38,0,0,1,2.67,1.18,5,5,0,0,1,1.06,3c0,.45.07.94.1,1.47s0,1.13.07,1.78c0,1.29.11,2.27.2,2.95a1.88,1.88,0,0,0,.88,1.39v.2H29.85a2.55,2.55,0,0,1-.47-1.16,11.93,11.93,0,0,1-.14-1.38l-.13-4.64a4,4,0,0,0-.71-2.24,2.63,2.63,0,0,0-2.17-.81H23.62V24.89H18.74V.7Zm-2.1,10.57a4,4,0,0,0,2.71-.83,3.55,3.55,0,0,0,.95-2.79q0-3.36-3.39-3.36h-2.3v7Z"/><path class="cls-2" d="M37.82.7H42.7V24.89H37.82Z"/><path class="cls-3" d="M127.75,4A2.47,2.47,0,0,1,128,3a2.59,2.59,0,0,1,.56-.83,2.77,2.77,0,0,1,.82-.56,2.69,2.69,0,0,1,1-.2,2.6,2.6,0,0,1,1,.2,2.82,2.82,0,0,1,.83.56,3,3,0,0,1,.56.83A2.47,2.47,0,0,1,133,4a2.52,2.52,0,0,1-.21,1,3,3,0,0,1-.56.83,2.82,2.82,0,0,1-.83.56,2.6,2.6,0,0,1-1,.2,2.69,2.69,0,0,1-1-.2,2.77,2.77,0,0,1-.82-.56,2.59,2.59,0,0,1-.56-.83A2.52,2.52,0,0,1,127.75,4Zm.38,0a2.29,2.29,0,0,0,.17.87,2.22,2.22,0,0,0,.48.71,2.34,2.34,0,0,0,.71.48,2.31,2.31,0,0,0,1.74,0,2.47,2.47,0,0,0,.71-.48,2,2,0,0,0,.47-.71,2.17,2.17,0,0,0,0-1.73,2,2,0,0,0-.47-.71,2.47,2.47,0,0,0-.71-.48,2.19,2.19,0,0,0-1.74,0,2.34,2.34,0,0,0-.71.48,2.22,2.22,0,0,0-.48.71A2.27,2.27,0,0,0,128.13,4Zm1.66,1.5h-.38v-3h1.16a1,1,0,0,1,.73.21.86.86,0,0,1,.21.62,1,1,0,0,1-.06.36.6.6,0,0,1-.16.25.78.78,0,0,1-.24.16,1.4,1.4,0,0,1-.29.09l.89,1.32h-.42l-.9-1.32h-.54Zm0-1.66h.79a.82.82,0,0,0,.28-.06.62.62,0,0,0,.2-.15.51.51,0,0,0,.08-.3.48.48,0,0,0-.06-.24.57.57,0,0,0-.16-.15.63.63,0,0,0-.22-.08,1,1,0,0,0-.24,0h-.67Z"/></svg>