<svg id="Layer_1" data-name="Layer 1" xmlns="http://www.w3.org/2000/svg" viewBox="0 0 51.01 164.41"><defs><style>.cls-1{fill:#ffee90;}.cls-2{fill:#fc0;}</style></defs><title>Artboard 1</title><path class="cls-1" d="M0,164.41H1.94c25.42-.5,46.68-19.31,48.85-42.52.79-8.49-1.71-16.23-5.69-23.57-5.13-9.46-10.71-18.7-16.22-28C20.93,57,13.26,43.49,7.81,29.06,4.44,20.14.06.25,0,0Z"/><path class="cls-2" d="M0,143.86H1.33c17.37-.37,31.9-14.31,33.38-31.52.54-6.29-1.17-12-3.89-17.47-3.51-7-7.32-13.87-11.08-20.74A135.79,135.79,0,0,1,7.9,46.62C2.07,28.13,0,.19,0,0Z"/></svg>