<svg id="Layer_1" data-name="Layer 1" xmlns="http://www.w3.org/2000/svg" viewBox="0 0 164.41 50.95"><defs><style>.cls-1{fill:#ffee90;}.cls-2{fill:#fc0;}</style></defs><title>Artboard 1</title><path class="cls-1" d="M0,0S0,1.29,0,1.94c.5,25.42,19.31,46.68,42.52,48.85,8.49.79,16.23-1.71,23.57-5.69,9.46-5.13,18.7-10.71,28-16.22,13.37-7.95,26.85-15.62,41.28-21.07C144.27,4.44,164.16.06,164.41,0Z"/><path class="cls-2" d="M20.55,0s0,.88,0,1.33c.37,17.37,14.31,31.9,31.52,33.38,6.3.54,12-1.17,17.47-3.89,7-3.5,13.87-7.32,20.74-11.08A135.79,135.79,0,0,1,117.79,7.9C136.28,2.07,164.22,0,164.41,0Z"/></svg>