<svg id="Layer_1" data-name="Layer 1" xmlns="http://www.w3.org/2000/svg" viewBox="0 0 41 41"><defs><style>.cls-1{fill:#666766;}.cls-2{fill:#feee8f;}.cls-3{fill:#9c9;}</style></defs><title>Ikonice</title><rect class="cls-1" x="0.5" y="0.5" width="40" height="40" rx="12" ry="12"/><path class="cls-2" d="M12.5.5l8.71,0h4.35c1.45,0,2.9-.07,4.36.07a12.12,12.12,0,0,1,7.65,3.93,12.27,12.27,0,0,1,3.18,8.05l.09,8.71,0,4.35c0,1.46.09,2.88-.06,4.4a12.4,12.4,0,0,1-4.07,7.84A12.57,12.57,0,0,1,28.5,41l-8.71,0H15.44c-1.46,0-2.88,0-4.4-.12A12.38,12.38,0,0,1,.25,28.5l.09-8.71,0-4.35c0-1.45,0-2.9.13-4.36A12.09,12.09,0,0,1,12.5.5Zm0,0A12,12,0,0,0,4.57,3.58,11.88,11.88,0,0,0,.66,11.1C.52,12.53.62,14,.61,15.44l.05,4.35L.75,28.5a11.75,11.75,0,0,0,3.06,7.72A11.62,11.62,0,0,0,11.14,40c1.37.14,2.85.06,4.3.07h4.35l8.71,0A11.59,11.59,0,0,0,40,29.86c.15-1.37.1-2.85.13-4.3l0-4.35.09-8.71A11.9,11.9,0,0,0,29.9.66C28.47.51,27,.58,25.56.55H21.21Z"/><path class="cls-3" d="M18.18,24.27v-1a6.58,6.58,0,0,1,.43-2.45,7.85,7.85,0,0,1,1.58-2.26,7.88,7.88,0,0,0,1.39-1.86,4.24,4.24,0,0,0,.3-1.72,2.59,2.59,0,0,0-.44-1.55,1.61,1.61,0,0,0-1.39-.6,6.15,6.15,0,0,0-3.34,1.13L15.33,11a8.86,8.86,0,0,1,5.11-1.57,5.29,5.29,0,0,1,3.82,1.34,4.92,4.92,0,0,1,1.41,3.74,7.49,7.49,0,0,1-.49,2.84,10.24,10.24,0,0,1-2,2.81,7.61,7.61,0,0,0-1.25,1.65,3.79,3.79,0,0,0-.28,1.58v.89Zm-.69,4.9a2.18,2.18,0,0,1,2.44-2.4,2.44,2.44,0,0,1,1.82.63,2.46,2.46,0,0,1,.61,1.77,2.22,2.22,0,0,1-2.43,2.41A2.44,2.44,0,0,1,18.12,31,2.4,2.4,0,0,1,17.49,29.17Z"/></svg>