<svg id="Layer_1" data-name="Layer 1" xmlns="http://www.w3.org/2000/svg" viewBox="0 0 41 41"><defs><style>.cls-1{fill:#666766;}.cls-2{fill:#feee8f;}.cls-3{fill:#9c9;}</style></defs><title>Ikonice</title><rect class="cls-1" x="0.5" y="0.5" width="40" height="40" rx="12" ry="12"/><path class="cls-2" d="M12.5.5l8.71,0h4.35c1.45,0,2.9-.07,4.36.07a12.12,12.12,0,0,1,7.65,3.93,12.27,12.27,0,0,1,3.18,8.05l.09,8.71,0,4.35c0,1.46.09,2.88-.06,4.4a12.4,12.4,0,0,1-4.07,7.84A12.57,12.57,0,0,1,28.5,41l-8.71,0H15.44c-1.46,0-2.88,0-4.4-.12A12.38,12.38,0,0,1,.25,28.5l.09-8.71,0-4.35c0-1.45,0-2.9.13-4.36A12.09,12.09,0,0,1,12.5.5Zm0,0A12,12,0,0,0,4.57,3.58,11.88,11.88,0,0,0,.66,11.1C.52,12.53.62,14,.61,15.44l.05,4.35L.75,28.5a11.75,11.75,0,0,0,3.06,7.72A11.62,11.62,0,0,0,11.14,40c1.37.14,2.85.06,4.3.07h4.35l8.71,0A11.59,11.59,0,0,0,40,29.86c.15-1.37.1-2.85.13-4.3l0-4.35.09-8.71A11.9,11.9,0,0,0,29.9.66C28.47.51,27,.58,25.56.55H21.21Z"/><rect class="cls-3" x="8.74" y="9.53" width="23.52" height="21.94"/><path class="cls-1" d="M8.74,9.53c2.1,1.68,4.13,3.43,6.14,5.2s4,3.59,6,5.4h-.68c2-1.82,3.94-3.63,6-5.4l3-2.64c1-.85,2.05-1.73,3.11-2.56-.9,1-1.85,2-2.77,2.92L26.64,15.3c-1.9,1.89-3.85,3.73-5.8,5.57l-.34.32-.34-.32c-1.95-1.84-3.9-3.68-5.8-5.58S10.56,11.51,8.74,9.53Z"/></svg>