<svg id="Layer_1" data-name="Layer 1" xmlns="http://www.w3.org/2000/svg" viewBox="0 0 127 127"><defs><style>.cls-1{fill:#676767;}.cls-2{fill:#feee8f;}.cls-3{fill:#9c9;}.cls-4{fill:#666766;}.cls-5{fill:#6d6e71;}</style></defs><title>K</title><rect class="cls-1" x="1" y="1" width="125" height="125" rx="10" ry="10"/><path class="cls-2" d="M116,126.1H85.83l-30.18.11-30.17.15c-5,0-10,.07-15.11,0A10.51,10.51,0,0,1,.5,116L.35,55.65.28,25.48c0-5.05-.06-10,0-15.13A10.81,10.81,0,0,1,11,.2L71.35,0h43.37c.64,0,1.23,0,2,0A11,11,0,0,1,127,11l-.17,30.17-.3,30.18-.28,30.17c0,5,0,10-.11,15.1A10.16,10.16,0,0,1,116,126.1Zm0-.2a9.89,9.89,0,0,0,9.79-9.3c0-5,0-10.06,0-15.08l-.28-30.17-.3-30.18L125,11a9,9,0,0,0-8.45-9c-.54,0-1.21,0-1.83,0H71.35L11,1.8a9.26,9.26,0,0,0-9.21,8.64c-.07,4.93,0,10-.06,15L1.65,55.65,1.5,116a9.57,9.57,0,0,0,8.92,9.54c5,.09,10,.07,15.06.11l30.17.14,30.18.11Z"/><path class="cls-3" d="M36.53,23.28a1.48,1.48,0,0,0-1.1-.47,2.64,2.64,0,0,0-.55.06,1.46,1.46,0,0,0-.51.22,1.3,1.3,0,0,0-.37.43,1.46,1.46,0,0,0-.14.68,1.23,1.23,0,0,0,.17.65,1.76,1.76,0,0,0,.44.51,3.86,3.86,0,0,0,.63.43l.71.41.72.51a3.64,3.64,0,0,1,.62.62,2.92,2.92,0,0,1,.44.82,3.16,3.16,0,0,1,.17,1.11,4,4,0,0,1-.27,1.55,2.84,2.84,0,0,1-.7,1,2.58,2.58,0,0,1-1,.58,3.4,3.4,0,0,1-1.08.18,3.76,3.76,0,0,1-1.19-.18,2.3,2.3,0,0,1-.94-.6A3,3,0,0,1,32,30.7a5.82,5.82,0,0,1-.23-1.76H33a2.7,2.7,0,0,0,.13,1,1.55,1.55,0,0,0,.41.66,1.59,1.59,0,0,0,.62.35,2.51,2.51,0,0,0,1.33,0,1.54,1.54,0,0,0,.55-.29,1.44,1.44,0,0,0,.39-.51,1.84,1.84,0,0,0,.15-.78,1.36,1.36,0,0,0-.17-.69,2.18,2.18,0,0,0-.45-.52,4.47,4.47,0,0,0-.62-.43c-.23-.13-.47-.27-.71-.43s-.48-.29-.72-.46a3.56,3.56,0,0,1-.63-.6,3.06,3.06,0,0,1-.44-.82,3.13,3.13,0,0,1-.16-1.07A3.54,3.54,0,0,1,32.88,23a3.1,3.1,0,0,1,.62-1,2.75,2.75,0,0,1,.88-.6,2.58,2.58,0,0,1,1-.21,3,3,0,0,1,1,.18,2.24,2.24,0,0,1,.89.59,3.17,3.17,0,0,1,.64,1.07,4.81,4.81,0,0,1,.24,1.62H37A1.86,1.86,0,0,0,36.53,23.28Z"/><path class="cls-3" d="M40.12,28.42a3.83,3.83,0,0,0,.16,1.12,2.6,2.6,0,0,0,.43.83,2.2,2.2,0,0,0,.61.5,1.54,1.54,0,0,0,.72.18,1.79,1.79,0,0,0,1.34-.54A3.2,3.2,0,0,0,44.17,29h1.21a5.91,5.91,0,0,1-.45,1.6,3.93,3.93,0,0,1-.76,1.13,3,3,0,0,1-1,.69,2.94,2.94,0,0,1-1.14.23,2.67,2.67,0,0,1-1.52-.41,3,3,0,0,1-1-1.05,4.69,4.69,0,0,1-.5-1.42,8.5,8.5,0,0,1-.14-1.48,12.17,12.17,0,0,1,.31-2.86A8.72,8.72,0,0,1,40,23.17a4.52,4.52,0,0,1,1.22-1.44,2.47,2.47,0,0,1,1.45-.5,2.56,2.56,0,0,1,2.38,1.26,7.05,7.05,0,0,1,.75,3.57,6.91,6.91,0,0,1,0,.8c0,.25,0,.45-.07.61H40.17C40.14,27.78,40.12,28.09,40.12,28.42Zm4.46-3.66a3.59,3.59,0,0,0-.29-1,1.93,1.93,0,0,0-.55-.7,1.38,1.38,0,0,0-.84-.26,1.86,1.86,0,0,0-.95.24,2.34,2.34,0,0,0-.74.67,3.81,3.81,0,0,0-.53,1,7.16,7.16,0,0,0-.34,1.19h4.29A6.07,6.07,0,0,0,44.58,24.76Z"/><path class="cls-3" d="M47.58,23.2a3.87,3.87,0,0,1,.72-1.11,2.81,2.81,0,0,1,1-.65,3.14,3.14,0,0,1,1.13-.21,3.77,3.77,0,0,1,1,.13,2.06,2.06,0,0,1,1.45,1.29A3.54,3.54,0,0,1,53.11,24,7.31,7.31,0,0,1,53,25c-.06.36-.11.69-.15,1l-.47,3c0,.23-.07.48-.13.76a4.61,4.61,0,0,0-.08.8,1.07,1.07,0,0,0,.1.53.31.31,0,0,0,.26.15.58.58,0,0,0,.2-.05l.19-.1-.19,1.33a1.54,1.54,0,0,1-.36.16,1.23,1.23,0,0,1-.38.07.84.84,0,0,1-.76-.4,1.8,1.8,0,0,1-.2-1.12l0,0a2.94,2.94,0,0,1-1,1.16,2.55,2.55,0,0,1-1.51.4,2.3,2.3,0,0,1-.88-.16,1.7,1.7,0,0,1-.71-.52,2.92,2.92,0,0,1-.48-.95,4.88,4.88,0,0,1-.18-1.43,4.15,4.15,0,0,1,.35-1.87,2.66,2.66,0,0,1,.9-1,3.33,3.33,0,0,1,1.2-.48L50,26c.33,0,.6-.09.84-.14a1.45,1.45,0,0,0,.58-.24.94.94,0,0,0,.33-.48,2.83,2.83,0,0,0,.11-.87,1.6,1.6,0,0,0-.14-.71,1.33,1.33,0,0,0-.36-.44,1.32,1.32,0,0,0-.48-.22,2.29,2.29,0,0,0-1.19,0,1.82,1.82,0,0,0-.6.35,2,2,0,0,0-.46.61,2.58,2.58,0,0,0-.24.9H47.2A5,5,0,0,1,47.58,23.2Zm.34,7.47a1.33,1.33,0,0,0,.92.38,2.14,2.14,0,0,0,2.08-1.43,4.8,4.8,0,0,0,.41-1.33c.07-.48.15-1,.23-1.48h0a1.31,1.31,0,0,1-.65.39,5.3,5.3,0,0,1-.83.18l-.9.16a2.62,2.62,0,0,0-.81.31,1.67,1.67,0,0,0-.58.6,2.16,2.16,0,0,0-.24,1.08A1.48,1.48,0,0,0,47.92,30.67Z"/><path class="cls-3" d="M57.15,17.33,55,32.38h-1.2l2.13-15.05Z"/><path class="cls-3" d="M63.61,21.48,63.36,23h0a3.64,3.64,0,0,1,1.12-1.43,2.51,2.51,0,0,1,2.57-.05,2.73,2.73,0,0,1,.91.91,4.72,4.72,0,0,1,.56,1.41,8.57,8.57,0,0,1,.18,1.82,10.88,10.88,0,0,1-.28,2.47,8.64,8.64,0,0,1-.8,2.23A4.89,4.89,0,0,1,66.37,32a2.7,2.7,0,0,1-1.74.61,3.4,3.4,0,0,1-.69-.08,2,2,0,0,1-.69-.31,2.14,2.14,0,0,1-.57-.59,2.19,2.19,0,0,1-.35-.92h0l-.79,5.82H60.33l2.14-15Zm3.46,2.11a1.55,1.55,0,0,0-1.45-.78,1.72,1.72,0,0,0-1.23.53,4.13,4.13,0,0,0-.91,1.32,8.53,8.53,0,0,0-.56,1.75,9.08,9.08,0,0,0-.19,1.82,3.87,3.87,0,0,0,.48,2,1.53,1.53,0,0,0,1.38.8,1.83,1.83,0,0,0,1.27-.49,4,4,0,0,0,.91-1.28,7,7,0,0,0,.56-1.73,9.15,9.15,0,0,0,.19-1.85A4.21,4.21,0,0,0,67.07,23.59Z"/><path class="cls-3" d="M72.11,21.48l-.36,2.34h0A5.84,5.84,0,0,1,72.87,22a2.06,2.06,0,0,1,1.6-.74l.21,0a.31.31,0,0,1,.21,0l-.28,1.92a.47.47,0,0,0-.19,0h-.54a1,1,0,0,0-.36.09,2.3,2.3,0,0,0-.89.65A4.7,4.7,0,0,0,72,25a5.94,5.94,0,0,0-.39,1.23c-.09.48-.17.91-.23,1.32l-.7,4.83h-1.2L71,21.48Z"/><path class="cls-3" d="M74.52,25.51a7.66,7.66,0,0,1,.81-2.19,4.76,4.76,0,0,1,1.3-1.52,2.84,2.84,0,0,1,1.74-.57,2.6,2.6,0,0,1,2.29,1.15,6,6,0,0,1,.78,3.36,12.12,12.12,0,0,1-.27,2.57,8.16,8.16,0,0,1-.8,2.2A4.65,4.65,0,0,1,79.08,32a2.79,2.79,0,0,1-1.73.57,2.47,2.47,0,0,1-1.3-.34,2.81,2.81,0,0,1-1-.93,4.51,4.51,0,0,1-.62-1.44,7.39,7.39,0,0,1-.21-1.82A11.44,11.44,0,0,1,74.52,25.51ZM76,30.23a1.67,1.67,0,0,0,1.51.82,1.64,1.64,0,0,0,1.18-.5,4.29,4.29,0,0,0,.86-1.28,7.68,7.68,0,0,0,.53-1.68,8.71,8.71,0,0,0,.18-1.7,5.81,5.81,0,0,0-.12-1.2,3,3,0,0,0-.35-1,2,2,0,0,0-.61-.66,1.53,1.53,0,0,0-.87-.24,1.74,1.74,0,0,0-1.23.51,4.15,4.15,0,0,0-.88,1.27,7.2,7.2,0,0,0-.54,1.7,9.32,9.32,0,0,0-.18,1.77A4,4,0,0,0,76,30.23Z"/><path class="cls-3" d="M82.72,25.51a8,8,0,0,1,.82-2.19,4.76,4.76,0,0,1,1.3-1.52,2.84,2.84,0,0,1,1.74-.57,2.57,2.57,0,0,1,2.28,1.15,5.87,5.87,0,0,1,.79,3.36,12.12,12.12,0,0,1-.27,2.57,8.16,8.16,0,0,1-.8,2.2A4.78,4.78,0,0,1,87.29,32a2.79,2.79,0,0,1-1.73.57,2.51,2.51,0,0,1-1.31-.34,3,3,0,0,1-1-.93,4.74,4.74,0,0,1-.61-1.44,7.38,7.38,0,0,1-.22-1.82A12,12,0,0,1,82.72,25.51Zm1.45,4.72a1.68,1.68,0,0,0,1.52.82,1.64,1.64,0,0,0,1.18-.5,4.48,4.48,0,0,0,.86-1.28,7.68,7.68,0,0,0,.53-1.68,8.66,8.66,0,0,0,.17-1.7,5.82,5.82,0,0,0-.11-1.2,3.23,3.23,0,0,0-.36-1,1.92,1.92,0,0,0-.6-.66,1.58,1.58,0,0,0-.87-.24,1.71,1.71,0,0,0-1.23.51,4.17,4.17,0,0,0-.89,1.27,7.69,7.69,0,0,0-.53,1.7,9.32,9.32,0,0,0-.18,1.77A4.08,4.08,0,0,0,84.17,30.23Z"/><path class="cls-3" d="M90.85,23.06l.22-1.58h1.25c.1-.55.19-1.08.27-1.6a6.94,6.94,0,0,1,.35-1.38,2.48,2.48,0,0,1,.63-1,1.63,1.63,0,0,1,1.14-.37l.52,0a1.87,1.87,0,0,1,.5.14l-.2,1.52-.3-.08-.28,0a.92.92,0,0,0-.68.24,1.76,1.76,0,0,0-.38.64,4.28,4.28,0,0,0-.2.87c0,.32-.1.65-.17,1h1.42l-.2,1.58H93.31L92,32.38H90.74l1.37-9.32Z"/><path class="cls-3" d="M13.7,40.75v1.73h0a2.57,2.57,0,0,1,2.4-2,2.3,2.3,0,0,1,1.22.3,2.2,2.2,0,0,1,.78.82,4,4,0,0,1,.43,1.25,10,10,0,0,1,.12,1.61v7.17H17.46V44.27a2.79,2.79,0,0,0-.4-1.6,1.27,1.27,0,0,0-1.1-.59,1.85,1.85,0,0,0-1,.25,2,2,0,0,0-.68.72,3.69,3.69,0,0,0-.41,1.09,6.32,6.32,0,0,0-.14,1.36v6.15H12.56V40.75Z"/><path class="cls-3" d="M27.06,51.61a1.3,1.3,0,0,1-.88.27.89.89,0,0,1-.75-.39,2.27,2.27,0,0,1-.28-1.27A3.29,3.29,0,0,1,24,51.49a2.78,2.78,0,0,1-1.44.39,2.54,2.54,0,0,1-.95-.17,2,2,0,0,1-.78-.52,2.56,2.56,0,0,1-.52-.94,4.43,4.43,0,0,1-.19-1.4,4.6,4.6,0,0,1,.21-1.52,2.66,2.66,0,0,1,.57-1,2.46,2.46,0,0,1,.8-.56,7.1,7.1,0,0,1,.92-.31,7.67,7.67,0,0,1,.95-.23,2.84,2.84,0,0,0,.79-.21,1.25,1.25,0,0,0,.55-.4,1.26,1.26,0,0,0,.2-.77A2.43,2.43,0,0,0,25,43a1.3,1.3,0,0,0-.39-.55,1.32,1.32,0,0,0-.53-.26,2.86,2.86,0,0,0-.58-.06,2,2,0,0,0-1.28.43,2.18,2.18,0,0,0-.56,1.64H20.39a5.43,5.43,0,0,1,.29-1.71,3.09,3.09,0,0,1,.69-1.13,2.52,2.52,0,0,1,1-.62,3.52,3.52,0,0,1,1.18-.19,4.79,4.79,0,0,1,1,.11,2.05,2.05,0,0,1,.89.43,2.16,2.16,0,0,1,.64.91,3.93,3.93,0,0,1,.25,1.54v5.59a5.43,5.43,0,0,0,.05.93.31.31,0,0,0,.33.29,1.23,1.23,0,0,0,.38-.08Zm-2-5.59a1.31,1.31,0,0,1-.6.37,6.35,6.35,0,0,1-.78.19c-.27.05-.54.1-.82.17a2.22,2.22,0,0,0-.74.3,1.58,1.58,0,0,0-.54.6,2.24,2.24,0,0,0-.21,1.06,1.82,1.82,0,0,0,.13.74,1.37,1.37,0,0,0,.31.5,1.29,1.29,0,0,0,.45.27,1.91,1.91,0,0,0,.54.08,2.06,2.06,0,0,0,1.73-.85,2.46,2.46,0,0,0,.4-.79,2.73,2.73,0,0,0,.13-.81Z"/><path class="cls-3" d="M30.22,51.65l-2.75-10.9h1.36l2.07,9.09h0l2-9.09h1.27l-2.7,10.9Z"/><path class="cls-3" d="M35.16,44a5.79,5.79,0,0,1,.69-1.81A3.6,3.6,0,0,1,37,40.94a2.93,2.93,0,0,1,3.09,0,3.7,3.7,0,0,1,1.13,1.22A6,6,0,0,1,41.88,44a11,11,0,0,1,0,4.48,6.08,6.08,0,0,1-.68,1.8,3.63,3.63,0,0,1-1.13,1.2,3,3,0,0,1-3.09,0,3.53,3.53,0,0,1-1.13-1.2,5.82,5.82,0,0,1-.69-1.8,11,11,0,0,1,0-4.48Zm1.24,4a4.4,4.4,0,0,0,.49,1.29,2.46,2.46,0,0,0,.74.79,1.63,1.63,0,0,0,.89.27,1.66,1.66,0,0,0,.9-.27,2.43,2.43,0,0,0,.73-.79,4.4,4.4,0,0,0,.5-1.29,9.2,9.2,0,0,0,0-3.52,4.51,4.51,0,0,0-.5-1.29,2.38,2.38,0,0,0-.73-.8,1.59,1.59,0,0,0-.9-.28,1.56,1.56,0,0,0-.89.28,2.4,2.4,0,0,0-.74.8,4.51,4.51,0,0,0-.49,1.29,8.69,8.69,0,0,0,0,3.52Z"/><path class="cls-3" d="M44.35,55.14a1.52,1.52,0,0,1-1.3.66,2,2,0,0,1-.61-.08V54.18l.12,0h.37a.55.55,0,0,0,.54-.32,3.44,3.44,0,0,0,.14-1.17v-12h1.22V53A3.67,3.67,0,0,1,44.35,55.14Zm-.74-16.35V36.6h1.22v2.19Z"/><path class="cls-3" d="M47.86,40.75v1.73h0a2.55,2.55,0,0,1,2.4-2,2.24,2.24,0,0,1,1.21.3,2.15,2.15,0,0,1,.79.82,3.76,3.76,0,0,1,.42,1.25,10,10,0,0,1,.12,1.61v7.17H51.62V44.27a2.79,2.79,0,0,0-.4-1.6,1.28,1.28,0,0,0-1.1-.59,1.89,1.89,0,0,0-1,.25,2.05,2.05,0,0,0-.68.72,3.69,3.69,0,0,0-.4,1.09,6.32,6.32,0,0,0-.14,1.36v6.15H46.71V40.75Z"/><path class="cls-3" d="M54.74,38.79V36.6H56v2.19Zm1.21,2v10.9H54.74V40.75Z"/><path class="cls-3" d="M65.67,42.33H61.5V40.75h5.75V42l-4.52,8.09h4.72v1.58H61.21V50.28Z"/><path class="cls-3" d="M75.22,51.61a1.29,1.29,0,0,1-.87.27.89.89,0,0,1-.75-.39,2.27,2.27,0,0,1-.28-1.27,3.29,3.29,0,0,1-1.16,1.27,2.81,2.81,0,0,1-1.44.39,2.54,2.54,0,0,1-1-.17,2,2,0,0,1-.78-.52,2.56,2.56,0,0,1-.52-.94,4.43,4.43,0,0,1-.19-1.4,4.6,4.6,0,0,1,.21-1.52,2.8,2.8,0,0,1,.56-1,2.62,2.62,0,0,1,.81-.56,7.1,7.1,0,0,1,.92-.31,7.67,7.67,0,0,1,1-.23,2.94,2.94,0,0,0,.79-.21,1.25,1.25,0,0,0,.55-.4,1.26,1.26,0,0,0,.2-.77,2.43,2.43,0,0,0-.15-.94,1.3,1.3,0,0,0-.39-.55,1.32,1.32,0,0,0-.53-.26,2.93,2.93,0,0,0-.58-.06,2,2,0,0,0-1.29.43,2.22,2.22,0,0,0-.55,1.64H68.56a5.43,5.43,0,0,1,.29-1.71,3.21,3.21,0,0,1,.68-1.13,2.63,2.63,0,0,1,1-.62,3.52,3.52,0,0,1,1.18-.19,4.79,4.79,0,0,1,1,.11,2.05,2.05,0,0,1,.89.43,2.16,2.16,0,0,1,.64.91,3.93,3.93,0,0,1,.25,1.54v5.59a5.43,5.43,0,0,0,0,.93.31.31,0,0,0,.33.29,1.12,1.12,0,0,0,.37-.08Zm-2-5.59a1.31,1.31,0,0,1-.6.37,6.35,6.35,0,0,1-.78.19c-.27.05-.54.1-.82.17a2.13,2.13,0,0,0-.74.3,1.58,1.58,0,0,0-.54.6,2.24,2.24,0,0,0-.21,1.06,2,2,0,0,0,.12.74A1.39,1.39,0,0,0,70,50a1.29,1.29,0,0,0,.45.27,1.91,1.91,0,0,0,.54.08,2.06,2.06,0,0,0,1.73-.85,2.46,2.46,0,0,0,.4-.79,2.73,2.73,0,0,0,.13-.81Z"/><path class="cls-3" d="M79.51,40.75v1.58H78V49.1a2.39,2.39,0,0,0,0,.51.6.6,0,0,0,.13.29.5.5,0,0,0,.28.14,2.91,2.91,0,0,0,.47,0h.55v1.58h-.93a3.09,3.09,0,0,1-.8-.09,1.09,1.09,0,0,1-.55-.35,1.6,1.6,0,0,1-.3-.72,5.8,5.8,0,0,1-.1-1.22V42.33H75.57V40.75h1.26V37.49H78v3.26Z"/><path class="cls-3" d="M82.89,51.65l-2.75-10.9H81.5l2.07,9.09h0l2-9.09h1.27l-2.7,10.9Z"/><path class="cls-3" d="M94.55,51.61a1.29,1.29,0,0,1-.87.27.89.89,0,0,1-.75-.39,2.27,2.27,0,0,1-.28-1.27,3.29,3.29,0,0,1-1.16,1.27,2.81,2.81,0,0,1-1.44.39,2.54,2.54,0,0,1-1-.17,2,2,0,0,1-.78-.52,2.56,2.56,0,0,1-.52-.94,4.43,4.43,0,0,1-.19-1.4,4.6,4.6,0,0,1,.21-1.52,2.8,2.8,0,0,1,.56-1,2.62,2.62,0,0,1,.81-.56,7.1,7.1,0,0,1,.92-.31,7.67,7.67,0,0,1,1-.23,2.94,2.94,0,0,0,.79-.21,1.25,1.25,0,0,0,.55-.4,1.26,1.26,0,0,0,.2-.77,2.43,2.43,0,0,0-.15-.94,1.3,1.3,0,0,0-.39-.55,1.32,1.32,0,0,0-.53-.26,2.93,2.93,0,0,0-.58-.06,2,2,0,0,0-1.29.43,2.22,2.22,0,0,0-.55,1.64H87.89a5.43,5.43,0,0,1,.29-1.71,3.21,3.21,0,0,1,.68-1.13,2.63,2.63,0,0,1,1-.62A3.52,3.52,0,0,1,91,40.5a4.79,4.79,0,0,1,1,.11,2.05,2.05,0,0,1,.89.43,2.16,2.16,0,0,1,.64.91,3.93,3.93,0,0,1,.25,1.54v5.59a5.43,5.43,0,0,0,0,.93.31.31,0,0,0,.33.29,1.12,1.12,0,0,0,.37-.08Zm-2-5.59a1.31,1.31,0,0,1-.6.37,6.35,6.35,0,0,1-.78.19c-.27.05-.54.1-.82.17a2.13,2.13,0,0,0-.74.3,1.58,1.58,0,0,0-.54.6,2.24,2.24,0,0,0-.21,1.06,2,2,0,0,0,.12.74,1.39,1.39,0,0,0,.32.5,1.29,1.29,0,0,0,.45.27,1.91,1.91,0,0,0,.54.08,2.06,2.06,0,0,0,1.73-.85,2.46,2.46,0,0,0,.4-.79,2.73,2.73,0,0,0,.13-.81Z"/><path class="cls-3" d="M96.78,40.75v2.3h0a5,5,0,0,1,1.09-2,2.09,2.09,0,0,1,1.63-.59v1.9a2.5,2.5,0,0,0-1.24.29,2.18,2.18,0,0,0-.83.87A4.31,4.31,0,0,0,97,44.94a10.36,10.36,0,0,0-.14,1.86v4.85H95.64V40.75Z"/><path class="cls-3" d="M107,51.61a1.29,1.29,0,0,1-.87.27.89.89,0,0,1-.75-.39,2.19,2.19,0,0,1-.28-1.27,3.29,3.29,0,0,1-1.16,1.27,2.83,2.83,0,0,1-1.44.39,2.54,2.54,0,0,1-.95-.17,2,2,0,0,1-.78-.52,2.56,2.56,0,0,1-.52-.94,4.41,4.41,0,0,1-.2-1.4,4.57,4.57,0,0,1,.22-1.52,2.8,2.8,0,0,1,.56-1,2.58,2.58,0,0,1,.8-.56,7.24,7.24,0,0,1,.93-.31,7.67,7.67,0,0,1,1-.23,2.94,2.94,0,0,0,.79-.21,1.17,1.17,0,0,0,.54-.4,1.2,1.2,0,0,0,.2-.77,2.43,2.43,0,0,0-.15-.94,1.25,1.25,0,0,0-.91-.81,2.93,2.93,0,0,0-.58-.06,2,2,0,0,0-1.29.43,2.18,2.18,0,0,0-.55,1.64h-1.22a5.16,5.16,0,0,1,.29-1.71,3.21,3.21,0,0,1,.68-1.13,2.55,2.55,0,0,1,1-.62,3.52,3.52,0,0,1,1.18-.19,4.86,4.86,0,0,1,1,.11,2.11,2.11,0,0,1,.89.43A2.16,2.16,0,0,1,106,42a4.15,4.15,0,0,1,.24,1.54v5.59a6.72,6.72,0,0,0,0,.93.32.32,0,0,0,.34.29,1.12,1.12,0,0,0,.37-.08ZM105,46a1.31,1.31,0,0,1-.6.37,6.35,6.35,0,0,1-.78.19c-.27.05-.55.1-.82.17a2.27,2.27,0,0,0-.75.3,1.56,1.56,0,0,0-.53.6,2.24,2.24,0,0,0-.21,1.06,2,2,0,0,0,.12.74,1.39,1.39,0,0,0,.32.5,1.29,1.29,0,0,0,.45.27,1.91,1.91,0,0,0,.54.08,2.06,2.06,0,0,0,1.73-.85,2.46,2.46,0,0,0,.4-.79,2.73,2.73,0,0,0,.13-.81Z"/><path class="cls-3" d="M113.14,44.25a3.12,3.12,0,0,0-.6-1.6,1.48,1.48,0,0,0-1.23-.57,1.69,1.69,0,0,0-1.1.36,2.48,2.48,0,0,0-.71,1,5.47,5.47,0,0,0-.38,1.36,11.67,11.67,0,0,0-.11,1.59,8.84,8.84,0,0,0,.12,1.47,5.07,5.07,0,0,0,.38,1.28,2.57,2.57,0,0,0,.66.9,1.56,1.56,0,0,0,1,.33,1.66,1.66,0,0,0,1.41-.69,4.05,4.05,0,0,0,.62-2h1.24a6.19,6.19,0,0,1-1,3.13,2.63,2.63,0,0,1-2.24,1.1,2.67,2.67,0,0,1-1.49-.41,3.18,3.18,0,0,1-1.09-1.15,5.87,5.87,0,0,1-.66-1.76,11.77,11.77,0,0,1,0-4.53,6.29,6.29,0,0,1,.65-1.85A3.68,3.68,0,0,1,109.67,41a2.66,2.66,0,0,1,1.54-.45,3.1,3.1,0,0,1,1.18.22,2.62,2.62,0,0,1,1,.69,3.91,3.91,0,0,1,.7,1.17,6,6,0,0,1,.34,1.67Zm-1.26-5h-1.33l-1.48-3h1.2l1,2,1-2h1.11Z"/><rect class="cls-2" x="44.29" y="71.33" width="41.67" height="41.67" rx="12" ry="12" transform="translate(130.24 184.32) rotate(180)"/><path class="cls-4" d="M54.93,91.83a1.06,1.06,0,0,0-.07.68,4.23,4.23,0,0,1,.25,1,3.69,3.69,0,0,0,.47,1.74c.07.13.55.13.48,0a4.07,4.07,0,0,1-.45-1.88c0-.54-.41-1-.18-1.5,0-.11-.43-.22-.5-.07Z"/><path class="cls-4" d="M56.42,103.54c0-2.73-.31-5.48-.34-8.22,0-.16-.48-.25-.48-.14,0,2.73.34,5.48.34,8.21,0,.17.48.26.48.15Z"/><path class="cls-4" d="M75.09,92c-.06.46-.51.7-.88.9a6.74,6.74,0,0,1-1.23.46,21.09,21.09,0,0,1-2.58.53,42.06,42.06,0,0,1-5.26.42,38.88,38.88,0,0,1-5.28-.24,21.44,21.44,0,0,1-2.61-.5A7.85,7.85,0,0,1,56,93.1a2.47,2.47,0,0,1-.61-.38A1,1,0,0,1,55,92a1,1,0,0,1,.41-.74,2.81,2.81,0,0,1,.61-.38,7.8,7.8,0,0,1,1.28-.45,18.19,18.19,0,0,1,2.61-.5,38.9,38.9,0,0,1,5.28-.25,42.06,42.06,0,0,1,5.26.42,21.09,21.09,0,0,1,2.58.53,7.57,7.57,0,0,1,1.23.46C74.58,91.28,75,91.53,75.09,92Zm0,0c-.07-.46-.52-.7-.89-.89A7.5,7.5,0,0,0,73,90.66a19.22,19.22,0,0,0-2.58-.49,38.38,38.38,0,0,0-5.25-.25,41.28,41.28,0,0,0-5.22.42,21.73,21.73,0,0,0-2.55.52,7.69,7.69,0,0,0-1.19.45c-.36.17-.72.45-.73.68s.37.51.73.68a6.76,6.76,0,0,0,1.19.44,18.29,18.29,0,0,0,2.55.52,39.5,39.5,0,0,0,5.22.42,38.37,38.37,0,0,0,5.25-.24A20.93,20.93,0,0,0,73,93.32a7.5,7.5,0,0,0,1.23-.44C74.57,92.68,75,92.44,75.09,92Z"/><path class="cls-4" d="M74.8,94.64c0,.45-.48.72-.83.92a7.41,7.41,0,0,1-1.2.5,21.22,21.22,0,0,1-2.51.57,36.53,36.53,0,0,1-5.12.38A35.18,35.18,0,0,1,60,96.63a19.79,19.79,0,0,1-2.51-.57,7.31,7.31,0,0,1-1.19-.5c-.36-.2-.8-.47-.83-.92.08.43.52.63.89.81a8,8,0,0,0,1.2.37,19.06,19.06,0,0,0,2.49.43,40.9,40.9,0,0,0,5.07.26,40.9,40.9,0,0,0,5.07-.26,18.77,18.77,0,0,0,2.49-.43,8.45,8.45,0,0,0,1.21-.37C74.27,95.27,74.71,95.07,74.8,94.64Z"/><path class="cls-4" d="M75.06,91.86a.86.86,0,0,1,.18.93,1.4,1.4,0,0,0-.1.79,2.25,2.25,0,0,1-.72,1.7,7,7,0,0,0,.22-1.7,4.19,4.19,0,0,1,0-.48,1.45,1.45,0,0,1,.22-.45A1,1,0,0,0,75.06,91.86Z"/><path class="cls-4" d="M74,103.59A34.85,34.85,0,0,1,74,99.38a31.43,31.43,0,0,1,.41-4.2,31.15,31.15,0,0,1,.09,4.21c0,.7-.06,1.4-.13,2.1A18.88,18.88,0,0,1,74,103.59Z"/><path class="cls-4" d="M72.82,93.39A17,17,0,0,0,69,92.84c-1.28-.07-2.57-.11-3.86-.09s-2.58,0-3.87.09c-.64,0-1.28.08-1.92.16a7.53,7.53,0,0,0-1.88.42,10.45,10.45,0,0,1,3.77-1c1.3-.14,2.6-.17,3.9-.19s2.6,0,3.9.2A12,12,0,0,1,72.82,93.39Z"/><path class="cls-4" d="M55.67,92.55c.16-.39.6-.56,1-.73a10.18,10.18,0,0,1,1.18-.39A20,20,0,0,1,60.24,91a27.89,27.89,0,0,1,4.92-.16c-1.64.11-3.27.19-4.89.41-.81.09-1.62.22-2.42.39a11.85,11.85,0,0,0-1.17.31C56.31,92.07,55.87,92.18,55.67,92.55Z"/><path class="cls-4" d="M65.16,95.12a28.94,28.94,0,0,1-5.18-.2,17.14,17.14,0,0,1-2.54-.54,6.63,6.63,0,0,1-1.21-.48c-.36-.21-.81-.48-.84-.93.08.44.52.65.89.82a7.5,7.5,0,0,0,1.21.41,21.67,21.67,0,0,0,2.53.47C61.72,94.92,63.44,95,65.16,95.12Z"/><path class="cls-4" d="M74.21,92.93a1.7,1.7,0,0,0-1-.52,10.84,10.84,0,0,0-1.13-.25c-.76-.14-1.53-.24-2.31-.32-1.54-.18-3.09-.24-4.65-.35a28.15,28.15,0,0,1,4.68.11,20.36,20.36,0,0,1,2.32.37,11.22,11.22,0,0,1,1.13.33C73.59,92.45,74,92.57,74.21,92.93Z"/><path class="cls-4" d="M65.11,95.79c1.72-.11,3.44-.2,5.14-.45a21.5,21.5,0,0,0,2.52-.47A7.29,7.29,0,0,0,74,94.46c.36-.17.81-.38.89-.82,0,.45-.48.72-.84.93a6.93,6.93,0,0,1-1.21.48,17.27,17.27,0,0,1-2.55.54A28.83,28.83,0,0,1,65.11,95.79Z"/><path class="cls-5" d="M60.75,83.13a32.34,32.34,0,0,1,7.62,1.22,32.35,32.35,0,0,1,7.17,2.73c-.69.14-2.61.22-7.6-1.11S61.42,83.6,60.75,83.13Z"/><path class="cls-4" d="M60.75,83.13a29.56,29.56,0,0,1,7.65,1,36.71,36.71,0,0,1,3.7,1.13,23.53,23.53,0,0,1,3.56,1.58l.65.36-.72.1a12.58,12.58,0,0,1-3.94-.28c-1.27-.24-2.54-.54-3.78-.9s-2.48-.75-3.69-1.21A14.25,14.25,0,0,1,60.75,83.13Zm0,0a14.76,14.76,0,0,0,3.51,1.58c1.22.41,2.46.75,3.71,1.06s2.5.61,3.76.84a12.66,12.66,0,0,0,3.76.23l-.08.46a33.31,33.31,0,0,0-7.11-2.77c-1.23-.35-2.48-.65-3.73-.9A24.51,24.51,0,0,0,60.75,83.13Z"/><path class="cls-4" d="M58.2,83.89a.8.8,0,0,1,.48-.47,2.76,2.76,0,0,1,.68-.19l1.39-.12h0a13.89,13.89,0,0,0,3.48,1.65c1.22.41,2.46.76,3.71,1.07s2.51.59,3.78.8a13,13,0,0,0,3.76.22l.09,0,.07,0a8.19,8.19,0,0,1,1.28.86,2.89,2.89,0,0,1,.55.6.85.85,0,0,1,.08,1,1.27,1.27,0,0,1-.74.51A4.55,4.55,0,0,1,76,90a11.18,11.18,0,0,1-1.53,0,28.88,28.88,0,0,1-5.93-1,42,42,0,0,1-5.69-1.86,24.59,24.59,0,0,1-2.7-1.27,10.42,10.42,0,0,1-1.25-.83,2.9,2.9,0,0,1-.52-.53A.84.84,0,0,1,58.2,83.89Zm0,0a.82.82,0,0,0,.23.68,2.61,2.61,0,0,0,.53.52,8.62,8.62,0,0,0,1.25.81,24.46,24.46,0,0,0,2.71,1.23,42.56,42.56,0,0,0,5.73,1.65,33.5,33.5,0,0,0,5.87.78A10.13,10.13,0,0,0,76,89.5c.44-.07,1-.2,1.15-.46s-.17-.65-.52-.93a7.88,7.88,0,0,0-1.19-.83l.16,0A12.18,12.18,0,0,1,71.66,87c-1.27-.26-2.53-.58-3.77-.94s-2.48-.75-3.69-1.2a15.77,15.77,0,0,1-3.46-1.73h0l-1.39.1a2.55,2.55,0,0,0-.67.18A.77.77,0,0,0,58.2,83.89Z"/><path class="cls-4" d="M59.17,81.41c.14-.43.64-.58,1-.68a6.91,6.91,0,0,1,1.28-.17,18.35,18.35,0,0,1,2.57.1,35.82,35.82,0,0,1,5,1A34.4,34.4,0,0,1,74,83.31a19.82,19.82,0,0,1,2.28,1.2,7.06,7.06,0,0,1,1,.78c.29.29.65.67.56,1.11,0-.44-.34-.74-.64-1a7.38,7.38,0,0,0-1.07-.67,19.15,19.15,0,0,0-2.3-1.06A47.59,47.59,0,0,0,64,81a19.36,19.36,0,0,0-2.52-.24,6.65,6.65,0,0,0-1.26.06C59.84,80.93,59.36,81,59.17,81.41Z"/><path class="cls-4" d="M77.27,89.35a1,1,0,0,0,.07-.81,1.24,1.24,0,0,1-.07-.49,3.37,3.37,0,0,1,.12-.46,7.34,7.34,0,0,0,.32-1.69,2.27,2.27,0,0,1,.16,1.84,1.47,1.47,0,0,0-.15.79A.86.86,0,0,1,77.27,89.35Z"/><path class="cls-4" d="M75.59,87.07a1,1,0,0,1,0,.25s0,0-.07-.24,0-.24,0-.25A1.21,1.21,0,0,1,75.59,87.07Z"/><path class="cls-4" d="M58.88,83.35c0,.42.39.69.7.93a6.81,6.81,0,0,0,1,.64,21.06,21.06,0,0,0,2.21,1c1.5.62,3.05,1.11,4.6,1.64a28.85,28.85,0,0,1-4.7-1.41,18.73,18.73,0,0,1-2.21-1.07,8,8,0,0,1-1-.71A1.5,1.5,0,0,1,58.88,83.35Z"/><path class="cls-4" d="M76.59,87.77a4.47,4.47,0,0,1-2.26.41A19.63,19.63,0,0,1,72,88a27.58,27.58,0,0,1-4.48-1.08c1.51.29,3,.63,4.52.83.75.12,1.51.2,2.27.25a10.84,10.84,0,0,0,1.14,0A2.49,2.49,0,0,0,76.59,87.77Z"/><path class="cls-4" d="M58.19,84a.83.83,0,0,1,.07-.94,1.53,1.53,0,0,0,.3-.74,2.26,2.26,0,0,1,1.13-1.46A7.51,7.51,0,0,0,59,82.47a3,3,0,0,1-.15.46,1.17,1.17,0,0,1-.32.37A1,1,0,0,0,58.19,84Z"/></svg>