<svg id="Layer_1" data-name="Layer 1" xmlns="http://www.w3.org/2000/svg" viewBox="0 0 127 127"><defs><style>.cls-1{fill:#676767;}.cls-2{fill:#feee8f;}.cls-3{fill:#9c9;}.cls-4{fill:#666766;}</style></defs><title>K</title><rect class="cls-1" x="1" y="1" width="125" height="125" rx="10" ry="10"/><path class="cls-2" d="M116,126.1H85.83l-30.18.11-30.17.15c-5,0-10,.07-15.11,0A10.51,10.51,0,0,1,.5,116L.35,55.65.28,25.48c0-5.05-.06-10,0-15.13A10.81,10.81,0,0,1,11,.2L71.35,0h43.37c.64,0,1.23,0,2,0A11,11,0,0,1,127,11l-.17,30.17-.3,30.18-.28,30.17c0,5,0,10-.11,15.1A10.16,10.16,0,0,1,116,126.1Zm0-.2a9.89,9.89,0,0,0,9.79-9.3c0-5,0-10.06,0-15.08l-.28-30.17-.3-30.18L125,11a9,9,0,0,0-8.45-9c-.54,0-1.21,0-1.83,0H71.35L11,1.8a9.26,9.26,0,0,0-9.21,8.64c-.07,4.93,0,10-.07,15L1.65,55.65,1.5,116a9.57,9.57,0,0,0,8.92,9.54c5,.09,10,.07,15.06.11l30.17.14,30.18.11Z"/><rect class="cls-2" x="44.29" y="71.33" width="41.67" height="41.67" rx="12" ry="12" transform="translate(130.24 184.32) rotate(180)"/><path class="cls-3" d="M42.47,40.52a1.69,1.69,0,0,0,.44.64,1.74,1.74,0,0,0,.62.35,2.84,2.84,0,0,0,.72.1,3.11,3.11,0,0,0,.59-.06,1.59,1.59,0,0,0,.57-.23,1.22,1.22,0,0,0,.43-.49A1.81,1.81,0,0,0,46,40a1.42,1.42,0,0,0-.35-1,2.75,2.75,0,0,0-.88-.58c-.36-.14-.74-.27-1.15-.39a4.77,4.77,0,0,1-1.15-.5,2.68,2.68,0,0,1-.89-.91A3.17,3.17,0,0,1,41.24,35a3.45,3.45,0,0,1,.25-1.39,2.63,2.63,0,0,1,.63-.95,2.58,2.58,0,0,1,.88-.54,2.72,2.72,0,0,1,1-.18,3.81,3.81,0,0,1,1.15.16,2.16,2.16,0,0,1,.92.54,2.67,2.67,0,0,1,.64,1A5.54,5.54,0,0,1,47,35.28h-1.2a2.32,2.32,0,0,0-.19-.86,1.52,1.52,0,0,0-.39-.55,1.48,1.48,0,0,0-.53-.3,1.7,1.7,0,0,0-.59-.1,2.48,2.48,0,0,0-.54.06,1.73,1.73,0,0,0-.5.22,1.37,1.37,0,0,0-.37.42,1.46,1.46,0,0,0-.14.68,1.26,1.26,0,0,0,.22.76,1.77,1.77,0,0,0,.56.49,3.3,3.3,0,0,0,.76.34l.85.28a7.32,7.32,0,0,1,.88.35,2.6,2.6,0,0,1,.76.55,2.68,2.68,0,0,1,.54.87,3.64,3.64,0,0,1,.2,1.29A4.22,4.22,0,0,1,47,41.4a3,3,0,0,1-.72,1,2.39,2.39,0,0,1-1,.55,3.85,3.85,0,0,1-1.1.16A3.44,3.44,0,0,1,43,43a2.53,2.53,0,0,1-1-.61,3.11,3.11,0,0,1-.67-1.13,5.14,5.14,0,0,1-.28-1.69h1.19A2.81,2.81,0,0,0,42.47,40.52Z"/><path class="cls-3" d="M51.73,32.16v1.56H50.27V40.4a3,3,0,0,0,0,.5.56.56,0,0,0,.13.29.5.5,0,0,0,.28.14,2.86,2.86,0,0,0,.46,0h.55v1.56h-.92a3.09,3.09,0,0,1-.8-.09,1,1,0,0,1-.53-.35,1.63,1.63,0,0,1-.31-.7,6.44,6.44,0,0,1-.1-1.21V33.72H47.83V32.16h1.24V28.94h1.2v3.22Z"/><path class="cls-3" d="M58.22,42.23a2.64,2.64,0,0,1-2.06.92,2.73,2.73,0,0,1-1.52-.42,3.28,3.28,0,0,1-1.08-1.16,5.9,5.9,0,0,1-.65-1.79,12.22,12.22,0,0,1-.25-2.27,9.28,9.28,0,0,1,.25-2.25,6.19,6.19,0,0,1,.72-1.77,3.56,3.56,0,0,1,1.08-1.16,2.44,2.44,0,0,1,1.38-.42,2.32,2.32,0,0,1,1.62.59,4.49,4.49,0,0,1,1,1.51,7.83,7.83,0,0,1,.53,2,12.28,12.28,0,0,1,.12,2.06H53.93A6.44,6.44,0,0,0,54,39.41a3.78,3.78,0,0,0,.41,1.13,2.45,2.45,0,0,0,.72.78,1.86,1.86,0,0,0,1,.29,1.62,1.62,0,0,0,1.25-.52,2.85,2.85,0,0,0,.64-1.58h1.19A5,5,0,0,1,58.22,42.23Zm-.29-6.91a3.27,3.27,0,0,0-.44-1,2.24,2.24,0,0,0-.65-.65,1.46,1.46,0,0,0-.82-.24,1.53,1.53,0,0,0-.84.24,2.13,2.13,0,0,0-.64.66,3.68,3.68,0,0,0-.43,1,5.5,5.5,0,0,0-.18,1.18h4.19A5.1,5.1,0,0,0,57.93,35.32Z"/><path class="cls-3" d="M61.72,32.16v2.27h0a4.94,4.94,0,0,1,1.07-1.94,2.09,2.09,0,0,1,1.61-.58v1.87a2.39,2.39,0,0,0-1.23.3,2,2,0,0,0-.81.85,4.43,4.43,0,0,0-.46,1.36,11.21,11.21,0,0,0-.14,1.84v4.79h-1.2V32.16Z"/><path class="cls-3" d="M65.41,30.23V28.06h1.2v2.17Zm1.2,1.93V42.92h-1.2V32.16Z"/><path class="cls-3" d="M69.74,28.06V42.92h-1.2V28.06Z"/><path class="cls-3" d="M72.73,32.16v1.71h0a2.53,2.53,0,0,1,2.37-2,2.11,2.11,0,0,1,2,1.1,3.93,3.93,0,0,1,.41,1.24,9.71,9.71,0,0,1,.12,1.59v7.08h-1.2V35.64a2.78,2.78,0,0,0-.39-1.58A1.26,1.26,0,0,0,75,33.47a1.82,1.82,0,0,0-.95.25,2,2,0,0,0-.67.71,3.31,3.31,0,0,0-.4,1.07,6.26,6.26,0,0,0-.14,1.34v6.08H71.6V32.16Z"/><path class="cls-3" d="M85.91,42.88a1.25,1.25,0,0,1-.86.27.87.87,0,0,1-.74-.39A2.21,2.21,0,0,1,84,41.51a3.27,3.27,0,0,1-1.15,1.25,2.74,2.74,0,0,1-1.42.39,2.7,2.7,0,0,1-.94-.17,1.92,1.92,0,0,1-.77-.52,2.32,2.32,0,0,1-.51-.92,4.34,4.34,0,0,1-.2-1.39,4.48,4.48,0,0,1,.22-1.5,2.69,2.69,0,0,1,.55-.94,2.22,2.22,0,0,1,.79-.55,7.56,7.56,0,0,1,.91-.32c.33-.09.65-.17.94-.22a3.38,3.38,0,0,0,.79-.2A1.11,1.11,0,0,0,84,35.26a2.38,2.38,0,0,0-.15-.93,1.35,1.35,0,0,0-.38-.55,1.39,1.39,0,0,0-.52-.25,2.76,2.76,0,0,0-.57-.06,1.88,1.88,0,0,0-1.27.43,2.14,2.14,0,0,0-.55,1.61h-1.2a5.3,5.3,0,0,1,.28-1.68,3,3,0,0,1,.68-1.12,2.46,2.46,0,0,1,1-.61,3.46,3.46,0,0,1,1.17-.19,4.67,4.67,0,0,1,1,.11,2,2,0,0,1,.88.42,2.36,2.36,0,0,1,.64.9,4.07,4.07,0,0,1,.24,1.52v5.52a5.29,5.29,0,0,0,0,.92.31.31,0,0,0,.33.29,1.13,1.13,0,0,0,.36-.08ZM84,37.36a1.31,1.31,0,0,1-.6.37c-.24.07-.5.13-.77.18l-.81.17a2.25,2.25,0,0,0-.73.3,1.53,1.53,0,0,0-.53.59,2.16,2.16,0,0,0-.2,1,2.26,2.26,0,0,0,.11.74,1.44,1.44,0,0,0,.32.49,1.16,1.16,0,0,0,.44.27,1.91,1.91,0,0,0,.54.08,2,2,0,0,0,1.7-.84,2.36,2.36,0,0,0,.4-.79,3,3,0,0,0,.13-.79Z"/><path class="cls-4" d="M57.69,105.15A13.22,13.22,0,0,0,57.4,100c-.49-1.65-1.06-3.28-1.62-4.92l-.85-2.44a17.52,17.52,0,0,1-.77-2.49,3.38,3.38,0,0,1-.07-1.35.57.57,0,0,1,.21-.35.63.63,0,0,1,.4-.11.9.9,0,0,1,.66.33,7.81,7.81,0,0,1,1.15,2.38,21.63,21.63,0,0,0,1,2.34s0,0,0,0,0,0,0,0a.14.14,0,0,0-.17,0c-.08.1,0,.06-.05,0a.71.71,0,0,0,0-.14l0-.31-.12-.63-.28-1.26c-.19-.85-.41-1.66-.63-2.51a11.41,11.41,0,0,1-.23-1.3,3,3,0,0,1,.11-1.38.7.7,0,0,1,.72-.44,1,1,0,0,1,.65.45A4.67,4.67,0,0,1,58,87.16l.85,2.45c.29.81.57,1.63.88,2.43l.12.29.07.13s0,.06,0,.05l0,0c-.07-.09-.37,0-.34.1s0,0,0,0a5.16,5.16,0,0,0-.09-.6l-.26-1.26-.57-2.53L58.35,87a8.47,8.47,0,0,1-.24-1.31,1.64,1.64,0,0,1,.42-1.41.81.81,0,0,1,.87-.08,1.46,1.46,0,0,1,.53.55,13.32,13.32,0,0,1,.91,2.48l.8,2.46.43,1.21.24.59c0,.1.09.19.13.27l0,0s.05,0,0,0a.23.23,0,0,0-.14,0,.26.26,0,0,0-.09.09v0c-.23-1.65-.73-3.33-1.12-5a3.85,3.85,0,0,1,0-1.36,1,1,0,0,1,.42-.66.55.55,0,0,1,.46-.06.69.69,0,0,1,.34.25,6.9,6.9,0,0,1,1,2.47l1.23,5c.89,3.32,1.6,6.78,3.48,9.66l.11.17h-.19a23.72,23.72,0,0,0-5.2.91A27.54,27.54,0,0,0,57.69,105.15Zm0,0a27.35,27.35,0,0,1,4.91-2,23.19,23.19,0,0,1,5.22-1l-.08.18c-2-2.93-2.68-6.41-3.61-9.72l-1.27-5a6.61,6.61,0,0,0-.9-2.32.61.61,0,0,0-.17-.14.22.22,0,0,0-.16,0,.56.56,0,0,0-.23.41,3.3,3.3,0,0,0,0,1.21c.39,1.67.91,3.31,1.17,5.08v.11a.61.61,0,0,1,0,.11.23.23,0,0,1-.11.11.18.18,0,0,1-.17,0,.31.31,0,0,1-.17-.14.18.18,0,0,1-.05-.08,1.84,1.84,0,0,1-.16-.31L61.67,91l-.45-1.23-.82-2.46A13.53,13.53,0,0,0,59.52,85a1,1,0,0,0-.35-.37.3.3,0,0,0-.35,0c-.2.16-.24.61-.21,1a7.15,7.15,0,0,0,.23,1.23l.29,1.27.55,2.53.25,1.28a5.81,5.81,0,0,1,.1.68.43.43,0,0,1,0,.12c0,.12-.29.21-.37.1a.31.31,0,0,1-.06-.06.88.88,0,0,1,0-.1l-.07-.16-.13-.31c-.31-.81-.59-1.63-.87-2.45l-.83-2.45a4.22,4.22,0,0,0-.53-1.11c-.23-.34-.54-.4-.68-.08a2.5,2.5,0,0,0-.08,1.17,8.82,8.82,0,0,0,.21,1.25c.21.82.43,1.68.61,2.52l.27,1.27.12.65.05.33s0,.11,0,.18,0,.06-.08.21a.25.25,0,0,1-.21,0s0,0,0,0-.05,0-.05-.06a19.88,19.88,0,0,1-1-2.43c-.15-.4-.29-.82-.45-1.2a3.89,3.89,0,0,0-.61-1.08.63.63,0,0,0-.46-.25c-.18,0-.28,0-.33.24a3.4,3.4,0,0,0,.07,1.22,19.87,19.87,0,0,0,.75,2.46L56,95c.52,1.65,1,3.29,1.5,5A13.38,13.38,0,0,1,57.69,105.15Z"/><path class="cls-4" d="M72.3,92c-.83-1.27-1.6-2.57-2.33-3.89l0,.06a.5.5,0,0,0-.27-.11s-.11,0-.14.12a2.91,2.91,0,0,0-.07.82c0,.61.13,1.22.21,1.85.16,1.25.3,2.5.38,3.76-.32-1.22-.57-2.46-.81-3.69a11.91,11.91,0,0,1-.27-1.9,2.42,2.42,0,0,1,.11-1,.66.66,0,0,1,.58-.4.88.88,0,0,1,.59.24l0,0,0,0Q71.41,89.88,72.3,92Z"/><path class="cls-4" d="M76.38,85.07c-1.16,2.38-2.3,4.76-3.38,7.16-.54,1.2-1.08,2.41-1.52,3.65a16.93,16.93,0,0,0-.88,3.82v.16l-.13-.09a22.54,22.54,0,0,0-4-2.31l0,0v0l-2-7.29,0,0,0-.06,2-5.08c.33-.85.63-1.69,1-2.55A8.07,8.07,0,0,1,68,81.14a2.56,2.56,0,0,1,.49-.56.67.67,0,0,1,.46-.16.7.7,0,0,1,.43.2,1,1,0,0,1,.31.77,2.87,2.87,0,0,1-.08.73,9.33,9.33,0,0,1-.4,1.33c-.29.86-.6,1.72-.83,2.58l-.07.3s0,0,0-.06-.21-.14-.22-.13a.15.15,0,0,0-.1,0h0a.49.49,0,0,0,.08-.1c.12-.18.23-.37.34-.57L69,84.32c.42-.82.81-1.59,1.21-2.44a9.55,9.55,0,0,1,.69-1.2,3,3,0,0,1,1-1,.71.71,0,0,1,.85.23,1.21,1.21,0,0,1,.13.79A5.48,5.48,0,0,1,72.53,82c-.65,1.69-1.34,3.39-1.9,5.08l0,.08v0s0,0,0-.09a.15.15,0,0,0-.2,0l.07-.09.17-.29.33-.59.65-1.2,1.25-2.41a6.14,6.14,0,0,1,1.54-2.29.8.8,0,0,1,.75-.08.72.72,0,0,1,.4.64,3.49,3.49,0,0,1-.28,1.37h0c-.55,1.3-1.09,2.6-1.59,3.91A20.18,20.18,0,0,0,73,88a1.14,1.14,0,0,0,0,.24c-.07,0,0,0,.06-.11s.18-.29.27-.44c.17-.31.34-.62.5-.93l.94-1.89a10.39,10.39,0,0,1,1-1.85,1.6,1.6,0,0,1,.82-.65.48.48,0,0,1,.49.16.85.85,0,0,1,.06.52A7,7,0,0,1,76.38,85.07Zm0,0a7,7,0,0,0,.67-2,.77.77,0,0,0-.07-.5.4.4,0,0,0-.45-.14,1.61,1.61,0,0,0-.8.64,11.26,11.26,0,0,0-1,1.85l-.92,1.9c-.15.32-.31.63-.48.94-.09.15-.18.31-.28.46l-.09.11a.13.13,0,0,1-.1,0c-.09,0-.06-.08-.07-.1a2.09,2.09,0,0,1,0-.28c.18-.69.43-1.34.67-2,.49-1.31,1-2.62,1.55-3.92h0a3.44,3.44,0,0,0,.26-1.28.51.51,0,0,0-.83-.39,6,6,0,0,0-1.43,2.21l-1.23,2.44-.63,1.21-.33.6-.18.3a1.17,1.17,0,0,1-.14.17.16.16,0,0,1-.23,0c-.07-.12,0-.09,0-.13a.56.56,0,0,1,0-.07l0-.08c.56-1.76,1.23-3.44,1.86-5.15a4.84,4.84,0,0,0,.35-1.26,1,1,0,0,0-.07-.53.3.3,0,0,0-.37-.07,2.66,2.66,0,0,0-.85.88,11,11,0,0,0-.65,1.17c-.36.8-.78,1.65-1.19,2.45l-.63,1.22c-.11.2-.22.4-.35.6l-.13.17a.3.3,0,0,1-.08.07l-.14,0a.29.29,0,0,1-.25-.15.39.39,0,0,1,0-.23,3.21,3.21,0,0,1,.08-.36c.25-.9.57-1.75.87-2.6a12.57,12.57,0,0,0,.4-1.28c.1-.4.13-.88-.08-1.08s-.18-.13-.34,0a2,2,0,0,0-.4.46,8.1,8.1,0,0,0-.63,1.16c-.36.81-.68,1.68-1,2.52l-2,5.06V90l1.93,7.29-.06-.07a22.7,22.7,0,0,1,4,2.38l-.14.07a16.42,16.42,0,0,1,.92-3.87c.46-1.24,1-2.44,1.57-3.64C74,89.8,75.19,87.43,76.38,85.07Z"/></svg>