<svg id="Layer_1" data-name="Layer 1" xmlns="http://www.w3.org/2000/svg" viewBox="0 0 127 127"><defs><style>.cls-1{fill:#676767;}.cls-2{fill:#feee8f;}.cls-3{fill:#9c9;}.cls-4{fill:#666766;}.cls-5{fill:#6d6e71;}</style></defs><title>K</title><rect class="cls-1" x="1" y="1.12" width="125" height="125" rx="10" ry="10"/><path class="cls-2" d="M116,126.23H85.83l-30.18.11-30.17.14c-5,0-10,.08-15.11,0A10.51,10.51,0,0,1,.5,116.12L.35,55.78.27,25.6c0-5-.05-10,0-15.13A10.83,10.83,0,0,1,11,.32L71.35.13h43.37c.64,0,1.23,0,2,0a11,11,0,0,1,10.33,11l-.17,30.17-.29,30.17-.29,30.18c0,5,0,10-.11,15.09A10.18,10.18,0,0,1,116,126.23Zm0-.2a9.94,9.94,0,0,0,6.74-2.74,9.77,9.77,0,0,0,3.05-6.57c0-5,0-10,0-15.07l-.28-30.18-.3-30.17L125,11.13a9,9,0,0,0-8.45-9c-.54,0-1.21,0-1.83,0H71.35L11,1.93a9.26,9.26,0,0,0-9.21,8.63c-.07,4.94,0,10-.06,15L1.65,55.78,1.5,116.12a9.58,9.58,0,0,0,8.92,9.55c5,.08,10,.06,15.06.1l30.17.15,30.18.1Z"/><rect class="cls-2" x="44.29" y="71.45" width="41.67" height="41.67" rx="12" ry="12" transform="translate(130.24 184.57) rotate(180)"/><path class="cls-3" d="M33.82,30.44v1.71h0a2.53,2.53,0,0,1,2.38-2,2.32,2.32,0,0,1,1.2.29,2.22,2.22,0,0,1,.77.81,3.7,3.7,0,0,1,.42,1.24,9.71,9.71,0,0,1,.12,1.59V41.2h-1.2V33.91a2.74,2.74,0,0,0-.4-1.58,1.23,1.23,0,0,0-1.08-.58,1.76,1.76,0,0,0-1,.25,2,2,0,0,0-.67.71,3.56,3.56,0,0,0-.4,1.07,6.28,6.28,0,0,0-.13,1.34V41.2h-1.2V30.44Z"/><path class="cls-3" d="M45.7,40.51a2.64,2.64,0,0,1-2.06.92A2.73,2.73,0,0,1,42.12,41,3.4,3.4,0,0,1,41,39.84a5.74,5.74,0,0,1-.65-1.78,12.22,12.22,0,0,1-.25-2.27,9.28,9.28,0,0,1,.25-2.25,6.19,6.19,0,0,1,.72-1.77,3.46,3.46,0,0,1,1.08-1.16,2.44,2.44,0,0,1,1.38-.42,2.32,2.32,0,0,1,1.62.59,4.49,4.49,0,0,1,1,1.51,8.27,8.27,0,0,1,.53,2,12.28,12.28,0,0,1,.12,2.06H41.41a6.44,6.44,0,0,0,.11,1.34,3.72,3.72,0,0,0,.41,1.12,2.39,2.39,0,0,0,.72.79,1.86,1.86,0,0,0,1,.29,1.65,1.65,0,0,0,1.25-.52,2.85,2.85,0,0,0,.64-1.59h1.19A5,5,0,0,1,45.7,40.51Zm-.29-6.91a3.45,3.45,0,0,0-.44-1,2.2,2.2,0,0,0-.65-.64,1.46,1.46,0,0,0-.82-.24,1.53,1.53,0,0,0-.84.24,2.21,2.21,0,0,0-.64.65,3.91,3.91,0,0,0-.43,1,5.5,5.5,0,0,0-.18,1.18H45.6A5.1,5.1,0,0,0,45.41,33.6Z"/><path class="cls-3" d="M49.39,26.34V41.2h-1.2V26.34Z"/><path class="cls-3" d="M51.08,33.61a5.85,5.85,0,0,1,.68-1.79,3.64,3.64,0,0,1,1.11-1.19,2.88,2.88,0,0,1,3.06,0A3.86,3.86,0,0,1,57,31.82a6.11,6.11,0,0,1,.67,1.79,10.43,10.43,0,0,1,.23,2.22,10.11,10.11,0,0,1-.23,2.2A5.94,5.94,0,0,1,57,39.81,3.65,3.65,0,0,1,55.93,41a2.94,2.94,0,0,1-3.06,0,3.45,3.45,0,0,1-1.11-1.19A5.69,5.69,0,0,1,51.08,38a10.11,10.11,0,0,1-.23-2.2A10.43,10.43,0,0,1,51.08,33.61Zm1.22,4a4.37,4.37,0,0,0,.49,1.27,2.37,2.37,0,0,0,.72.78,1.63,1.63,0,0,0,.89.27,1.59,1.59,0,0,0,.88-.27,2.27,2.27,0,0,0,.72-.78,4.37,4.37,0,0,0,.49-1.27,8.5,8.5,0,0,0,0-3.48A4.56,4.56,0,0,0,56,32.81a2.22,2.22,0,0,0-.72-.79,1.59,1.59,0,0,0-.88-.27,1.63,1.63,0,0,0-.89.27,2.32,2.32,0,0,0-.72.79,4.56,4.56,0,0,0-.49,1.28,8.5,8.5,0,0,0,0,3.48Z"/><path class="cls-3" d="M60.48,30.44V32h0a2.57,2.57,0,0,1,2.35-1.83,2,2,0,0,1,1.23.42A2.29,2.29,0,0,1,64.87,32a3.31,3.31,0,0,1,1-1.35,2.07,2.07,0,0,1,1.32-.48,2.64,2.64,0,0,1,1,.18,1.8,1.8,0,0,1,.76.55,2.69,2.69,0,0,1,.5,1,5.31,5.31,0,0,1,.17,1.42V41.2h-1.2V34.14a9,9,0,0,0,0-.93,2.62,2.62,0,0,0-.21-.76,1.22,1.22,0,0,0-.44-.51,1.19,1.19,0,0,0-.71-.19,1.61,1.61,0,0,0-1.4.75,3.57,3.57,0,0,0-.5,2v6.7h-1.2V34.14a5.65,5.65,0,0,0-.07-1,2.27,2.27,0,0,0-.22-.76,1.21,1.21,0,0,0-.41-.5,1.17,1.17,0,0,0-.67-.18,1.35,1.35,0,0,0-.9.31,2.61,2.61,0,0,0-.61.75,3.67,3.67,0,0,0-.33.91,3.15,3.15,0,0,0-.11.78v6.7h-1.2V30.44Z"/><path class="cls-3" d="M72.66,26.34V41.2h-1.2V26.34Z"/><path class="cls-3" d="M75.32,44.64A1.49,1.49,0,0,1,74,45.3a1.93,1.93,0,0,1-.6-.09V43.7l.12,0h.36a.52.52,0,0,0,.53-.33,3.07,3.07,0,0,0,.14-1.15V30.44h1.2V42.55A3.59,3.59,0,0,1,75.32,44.64ZM74.59,28.5V26.34h1.2V28.5Z"/><path class="cls-3" d="M77.73,28.5V26.34h1.2V28.5Zm1.2,1.94V41.2h-1.2V30.44Z"/><path class="cls-3" d="M82.79,41.2l-2.7-10.76h1.34l2,9h0l2-9h1.26L84.08,41.2Z"/><path class="cls-3" d="M94.31,41.16a1.25,1.25,0,0,1-.86.27.87.87,0,0,1-.74-.39,2.24,2.24,0,0,1-.27-1.26A3.31,3.31,0,0,1,91.29,41a2.74,2.74,0,0,1-1.42.39,2.66,2.66,0,0,1-.94-.17,1.92,1.92,0,0,1-.77-.52,2.51,2.51,0,0,1-.52-.93,4.6,4.6,0,0,1-.19-1.38,4.24,4.24,0,0,1,.22-1.5,2.73,2.73,0,0,1,.55-1,2.5,2.5,0,0,1,.79-.55,7.51,7.51,0,0,1,.91-.31,7.85,7.85,0,0,1,.94-.22,3.36,3.36,0,0,0,.79-.21,1.08,1.08,0,0,0,.73-1.15,2.46,2.46,0,0,0-.15-.94,1.38,1.38,0,0,0-.38-.54,1.32,1.32,0,0,0-.52-.25,2.83,2.83,0,0,0-.57-.06,1.86,1.86,0,0,0-1.27.43,2.1,2.1,0,0,0-.55,1.61h-1.2A5.09,5.09,0,0,1,88,32.1,3,3,0,0,1,88.7,31a2.46,2.46,0,0,1,1-.61,3.42,3.42,0,0,1,1.17-.19,4.66,4.66,0,0,1,1,.1,2,2,0,0,1,.88.43,2.22,2.22,0,0,1,.64.9,4.24,4.24,0,0,1,.24,1.52v5.52a6.93,6.93,0,0,0,0,.92.32.32,0,0,0,.34.29.94.94,0,0,0,.36-.09Zm-1.94-5.52a1.26,1.26,0,0,1-.6.36,5.78,5.78,0,0,1-.77.19c-.26.05-.54.1-.81.17a2.16,2.16,0,0,0-.73.3,1.39,1.39,0,0,0-.53.59,2.15,2.15,0,0,0-.21,1,2,2,0,0,0,.12.74,1.42,1.42,0,0,0,.31.48,1,1,0,0,0,.45.27,1.61,1.61,0,0,0,.54.09,2,2,0,0,0,1-.24,2.23,2.23,0,0,0,.69-.6,2.68,2.68,0,0,0,.4-.79,3,3,0,0,0,.13-.8Z"/><path class="cls-4" d="M69.84,81.48a.69.69,0,0,1,.45.65,1.35,1.35,0,0,0,.19.63,1.88,1.88,0,0,1,0,1.54A12.22,12.22,0,0,0,70,82.94c0-.1-.09-.22-.13-.38a1.07,1.07,0,0,1,0-.41A.88.88,0,0,0,69.84,81.48Z"/><path class="cls-4" d="M74.85,98.18c-.49-1.11-.9-2.26-1.3-3.41s-.78-2.31-1.14-3.47c-.73-2.32-1.37-4.66-2-7,.52,1.11.93,2.26,1.34,3.41s.78,2.3,1.14,3.46Q74,94.65,74.85,98.18Z"/><ellipse class="cls-5" cx="62.81" cy="84.82" rx="7.78" ry="1.8" transform="translate(-29.85 34.28) rotate(-24.87)"/><path class="cls-4" d="M55.74,88.07a1,1,0,0,0,.9.39,5.05,5.05,0,0,0,1-.07,14,14,0,0,0,2-.48,27.45,27.45,0,0,0,3.81-1.56,29.8,29.8,0,0,0,3.56-2,14.08,14.08,0,0,0,1.62-1.23,5.12,5.12,0,0,0,.69-.71c.19-.25.33-.56.28-.7s-.37-.24-.68-.25a4.64,4.64,0,0,0-1,0,15.35,15.35,0,0,0-2,.43,31.75,31.75,0,0,0-3.86,1.39,28.82,28.82,0,0,0-3.66,1.9,14.28,14.28,0,0,0-1.67,1.22,5.59,5.59,0,0,0-.73.73A1.16,1.16,0,0,0,55.74,88.07Zm0,0a1.15,1.15,0,0,1,.32-.94,6.38,6.38,0,0,1,.72-.75,13.49,13.49,0,0,1,1.65-1.25A30.32,30.32,0,0,1,62,83.07a28,28,0,0,1,3.85-1.58,14.07,14.07,0,0,1,2-.48A5.5,5.5,0,0,1,69,80.93a2,2,0,0,1,.57.1.87.87,0,0,1,.54.45,1.32,1.32,0,0,1-.36,1.18,6.15,6.15,0,0,1-.76.77,15.58,15.58,0,0,1-1.69,1.24,29.3,29.3,0,0,1-3.69,1.91A30.21,30.21,0,0,1,59.7,88a14.33,14.33,0,0,1-2,.45,5.18,5.18,0,0,1-1,0C56.31,88.45,55.91,88.4,55.74,88.07Z"/><path class="cls-4" d="M56.75,90c.19.29.57.3.88.31a4.6,4.6,0,0,0,1-.11,14.3,14.3,0,0,0,1.92-.51,30.87,30.87,0,0,0,3.69-1.48,32,32,0,0,0,3.52-1.86,15.17,15.17,0,0,0,1.63-1.12,6.59,6.59,0,0,0,.73-.67,1.17,1.17,0,0,0,.37-.87,1.12,1.12,0,0,1-.27,1,5.52,5.52,0,0,1-.67.77A13.72,13.72,0,0,1,68,86.69a26.51,26.51,0,0,1-3.52,2,25.68,25.68,0,0,1-3.79,1.39,15,15,0,0,1-2,.38,5,5,0,0,1-1,0C57.3,90.42,56.89,90.34,56.75,90Z"/><path class="cls-4" d="M55.72,88a.89.89,0,0,0,.4.52,1,1,0,0,1,.31.28,3.67,3.67,0,0,1,.17.36,8.91,8.91,0,0,0,.61,1.25,1.76,1.76,0,0,1-1.08-1.07,1.29,1.29,0,0,0-.29-.57A.71.71,0,0,1,55.72,88Z"/><path class="cls-4" d="M63.74,87.23c.58-.39,1.17-.72,1.75-1.09s1.16-.7,1.72-1.08,1.12-.75,1.65-1.15a5.28,5.28,0,0,0,.75-.67,1.1,1.1,0,0,0,.42-.85c.16.34-.06.71-.23,1a5.75,5.75,0,0,1-.68.8,10.64,10.64,0,0,1-1.64,1.28A15.2,15.2,0,0,1,63.74,87.23Z"/><path class="cls-4" d="M64,87.72A14.25,14.25,0,0,1,60.3,89.4a10.51,10.51,0,0,1-2,.39,5.07,5.07,0,0,1-1,0c-.33-.06-.75-.16-.87-.51a1,1,0,0,0,.88.27,5.38,5.38,0,0,0,1-.13c.64-.13,1.28-.3,1.92-.49s1.26-.4,1.9-.59S63.33,87.91,64,87.72Z"/><path class="cls-4" d="M74.83,98.12a.91.91,0,0,1-.25.76,4.45,4.45,0,0,1-.56.59,11.5,11.5,0,0,1-1.3,1,23.59,23.59,0,0,1-2.84,1.65,21.91,21.91,0,0,1-3,1.27,11,11,0,0,1-1.63.38,4.06,4.06,0,0,1-.86.06,1,1,0,0,1-.92-.47,1.08,1.08,0,0,1,.29-1,3.85,3.85,0,0,1,.6-.61,11.68,11.68,0,0,1,1.35-1,21.34,21.34,0,0,1,2.93-1.51,24.24,24.24,0,0,1,3.1-1.09,10.84,10.84,0,0,1,1.6-.34,3.73,3.73,0,0,1,.82,0C74.38,97.82,74.7,97.87,74.83,98.12Zm0,0a.83.83,0,0,0-.71-.31,3.73,3.73,0,0,0-.82,0,11,11,0,0,0-1.58.38,22.07,22.07,0,0,0-3,1.25,24.4,24.4,0,0,0-2.8,1.64,11.19,11.19,0,0,0-1.27,1,4.59,4.59,0,0,0-.53.56.82.82,0,0,0-.21.51c0,.07.25.17.49.18a4,4,0,0,0,.77,0,12.59,12.59,0,0,0,1.57-.34,24.18,24.18,0,0,0,3.06-1.08,20.88,20.88,0,0,0,2.9-1.49,11.41,11.41,0,0,0,1.32-1,4.46,4.46,0,0,0,.57-.58A1,1,0,0,0,74.83,98.12Z"/><path class="cls-4" d="M63.51,103.38q-1.78-3.16-3.4-6.4c-.53-1.09-1.06-2.17-1.55-3.28a33.89,33.89,0,0,1-1.36-3.37l1.7,3.2c.57,1.07,1.12,2.14,1.66,3.22s1.06,2.18,1.55,3.28S63.1,102.24,63.51,103.38Z"/><polygon class="cls-4" points="61.37 102.18 55.13 101.1 55.2 100.89 60.52 103.33 60.92 103.51 60.49 103.65 55.79 105.2 55.72 104.77 62.27 104.75 62.71 104.75 62.48 105.12 60.56 108.14 60.23 107.79 64.81 105.21 64.89 105.16 64.99 105.19 69.94 106.58 69.74 106.96 67.22 104.81 66.82 104.47 67.34 104.47 75.1 104.41 75.08 104.58 69.98 103.39 75.12 104.41 75.88 104.56 75.1 104.59 67.35 104.86 67.47 104.51 70.02 106.63 70.79 107.26 69.82 107 64.86 105.64 65.04 105.62 60.47 108.22 59.59 108.72 60.14 107.87 62.07 104.86 62.27 105.23 55.72 105.21 54.31 105.2 55.66 104.78 60.39 103.32 60.37 103.64 55.1 101.09 54.27 100.69 55.17 100.88 61.37 102.18"/></svg>