<svg id="Layer_1" data-name="Layer 1" xmlns="http://www.w3.org/2000/svg" viewBox="0 0 127 127"><defs><style>.cls-1{fill:#676767;}.cls-2{fill:#feee8f;}.cls-3{fill:#9c9;}.cls-4{fill:#666766;}</style></defs><title>K</title><rect class="cls-1" x="0.99" y="0.88" width="125" height="125" rx="10" ry="10"/><path class="cls-2" d="M116,126H85.82l-30.18.11-30.17.14c-5,0-10,.08-15.11,0a10.51,10.51,0,0,1-9.87-10.4L.34,55.53.26,25.35c0-5-.05-10,0-15.13A10.83,10.83,0,0,1,11,.07L71.34-.12h43.37c.64,0,1.23,0,2,0a11,11,0,0,1,10.33,11l-.17,30.17-.29,30.17-.29,30.18c0,5,0,10-.11,15.09A10.18,10.18,0,0,1,116,126Zm0-.2a9.94,9.94,0,0,0,6.74-2.74,9.77,9.77,0,0,0,3-6.57c0-5,0-10,0-15.07l-.28-30.18-.3-30.17L125,10.88a9,9,0,0,0-8.45-9c-.54,0-1.21,0-1.83,0H71.34L11,1.68a9.26,9.26,0,0,0-9.21,8.63c-.07,4.94,0,10-.07,15L1.64,55.53l-.15,60.34a9.58,9.58,0,0,0,8.92,9.55c5,.08,10,.06,15.06.1l30.17.15,30.18.1Z"/><rect class="cls-2" x="44.28" y="71.2" width="41.67" height="41.67" rx="12" ry="12" transform="translate(130.22 184.07) rotate(180)"/><path class="cls-3" d="M27.81,22.52V24.1h0a2.58,2.58,0,0,1,2.36-1.83,2,2,0,0,1,1.23.42,2.39,2.39,0,0,1,.77,1.41,3.41,3.41,0,0,1,1-1.35,2.07,2.07,0,0,1,1.32-.48,2.66,2.66,0,0,1,1,.18,2,2,0,0,1,.76.55,2.68,2.68,0,0,1,.49,1,5,5,0,0,1,.18,1.43v7.88h-1.2v-7a6.86,6.86,0,0,0-.06-.94,2.72,2.72,0,0,0-.21-.76A1.34,1.34,0,0,0,35,24a1.27,1.27,0,0,0-.71-.19,1.6,1.6,0,0,0-1.4.75,3.51,3.51,0,0,0-.51,2v6.7H31.2v-7a7.06,7.06,0,0,0-.06-1,2.71,2.71,0,0,0-.22-.76,1.21,1.21,0,0,0-.42-.5,1.15,1.15,0,0,0-.67-.18,1.33,1.33,0,0,0-.89.32,2.24,2.24,0,0,0-.61.75,3.4,3.4,0,0,0-.34.9,3.71,3.71,0,0,0-.11.78v6.7h-1.2V22.52Z"/><path class="cls-3" d="M45.19,33.24a1.27,1.27,0,0,1-.86.27.87.87,0,0,1-.74-.38,2.17,2.17,0,0,1-.28-1.26,3.31,3.31,0,0,1-1.15,1.26,2.82,2.82,0,0,1-1.42.38,2.7,2.7,0,0,1-.94-.17,1.88,1.88,0,0,1-.76-.52,2.47,2.47,0,0,1-.52-.92,4.32,4.32,0,0,1-.19-1.39A4.41,4.41,0,0,1,38.54,29a2.66,2.66,0,0,1,.56-.95,2.26,2.26,0,0,1,.79-.55,6.1,6.1,0,0,1,.91-.31,7.42,7.42,0,0,1,.94-.22,3.83,3.83,0,0,0,.78-.21,1.17,1.17,0,0,0,.54-.4,1.23,1.23,0,0,0,.2-.76,2.41,2.41,0,0,0-.15-.93,1.33,1.33,0,0,0-.38-.54,1.18,1.18,0,0,0-.53-.25,2.22,2.22,0,0,0-.57-.07,1.93,1.93,0,0,0-1.27.43,2.15,2.15,0,0,0-.55,1.61h-1.2a5.65,5.65,0,0,1,.28-1.68,3.17,3.17,0,0,1,.68-1.12,2.61,2.61,0,0,1,1-.61,3.66,3.66,0,0,1,1.16-.19,4.6,4.6,0,0,1,1,.11,2.15,2.15,0,0,1,.89.42,2.31,2.31,0,0,1,.63.91,4,4,0,0,1,.24,1.51v5.53a6.38,6.38,0,0,0,.05.91.31.31,0,0,0,.33.29,1.12,1.12,0,0,0,.37-.08Zm-1.95-5.51a1.4,1.4,0,0,1-.59.36,6.18,6.18,0,0,1-.77.18l-.81.17a2.3,2.3,0,0,0-.74.3,1.69,1.69,0,0,0-.53.59,2.33,2.33,0,0,0-.2,1.05,2,2,0,0,0,.12.73,1.42,1.42,0,0,0,.31.49,1.29,1.29,0,0,0,.45.27A1.78,1.78,0,0,0,41,32a2,2,0,0,0,1-.24,2.23,2.23,0,0,0,.69-.6,2.34,2.34,0,0,0,.39-.79,2.56,2.56,0,0,0,.13-.79Z"/><path class="cls-3" d="M47.58,18.42v8.81l3.33-4.71h1.61l-2.9,3.92,3.11,6.84H51.2l-2.5-5.62L47.58,29.2v4.08h-1.2V18.42Z"/><path class="cls-3" d="M54.55,30.88a1.69,1.69,0,0,0,.44.64,1.74,1.74,0,0,0,.62.35,2.46,2.46,0,0,0,.72.1,3.19,3.19,0,0,0,.59-.06,1.59,1.59,0,0,0,.57-.23,1.15,1.15,0,0,0,.43-.49,1.78,1.78,0,0,0,.17-.82,1.42,1.42,0,0,0-.35-1,2.57,2.57,0,0,0-.88-.57,11,11,0,0,0-1.15-.4,4.62,4.62,0,0,1-1.16-.5,2.71,2.71,0,0,1-.88-.9,3.21,3.21,0,0,1-.35-1.63,3.45,3.45,0,0,1,.25-1.39,2.63,2.63,0,0,1,.63-1,2.58,2.58,0,0,1,.88-.54,2.72,2.72,0,0,1,1-.18,4.15,4.15,0,0,1,1.15.16,2.16,2.16,0,0,1,.92.54,2.67,2.67,0,0,1,.64,1A5.54,5.54,0,0,1,59,25.64h-1.2a2.32,2.32,0,0,0-.19-.86,1.52,1.52,0,0,0-.39-.55,1.48,1.48,0,0,0-.53-.3,2,2,0,0,0-.59-.1,2,2,0,0,0-.54.07,1.48,1.48,0,0,0-.5.21,1.37,1.37,0,0,0-.37.42,1.46,1.46,0,0,0-.14.68,1.24,1.24,0,0,0,.22.76,1.8,1.8,0,0,0,.56.5,3.78,3.78,0,0,0,.76.33l.85.28c.3.1.59.22.88.35a2.63,2.63,0,0,1,.76.56,2.53,2.53,0,0,1,.54.86,3.72,3.72,0,0,1,.2,1.29,4.22,4.22,0,0,1-.27,1.62,3,3,0,0,1-.72,1,2.39,2.39,0,0,1-1,.55,3.85,3.85,0,0,1-1.1.16,3.44,3.44,0,0,1-1.16-.19,2.53,2.53,0,0,1-1-.61,3.06,3.06,0,0,1-.67-1.12,5.47,5.47,0,0,1-.29-1.7h1.2A2.81,2.81,0,0,0,54.55,30.88Z"/><path class="cls-3" d="M60.76,20.59V18.42H62v2.17ZM62,22.52V33.28h-1.2V22.52Z"/><path class="cls-3" d="M65,22.52V24.1h0a2.57,2.57,0,0,1,2.36-1.83,1.94,1.94,0,0,1,1.22.42,2.35,2.35,0,0,1,.78,1.41,3.41,3.41,0,0,1,1-1.35,2.07,2.07,0,0,1,1.32-.48,2.61,2.61,0,0,1,1,.18,2,2,0,0,1,.77.55,2.68,2.68,0,0,1,.49,1,5,5,0,0,1,.18,1.43v7.88h-1.2v-7a6.86,6.86,0,0,0-.06-.94,2.72,2.72,0,0,0-.21-.76,1.43,1.43,0,0,0-.43-.51,1.3,1.3,0,0,0-.72-.19,1.59,1.59,0,0,0-1.39.75,3.51,3.51,0,0,0-.51,2v6.7h-1.2v-7a5.69,5.69,0,0,0-.07-1,2.72,2.72,0,0,0-.21-.76,1.39,1.39,0,0,0-.42-.5,1.15,1.15,0,0,0-.67-.18,1.36,1.36,0,0,0-.9.32,2.21,2.21,0,0,0-.6.75,3.4,3.4,0,0,0-.34.9,3.71,3.71,0,0,0-.11.78v6.7h-1.2V22.52Z"/><path class="cls-3" d="M82.33,33.24a1.28,1.28,0,0,1-.86.27.9.9,0,0,1-.75-.38,2.27,2.27,0,0,1-.27-1.26,3.31,3.31,0,0,1-1.15,1.26,2.82,2.82,0,0,1-1.42.38,2.7,2.7,0,0,1-.94-.17,2,2,0,0,1-.77-.52,2.45,2.45,0,0,1-.51-.92,4.32,4.32,0,0,1-.19-1.39A4.41,4.41,0,0,1,75.68,29a2.66,2.66,0,0,1,.56-.95,2.26,2.26,0,0,1,.79-.55,5.74,5.74,0,0,1,.91-.31,7.42,7.42,0,0,1,.94-.22,4,4,0,0,0,.78-.21,1.22,1.22,0,0,0,.54-.4,1.23,1.23,0,0,0,.19-.76,2.41,2.41,0,0,0-.15-.93,1.17,1.17,0,0,0-.38-.54,1.15,1.15,0,0,0-.52-.25,2.22,2.22,0,0,0-.57-.07,1.93,1.93,0,0,0-1.27.43A2.15,2.15,0,0,0,77,25.87h-1.2A5.35,5.35,0,0,1,76,24.19a3.17,3.17,0,0,1,.68-1.12,2.54,2.54,0,0,1,1-.61,3.66,3.66,0,0,1,1.16-.19,4.6,4.6,0,0,1,1,.11,2.05,2.05,0,0,1,.88.42,2.23,2.23,0,0,1,.64.91,4,4,0,0,1,.24,1.51v5.53a6.38,6.38,0,0,0,0,.91A.31.31,0,0,0,82,32a1.18,1.18,0,0,0,.37-.08Zm-2-5.51a1.4,1.4,0,0,1-.59.36,6.63,6.63,0,0,1-.77.18l-.81.17a2.22,2.22,0,0,0-.74.3,1.6,1.6,0,0,0-.53.59,2.33,2.33,0,0,0-.2,1.05,2,2,0,0,0,.12.73,1.42,1.42,0,0,0,.31.49,1.25,1.25,0,0,0,.44.27,1.91,1.91,0,0,0,.54.08,2.08,2.08,0,0,0,1-.24,2.23,2.23,0,0,0,.69-.6,2.34,2.34,0,0,0,.39-.79,2.56,2.56,0,0,0,.13-.79Z"/><path class="cls-3" d="M84.71,18.42V33.28h-1.2V18.42Z"/><path class="cls-3" d="M87.7,22.52v1.71h0a2.54,2.54,0,0,1,2.37-2,2.32,2.32,0,0,1,1.2.29,2.28,2.28,0,0,1,.78.82,3.64,3.64,0,0,1,.42,1.23,9.74,9.74,0,0,1,.12,1.6v7.07h-1.2V26a2.8,2.8,0,0,0-.4-1.58,1.24,1.24,0,0,0-1.09-.59,1.84,1.84,0,0,0-1,.25,2.08,2.08,0,0,0-.67.71,3.66,3.66,0,0,0-.4,1.07,6.29,6.29,0,0,0-.14,1.35v6.07H86.58V22.52Z"/><path class="cls-3" d="M100.89,33.24a1.28,1.28,0,0,1-.86.27.87.87,0,0,1-.74-.38A2.17,2.17,0,0,1,99,31.87a3.31,3.31,0,0,1-1.15,1.26,2.82,2.82,0,0,1-1.42.38,2.7,2.7,0,0,1-.94-.17,2,2,0,0,1-.77-.52,2.6,2.6,0,0,1-.51-.92A4.32,4.32,0,0,1,94,30.51,4.41,4.41,0,0,1,94.24,29a2.66,2.66,0,0,1,.56-.95,2.26,2.26,0,0,1,.79-.55,5.74,5.74,0,0,1,.91-.31,7.42,7.42,0,0,1,.94-.22,4,4,0,0,0,.78-.21,1.17,1.17,0,0,0,.54-.4,1.23,1.23,0,0,0,.19-.76,2.43,2.43,0,0,0-.14-.93,1.33,1.33,0,0,0-.38-.54,1.18,1.18,0,0,0-.53-.25,2.22,2.22,0,0,0-.57-.07,1.93,1.93,0,0,0-1.27.43,2.15,2.15,0,0,0-.55,1.61h-1.2a5.35,5.35,0,0,1,.28-1.68,3.17,3.17,0,0,1,.68-1.12,2.54,2.54,0,0,1,1-.61,3.66,3.66,0,0,1,1.16-.19,4.6,4.6,0,0,1,1,.11,2.15,2.15,0,0,1,.89.42,2.31,2.31,0,0,1,.63.91,4,4,0,0,1,.24,1.51v5.53a6.38,6.38,0,0,0,0,.91.31.31,0,0,0,.33.29,1.18,1.18,0,0,0,.37-.08Zm-2-5.51a1.4,1.4,0,0,1-.59.36,6.18,6.18,0,0,1-.77.18l-.81.17a2.22,2.22,0,0,0-.74.3,1.69,1.69,0,0,0-.53.59,2.33,2.33,0,0,0-.2,1.05,2,2,0,0,0,.12.73,1.42,1.42,0,0,0,.31.49,1.25,1.25,0,0,0,.44.27,1.91,1.91,0,0,0,.54.08,2.05,2.05,0,0,0,1-.24,2.23,2.23,0,0,0,.69-.6,2.34,2.34,0,0,0,.39-.79,2.56,2.56,0,0,0,.13-.79Z"/><path class="cls-3" d="M24.52,43.11H20.4V41.55h5.67v1.21l-4.46,8h4.66v1.56H20.11V51Z"/><path class="cls-3" d="M34,52.27a1.28,1.28,0,0,1-.86.27.86.86,0,0,1-.74-.39,2.13,2.13,0,0,1-.28-1.26,3.16,3.16,0,0,1-1.15,1.26,2.74,2.74,0,0,1-1.42.39,2.7,2.7,0,0,1-.94-.17,2,2,0,0,1-.77-.52,2.5,2.5,0,0,1-.51-.93,4.3,4.3,0,0,1-.19-1.38A4.51,4.51,0,0,1,27.3,48a2.61,2.61,0,0,1,.56-.94,2.28,2.28,0,0,1,.79-.56,7,7,0,0,1,.91-.31A7.42,7.42,0,0,1,30.5,46a4,4,0,0,0,.78-.2,1.3,1.3,0,0,0,.54-.4,1.25,1.25,0,0,0,.19-.76,2.46,2.46,0,0,0-.15-.94,1.28,1.28,0,0,0-.38-.54,1.26,1.26,0,0,0-.52-.25,2.76,2.76,0,0,0-.57-.06,1.88,1.88,0,0,0-1.27.43,2.14,2.14,0,0,0-.55,1.61h-1.2a5.37,5.37,0,0,1,.28-1.69,3.21,3.21,0,0,1,.68-1.11,2.42,2.42,0,0,1,1-.61,3.4,3.4,0,0,1,1.16-.19,4.59,4.59,0,0,1,1,.1,2,2,0,0,1,.88.43,2.19,2.19,0,0,1,.64.9,4.07,4.07,0,0,1,.24,1.52v5.52a6.55,6.55,0,0,0,0,.92.31.31,0,0,0,.33.29,1,1,0,0,0,.37-.09Zm-2-5.52a1.23,1.23,0,0,1-.59.36,6.19,6.19,0,0,1-.77.19c-.27.05-.54.1-.81.17a2.22,2.22,0,0,0-.74.3,1.46,1.46,0,0,0-.53.59,2.29,2.29,0,0,0-.2,1,2,2,0,0,0,.12.74,1.29,1.29,0,0,0,.31.48,1,1,0,0,0,.44.27,1.61,1.61,0,0,0,.54.09,2.08,2.08,0,0,0,1-.24,2.23,2.23,0,0,0,.69-.6,2.43,2.43,0,0,0,.39-.79,2.62,2.62,0,0,0,.13-.8Z"/><path class="cls-3" d="M36,49.9a1.74,1.74,0,0,0,.44.65,1.68,1.68,0,0,0,.63.34,2.4,2.4,0,0,0,.71.11,2.49,2.49,0,0,0,.59-.07,1.58,1.58,0,0,0,.57-.22,1.29,1.29,0,0,0,.43-.49,1.7,1.7,0,0,0,.17-.83,1.45,1.45,0,0,0-.35-1,2.91,2.91,0,0,0-.88-.57,11.06,11.06,0,0,0-1.15-.39,4.77,4.77,0,0,1-1.15-.5A2.68,2.68,0,0,1,35.1,46a3.19,3.19,0,0,1-.35-1.62A3.5,3.5,0,0,1,35,43a2.68,2.68,0,0,1,.63-.94,2.31,2.31,0,0,1,.88-.54,2.77,2.77,0,0,1,1-.18,3.79,3.79,0,0,1,1.14.16,2.1,2.1,0,0,1,.92.54,2.61,2.61,0,0,1,.65,1,5.5,5.5,0,0,1,.28,1.63h-1.2a2.5,2.5,0,0,0-.18-.86,1.57,1.57,0,0,0-.4-.55,1.68,1.68,0,0,0-.53-.31,2,2,0,0,0-.59-.09,2.55,2.55,0,0,0-.54.06,1.5,1.5,0,0,0-.5.22,1.26,1.26,0,0,0-.37.42,1.45,1.45,0,0,0-.14.67,1.22,1.22,0,0,0,.22.76,1.8,1.8,0,0,0,.56.5,3.3,3.3,0,0,0,.76.34l.85.28a6,6,0,0,1,.88.35,2.6,2.6,0,0,1,.76.55,2.68,2.68,0,0,1,.54.87,3.64,3.64,0,0,1,.2,1.29,4.22,4.22,0,0,1-.27,1.62,3,3,0,0,1-.72,1,2.53,2.53,0,0,1-1,.55,4,4,0,0,1-1.11.16,3.71,3.71,0,0,1-1.16-.19,2.42,2.42,0,0,1-1-.61,3,3,0,0,1-.68-1.13,5.14,5.14,0,0,1-.28-1.69h1.2A2.81,2.81,0,0,0,36,49.9ZM37,40.07l-1.47-3h1.19l1,2,1-2H39.8l-1.45,3Z"/><path class="cls-3" d="M45.24,41.55v1.56H43.79v6.68a3.34,3.34,0,0,0,0,.5.6.6,0,0,0,.13.29.5.5,0,0,0,.28.14,2.86,2.86,0,0,0,.46,0h.55v1.56h-.92a2.73,2.73,0,0,1-.8-.1,1,1,0,0,1-.53-.34,1.67,1.67,0,0,1-.31-.71,6.37,6.37,0,0,1-.09-1.2V43.11H41.34V41.55h1.25V38.32h1.2v3.23Z"/><path class="cls-3" d="M46.64,39.61V37.45h1.2v2.16Zm1.2,1.94V52.31h-1.2V41.55Z"/><path class="cls-3" d="M52.82,41.55v1.56H51.36v6.68a3.15,3.15,0,0,0,0,.5.6.6,0,0,0,.13.29.5.5,0,0,0,.28.14,2.86,2.86,0,0,0,.46,0h.55v1.56H51.9a2.69,2.69,0,0,1-.8-.1,1,1,0,0,1-.53-.34,1.67,1.67,0,0,1-.31-.71,6.25,6.25,0,0,1-.1-1.2V43.11H48.92V41.55h1.24V38.32h1.2v3.23Z"/><path class="cls-3" d="M60.61,52.27a1.27,1.27,0,0,1-.86.27.86.86,0,0,1-.74-.39,2.13,2.13,0,0,1-.28-1.26,3.16,3.16,0,0,1-1.15,1.26,2.71,2.71,0,0,1-1.42.39,2.6,2.6,0,0,1-.93-.17,1.85,1.85,0,0,1-.77-.52,2.51,2.51,0,0,1-.52-.93,4.3,4.3,0,0,1-.19-1.38A4.51,4.51,0,0,1,54,48a2.61,2.61,0,0,1,.56-.94,2.28,2.28,0,0,1,.79-.56,7.51,7.51,0,0,1,.91-.31,7.42,7.42,0,0,1,.94-.22,3.68,3.68,0,0,0,.78-.2,1.24,1.24,0,0,0,.54-.4,1.25,1.25,0,0,0,.2-.76,2.46,2.46,0,0,0-.15-.94,1.49,1.49,0,0,0-.38-.54,1.3,1.3,0,0,0-.53-.25,2.76,2.76,0,0,0-.57-.06,1.88,1.88,0,0,0-1.27.43,2.14,2.14,0,0,0-.55,1.61H54a5.67,5.67,0,0,1,.28-1.69A3.21,3.21,0,0,1,55,42.1a2.49,2.49,0,0,1,1-.61,3.4,3.4,0,0,1,1.16-.19,4.59,4.59,0,0,1,1,.1,2.05,2.05,0,0,1,.89.43,2.27,2.27,0,0,1,.63.9,4.07,4.07,0,0,1,.24,1.52v5.52a6.55,6.55,0,0,0,0,.92.31.31,0,0,0,.33.29,1,1,0,0,0,.37-.09Zm-2-5.52a1.23,1.23,0,0,1-.59.36,6.19,6.19,0,0,1-.77.19c-.27.05-.54.1-.81.17a2.3,2.3,0,0,0-.74.3,1.44,1.44,0,0,0-.52.59,2.15,2.15,0,0,0-.21,1,2,2,0,0,0,.12.74,1.29,1.29,0,0,0,.31.48,1,1,0,0,0,.45.27,1.55,1.55,0,0,0,.53.09,2,2,0,0,0,1-.24,2.23,2.23,0,0,0,.69-.6,2.68,2.68,0,0,0,.4-.79,2.93,2.93,0,0,0,.12-.8Z"/><path class="cls-3" d="M70.56,52.31V50.6h0a3.31,3.31,0,0,1-1,1.47,2.21,2.21,0,0,1-1.4.47,2.42,2.42,0,0,1-1.2-.28,2.12,2.12,0,0,1-.77-.8,3.7,3.7,0,0,1-.42-1.24,9.74,9.74,0,0,1-.12-1.6V41.55h1.2v7.28a2.78,2.78,0,0,0,.39,1.58,1.26,1.26,0,0,0,1.09.59,1.79,1.79,0,0,0,1-.25A1.91,1.91,0,0,0,70,50,3.67,3.67,0,0,0,70.36,49a6.28,6.28,0,0,0,.13-1.34V41.55h1.2V52.31Z"/><path class="cls-3" d="M77.31,43.11H73.19V41.55h5.67v1.21l-4.46,8h4.66v1.56H72.9V51Z"/><path class="cls-3" d="M80.1,44.72a6.12,6.12,0,0,1,.68-1.79,3.56,3.56,0,0,1,1.12-1.19,2.86,2.86,0,0,1,3,0,3.64,3.64,0,0,1,1.11,1.19,6.12,6.12,0,0,1,.68,1.79A10.45,10.45,0,0,1,87,46.94a10.13,10.13,0,0,1-.22,2.2,6,6,0,0,1-.68,1.78A3.45,3.45,0,0,1,85,52.11a2.92,2.92,0,0,1-3,0,3.38,3.38,0,0,1-1.12-1.19,6,6,0,0,1-.68-1.78,10.13,10.13,0,0,1-.22-2.2A10.45,10.45,0,0,1,80.1,44.72Zm1.22,4A4.37,4.37,0,0,0,81.81,50a2.4,2.4,0,0,0,.73.78,1.59,1.59,0,0,0,.88.27,1.57,1.57,0,0,0,.88-.27A2.4,2.4,0,0,0,85,50a4.37,4.37,0,0,0,.49-1.27,9,9,0,0,0,0-3.48A4.56,4.56,0,0,0,85,43.92a2.43,2.43,0,0,0-.73-.79,1.57,1.57,0,0,0-.88-.27,1.59,1.59,0,0,0-.88.27,2.43,2.43,0,0,0-.73.79,4.56,4.56,0,0,0-.49,1.28,9,9,0,0,0,0,3.48Z"/><path class="cls-3" d="M89.46,41.55v2.27h0a4.87,4.87,0,0,1,1.07-1.94,2.09,2.09,0,0,1,1.61-.58v1.87a2.49,2.49,0,0,0-1.23.29,2.17,2.17,0,0,0-.81.86,4.43,4.43,0,0,0-.46,1.36,11.12,11.12,0,0,0-.14,1.84v4.79h-1.2V41.55Z"/><path class="cls-3" d="M94.35,37.45v8.8l3.33-4.7h1.61l-2.9,3.91,3.11,6.85H98l-2.5-5.62-1.12,1.54v4.08h-1.2V37.45Z"/><path class="cls-3" d="M106.87,52.27a1.28,1.28,0,0,1-.86.27.87.87,0,0,1-.75-.39,2.22,2.22,0,0,1-.27-1.26,3.16,3.16,0,0,1-1.15,1.26,2.74,2.74,0,0,1-1.42.39,2.7,2.7,0,0,1-.94-.17,1.92,1.92,0,0,1-.77-.52,2.37,2.37,0,0,1-.51-.93,4.3,4.3,0,0,1-.19-1.38,4.51,4.51,0,0,1,.21-1.5,2.48,2.48,0,0,1,.56-.94,2.28,2.28,0,0,1,.79-.56,7,7,0,0,1,.91-.31,7.71,7.71,0,0,1,.93-.22,4,4,0,0,0,.79-.2,1.27,1.27,0,0,0,.53-.4,1.19,1.19,0,0,0,.2-.76,2.46,2.46,0,0,0-.15-.94,1.28,1.28,0,0,0-.38-.54,1.26,1.26,0,0,0-.52-.25,2.76,2.76,0,0,0-.57-.06,1.88,1.88,0,0,0-1.27.43,2.14,2.14,0,0,0-.55,1.61h-1.2a5.37,5.37,0,0,1,.28-1.69,3.21,3.21,0,0,1,.68-1.11,2.46,2.46,0,0,1,1-.61,3.5,3.5,0,0,1,1.17-.19,4.59,4.59,0,0,1,1,.1,2,2,0,0,1,.88.43,2.19,2.19,0,0,1,.64.9,4.07,4.07,0,0,1,.24,1.52v5.52a5.29,5.29,0,0,0,0,.92.31.31,0,0,0,.33.29,1,1,0,0,0,.37-.09Zm-2-5.52a1.23,1.23,0,0,1-.59.36,6.66,6.66,0,0,1-.77.19c-.27.05-.54.1-.82.17a2.25,2.25,0,0,0-.73.3,1.46,1.46,0,0,0-.53.59,2.16,2.16,0,0,0-.2,1,2,2,0,0,0,.12.74,1.29,1.29,0,0,0,.31.48,1,1,0,0,0,.44.27,1.61,1.61,0,0,0,.54.09,2,2,0,0,0,1-.24,2.16,2.16,0,0,0,.7-.6,2.65,2.65,0,0,0,.39-.79,2.62,2.62,0,0,0,.13-.8Z"/><path class="cls-4" d="M65.44,80.62a10.78,10.78,0,0,1-4,3.87,9.44,9.44,0,0,1-2.62,1,12.66,12.66,0,0,1-2.8.32l.09-.11a22.79,22.79,0,0,0,1.08,5,36.33,36.33,0,0,0,1.93,4.75,27.17,27.17,0,0,0,2.7,4.32,21.76,21.76,0,0,0,3.64,3.6l0,0a16.06,16.06,0,0,1-4-3.36,20.21,20.21,0,0,1-2.82-4.38,26.67,26.67,0,0,1-1.76-4.89,46.17,46.17,0,0,1-1-5.09l0-.1H56a11.7,11.7,0,0,0,2.7-.5,13.11,13.11,0,0,0,6.71-4.56Z"/><path class="cls-4" d="M65.41,80.61a12.25,12.25,0,0,0,4.18,3.56,10.74,10.74,0,0,0,2.56,1,12.92,12.92,0,0,0,2.7.38h.24l0,.23a29.89,29.89,0,0,1-2.89,10,22.73,22.73,0,0,1-2.85,4.34,17.54,17.54,0,0,1-3.91,3.39,19.5,19.5,0,0,0,3.69-3.57,24.61,24.61,0,0,0,2.67-4.36,29.42,29.42,0,0,0,1.8-4.79,30.77,30.77,0,0,0,1.05-5l.22.24a11.52,11.52,0,0,1-2.8-.44,11.19,11.19,0,0,1-2.6-1.09,10.91,10.91,0,0,1-2.25-1.68A11.83,11.83,0,0,1,65.41,80.61Z"/><path class="cls-4" d="M65.41,82.41a10.08,10.08,0,0,1-8,4.35s.89,10.28,8,15"/></svg>