<svg id="Layer_1" data-name="Layer 1" xmlns="http://www.w3.org/2000/svg" viewBox="0 0 127 127"><defs><style>.cls-1{fill:#676767;}.cls-2{fill:#feee8f;}.cls-3{fill:#9c9;}.cls-4{fill:#666766;}</style></defs><title>K</title><rect class="cls-1" x="1" y="1.13" width="125" height="125" rx="10" ry="10"/><path class="cls-2" d="M11,1H41.17L71.35.91,101.52.77c5,0,10-.08,15.11,0a10.51,10.51,0,0,1,9.87,10.39l.15,60.35.08,30.18c0,5,0,10,0,15.13A10.82,10.82,0,0,1,116,126.92l-60.35.19H12.28c-.64,0-1.23,0-1.95,0A11,11,0,0,1,0,116.12L.17,86,.46,55.78.75,25.6c0-5,0-10,.11-15.09A10.16,10.16,0,0,1,11,1Zm0,.19A9.94,9.94,0,0,0,4.26,4a9.77,9.77,0,0,0-3,6.57c0,5,0,10,0,15.07l.29,30.18L1.83,86,2,116.12a9,9,0,0,0,8.45,9c.54,0,1.21,0,1.83,0H55.65l60.35.19a9.28,9.28,0,0,0,9.21-8.64c.07-4.94,0-10,.06-15l.08-30.18.15-60.35a9.58,9.58,0,0,0-8.92-9.54c-5-.08-10-.06-15.06-.1L71.35,1.34,41.17,1.23Z"/><rect class="cls-2" x="44.29" y="71.45" width="41.67" height="41.67" rx="12" ry="12" transform="translate(130.25 184.57) rotate(180)"/><path class="cls-3" d="M40.57,20.71v1.46h0a2.31,2.31,0,0,1,.93-1.3,2.55,2.55,0,0,1,1.4-.41,2.47,2.47,0,0,1,1.47.46,3.67,3.67,0,0,1,1.05,1.24,6.92,6.92,0,0,1,.62,1.8,10,10,0,0,1,.22,2.16,10.72,10.72,0,0,1-.21,2.17,6.32,6.32,0,0,1-.62,1.78,3.57,3.57,0,0,1-1,1.19A2.53,2.53,0,0,1,43,31.7a2.92,2.92,0,0,1-.6-.08,2.8,2.8,0,0,1-.65-.27,2.89,2.89,0,0,1-.62-.51,3,3,0,0,1-.48-.8h0v5.53h-1.2V20.71Zm4.31,3.82a4.81,4.81,0,0,0-.41-1.28,2.52,2.52,0,0,0-.7-.89,1.58,1.58,0,0,0-1-.34,1.52,1.52,0,0,0-1,.36,2.53,2.53,0,0,0-.7.92,5.49,5.49,0,0,0-.38,1.3,9.14,9.14,0,0,0-.12,1.48,9.49,9.49,0,0,0,.12,1.53,4.73,4.73,0,0,0,.41,1.3,2.51,2.51,0,0,0,.71.91,1.64,1.64,0,0,0,1.06.34,1.59,1.59,0,0,0,1-.35,2.66,2.66,0,0,0,.67-.94,5.48,5.48,0,0,0,.36-1.33A9.7,9.7,0,0,0,45,26,8,8,0,0,0,44.88,24.53Z"/><path class="cls-3" d="M48.78,20.71V23h0a4.71,4.71,0,0,1,1.08-1.93,2.06,2.06,0,0,1,1.6-.59v1.88a2.35,2.35,0,0,0-1.22.29,2.1,2.1,0,0,0-.82.85A4.27,4.27,0,0,0,49,24.84a10.18,10.18,0,0,0-.15,1.85v4.78h-1.2V20.71Z"/><path class="cls-3" d="M57.31,30.78a2.62,2.62,0,0,1-2.06.92,2.73,2.73,0,0,1-1.52-.42,3.28,3.28,0,0,1-1.08-1.16A5.9,5.9,0,0,1,52,28.33a12.13,12.13,0,0,1-.25-2.27A9.28,9.28,0,0,1,52,23.81,6.19,6.19,0,0,1,52.72,22a3.56,3.56,0,0,1,1.08-1.16,2.44,2.44,0,0,1,1.38-.42,2.25,2.25,0,0,1,1.61.6,4.09,4.09,0,0,1,1,1.5,8,8,0,0,1,.54,2,12.28,12.28,0,0,1,.12,2.06H53A6.59,6.59,0,0,0,53.13,28a3.82,3.82,0,0,0,.41,1.12,2.45,2.45,0,0,0,.72.78,1.86,1.86,0,0,0,1,.29,1.62,1.62,0,0,0,1.25-.52,2.81,2.81,0,0,0,.64-1.58h1.19A4.94,4.94,0,0,1,57.31,30.78ZM57,23.88a3.21,3.21,0,0,0-.44-1,2.24,2.24,0,0,0-.65-.65,1.48,1.48,0,0,0-.82-.24,1.53,1.53,0,0,0-.84.24,2,2,0,0,0-.64.66,3.75,3.75,0,0,0-.43,1A5.4,5.4,0,0,0,53,25.06h4.19A5,5,0,0,0,57,23.88Z"/><path class="cls-3" d="M64.09,22.59A1.49,1.49,0,0,0,62.87,22a1.68,1.68,0,0,0-1.09.36,2.44,2.44,0,0,0-.69.93,5.1,5.1,0,0,0-.38,1.35,11.38,11.38,0,0,0-.11,1.57,8.6,8.6,0,0,0,.12,1.45,4.79,4.79,0,0,0,.37,1.26,2.35,2.35,0,0,0,.67.89,1.48,1.48,0,0,0,1,.33,1.62,1.62,0,0,0,1.39-.69,3.8,3.8,0,0,0,.61-1.93H66a6.09,6.09,0,0,1-1,3.08,2.61,2.61,0,0,1-2.21,1.08,2.7,2.7,0,0,1-1.47-.4,3,3,0,0,1-1.07-1.12,5.49,5.49,0,0,1-.65-1.74,10.16,10.16,0,0,1-.22-2.21A11.5,11.5,0,0,1,59.54,24a6.56,6.56,0,0,1,.64-1.83,3.61,3.61,0,0,1,1.08-1.23,2.59,2.59,0,0,1,1.51-.45,3.24,3.24,0,0,1,1.17.22,2.64,2.64,0,0,1,1,.68,3.76,3.76,0,0,1,.68,1.15,5.93,5.93,0,0,1,.34,1.66H64.68A3.23,3.23,0,0,0,64.09,22.59Z"/><path class="cls-3" d="M67.37,18.78V16.61h1.2v2.17Zm1.2,1.93V31.47h-1.2V20.71Z"/><path class="cls-3" d="M74.25,22.27H70.13V20.71H75.8v1.21l-4.46,8H76v1.56H69.84V30.12Z"/><path class="cls-3" d="M78.34,20.71v1.71h0a2.54,2.54,0,0,1,2.37-2,2.32,2.32,0,0,1,1.2.29,2.28,2.28,0,0,1,.78.82,3.87,3.87,0,0,1,.41,1.23,9.74,9.74,0,0,1,.12,1.6v7.07h-1.2V24.19a2.78,2.78,0,0,0-.39-1.58A1.26,1.26,0,0,0,80.57,22a1.82,1.82,0,0,0-.95.25A2.08,2.08,0,0,0,79,23a3.66,3.66,0,0,0-.4,1.07,6.29,6.29,0,0,0-.14,1.35v6.07h-1.2V20.71Z"/><path class="cls-3" d="M91.53,31.43a1.29,1.29,0,0,1-.87.27.88.88,0,0,1-.74-.38,2.27,2.27,0,0,1-.27-1.26,3.39,3.39,0,0,1-1.15,1.26,2.82,2.82,0,0,1-1.42.38,2.7,2.7,0,0,1-.94-.17,1.92,1.92,0,0,1-.77-.52,2.32,2.32,0,0,1-.51-.92,5,5,0,0,1,0-2.88,2.64,2.64,0,0,1,.55-.95,2.35,2.35,0,0,1,.79-.55,5.85,5.85,0,0,1,.92-.31,5.92,5.92,0,0,1,.93-.22,3.93,3.93,0,0,0,.79-.21,1.19,1.19,0,0,0,.53-.4,1.17,1.17,0,0,0,.2-.76,2.41,2.41,0,0,0-.15-.93,1.25,1.25,0,0,0-.38-.54,1.15,1.15,0,0,0-.52-.25A2.22,2.22,0,0,0,88,22a1.93,1.93,0,0,0-1.27.43,2.14,2.14,0,0,0-.55,1.61H85a5.35,5.35,0,0,1,.28-1.68,3,3,0,0,1,.68-1.12,2.46,2.46,0,0,1,1-.61A3.73,3.73,0,0,1,88,20.46a4.6,4.6,0,0,1,1,.11,2.11,2.11,0,0,1,.88.42,2.23,2.23,0,0,1,.64.91,4,4,0,0,1,.24,1.51v5.53a5.16,5.16,0,0,0,0,.91.31.31,0,0,0,.33.29,1.24,1.24,0,0,0,.37-.08Zm-2-5.51a1.38,1.38,0,0,1-.6.36,5.79,5.79,0,0,1-.77.18l-.81.17a2.25,2.25,0,0,0-.73.3,1.53,1.53,0,0,0-.53.59,2.21,2.21,0,0,0-.2,1.05,2,2,0,0,0,.12.73,1.42,1.42,0,0,0,.31.49,1.16,1.16,0,0,0,.44.27,1.91,1.91,0,0,0,.54.08,2,2,0,0,0,1.7-.84,2.36,2.36,0,0,0,.4-.79,2.89,2.89,0,0,0,.13-.79Z"/><path class="cls-3" d="M30.55,53.54A2.82,2.82,0,0,1,28,54.85a3.48,3.48,0,0,1-1-.17,2.7,2.7,0,0,1-1-.54,2.92,2.92,0,0,1-.71-1A3.73,3.73,0,0,1,25,51.68h1.2a1.87,1.87,0,0,0,.2.82,1.76,1.76,0,0,0,.47.54,1.69,1.69,0,0,0,.6.3,2.27,2.27,0,0,0,.62.09,1.65,1.65,0,0,0,1-.3,2.36,2.36,0,0,0,.68-.83A4.38,4.38,0,0,0,30.12,51a10.48,10.48,0,0,0,.12-1.65v-.7h0a2.8,2.8,0,0,1-.94,1.46,2.14,2.14,0,0,1-1.33.47,2.37,2.37,0,0,1-1.43-.43,3.81,3.81,0,0,1-1-1.18,6.28,6.28,0,0,1-.61-1.73,10,10,0,0,1-.2-2.09,12.25,12.25,0,0,1,.16-2,7.26,7.26,0,0,1,.57-1.83,3.82,3.82,0,0,1,1-1.35,2.49,2.49,0,0,1,1.6-.53,2,2,0,0,1,1.27.45,2.79,2.79,0,0,1,.9,1.34h0V39.74h1.13v9.84A7.7,7.7,0,0,1,30.55,53.54ZM29,48.7a2.66,2.66,0,0,0,.67-1,5.69,5.69,0,0,0,.37-1.34,9.48,9.48,0,0,0,.12-1.5,9.09,9.09,0,0,0-.11-1.39,5.46,5.46,0,0,0-.36-1.24,2.61,2.61,0,0,0-.64-.89,1.47,1.47,0,0,0-1-.33,1.57,1.57,0,0,0-1,.32,2.36,2.36,0,0,0-.67.87,4.4,4.4,0,0,0-.38,1.24A9,9,0,0,0,26,45,11.92,11.92,0,0,0,26,46.42a5.8,5.8,0,0,0,.34,1.32,2.61,2.61,0,0,0,.64,1,1.4,1.4,0,0,0,1,.36A1.51,1.51,0,0,0,29,48.7Z"/><path class="cls-3" d="M34.26,39.74V42h0a4.87,4.87,0,0,1,1.07-1.94A2.08,2.08,0,0,1,37,39.49v1.87a2.49,2.49,0,0,0-1.23.29,2.2,2.2,0,0,0-.82.86,4.72,4.72,0,0,0-.45,1.36,11.12,11.12,0,0,0-.14,1.84V50.5h-1.2V39.74Z"/><path class="cls-3" d="M44.34,50.46a1.28,1.28,0,0,1-.86.27.86.86,0,0,1-.74-.39,2.15,2.15,0,0,1-.28-1.26,3.23,3.23,0,0,1-1.15,1.26,2.74,2.74,0,0,1-1.42.39,2.7,2.7,0,0,1-.94-.17,2,2,0,0,1-.77-.52,2.65,2.65,0,0,1-.51-.93,4.3,4.3,0,0,1-.19-1.38,4.51,4.51,0,0,1,.21-1.5,2.75,2.75,0,0,1,.56-.95,2.4,2.4,0,0,1,.79-.55,7,7,0,0,1,.91-.31,7.42,7.42,0,0,1,.94-.22,3.41,3.41,0,0,0,.78-.21,1.28,1.28,0,0,0,.54-.39,1.25,1.25,0,0,0,.19-.76,2.7,2.7,0,0,0-.14-.94,1.4,1.4,0,0,0-.39-.54,1.2,1.2,0,0,0-.52-.25,2.76,2.76,0,0,0-.57-.06,1.88,1.88,0,0,0-1.27.43A2.14,2.14,0,0,0,39,43.09h-1.2A5.37,5.37,0,0,1,38,41.4a3.12,3.12,0,0,1,.68-1.11,2.42,2.42,0,0,1,1-.61,3.4,3.4,0,0,1,1.16-.19,4.59,4.59,0,0,1,1,.1,2,2,0,0,1,.88.43,2.13,2.13,0,0,1,.64.9,4,4,0,0,1,.24,1.52V48a6.55,6.55,0,0,0,0,.92.31.31,0,0,0,.33.29,1,1,0,0,0,.37-.09Zm-2-5.52a1.23,1.23,0,0,1-.59.36,6.19,6.19,0,0,1-.77.19c-.27,0-.54.1-.81.17a2.22,2.22,0,0,0-.74.3,1.53,1.53,0,0,0-.53.59,2.29,2.29,0,0,0-.2,1,2,2,0,0,0,.12.74,1.29,1.29,0,0,0,.31.48,1,1,0,0,0,.44.27,1.61,1.61,0,0,0,.54.09,2.05,2.05,0,0,0,1-.24,2.23,2.23,0,0,0,.69-.6,2.43,2.43,0,0,0,.39-.79,2.62,2.62,0,0,0,.13-.8Z"/><path class="cls-3" d="M50.77,50.5V49h0a2.26,2.26,0,0,1-.94,1.29,2.59,2.59,0,0,1-1.39.4,2.48,2.48,0,0,1-1.48-.46,3.71,3.71,0,0,1-1-1.23,6.39,6.39,0,0,1-.63-1.79,10.7,10.7,0,0,1-.21-2.16,11.51,11.51,0,0,1,.2-2.17,6.65,6.65,0,0,1,.62-1.78,3.62,3.62,0,0,1,1-1.2,2.43,2.43,0,0,1,1.46-.45,2.4,2.4,0,0,1,1.26.36,3.24,3.24,0,0,1,.61.52,3.17,3.17,0,0,1,.49.81h0V35.64H52V50.5Zm-4.31-3.82A5.2,5.2,0,0,0,46.87,48a2.55,2.55,0,0,0,.71.89,1.54,1.54,0,0,0,1,.34,1.56,1.56,0,0,0,1-.36,2.62,2.62,0,0,0,.69-.92,5,5,0,0,0,.39-1.3,9.14,9.14,0,0,0,.12-1.48,9.47,9.47,0,0,0-.13-1.53,4.73,4.73,0,0,0-.4-1.3,2.53,2.53,0,0,0-.72-.91,1.63,1.63,0,0,0-1-.34,1.57,1.57,0,0,0-1,.35,2.46,2.46,0,0,0-.68.94,5.48,5.48,0,0,0-.37,1.33,11.17,11.17,0,0,0-.11,1.54A8,8,0,0,0,46.46,46.68Z"/><path class="cls-3" d="M58.74,50.5V48.79h0a3.32,3.32,0,0,1-1,1.47,2.18,2.18,0,0,1-1.39.47,2.42,2.42,0,0,1-1.2-.28,2.17,2.17,0,0,1-.78-.81,3.64,3.64,0,0,1-.42-1.23,9.74,9.74,0,0,1-.12-1.6V39.74H55V47a2.7,2.7,0,0,0,.4,1.58,1.24,1.24,0,0,0,1.09.59,1.84,1.84,0,0,0,1-.25,2.08,2.08,0,0,0,.67-.71,3.66,3.66,0,0,0,.4-1.07,6.28,6.28,0,0,0,.13-1.34V39.74h1.2V50.5Z"/><path class="cls-3" d="M61.74,37.8V35.64h1.2V37.8Zm1.2,1.94V50.5h-1.2V39.74Z"/><path class="cls-3" d="M65.72,48.09a1.75,1.75,0,0,0,.45.65,1.64,1.64,0,0,0,.62.34,2.42,2.42,0,0,0,1.3,0,1.7,1.7,0,0,0,.58-.22,1.48,1.48,0,0,0,.43-.49,1.83,1.83,0,0,0,.17-.83,1.41,1.41,0,0,0-.36-1A2.79,2.79,0,0,0,68,46a10.31,10.31,0,0,0-1.15-.39,4.94,4.94,0,0,1-1.15-.5,2.65,2.65,0,0,1-.88-.91,3.09,3.09,0,0,1-.36-1.62,3.69,3.69,0,0,1,.25-1.4,2.84,2.84,0,0,1,.64-.94,2.35,2.35,0,0,1,.87-.54,2.81,2.81,0,0,1,1-.18,3.79,3.79,0,0,1,1.14.16,2.19,2.19,0,0,1,.93.54,2.71,2.71,0,0,1,.64,1,5.5,5.5,0,0,1,.28,1.63H69a2.5,2.5,0,0,0-.18-.86,1.58,1.58,0,0,0-.93-.86,2,2,0,0,0-.58-.09,2.64,2.64,0,0,0-.55.06,1.5,1.5,0,0,0-.5.22,1.14,1.14,0,0,0-.36.42,1.33,1.33,0,0,0-.15.67,1.29,1.29,0,0,0,.22.76,1.92,1.92,0,0,0,.56.5,4.07,4.07,0,0,0,.76.34l.85.28a6,6,0,0,1,.88.35,2.6,2.6,0,0,1,.76.55,2.52,2.52,0,0,1,.54.87,3.41,3.41,0,0,1,.21,1.29A4.2,4.2,0,0,1,70.26,49a2.76,2.76,0,0,1-.72,1,2.53,2.53,0,0,1-1,.55,4.25,4.25,0,0,1-1.11.16,3.76,3.76,0,0,1-1.16-.19,2.61,2.61,0,0,1-1-.61,3.13,3.13,0,0,1-.68-1.13,5.42,5.42,0,0,1-.28-1.69h1.2A2.81,2.81,0,0,0,65.72,48.09Z"/><path class="cls-3" d="M78.33,50.46a1.28,1.28,0,0,1-.86.27.89.89,0,0,1-.75-.39,2.24,2.24,0,0,1-.27-1.26,3.23,3.23,0,0,1-1.15,1.26,2.74,2.74,0,0,1-1.42.39,2.7,2.7,0,0,1-.94-.17,2,2,0,0,1-.77-.52,2.5,2.5,0,0,1-.51-.93,4.3,4.3,0,0,1-.19-1.38,4.51,4.51,0,0,1,.21-1.5,2.75,2.75,0,0,1,.56-.95,2.4,2.4,0,0,1,.79-.55,7,7,0,0,1,.91-.31,7.42,7.42,0,0,1,.94-.22,3.41,3.41,0,0,0,.78-.21,1.28,1.28,0,0,0,.54-.39,1.25,1.25,0,0,0,.19-.76,2.7,2.7,0,0,0-.14-.94,1.4,1.4,0,0,0-.39-.54,1.26,1.26,0,0,0-.52-.25,2.76,2.76,0,0,0-.57-.06,1.88,1.88,0,0,0-1.27.43A2.14,2.14,0,0,0,73,43.09h-1.2A5.37,5.37,0,0,1,72,41.4a3.12,3.12,0,0,1,.68-1.11,2.42,2.42,0,0,1,1-.61,3.4,3.4,0,0,1,1.16-.19,4.59,4.59,0,0,1,1,.1,2,2,0,0,1,.88.43,2.13,2.13,0,0,1,.64.9,4,4,0,0,1,.24,1.52V48a6.55,6.55,0,0,0,0,.92.31.31,0,0,0,.33.29,1,1,0,0,0,.37-.09Zm-2-5.52a1.23,1.23,0,0,1-.59.36,6.19,6.19,0,0,1-.77.19c-.27,0-.54.1-.81.17a2.22,2.22,0,0,0-.74.3,1.46,1.46,0,0,0-.53.59,2.29,2.29,0,0,0-.2,1,2,2,0,0,0,.12.74,1.29,1.29,0,0,0,.31.48,1,1,0,0,0,.44.27,1.61,1.61,0,0,0,.54.09,2.08,2.08,0,0,0,1-.24,2.23,2.23,0,0,0,.69-.6,2.43,2.43,0,0,0,.39-.79,2.62,2.62,0,0,0,.13-.8Z"/><path class="cls-3" d="M80.57,39.74v1.71h0a2.53,2.53,0,0,1,2.37-2,2.32,2.32,0,0,1,1.2.29,2.25,2.25,0,0,1,.78.81,3.93,3.93,0,0,1,.41,1.24,9.71,9.71,0,0,1,.12,1.59V50.5h-1.2V43.21a2.82,2.82,0,0,0-.39-1.58,1.25,1.25,0,0,0-1.09-.58,1.73,1.73,0,0,0-1,.25,2,2,0,0,0-.67.71,3.56,3.56,0,0,0-.4,1.07,6.26,6.26,0,0,0-.14,1.34V50.5h-1.2V39.74Z"/><path class="cls-3" d="M87.12,42.91a6.12,6.12,0,0,1,.68-1.79,3.64,3.64,0,0,1,1.11-1.19,2.88,2.88,0,0,1,3.06,0,3.64,3.64,0,0,1,1.11,1.19,6.41,6.41,0,0,1,.68,1.79A10.45,10.45,0,0,1,94,45.13a10.13,10.13,0,0,1-.22,2.2,6.23,6.23,0,0,1-.68,1.78A3.45,3.45,0,0,1,92,50.3a2.94,2.94,0,0,1-3.06,0,3.45,3.45,0,0,1-1.11-1.19,6,6,0,0,1-.68-1.78,10.13,10.13,0,0,1-.22-2.2A10.45,10.45,0,0,1,87.12,42.91Zm1.22,4a4.37,4.37,0,0,0,.49,1.27,2.4,2.4,0,0,0,.73.78,1.57,1.57,0,0,0,.88.27,1.59,1.59,0,0,0,.88-.27,2.4,2.4,0,0,0,.73-.78,4.37,4.37,0,0,0,.48-1.27,8.5,8.5,0,0,0,0-3.48,4.56,4.56,0,0,0-.48-1.28,2.43,2.43,0,0,0-.73-.79,1.59,1.59,0,0,0-.88-.27,1.57,1.57,0,0,0-.88.27,2.43,2.43,0,0,0-.73.79,4.56,4.56,0,0,0-.49,1.28,9,9,0,0,0,0,3.48Z"/><path class="cls-3" d="M96.31,48.09a1.74,1.74,0,0,0,.44.65,1.76,1.76,0,0,0,.63.34,2.4,2.4,0,0,0,.71.11,2.49,2.49,0,0,0,.59-.07,1.58,1.58,0,0,0,.57-.22,1.29,1.29,0,0,0,.43-.49,1.7,1.7,0,0,0,.17-.83,1.41,1.41,0,0,0-.35-1,2.91,2.91,0,0,0-.88-.57,10.31,10.31,0,0,0-1.15-.39,4.77,4.77,0,0,1-1.15-.5,2.56,2.56,0,0,1-.88-.91,3.09,3.09,0,0,1-.36-1.62,3.5,3.5,0,0,1,.25-1.4,2.82,2.82,0,0,1,.63-.94,2.31,2.31,0,0,1,.88-.54,2.77,2.77,0,0,1,1-.18,3.79,3.79,0,0,1,1.14.16,2.1,2.1,0,0,1,.92.54,2.61,2.61,0,0,1,.65,1,5.5,5.5,0,0,1,.28,1.63H99.6a2.5,2.5,0,0,0-.18-.86,1.57,1.57,0,0,0-.4-.55,1.68,1.68,0,0,0-.53-.31,2,2,0,0,0-.58-.09,2.64,2.64,0,0,0-.55.06,1.5,1.5,0,0,0-.5.22,1.26,1.26,0,0,0-.37.42,1.45,1.45,0,0,0-.14.67,1.29,1.29,0,0,0,.22.76,1.8,1.8,0,0,0,.56.5,3.79,3.79,0,0,0,.76.34l.85.28a6,6,0,0,1,.88.35,2.6,2.6,0,0,1,.76.55,2.68,2.68,0,0,1,.54.87,3.43,3.43,0,0,1,.2,1.29,4.22,4.22,0,0,1-.27,1.62,3,3,0,0,1-.72,1,2.53,2.53,0,0,1-1,.55,4.31,4.31,0,0,1-1.11.16,3.71,3.71,0,0,1-1.16-.19,2.54,2.54,0,0,1-1-.61,3,3,0,0,1-.68-1.13,5.42,5.42,0,0,1-.28-1.69h1.2A2.81,2.81,0,0,0,96.31,48.09Z"/><path class="cls-3" d="M105.57,39.74V41.3h-1.45V48a3.34,3.34,0,0,0,0,.5.53.53,0,0,0,.14.29.5.5,0,0,0,.27.14,2.86,2.86,0,0,0,.46,0h.55V50.5h-.92a2.73,2.73,0,0,1-.8-.1,1,1,0,0,1-.53-.34,1.56,1.56,0,0,1-.3-.71,5.53,5.53,0,0,1-.1-1.2V41.3h-1.25V39.74h1.25V36.51h1.2v3.23Z"/><circle class="cls-4" cx="62.3" cy="93.56" r="0.61"/><circle class="cls-4" cx="61.94" cy="90.13" r="0.91"/><circle class="cls-4" cx="61.91" cy="85.69" r="0.45"/><circle class="cls-4" cx="61.72" cy="83.79" r="0.78"/><circle class="cls-4" cx="61.22" cy="87.06" r="0.57"/><circle class="cls-4" cx="62.5" cy="87.11" r="0.28"/><circle class="cls-4" cx="61.91" cy="88.46" r="0.38"/><circle class="cls-4" cx="60.86" cy="88.98" r="0.19"/><circle class="cls-4" cx="60.91" cy="85.13" r="0.23"/><circle class="cls-4" cx="61.37" cy="94.68" r="0.41"/><circle class="cls-4" cx="61.22" cy="92.17" r="0.77"/><circle class="cls-4" cx="61.91" cy="96.16" r="0.94"/><circle class="cls-4" cx="62.14" cy="81.94" r="0.5"/><circle class="cls-4" cx="60.91" cy="80.96" r="0.77"/><circle class="cls-4" cx="62.85" cy="80.19" r="0.33"/><circle class="cls-4" cx="61.68" cy="78.77" r="0.54"/><path class="cls-4" d="M63.06,82.88c0,3.66,0,7.32.09,11l.08,5.49,0,2.75a2.77,2.77,0,0,1-.06.74,1.6,1.6,0,0,1-.39.68,1.69,1.69,0,0,1-1.44.5,1.67,1.67,0,0,1-1.26-.87,1.75,1.75,0,0,1-.19-.77V98.94l0-5.49.15-11h0A1.79,1.79,0,0,0,59.32,81l-.13-.07h.15l4.57,0h0l0,0a1.57,1.57,0,0,0-.68.82A3.11,3.11,0,0,0,63.06,82.88Zm0,0a3.1,3.1,0,0,1,.16-1.09A1.57,1.57,0,0,1,63.9,81v0l-4.57,0,0-.07a1.74,1.74,0,0,1,.63.66,2.51,2.51,0,0,1,.24.88h0l.15,11,0,5.49v3.44a1.06,1.06,0,0,0,.13.55,1.22,1.22,0,0,0,2,.29,1.39,1.39,0,0,0,.35-1.12l0-2.75L63,93.86C63,90.2,63,86.54,63.06,82.88Z"/><path class="cls-4" d="M63.06,97.44v5a1.44,1.44,0,0,1-1.43,1.43h0a1.44,1.44,0,0,1-1.44-1.43V97.15l.14-.09c.58-.15,1.32.82,1.59,1C62.33,98.23,62.76,98,63.06,97.44Z"/><path class="cls-4" d="M63.06,97.44c0,1.15.11,2.36.16,3.64l0,1a2.18,2.18,0,0,1-.1,1,1.67,1.67,0,0,1-1.7,1A1.69,1.69,0,0,1,60,102.71c-.06-.7,0-1.25,0-1.88,0-1.23,0-2.45.07-3.68v-.09l.06,0,.15-.09,0,0h0a1.12,1.12,0,0,1,.88.31,7,7,0,0,1,.62.59.61.61,0,0,0,.69.19A1.33,1.33,0,0,0,63.06,97.44Zm0,0a1.27,1.27,0,0,1-.55.64.75.75,0,0,1-.84-.15,7.23,7.23,0,0,0-.65-.51.89.89,0,0,0-.66-.22l0,0-.14.1.07-.13c.05,1.23.07,2.45.08,3.68,0,.59,0,1.27,0,1.79a1.2,1.2,0,0,0,1,1,1.23,1.23,0,0,0,1.26-.72,1.92,1.92,0,0,0,.12-.81l0-.89C63,100,63.05,98.75,63.06,97.44Z"/><circle class="cls-4" cx="69.29" cy="94.63" r="0.61"/><circle class="cls-4" cx="68.93" cy="91.2" r="0.91"/><circle class="cls-4" cx="68.91" cy="86.76" r="0.45"/><circle class="cls-4" cx="68.22" cy="88.13" r="0.57"/><circle class="cls-4" cx="69.49" cy="88.18" r="0.28"/><circle class="cls-4" cx="68.91" cy="89.53" r="0.38"/><circle class="cls-4" cx="67.86" cy="90.05" r="0.19"/><circle class="cls-4" cx="67.91" cy="86.2" r="0.23"/><circle class="cls-4" cx="68.37" cy="95.75" r="0.41"/><circle class="cls-4" cx="68.22" cy="93.24" r="0.77"/><circle class="cls-4" cx="68.91" cy="97.23" r="0.94"/><path class="cls-4" d="M70.06,90.23c0,2.62,0,5.23.1,7.84l.08,3.93,0,1v.49a1.72,1.72,0,0,1-.1.55,1.68,1.68,0,0,1-3.24-.46v-2l0-3.93c0-2.61.09-5.22.13-7.84h0a1.72,1.72,0,0,0-.77-1.46l-.2-.12h.24l4.57,0h0l0,0a1.57,1.57,0,0,0-.68.82A3.05,3.05,0,0,0,70.06,90.23Zm0,0a2.91,2.91,0,0,1,.15-1.09,1.62,1.62,0,0,1,.69-.84v0l-4.57,0,0-.11a1.57,1.57,0,0,1,.64.66,2.38,2.38,0,0,1,.25.89h0c0,2.62.11,5.23.13,7.84l0,3.93v1.94a1.21,1.21,0,0,0,1,1.12,1.24,1.24,0,0,0,1.33-.78,1.41,1.41,0,0,0,.07-.41V103l0-1L70,98.07C70,95.46,70,92.85,70.06,90.23Z"/><path class="cls-4" d="M70.06,98.51v5a1.44,1.44,0,0,1-1.43,1.43h0a1.44,1.44,0,0,1-1.44-1.43V98.22l.14-.1c.57-.14,1.32.83,1.59,1C69.33,99.3,69.76,99.07,70.06,98.51Z"/><path class="cls-4" d="M70.06,98.51c0,1.15.11,2.36.16,3.63l0,1a2.18,2.18,0,0,1-.1,1,1.68,1.68,0,0,1-3.19-.32c-.06-.7,0-1.25,0-1.88,0-1.23,0-2.46.07-3.68v-.09l.06,0,.15-.09,0,0h0a1.1,1.1,0,0,1,.88.31,5.7,5.7,0,0,1,.61.59.63.63,0,0,0,.7.19A1.33,1.33,0,0,0,70.06,98.51Zm0,0a1.27,1.27,0,0,1-.55.64.75.75,0,0,1-.84-.15,6.15,6.15,0,0,0-.66-.51.86.86,0,0,0-.65-.22l0,0-.14.1.07-.13c0,1.22.07,2.45.08,3.68,0,.59,0,1.27,0,1.79a1.2,1.2,0,0,0,1,1,1.23,1.23,0,0,0,1.26-.73,2,2,0,0,0,.12-.8l0-.89C70,101.07,70.05,99.82,70.06,98.51Z"/></svg>