<svg id="Layer_1" data-name="Layer 1" xmlns="http://www.w3.org/2000/svg" viewBox="0 0 127 127"><defs><style>.cls-1{fill:#676767;}.cls-2{fill:#feee8f;}.cls-3{fill:#9c9;}.cls-4{fill:#666766;}</style></defs><title>K</title><rect class="cls-1" x="1" y="1.13" width="125" height="125" rx="10" ry="10"/><path class="cls-2" d="M11,1H41.17L71.35.91,101.52.77c5,0,10-.08,15.11,0a10.51,10.51,0,0,1,9.87,10.39l.15,60.35.07,30.18c0,5,.06,10,0,15.13A10.82,10.82,0,0,1,116,126.92l-60.35.19H12.28c-.64,0-1.23,0-1.95,0A11,11,0,0,1,0,116.12L.17,86,.46,55.78.75,25.6c0-5,0-10,.11-15.09A10.16,10.16,0,0,1,11,1Zm0,.19A9.94,9.94,0,0,0,4.26,4a9.77,9.77,0,0,0-3,6.57c0,5,0,10,0,15.07l.29,30.18L1.83,86,2,116.12a9,9,0,0,0,8.45,9c.54,0,1.21,0,1.83,0H55.65l60.35.19a9.28,9.28,0,0,0,9.21-8.64c.07-4.94,0-10,.07-15l.07-30.18.15-60.35a9.58,9.58,0,0,0-8.92-9.54c-5-.08-10-.06-15.06-.1L71.35,1.34,41.17,1.23Z"/><rect class="cls-2" x="44.29" y="71.45" width="41.67" height="41.67" rx="12" ry="12" transform="translate(130.24 184.57) rotate(180)"/><path class="cls-3" d="M40.25,18.87V16.7h1.2v2.17Zm1.2,1.93V31.56h-1.2V20.8Z"/><path class="cls-3" d="M47.13,22.37H43V20.8h5.68V22l-4.46,8h4.66v1.56H42.72V30.21Z"/><path class="cls-3" d="M55,31.56v-1.7h0a3.33,3.33,0,0,1-1,1.46,2.15,2.15,0,0,1-1.4.47,2.32,2.32,0,0,1-1.2-.28,2,2,0,0,1-.77-.8,3.7,3.7,0,0,1-.42-1.24,9.71,9.71,0,0,1-.12-1.59V20.8h1.2v7.29a2.82,2.82,0,0,0,.39,1.58,1.25,1.25,0,0,0,1.09.58,1.7,1.7,0,0,0,.95-.25,1.84,1.84,0,0,0,.67-.71,3.56,3.56,0,0,0,.41-1.07,6.22,6.22,0,0,0,.13-1.34V20.8h1.2V31.56Z"/><path class="cls-3" d="M61.75,22.37H57.63V20.8H63.3V22l-4.46,8H63.5v1.56H57.34V30.21Z"/><path class="cls-3" d="M69.88,30.88a2.64,2.64,0,0,1-2.06.91,2.78,2.78,0,0,1-1.52-.41,3.4,3.4,0,0,1-1.08-1.17,6.18,6.18,0,0,1-.66-1.79,13.06,13.06,0,0,1-.24-2.27,9.2,9.2,0,0,1,.25-2.24,6.48,6.48,0,0,1,.71-1.77A3.74,3.74,0,0,1,66.37,21a2.44,2.44,0,0,1,1.38-.42,2.25,2.25,0,0,1,1.61.6,4.13,4.13,0,0,1,1,1.51,7.77,7.77,0,0,1,.54,2,12.34,12.34,0,0,1,.12,2.06H65.59a6.54,6.54,0,0,0,.11,1.35,3.82,3.82,0,0,0,.41,1.12,2.26,2.26,0,0,0,.72.78,1.78,1.78,0,0,0,1,.29,1.62,1.62,0,0,0,1.25-.52,2.85,2.85,0,0,0,.64-1.58h1.19A5.05,5.05,0,0,1,69.88,30.88ZM69.59,24a3.21,3.21,0,0,0-.44-1,2.24,2.24,0,0,0-.65-.65,1.56,1.56,0,0,0-.82-.23,1.6,1.6,0,0,0-.84.23,2.16,2.16,0,0,0-.65.66,4.11,4.11,0,0,0-.42,1,5.5,5.5,0,0,0-.18,1.17h4.19A5,5,0,0,0,69.59,24Z"/><path class="cls-3" d="M75.41,20.8v1.57H74v6.68a3.19,3.19,0,0,0,0,.49.6.6,0,0,0,.14.3.46.46,0,0,0,.27.13,2.86,2.86,0,0,0,.46,0h.55v1.56h-.92a3,3,0,0,1-.79-.09,1.09,1.09,0,0,1-.54-.34,1.61,1.61,0,0,1-.3-.71,5.7,5.7,0,0,1-.1-1.21V22.37H71.52V20.8h1.24V17.58H74V20.8Z"/><path class="cls-3" d="M77.87,20.8v1.71h0a2.53,2.53,0,0,1,2.37-2,2.23,2.23,0,0,1,1.2.3,2.07,2.07,0,0,1,.77.81,3.62,3.62,0,0,1,.42,1.24,9.62,9.62,0,0,1,.12,1.59v7.07h-1.2V24.28a2.8,2.8,0,0,0-.39-1.58,1.25,1.25,0,0,0-1.09-.58,1.7,1.7,0,0,0-.95.25,1.88,1.88,0,0,0-.67.7,3.78,3.78,0,0,0-.41,1.07,6.31,6.31,0,0,0-.13,1.35v6.07h-1.2V20.8Z"/><path class="cls-3" d="M91.05,31.52a1.27,1.27,0,0,1-.86.27.87.87,0,0,1-.74-.38,2.26,2.26,0,0,1-.28-1.26A3.31,3.31,0,0,1,88,31.41a2.79,2.79,0,0,1-1.41.38,2.65,2.65,0,0,1-.94-.16,2,2,0,0,1-.77-.52,2.6,2.6,0,0,1-.52-.93,4.6,4.6,0,0,1-.19-1.38,4.51,4.51,0,0,1,.21-1.5,2.66,2.66,0,0,1,.56-.95,2.35,2.35,0,0,1,.79-.55,6.1,6.1,0,0,1,.91-.31,7.42,7.42,0,0,1,.94-.22,3.66,3.66,0,0,0,.78-.21,1.17,1.17,0,0,0,.54-.4,1.22,1.22,0,0,0,.2-.75A2.43,2.43,0,0,0,89,23a1.33,1.33,0,0,0-.38-.54,1.2,1.2,0,0,0-.52-.25,2.91,2.91,0,0,0-.57-.06,2,2,0,0,0-1.28.42,2.19,2.19,0,0,0-.55,1.61h-1.2a5.33,5.33,0,0,1,.29-1.68,3,3,0,0,1,.67-1.11,2.59,2.59,0,0,1,1-.62,3.68,3.68,0,0,1,1.17-.19,4.75,4.75,0,0,1,1,.11,2.11,2.11,0,0,1,.88.42,2.31,2.31,0,0,1,.63.91,4,4,0,0,1,.24,1.51V29a6.38,6.38,0,0,0,0,.91.32.32,0,0,0,.34.29,1.13,1.13,0,0,0,.36-.08ZM89.1,26a1.34,1.34,0,0,1-.59.36,5.78,5.78,0,0,1-.77.19c-.27,0-.54.1-.81.16a2.16,2.16,0,0,0-.73.3,1.52,1.52,0,0,0-.53.59,2.22,2.22,0,0,0-.21,1.05,2,2,0,0,0,.12.73,1.47,1.47,0,0,0,.31.49,1.29,1.29,0,0,0,.45.27,1.89,1.89,0,0,0,.53.08,2,2,0,0,0,1-.24,2.23,2.23,0,0,0,.69-.6,2.62,2.62,0,0,0,.4-.78,3,3,0,0,0,.12-.8Z"/><path class="cls-3" d="M19.61,39.83v1.56H18.16v6.68a2.23,2.23,0,0,0,0,.5.49.49,0,0,0,.13.29.5.5,0,0,0,.28.14,2.72,2.72,0,0,0,.45,0h.55v1.56H18.7a3.09,3.09,0,0,1-.8-.09,1.11,1.11,0,0,1-.54-.35,1.76,1.76,0,0,1-.3-.7,5.7,5.7,0,0,1-.1-1.21V41.39H15.72V39.83H17V36.61h1.2v3.22Z"/><path class="cls-3" d="M22,39.83V42.1h0a4.94,4.94,0,0,1,1.07-1.94,2.08,2.08,0,0,1,1.61-.58v1.87a2.39,2.39,0,0,0-1.23.3,2.1,2.1,0,0,0-.82.85A4.18,4.18,0,0,0,22.24,44a11.21,11.21,0,0,0-.14,1.84v4.79H20.9V39.83Z"/><path class="cls-3" d="M32.11,50.55a1.28,1.28,0,0,1-.86.27.87.87,0,0,1-.75-.39,2.22,2.22,0,0,1-.27-1.26,3.16,3.16,0,0,1-1.15,1.26,2.74,2.74,0,0,1-1.42.39,2.7,2.7,0,0,1-.94-.17,2,2,0,0,1-.77-.52,2.45,2.45,0,0,1-.51-.92,4.41,4.41,0,0,1-.19-1.39,4.51,4.51,0,0,1,.21-1.5,2.7,2.7,0,0,1,.56-.94,2.28,2.28,0,0,1,.79-.56,8.85,8.85,0,0,1,.91-.31c.33-.09.64-.17.94-.22a3.42,3.42,0,0,0,.78-.2,1.37,1.37,0,0,0,.54-.4,1.25,1.25,0,0,0,.19-.76A2.46,2.46,0,0,0,30,42a1.28,1.28,0,0,0-.38-.54,1.39,1.39,0,0,0-.52-.25,2.76,2.76,0,0,0-.57-.06,1.88,1.88,0,0,0-1.27.43,2.14,2.14,0,0,0-.55,1.61h-1.2a5.3,5.3,0,0,1,.28-1.68,3.17,3.17,0,0,1,.68-1.12,2.42,2.42,0,0,1,1-.61,3.4,3.4,0,0,1,1.16-.19,4.6,4.6,0,0,1,1,.11,2,2,0,0,1,.88.42,2.26,2.26,0,0,1,.64.9,4.07,4.07,0,0,1,.24,1.52v5.52a5.29,5.29,0,0,0,.05.92.31.31,0,0,0,.33.29,1,1,0,0,0,.37-.09ZM30.16,45a1.33,1.33,0,0,1-.59.37c-.25.07-.51.13-.77.18l-.81.17a2.22,2.22,0,0,0-.74.3,1.53,1.53,0,0,0-.53.59,2.29,2.29,0,0,0-.2,1,2,2,0,0,0,.12.74,1.42,1.42,0,0,0,.31.49,1.16,1.16,0,0,0,.44.27,1.91,1.91,0,0,0,.54.08,2,2,0,0,0,1-.24,2.16,2.16,0,0,0,.7-.6,2.34,2.34,0,0,0,.39-.79,2.6,2.6,0,0,0,.13-.79Z"/><path class="cls-3" d="M34.35,39.83v1.71h0a2.53,2.53,0,0,1,2.37-2,2.11,2.11,0,0,1,2,1.1,3.93,3.93,0,0,1,.41,1.24,9.71,9.71,0,0,1,.12,1.59v7.08h-1.2V43.31a2.83,2.83,0,0,0-.39-1.59,1.28,1.28,0,0,0-1.09-.58,1.82,1.82,0,0,0-.95.25,2,2,0,0,0-.67.71,3.31,3.31,0,0,0-.4,1.07,6.26,6.26,0,0,0-.14,1.34v6.08h-1.2V39.83Z"/><path class="cls-3" d="M42,48.19a1.69,1.69,0,0,0,.44.64,1.58,1.58,0,0,0,.62.34,2.46,2.46,0,0,0,.72.11,3.19,3.19,0,0,0,.59-.06,1.8,1.8,0,0,0,.57-.23,1.29,1.29,0,0,0,.43-.49,1.81,1.81,0,0,0,.17-.82,1.42,1.42,0,0,0-.35-1,2.75,2.75,0,0,0-.88-.58c-.36-.14-.74-.27-1.16-.39a5.13,5.13,0,0,1-1.15-.5,2.74,2.74,0,0,1-.88-.91,3.17,3.17,0,0,1-.35-1.62A3.42,3.42,0,0,1,41,41.25a2.63,2.63,0,0,1,.63-1,2.58,2.58,0,0,1,.88-.54,2.72,2.72,0,0,1,1-.18,3.81,3.81,0,0,1,1.15.16,2.16,2.16,0,0,1,.92.54,2.67,2.67,0,0,1,.64,1A5.54,5.54,0,0,1,46.48,43h-1.2a2.32,2.32,0,0,0-.19-.86,1.52,1.52,0,0,0-.39-.55,1.48,1.48,0,0,0-.53-.3,1.7,1.7,0,0,0-.59-.1,2.48,2.48,0,0,0-.54.06,1.73,1.73,0,0,0-.5.22,1.25,1.25,0,0,0-.37.42,1.46,1.46,0,0,0-.14.68,1.21,1.21,0,0,0,.22.75,1.59,1.59,0,0,0,.56.5,3.3,3.3,0,0,0,.76.34l.85.28a7.32,7.32,0,0,1,.88.35,2.73,2.73,0,0,1,.76.55,2.68,2.68,0,0,1,.54.87,3.64,3.64,0,0,1,.2,1.29,4.22,4.22,0,0,1-.27,1.62,3,3,0,0,1-.72,1,2.5,2.5,0,0,1-1,.55,3.85,3.85,0,0,1-1.1.16,3.4,3.4,0,0,1-1.16-.19,2.53,2.53,0,0,1-1-.61,3.11,3.11,0,0,1-.67-1.13,5.4,5.4,0,0,1-.29-1.69h1.2A2.6,2.6,0,0,0,42,48.19Z"/><path class="cls-3" d="M49.37,39.83v1.46h0a2.36,2.36,0,0,1,.93-1.3,2.55,2.55,0,0,1,1.4-.41A2.4,2.4,0,0,1,53.2,40a3.58,3.58,0,0,1,1,1.24,6.92,6.92,0,0,1,.62,1.8,10,10,0,0,1,.22,2.16,10.8,10.8,0,0,1-.21,2.17,5.86,5.86,0,0,1-.62,1.77,3.51,3.51,0,0,1-1,1.2,2.52,2.52,0,0,1-1.46.44,2.76,2.76,0,0,1-.6-.08,2.52,2.52,0,0,1-.66-.28,2.4,2.4,0,0,1-.62-.51,2.7,2.7,0,0,1-.48-.8h0v5.54h-1.2V39.83Zm4.31,3.82a4.69,4.69,0,0,0-.41-1.28,2.56,2.56,0,0,0-.7-.9,1.63,1.63,0,0,0-1-.33,1.52,1.52,0,0,0-1,.36,2.4,2.4,0,0,0-.69.92,5,5,0,0,0-.39,1.3,9.14,9.14,0,0,0-.12,1.48,9.49,9.49,0,0,0,.12,1.53,4.73,4.73,0,0,0,.41,1.3,2.6,2.6,0,0,0,.71.91,1.7,1.7,0,0,0,1.06.34,1.55,1.55,0,0,0,1-.36,2.53,2.53,0,0,0,.67-.93,5.07,5.07,0,0,0,.36-1.33,9.8,9.8,0,0,0,.12-1.54A8,8,0,0,0,53.68,43.65Z"/><path class="cls-3" d="M63,50.55a1.25,1.25,0,0,1-.86.27.86.86,0,0,1-.74-.39,2.22,2.22,0,0,1-.27-1.26,3.18,3.18,0,0,1-1.16,1.26,2.7,2.7,0,0,1-1.41.39,2.66,2.66,0,0,1-.94-.17,1.85,1.85,0,0,1-.77-.52,2.47,2.47,0,0,1-.52-.92,4.72,4.72,0,0,1-.19-1.39,4.51,4.51,0,0,1,.21-1.5,2.86,2.86,0,0,1,.56-.94,2.38,2.38,0,0,1,.79-.56c.3-.12.6-.22.91-.31s.64-.17.94-.22a3.17,3.17,0,0,0,.78-.2,1.24,1.24,0,0,0,.54-.4,1.25,1.25,0,0,0,.2-.76,2.46,2.46,0,0,0-.15-.94,1.49,1.49,0,0,0-.38-.54A1.47,1.47,0,0,0,60,41.2a2.91,2.91,0,0,0-.57-.06,1.86,1.86,0,0,0-1.27.43,2.14,2.14,0,0,0-.56,1.61h-1.2a5.28,5.28,0,0,1,.29-1.68,3.15,3.15,0,0,1,.67-1.12,2.57,2.57,0,0,1,1-.61,3.42,3.42,0,0,1,1.17-.19,4.67,4.67,0,0,1,1,.11,2,2,0,0,1,.88.42A2.34,2.34,0,0,1,62,41a4.07,4.07,0,0,1,.24,1.52v5.52a6.55,6.55,0,0,0,0,.92.32.32,0,0,0,.34.29.94.94,0,0,0,.36-.09ZM61,45a1.27,1.27,0,0,1-.59.37c-.24.07-.5.13-.77.18l-.81.17a2.16,2.16,0,0,0-.73.3,1.45,1.45,0,0,0-.53.59,2.15,2.15,0,0,0-.21,1,2,2,0,0,0,.12.74,1.58,1.58,0,0,0,.31.49,1.29,1.29,0,0,0,.45.27,1.89,1.89,0,0,0,.53.08,2,2,0,0,0,1-.24,2.23,2.23,0,0,0,.69-.6,2.56,2.56,0,0,0,.4-.79,2.92,2.92,0,0,0,.12-.79Z"/><path class="cls-3" d="M65.16,39.83V42.1h0a4.82,4.82,0,0,1,1.08-1.94,2.07,2.07,0,0,1,1.6-.58v1.87a2.35,2.35,0,0,0-1.22.3,2,2,0,0,0-.82.85A4.18,4.18,0,0,0,65.38,44a10.2,10.2,0,0,0-.14,1.84v4.79H64V39.83Z"/><path class="cls-3" d="M73.69,49.9a2.65,2.65,0,0,1-2.06.92,2.73,2.73,0,0,1-1.52-.42A3.28,3.28,0,0,1,69,49.24a5.9,5.9,0,0,1-.65-1.79,12.22,12.22,0,0,1-.25-2.27,9.28,9.28,0,0,1,.25-2.25,6.19,6.19,0,0,1,.72-1.77A3.56,3.56,0,0,1,70.18,40a2.44,2.44,0,0,1,1.38-.42,2.32,2.32,0,0,1,1.62.59,4.49,4.49,0,0,1,1,1.51,8.27,8.27,0,0,1,.53,2,12.28,12.28,0,0,1,.12,2.06H69.4a6.44,6.44,0,0,0,.11,1.34,3.78,3.78,0,0,0,.41,1.13,2.45,2.45,0,0,0,.72.78,1.86,1.86,0,0,0,1,.29,1.62,1.62,0,0,0,1.25-.52,2.85,2.85,0,0,0,.64-1.58h1.19A5,5,0,0,1,73.69,49.9ZM73.4,43A3.27,3.27,0,0,0,73,42a2.24,2.24,0,0,0-.65-.65,1.48,1.48,0,0,0-.82-.24,1.53,1.53,0,0,0-.84.24A2,2,0,0,0,70,42a3.68,3.68,0,0,0-.43,1,5.5,5.5,0,0,0-.18,1.18h4.19A5.1,5.1,0,0,0,73.4,43Z"/><path class="cls-3" d="M77.23,39.83v1.71h0a2.53,2.53,0,0,1,2.37-2,2.11,2.11,0,0,1,2,1.1A3.7,3.7,0,0,1,82,41.92a11,11,0,0,1,.12,1.59v7.08H81V43.31a2.83,2.83,0,0,0-.4-1.59,1.26,1.26,0,0,0-1.09-.58,1.84,1.84,0,0,0-.95.25,2,2,0,0,0-.67.71,3.56,3.56,0,0,0-.4,1.07,6.26,6.26,0,0,0-.14,1.34v6.08H76.1V39.83Z"/><path class="cls-3" d="M87.07,39.83v1.56H85.62v6.68a3.25,3.25,0,0,0,0,.5.56.56,0,0,0,.14.29.44.44,0,0,0,.27.14,2.86,2.86,0,0,0,.46,0h.55v1.56h-.92a3,3,0,0,1-.79-.09,1.11,1.11,0,0,1-.54-.35,1.51,1.51,0,0,1-.3-.7,5.7,5.7,0,0,1-.1-1.21V41.39H83.18V39.83h1.24V36.61h1.2v3.22Z"/><path class="cls-3" d="M89.53,39.83v1.71h0a2.51,2.51,0,0,1,2.37-2,2.32,2.32,0,0,1,1.2.29,2.22,2.22,0,0,1,.77.81,3.7,3.7,0,0,1,.42,1.24,9.71,9.71,0,0,1,.12,1.59v7.08h-1.2V43.31a2.75,2.75,0,0,0-.4-1.59,1.25,1.25,0,0,0-1.08-.58,1.85,1.85,0,0,0-1,.25,2.09,2.09,0,0,0-.67.71,3.85,3.85,0,0,0-.4,1.07,6.28,6.28,0,0,0-.13,1.34v6.08H88.4V39.83Z"/><path class="cls-3" d="M96.08,43a6.11,6.11,0,0,1,.67-1.79A3.77,3.77,0,0,1,97.87,40a2.88,2.88,0,0,1,3.06,0,3.72,3.72,0,0,1,1.1,1.19,6.12,6.12,0,0,1,.68,1.79,10.43,10.43,0,0,1,.23,2.22,10.27,10.27,0,0,1-.23,2.21,6.05,6.05,0,0,1-.68,1.78,3.58,3.58,0,0,1-1.1,1.18,2.94,2.94,0,0,1-3.06,0,3.63,3.63,0,0,1-1.12-1.18,6,6,0,0,1-.67-1.78,10.27,10.27,0,0,1-.23-2.21A10.43,10.43,0,0,1,96.08,43Zm1.22,4a4.68,4.68,0,0,0,.48,1.27,2.4,2.4,0,0,0,.73.78,1.59,1.59,0,0,0,.88.27,1.63,1.63,0,0,0,.89-.27,2.37,2.37,0,0,0,.72-.78,4.37,4.37,0,0,0,.49-1.27,8.5,8.5,0,0,0,0-3.48A4.56,4.56,0,0,0,101,42.2a2.41,2.41,0,0,0-.72-.79,1.63,1.63,0,0,0-.89-.27,1.59,1.59,0,0,0-.88.27,2.43,2.43,0,0,0-.73.79,4.89,4.89,0,0,0-.48,1.28,8.5,8.5,0,0,0,0,3.48Z"/><path class="cls-3" d="M105.27,48.19a1.69,1.69,0,0,0,.44.64,1.51,1.51,0,0,0,.62.34,2.45,2.45,0,0,0,.71.11,3.21,3.21,0,0,0,.6-.06,2,2,0,0,0,.57-.23,1.29,1.29,0,0,0,.43-.49,1.81,1.81,0,0,0,.17-.82,1.42,1.42,0,0,0-.35-1,2.69,2.69,0,0,0-.89-.58,11.86,11.86,0,0,0-1.15-.39,5.13,5.13,0,0,1-1.15-.5,2.74,2.74,0,0,1-.88-.91,3.17,3.17,0,0,1-.35-1.62,3.6,3.6,0,0,1,.24-1.39,2.78,2.78,0,0,1,.64-1,2.58,2.58,0,0,1,.88-.54,2.72,2.72,0,0,1,1-.18,3.81,3.81,0,0,1,1.15.16,2.22,2.22,0,0,1,.92.54,2.67,2.67,0,0,1,.64,1,5.25,5.25,0,0,1,.28,1.63h-1.2a2.33,2.33,0,0,0-.18-.86,1.52,1.52,0,0,0-.39-.55,1.48,1.48,0,0,0-.53-.3,1.74,1.74,0,0,0-.59-.1,2.48,2.48,0,0,0-.54.06,1.62,1.62,0,0,0-.5.22,1.25,1.25,0,0,0-.37.42,1.46,1.46,0,0,0-.14.68,1.21,1.21,0,0,0,.22.75,1.65,1.65,0,0,0,.55.5,3.38,3.38,0,0,0,.77.34l.84.28a7.46,7.46,0,0,1,.89.35,2.73,2.73,0,0,1,.76.55,2.51,2.51,0,0,1,.53.87,3.41,3.41,0,0,1,.21,1.29,4,4,0,0,1-.28,1.62,2.76,2.76,0,0,1-.72,1,2.46,2.46,0,0,1-1,.55,3.87,3.87,0,0,1-1.11.16,3.38,3.38,0,0,1-1.15-.19,2.46,2.46,0,0,1-1-.61,3,3,0,0,1-.67-1.13,5.4,5.4,0,0,1-.29-1.69h1.2A2.6,2.6,0,0,0,105.27,48.19Z"/><path class="cls-3" d="M114.53,39.83v1.56h-1.46v6.68a2.23,2.23,0,0,0,0,.5.56.56,0,0,0,.13.29.5.5,0,0,0,.28.14,2.77,2.77,0,0,0,.46,0h.55v1.56h-.92a3.09,3.09,0,0,1-.8-.09,1.11,1.11,0,0,1-.54-.35,1.76,1.76,0,0,1-.3-.7,5.7,5.7,0,0,1-.1-1.21V41.39h-1.24V39.83h1.24V36.61h1.2v3.22Z"/><path class="cls-4" d="M72.72,103H57.9c-1.6,0-2.52-2.39-.77-4.31A2.11,2.11,0,0,0,59,99c1-.33,1.4-1.15,2.68-1.58s1.34.19,1.77.61a1.53,1.53,0,0,0,1.1.59c.51,0,1.37-.63,1.82-.7a3.38,3.38,0,0,1,2,.44,3,3,0,0,0,1.75.55,6.57,6.57,0,0,0,2.4-1.09C75.49,99.84,74.55,103,72.72,103Z"/><path class="cls-4" d="M73.47,103.82l-11.06,0-5.54.06a1.89,1.89,0,0,1-1.32-.54,3.12,3.12,0,0,1-.7-1.24,4.81,4.81,0,0,1,.06-2.81,6.09,6.09,0,0,1,1.45-2.41,10.9,10.9,0,0,1,2.26-1.65,8.3,8.3,0,0,0,3.77-3.73A8.46,8.46,0,0,0,63,88.93l.23-2.76.24-2.75c.07-.88,0-1.85-.72-2.27L62,80.73h.87l4.58,0h.77l-.67.38a1.66,1.66,0,0,0-.74,1.29,9.5,9.5,0,0,0,0,1.68l.26,3.43a16.47,16.47,0,0,0,.43,3.39,6.23,6.23,0,0,0,1.77,2.85,17.22,17.22,0,0,0,2.81,2,7.28,7.28,0,0,1,2.51,2.33,5.08,5.08,0,0,1,.84,3.28,3.66,3.66,0,0,1-.54,1.63A1.77,1.77,0,0,1,73.47,103.82Zm0,0a1.76,1.76,0,0,0,1.41-.86,3.73,3.73,0,0,0,.52-1.62,5.17,5.17,0,0,0-.85-3.26c-1.23-2-3.67-2.64-5.38-4.2A6.37,6.37,0,0,1,67.3,91a16.07,16.07,0,0,1-.51-3.42l-.33-3.43a9.29,9.29,0,0,1-.07-1.76,2,2,0,0,1,.91-1.59l.11.39H62.83l.12-.42A2,2,0,0,1,63.83,82a5.1,5.1,0,0,1,.07,1.45l-.22,2.76L63.44,89a8.8,8.8,0,0,1-.63,2.75A6.4,6.4,0,0,1,61.13,94a14.73,14.73,0,0,1-2.29,1.6,11.5,11.5,0,0,0-2.23,1.55,5.87,5.87,0,0,0-1.41,2.26,4.66,4.66,0,0,0-.11,2.64,3,3,0,0,0,.62,1.15,1.65,1.65,0,0,0,1.16.5l5.54,0Z"/></svg>