<svg id="Layer_1" data-name="Layer 1" xmlns="http://www.w3.org/2000/svg" viewBox="0 0 127 127"><defs><style>.cls-1{fill:#676767;}.cls-2{fill:#feee8f;}.cls-3{fill:#9c9;}.cls-4{fill:#666766;}</style></defs><title>K</title><rect class="cls-1" x="1" y="1.13" width="125" height="125" rx="10" ry="10"/><path class="cls-2" d="M11,1H41.17L71.35.91,101.52.77c5,0,10-.08,15.11,0a10.51,10.51,0,0,1,9.87,10.39l.15,60.35.07,30.18c0,5,.06,10,0,15.13A10.82,10.82,0,0,1,116,126.92l-60.35.19H12.28c-.64,0-1.23,0-1.95,0A11,11,0,0,1,0,116.12L.17,86,.46,55.78.75,25.6c0-5,0-10,.11-15.09A10.16,10.16,0,0,1,11,1Zm0,.19A9.94,9.94,0,0,0,4.26,4a9.77,9.77,0,0,0-3,6.57c0,5,0,10,0,15.07l.28,30.18L1.83,86,2,116.12a9,9,0,0,0,8.45,9c.54,0,1.21,0,1.83,0H55.65l60.35.19a9.28,9.28,0,0,0,9.21-8.64c.07-4.94,0-10,.06-15l.08-30.18.15-60.35a9.58,9.58,0,0,0-8.92-9.54c-5-.08-10-.06-15.06-.1L71.35,1.34,41.17,1.23Z"/><rect class="cls-2" x="44.29" y="71.45" width="41.67" height="41.67" rx="12" ry="12" transform="translate(130.25 184.57) rotate(180)"/><path class="cls-3" d="M16.73,31.6V30.14h0a2.29,2.29,0,0,1-.93,1.29,2.62,2.62,0,0,1-1.4.4,2.47,2.47,0,0,1-1.47-.46,3.73,3.73,0,0,1-1.05-1.23,7.09,7.09,0,0,1-.63-1.79,11.27,11.27,0,0,1,0-4.33,6,6,0,0,1,.62-1.78,3.5,3.5,0,0,1,1-1.2,2.45,2.45,0,0,1,1.46-.45,2.77,2.77,0,0,1,.61.08,2.61,2.61,0,0,1,.65.28,2.68,2.68,0,0,1,.61.52,2.64,2.64,0,0,1,.49.8h0V16.74h1.2V31.6Zm-4.31-3.82a4.81,4.81,0,0,0,.41,1.28,2.52,2.52,0,0,0,.7.89,1.64,1.64,0,0,0,1,.34,1.52,1.52,0,0,0,1-.36,2.62,2.62,0,0,0,.69-.92,5.07,5.07,0,0,0,.39-1.3,9.14,9.14,0,0,0,.12-1.48,8.46,8.46,0,0,0-.13-1.53,4.41,4.41,0,0,0-.4-1.3,2.51,2.51,0,0,0-.71-.91,1.64,1.64,0,0,0-1.06-.34,1.59,1.59,0,0,0-1,.35,2.56,2.56,0,0,0-.68.94,5.07,5.07,0,0,0-.36,1.33,9.7,9.7,0,0,0-.12,1.54A8,8,0,0,0,12.42,27.78Z"/><path class="cls-3" d="M24.94,30.91a2.64,2.64,0,0,1-2.06.92,2.67,2.67,0,0,1-1.51-.42,3.4,3.4,0,0,1-1.08-1.17,5.8,5.8,0,0,1-.66-1.79,12.11,12.11,0,0,1-.25-2.26,9.27,9.27,0,0,1,.26-2.25,6.18,6.18,0,0,1,.71-1.77A3.74,3.74,0,0,1,21.44,21a2.47,2.47,0,0,1,1.37-.41,2.32,2.32,0,0,1,1.62.59,4.35,4.35,0,0,1,1,1.51,7.84,7.84,0,0,1,.54,2,13.43,13.43,0,0,1,.12,2.06H20.65a5.81,5.81,0,0,0,.12,1.34,3.47,3.47,0,0,0,.41,1.12,2.08,2.08,0,0,0,.72.78,1.76,1.76,0,0,0,1,.3,1.68,1.68,0,0,0,1.25-.52,3,3,0,0,0,.64-1.59H26A5,5,0,0,1,24.94,30.91ZM24.66,24a3.61,3.61,0,0,0-.44-1,2.32,2.32,0,0,0-.65-.64,1.57,1.57,0,0,0-1.67,0,2.21,2.21,0,0,0-.64.65,3.43,3.43,0,0,0-.42,1,4.93,4.93,0,0,0-.19,1.18h4.2A5.69,5.69,0,0,0,24.66,24Z"/><path class="cls-3" d="M30.48,20.84V22.4H29v6.68a3.15,3.15,0,0,0,0,.5.6.6,0,0,0,.13.29.49.49,0,0,0,.28.13,2,2,0,0,0,.46,0h.55V31.6h-.92a2.69,2.69,0,0,1-.8-.1,1,1,0,0,1-.53-.34,1.67,1.67,0,0,1-.31-.71,6.33,6.33,0,0,1-.1-1.2V22.4H26.58V20.84h1.24V17.61H29v3.23Z"/><path class="cls-3" d="M38.27,31.55a1.22,1.22,0,0,1-.86.28.86.86,0,0,1-.74-.39,2.17,2.17,0,0,1-.28-1.26,3.31,3.31,0,0,1-1.15,1.26,2.74,2.74,0,0,1-1.42.39,2.7,2.7,0,0,1-.94-.17,2,2,0,0,1-.76-.52,2.6,2.6,0,0,1-.52-.93,4.3,4.3,0,0,1-.19-1.38,4.51,4.51,0,0,1,.21-1.5,2.75,2.75,0,0,1,.56-.95,2.4,2.4,0,0,1,.79-.55,7.51,7.51,0,0,1,.91-.31,7.42,7.42,0,0,1,.94-.22,3.83,3.83,0,0,0,.78-.21,1.22,1.22,0,0,0,.54-.39,1.25,1.25,0,0,0,.2-.76,2.46,2.46,0,0,0-.15-.94,1.49,1.49,0,0,0-.38-.54,1.3,1.3,0,0,0-.53-.25,2.76,2.76,0,0,0-.57-.06,1.88,1.88,0,0,0-1.27.43,2.14,2.14,0,0,0-.55,1.61h-1.2A5.37,5.37,0,0,1,32,22.5a3,3,0,0,1,.68-1.11,2.49,2.49,0,0,1,1-.61,3.4,3.4,0,0,1,1.16-.19,4.59,4.59,0,0,1,1,.1,2.05,2.05,0,0,1,.89.43,2.2,2.2,0,0,1,.63.9,4,4,0,0,1,.24,1.52v5.52a6.28,6.28,0,0,0,0,.91.3.3,0,0,0,.33.29.92.92,0,0,0,.37-.08Zm-2-5.51a1.23,1.23,0,0,1-.59.36,6.19,6.19,0,0,1-.77.19c-.27.05-.54.1-.81.17a2.43,2.43,0,0,0-.74.29,1.64,1.64,0,0,0-.53.6,2.29,2.29,0,0,0-.2,1,2,2,0,0,0,.12.74,1.29,1.29,0,0,0,.31.48,1,1,0,0,0,.45.27,1.51,1.51,0,0,0,.53.08,2,2,0,0,0,1-.23,2.23,2.23,0,0,0,.69-.6,2.53,2.53,0,0,0,.39-.79,2.62,2.62,0,0,0,.13-.8Z"/><path class="cls-3" d="M40.65,16.74V31.6h-1.2V16.74Z"/><path class="cls-3" d="M43.31,35A1.48,1.48,0,0,1,42,35.7a2,2,0,0,1-.61-.09V34.09l.12,0h.36a.54.54,0,0,0,.54-.33,3.3,3.3,0,0,0,.14-1.15V20.84h1.2V33A3.58,3.58,0,0,1,43.31,35ZM42.59,18.9V16.74h1.2V18.9Z"/><path class="cls-3" d="M46.78,20.84v1.7h0a2.53,2.53,0,0,1,2.37-1.95,2.32,2.32,0,0,1,1.2.29,2.17,2.17,0,0,1,.78.81,3.93,3.93,0,0,1,.41,1.24,9.71,9.71,0,0,1,.12,1.59V31.6h-1.2V24.31a2.82,2.82,0,0,0-.39-1.58A1.25,1.25,0,0,0,49,22.15a1.73,1.73,0,0,0-.95.25,1.92,1.92,0,0,0-.67.71A3.56,3.56,0,0,0,47,24.18a6.92,6.92,0,0,0-.13,1.34V31.6h-1.2V20.84Z"/><path class="cls-3" d="M53.33,24A6,6,0,0,1,54,22.22,3.78,3.78,0,0,1,55.12,21a2.94,2.94,0,0,1,3.06,0,3.89,3.89,0,0,1,1.11,1.2A6,6,0,0,1,60,24a10.43,10.43,0,0,1,.23,2.22,10.17,10.17,0,0,1-.23,2.2,5.94,5.94,0,0,1-.67,1.78,3.64,3.64,0,0,1-1.11,1.19,2.94,2.94,0,0,1-3.06,0A3.54,3.54,0,0,1,54,30.21a6,6,0,0,1-.68-1.78,10.17,10.17,0,0,1-.23-2.2A10.43,10.43,0,0,1,53.33,24Zm1.22,4A4.3,4.3,0,0,0,55,29.23a2.37,2.37,0,0,0,.72.78,1.56,1.56,0,0,0,.89.28,1.53,1.53,0,0,0,.88-.28,2.4,2.4,0,0,0,.73-.78A4.3,4.3,0,0,0,58.74,28a8.5,8.5,0,0,0,0-3.48,4.44,4.44,0,0,0-.48-1.28,2.34,2.34,0,0,0-.73-.79,1.59,1.59,0,0,0-.88-.27,1.63,1.63,0,0,0-.89.27,2.32,2.32,0,0,0-.72.79,4.44,4.44,0,0,0-.49,1.28,8.5,8.5,0,0,0,0,3.48Z"/><path class="cls-3" d="M70.44,31.6V29.89h0a3.4,3.4,0,0,1-1,1.47,2.23,2.23,0,0,1-1.4.47,2.32,2.32,0,0,1-1.2-.29,2.07,2.07,0,0,1-.78-.8,3.64,3.64,0,0,1-.41-1.23,9.74,9.74,0,0,1-.12-1.6V20.84h1.2v7.28a2.8,2.8,0,0,0,.39,1.58,1.25,1.25,0,0,0,1.09.59,1.84,1.84,0,0,0,1-.25,2.08,2.08,0,0,0,.67-.71,3.66,3.66,0,0,0,.4-1.07,6.29,6.29,0,0,0,.14-1.35V20.84h1.2V31.6Z"/><path class="cls-3" d="M74.62,20.84v1.45h0a2.36,2.36,0,0,1,.94-1.3,2.53,2.53,0,0,1,1.39-.4,2.41,2.41,0,0,1,1.48.46,3.42,3.42,0,0,1,1,1.23,6.58,6.58,0,0,1,.63,1.8,10.8,10.8,0,0,1,.21,2.17,11.48,11.48,0,0,1-.2,2.16,6.53,6.53,0,0,1-.62,1.78,3.43,3.43,0,0,1-1.05,1.2,2.5,2.5,0,0,1-1.46.44,2.3,2.3,0,0,1-.6-.09,2.14,2.14,0,0,1-.65-.27,2.25,2.25,0,0,1-.62-.51,2.94,2.94,0,0,1-.49-.8h0V35.7h-1.2V20.84Zm4.31,3.82a5.06,5.06,0,0,0-.41-1.28,2.5,2.5,0,0,0-.71-.9,1.7,1.7,0,0,0-2,0,2.76,2.76,0,0,0-.69.93,4.84,4.84,0,0,0-.39,1.3,9,9,0,0,0-.12,1.48,9.67,9.67,0,0,0,.13,1.53,4.84,4.84,0,0,0,.4,1.3,2.59,2.59,0,0,0,.72.9,1.64,1.64,0,0,0,1.05.35,1.53,1.53,0,0,0,1-.36,2.5,2.5,0,0,0,.67-.93A5.56,5.56,0,0,0,79,27.66a11.05,11.05,0,0,0,.11-1.54A7.85,7.85,0,0,0,78.93,24.66Z"/><path class="cls-3" d="M86.66,31.6V29.89h0a3.32,3.32,0,0,1-1,1.47,2.18,2.18,0,0,1-1.39.47,2.32,2.32,0,0,1-1.2-.29,2.07,2.07,0,0,1-.78-.8,3.64,3.64,0,0,1-.42-1.23,9.74,9.74,0,0,1-.12-1.6V20.84h1.2v7.28a2.8,2.8,0,0,0,.4,1.58,1.24,1.24,0,0,0,1.09.59,1.84,1.84,0,0,0,.95-.25,2.08,2.08,0,0,0,.67-.71,3.66,3.66,0,0,0,.4-1.07,6.29,6.29,0,0,0,.14-1.35V20.84h1.2V31.6Z"/><path class="cls-3" d="M92.71,20.84V22.4H91.26v6.68a3.34,3.34,0,0,0,0,.5.61.61,0,0,0,.14.29.43.43,0,0,0,.27.13,2,2,0,0,0,.46,0h.55V31.6h-.92a2.62,2.62,0,0,1-.79-.1,1,1,0,0,1-.54-.34,1.56,1.56,0,0,1-.3-.71,5.59,5.59,0,0,1-.1-1.2V22.4H88.82V20.84h1.24V17.61h1.2v3.23Z"/><path class="cls-3" d="M95,29.19a1.74,1.74,0,0,0,.44.65,1.64,1.64,0,0,0,.62.34,2.45,2.45,0,0,0,.71.11,3.26,3.26,0,0,0,.6-.07A1.56,1.56,0,0,0,97.9,30a1.26,1.26,0,0,0,.43-.48,1.83,1.83,0,0,0,.17-.83,1.45,1.45,0,0,0-.35-1,2.84,2.84,0,0,0-.89-.57,8.15,8.15,0,0,0-1.15-.39,5.13,5.13,0,0,1-1.15-.5,2.74,2.74,0,0,1-.88-.91,3.09,3.09,0,0,1-.35-1.62,3.69,3.69,0,0,1,.24-1.4,2.74,2.74,0,0,1,.64-.94,2.51,2.51,0,0,1,.87-.55,3.05,3.05,0,0,1,1-.17,4.16,4.16,0,0,1,1.15.15,2.36,2.36,0,0,1,.92.55,2.6,2.6,0,0,1,.64,1A5.2,5.2,0,0,1,99.44,24h-1.2a2.25,2.25,0,0,0-.18-.86,1.56,1.56,0,0,0-.39-.56,1.65,1.65,0,0,0-.53-.3,2,2,0,0,0-.59-.09,2.48,2.48,0,0,0-.54.06,1.41,1.41,0,0,0-.5.22,1.08,1.08,0,0,0-.37.42,1.42,1.42,0,0,0-.14.67,1.22,1.22,0,0,0,.22.76,1.76,1.76,0,0,0,.55.5,3.88,3.88,0,0,0,.77.33l.84.29a6.08,6.08,0,0,1,.89.35,2.73,2.73,0,0,1,.76.55,2.55,2.55,0,0,1,.53.86,3.48,3.48,0,0,1,.21,1.29,4,4,0,0,1-.28,1.63,2.84,2.84,0,0,1-.72,1,2.46,2.46,0,0,1-1,.55,4.25,4.25,0,0,1-1.11.16,3.65,3.65,0,0,1-1.15-.19,2.48,2.48,0,0,1-1-.62,3,3,0,0,1-.68-1.12,5.74,5.74,0,0,1-.28-1.7h1.2A2.6,2.6,0,0,0,95,29.19Z"/><path class="cls-3" d="M104.22,20.84V22.4h-1.46v6.68a2.29,2.29,0,0,0,0,.5.52.52,0,0,0,.13.29.49.49,0,0,0,.28.13,1.87,1.87,0,0,0,.45,0h.56V31.6h-.92a2.69,2.69,0,0,1-.8-.1,1,1,0,0,1-.54-.34,1.81,1.81,0,0,1-.3-.71,5.59,5.59,0,0,1-.1-1.2V22.4h-1.24V20.84h1.24V17.61h1.2v3.23Z"/><path class="cls-3" d="M107.55,31.6l-2.71-10.76h1.34l2,9h0l2-9h1.26L108.83,31.6Z"/><path class="cls-3" d="M112.43,24a6,6,0,0,1,.68-1.79,3.78,3.78,0,0,1,1.11-1.2,2.94,2.94,0,0,1,3.06,0,3.78,3.78,0,0,1,1.11,1.2,6,6,0,0,1,.67,1.79,9.82,9.82,0,0,1,.23,2.22,9.58,9.58,0,0,1-.23,2.2,5.94,5.94,0,0,1-.67,1.78,3.54,3.54,0,0,1-1.11,1.19,2.94,2.94,0,0,1-3.06,0,3.54,3.54,0,0,1-1.11-1.19,6,6,0,0,1-.68-1.78,10.17,10.17,0,0,1-.23-2.2A10.43,10.43,0,0,1,112.43,24Zm1.22,4a4.3,4.3,0,0,0,.49,1.26,2.3,2.3,0,0,0,.73.78,1.51,1.51,0,0,0,.88.28,1.53,1.53,0,0,0,.88-.28,2.4,2.4,0,0,0,.73-.78,4.3,4.3,0,0,0,.48-1.26,8.5,8.5,0,0,0,0-3.48,4.44,4.44,0,0,0-.48-1.28,2.34,2.34,0,0,0-.73-.79,1.59,1.59,0,0,0-.88-.27,1.57,1.57,0,0,0-.88.27,2.24,2.24,0,0,0-.73.79,4.44,4.44,0,0,0-.49,1.28,9,9,0,0,0,0,3.48Z"/><path class="cls-3" d="M32.22,41.43H28.1V39.86h5.67v1.21l-4.46,8H34v1.56H27.82V49.27Z"/><path class="cls-3" d="M41.65,50.58a1.27,1.27,0,0,1-.86.27.87.87,0,0,1-.74-.38,2.17,2.17,0,0,1-.28-1.26,3.31,3.31,0,0,1-1.15,1.26,2.8,2.8,0,0,1-1.42.38,2.69,2.69,0,0,1-.94-.16,2.1,2.1,0,0,1-.76-.52,2.6,2.6,0,0,1-.52-.93,4.3,4.3,0,0,1-.19-1.38,4.47,4.47,0,0,1,.21-1.5,2.66,2.66,0,0,1,.56-1,2.26,2.26,0,0,1,.79-.55,6.1,6.1,0,0,1,.91-.31,7.42,7.42,0,0,1,.94-.22,3.66,3.66,0,0,0,.78-.21,1.17,1.17,0,0,0,.54-.4,1.23,1.23,0,0,0,.2-.76,2.41,2.41,0,0,0-.15-.93,1.33,1.33,0,0,0-.38-.54,1.18,1.18,0,0,0-.53-.25,2.76,2.76,0,0,0-.57-.06,1.93,1.93,0,0,0-1.27.42,2.15,2.15,0,0,0-.55,1.61h-1.2a5.65,5.65,0,0,1,.28-1.68A3,3,0,0,1,36,40.42a2.52,2.52,0,0,1,1-.62,3.66,3.66,0,0,1,1.16-.19,4.6,4.6,0,0,1,1,.11,2.15,2.15,0,0,1,.89.42,2.31,2.31,0,0,1,.63.91,4,4,0,0,1,.24,1.51v5.53A6.38,6.38,0,0,0,41,49a.31.31,0,0,0,.33.29,1.12,1.12,0,0,0,.37-.08ZM39.7,45.07a1.4,1.4,0,0,1-.59.36,6.19,6.19,0,0,1-.77.19c-.27,0-.54.1-.81.16a2.22,2.22,0,0,0-.74.3,1.69,1.69,0,0,0-.53.59,2.36,2.36,0,0,0-.2,1,2,2,0,0,0,.12.73,1.42,1.42,0,0,0,.31.49,1.29,1.29,0,0,0,.45.27,1.84,1.84,0,0,0,.53.08,2,2,0,0,0,1-.24,2.23,2.23,0,0,0,.69-.6,2.62,2.62,0,0,0,.4-.78,3,3,0,0,0,.12-.8Z"/><path class="cls-3" d="M51.6,50.62v-1.7h0a3.33,3.33,0,0,1-1,1.46,2.15,2.15,0,0,1-1.4.47,2.32,2.32,0,0,1-1.2-.28,2,2,0,0,1-.77-.8,3.7,3.7,0,0,1-.42-1.24,9.71,9.71,0,0,1-.12-1.59V39.86h1.2v7.29a2.82,2.82,0,0,0,.39,1.58,1.25,1.25,0,0,0,1.09.58,1.7,1.7,0,0,0,1-.25,1.84,1.84,0,0,0,.67-.71,3.56,3.56,0,0,0,.41-1.07,6.22,6.22,0,0,0,.13-1.34V39.86h1.2V50.62Z"/><path class="cls-3" d="M55.78,39.86v1.46h0a2.31,2.31,0,0,1,.93-1.3,2.55,2.55,0,0,1,1.4-.41,2.47,2.47,0,0,1,1.47.46,3.67,3.67,0,0,1,1,1.24,6.92,6.92,0,0,1,.62,1.8,10,10,0,0,1,.22,2.16,10.72,10.72,0,0,1-.21,2.17,6,6,0,0,1-.62,1.78,3.71,3.71,0,0,1-1,1.2,2.52,2.52,0,0,1-1.47.43,2.92,2.92,0,0,1-.6-.08,2.8,2.8,0,0,1-.65-.27,2.89,2.89,0,0,1-.62-.51,2.83,2.83,0,0,1-.48-.8h0v5.53h-1.2V39.86Zm4.31,3.82a4.81,4.81,0,0,0-.41-1.28,2.52,2.52,0,0,0-.7-.89,1.63,1.63,0,0,0-1-.33,1.52,1.52,0,0,0-1,.35,2.36,2.36,0,0,0-.69.93,4.84,4.84,0,0,0-.39,1.3,8.93,8.93,0,0,0-.12,1.47,9.49,9.49,0,0,0,.12,1.53,4.62,4.62,0,0,0,.41,1.3A2.51,2.51,0,0,0,57,49a1.64,1.64,0,0,0,1.06.34,1.59,1.59,0,0,0,1-.35,2.66,2.66,0,0,0,.67-.94,5.48,5.48,0,0,0,.36-1.33,9.7,9.7,0,0,0,.12-1.54A8,8,0,0,0,60.09,43.68Z"/><path class="cls-3" d="M62.74,43a5.66,5.66,0,0,1,.68-1.79,3.58,3.58,0,0,1,1.11-1.2,2.88,2.88,0,0,1,3.06,0,3.65,3.65,0,0,1,1.1,1.2A5.66,5.66,0,0,1,69.37,43a10.73,10.73,0,0,1,0,4.42,5.79,5.79,0,0,1-.68,1.78,3.62,3.62,0,0,1-1.1,1.19,3,3,0,0,1-3.06,0,3.54,3.54,0,0,1-1.11-1.19,5.79,5.79,0,0,1-.68-1.78,10.73,10.73,0,0,1,0-4.42ZM64,47a4.26,4.26,0,0,0,.49,1.27,2.37,2.37,0,0,0,.72.78,1.59,1.59,0,0,0,1.77,0,2.37,2.37,0,0,0,.72-.78A4.26,4.26,0,0,0,68.15,47a8.45,8.45,0,0,0,0-3.47,4.33,4.33,0,0,0-.49-1.28,2.32,2.32,0,0,0-.72-.79,1.59,1.59,0,0,0-1.77,0,2.32,2.32,0,0,0-.72.79A4.33,4.33,0,0,0,64,43.52,8.45,8.45,0,0,0,64,47Z"/><path class="cls-3" d="M74.13,39.86v1.57H72.67V48.1a3,3,0,0,0,0,.5.6.6,0,0,0,.13.3.49.49,0,0,0,.28.13,2.86,2.86,0,0,0,.46,0h.55v1.56h-.92a3.15,3.15,0,0,1-.8-.09,1,1,0,0,1-.53-.34,1.73,1.73,0,0,1-.31-.71,6.57,6.57,0,0,1-.09-1.21V41.43H70.23V39.86h1.25V36.64h1.19v3.22Z"/><path class="cls-3" d="M76.54,39.86v2.27h0a4.82,4.82,0,0,1,1.07-1.93,2.1,2.1,0,0,1,1.61-.59v1.88a2.38,2.38,0,0,0-1.23.29,2.14,2.14,0,0,0-.81.85A4.53,4.53,0,0,0,76.75,44a11.25,11.25,0,0,0-.14,1.85v4.78h-1.2V39.86Z"/><path class="cls-3" d="M85.07,49.94a2.64,2.64,0,0,1-2.06.91,2.78,2.78,0,0,1-1.52-.41,3.4,3.4,0,0,1-1.08-1.17,6.18,6.18,0,0,1-.66-1.79,13.06,13.06,0,0,1-.24-2.27A9.28,9.28,0,0,1,79.76,43a6.41,6.41,0,0,1,.71-1.76A3.74,3.74,0,0,1,81.56,40a2.44,2.44,0,0,1,1.38-.42,2.25,2.25,0,0,1,1.61.6,4.26,4.26,0,0,1,1,1.51,7.77,7.77,0,0,1,.54,2,12.34,12.34,0,0,1,.12,2.06H80.78a5.91,5.91,0,0,0,.11,1.35,3.55,3.55,0,0,0,.41,1.12A2.26,2.26,0,0,0,82,49a1.83,1.83,0,0,0,1,.29,1.63,1.63,0,0,0,1.25-.52,2.89,2.89,0,0,0,.64-1.58h1.19A5.05,5.05,0,0,1,85.07,49.94ZM84.78,43a3.48,3.48,0,0,0-.44-1,2.24,2.24,0,0,0-.65-.65,1.47,1.47,0,0,0-.82-.23,1.52,1.52,0,0,0-.84.23,2.16,2.16,0,0,0-.65.66A3.74,3.74,0,0,0,81,43a5.5,5.5,0,0,0-.18,1.17H85A5,5,0,0,0,84.78,43Z"/><path class="cls-3" d="M88.72,35.76v5.56h0a2.36,2.36,0,0,1,.93-1.3,2.57,2.57,0,0,1,1.4-.41,2.48,2.48,0,0,1,1.48.46,3.65,3.65,0,0,1,1,1.24,6.58,6.58,0,0,1,.63,1.8,10.7,10.7,0,0,1,.21,2.16,11.51,11.51,0,0,1-.2,2.17,6.32,6.32,0,0,1-.63,1.78,3.48,3.48,0,0,1-1,1.2,2.51,2.51,0,0,1-1.46.43,2.76,2.76,0,0,1-.6-.08,3.06,3.06,0,0,1-.66-.27,2.68,2.68,0,0,1-1.1-1.31h0v1.43h-1.2V35.76ZM93,43.68a5.2,5.2,0,0,0-.41-1.28,2.55,2.55,0,0,0-.71-.89,1.61,1.61,0,0,0-1-.33,1.53,1.53,0,0,0-1,.35,2.57,2.57,0,0,0-.69.93,4.84,4.84,0,0,0-.39,1.3,8.93,8.93,0,0,0-.12,1.47,8.46,8.46,0,0,0,.13,1.53,4.62,4.62,0,0,0,.4,1.3,2.51,2.51,0,0,0,.71.91,1.68,1.68,0,0,0,1.06.34A1.58,1.58,0,0,0,92,49a2.54,2.54,0,0,0,.67-.94,5.48,5.48,0,0,0,.37-1.33,11.05,11.05,0,0,0,.11-1.54A8,8,0,0,0,93,43.68Z"/><path class="cls-3" d="M100.76,50.62v-1.7h0a3.34,3.34,0,0,1-1,1.46,2.14,2.14,0,0,1-1.4.47,2.32,2.32,0,0,1-1.2-.28,2.12,2.12,0,0,1-.77-.8A3.7,3.7,0,0,1,96,48.53a9.71,9.71,0,0,1-.12-1.59V39.86h1.2v7.29a2.74,2.74,0,0,0,.4,1.58,1.23,1.23,0,0,0,1.08.58,1.76,1.76,0,0,0,1-.25,2,2,0,0,0,.67-.71,3.56,3.56,0,0,0,.4-1.07,6.22,6.22,0,0,0,.13-1.34V39.86h1.2V50.62Z"/><path class="cls-4" d="M63.49,83.41A2,2,0,0,1,64,81.94a2.08,2.08,0,0,1,1.52-.54,2,2,0,0,1,1.46.54,2.24,2.24,0,0,1,0,3,2.05,2.05,0,0,1-1.45.53,2.09,2.09,0,0,1-1.49-.53A1.91,1.91,0,0,1,63.49,83.41Zm3.9,19.76H63.65V87.5h3.74Z"/></svg>