<svg id="Layer_1" data-name="Layer 1" xmlns="http://www.w3.org/2000/svg" viewBox="0 0 127 127"><defs><style>.cls-1{fill:#676767;}.cls-2{fill:#feee8f;}.cls-3{fill:#9c9;}.cls-4{fill:#666766;}</style></defs><title>K</title><rect class="cls-1" x="1" y="1" width="125" height="125" rx="10" ry="10"/><path class="cls-2" d="M11,.9H41.17L71.35.79,101.52.65c5,0,10-.08,15.11-.05A10.51,10.51,0,0,1,126.5,11l.15,60.35.07,30.17c0,5,.06,10,0,15.13A10.81,10.81,0,0,1,116,126.8L55.65,127H12.28c-.64,0-1.23,0-1.95,0A11,11,0,0,1,0,116L.17,85.83l.3-30.18L.75,25.48c0-5,0-10,.11-15.1A10.16,10.16,0,0,1,11,.9Zm0,.2a9.89,9.89,0,0,0-9.79,9.3c0,5,0,10.06,0,15.08l.29,30.17.29,30.18L2,116a9,9,0,0,0,8.45,9c.54,0,1.21,0,1.83,0H55.65l60.35.19a9.26,9.26,0,0,0,9.21-8.64c.07-4.93,0-10,.07-15l.07-30.17L125.5,11a9.57,9.57,0,0,0-8.92-9.54c-5-.09-10-.07-15.06-.11L71.35,1.21,41.17,1.1Z"/><rect class="cls-2" x="44.29" y="71.33" width="41.67" height="41.67" rx="12" ry="12" transform="translate(130.24 184.32) rotate(180)"/><path class="cls-3" d="M47,23.73a5.9,5.9,0,0,1,.67-1.79,3.71,3.71,0,0,1,1.12-1.2,2.71,2.71,0,0,1,1.52-.44,2.67,2.67,0,0,1,1.53.44A3.58,3.58,0,0,1,53,21.94a5.91,5.91,0,0,1,.68,1.79,10.73,10.73,0,0,1,0,4.42A6.05,6.05,0,0,1,53,29.93a3.51,3.51,0,0,1-1.11,1.18,2.67,2.67,0,0,1-1.53.43,2.7,2.7,0,0,1-1.52-.43,3.63,3.63,0,0,1-1.12-1.18A6,6,0,0,1,47,28.15a10.73,10.73,0,0,1,0-4.42Zm1.22,3.95A4.56,4.56,0,0,0,48.71,29a2.4,2.4,0,0,0,.73.78,1.59,1.59,0,0,0,.88.27,1.63,1.63,0,0,0,.89-.27,2.37,2.37,0,0,0,.72-.78,4.26,4.26,0,0,0,.49-1.27,7.57,7.57,0,0,0,.18-1.74,7.48,7.48,0,0,0-.18-1.73,4.33,4.33,0,0,0-.49-1.28,2.32,2.32,0,0,0-.72-.79,1.56,1.56,0,0,0-.89-.28,1.53,1.53,0,0,0-.88.28,2.34,2.34,0,0,0-.73.79,4.63,4.63,0,0,0-.48,1.28,7.48,7.48,0,0,0-.18,1.73A7.57,7.57,0,0,0,48.23,27.68Z"/><path class="cls-3" d="M56.41,20.55v1.71h0a2.52,2.52,0,0,1,2.37-2,2.32,2.32,0,0,1,1.2.29,2.25,2.25,0,0,1,.77.82,3.62,3.62,0,0,1,.42,1.24,9.53,9.53,0,0,1,.12,1.59v7.07h-1.2V24a2.72,2.72,0,0,0-.4-1.58,1.23,1.23,0,0,0-1.08-.59,1.85,1.85,0,0,0-1,.25,2.18,2.18,0,0,0-.67.71,4,4,0,0,0-.4,1.07,6.31,6.31,0,0,0-.13,1.35v6.07h-1.2V20.55Z"/><path class="cls-3" d="M64.4,16.45V31.31H63.2V16.45Z"/><path class="cls-3" d="M66.33,18.62V16.45h1.2v2.17Zm1.2,1.93V31.31h-1.2V20.55Z"/><path class="cls-3" d="M70.52,20.55v1.71h0a2.54,2.54,0,0,1,2.37-2,2.32,2.32,0,0,1,1.2.29,2.28,2.28,0,0,1,.78.82,3.62,3.62,0,0,1,.41,1.24,9.53,9.53,0,0,1,.12,1.59v7.07h-1.2V24a2.8,2.8,0,0,0-.39-1.58,1.25,1.25,0,0,0-1.09-.59,1.84,1.84,0,0,0-1,.25,2.08,2.08,0,0,0-.67.71,3.66,3.66,0,0,0-.4,1.07,6.29,6.29,0,0,0-.14,1.35v6.07h-1.2V20.55Z"/><path class="cls-3" d="M82.41,30.63a2.66,2.66,0,0,1-2.06.91,2.71,2.71,0,0,1-1.52-.42A3.28,3.28,0,0,1,77.75,30a6.18,6.18,0,0,1-.66-1.79,12.16,12.16,0,0,1-.24-2.27,9.28,9.28,0,0,1,.25-2.25,6.28,6.28,0,0,1,.71-1.76,3.74,3.74,0,0,1,1.09-1.17,2.44,2.44,0,0,1,1.38-.42,2.26,2.26,0,0,1,1.61.6,4.26,4.26,0,0,1,1,1.51,7.77,7.77,0,0,1,.54,2,12.28,12.28,0,0,1,.12,2.06H78.12a5.91,5.91,0,0,0,.11,1.35,3.55,3.55,0,0,0,.41,1.12,2.26,2.26,0,0,0,.72.78,1.83,1.83,0,0,0,1,.29,1.63,1.63,0,0,0,1.25-.52,2.89,2.89,0,0,0,.64-1.58h1.19A5.05,5.05,0,0,1,82.41,30.63Zm-.29-6.91a3.48,3.48,0,0,0-.44-1A2.24,2.24,0,0,0,81,22.1a1.56,1.56,0,0,0-1.66,0,2.16,2.16,0,0,0-.65.66,3.43,3.43,0,0,0-.42,1,5.4,5.4,0,0,0-.18,1.17h4.19A5,5,0,0,0,82.12,23.72Z"/><path class="cls-3" d="M39.53,39.58V41h0a2.32,2.32,0,0,1,.94-1.3,2.51,2.51,0,0,1,1.39-.41,2.41,2.41,0,0,1,1.48.46,3.55,3.55,0,0,1,1,1.24,6.58,6.58,0,0,1,.63,1.8A10.7,10.7,0,0,1,45.24,45a11.48,11.48,0,0,1-.2,2.16,6.53,6.53,0,0,1-.62,1.78,3.43,3.43,0,0,1-1.05,1.2,2.5,2.5,0,0,1-1.46.44,2.76,2.76,0,0,1-1.26-.36A2.37,2.37,0,0,1,40,49.7a2.71,2.71,0,0,1-.49-.8h0v5.54h-1.2V39.58Zm4.31,3.82a5.06,5.06,0,0,0-.41-1.28,2.58,2.58,0,0,0-.71-.9,1.7,1.7,0,0,0-2,0,2.76,2.76,0,0,0-.69.93,5,5,0,0,0-.39,1.3A9.14,9.14,0,0,0,39.48,45a9.47,9.47,0,0,0,.13,1.53,4.84,4.84,0,0,0,.4,1.3,2.68,2.68,0,0,0,.71.9,1.69,1.69,0,0,0,1.06.35,1.53,1.53,0,0,0,1-.36,2.43,2.43,0,0,0,.67-.93,5.61,5.61,0,0,0,.37-1.33A11.17,11.17,0,0,0,44,44.87,8,8,0,0,0,43.84,43.4Z"/><path class="cls-3" d="M46.48,42.75A6.12,6.12,0,0,1,47.16,41a3.56,3.56,0,0,1,1.12-1.19,2.86,2.86,0,0,1,3,0A3.64,3.64,0,0,1,52.44,41a6.12,6.12,0,0,1,.68,1.79A10.45,10.45,0,0,1,53.34,45a10.29,10.29,0,0,1-.22,2.21A5.88,5.88,0,0,1,52.44,49a3.45,3.45,0,0,1-1.11,1.19,2.92,2.92,0,0,1-3,0A3.38,3.38,0,0,1,47.16,49a5.88,5.88,0,0,1-.68-1.77A10.29,10.29,0,0,1,46.26,45,10.45,10.45,0,0,1,46.48,42.75Zm1.22,4A4.37,4.37,0,0,0,48.19,48a2.4,2.4,0,0,0,.73.78,1.59,1.59,0,0,0,.88.27,1.57,1.57,0,0,0,.88-.27,2.4,2.4,0,0,0,.73-.78,4.37,4.37,0,0,0,.49-1.27,9,9,0,0,0,0-3.48A4.56,4.56,0,0,0,51.41,42a2.43,2.43,0,0,0-.73-.79,1.57,1.57,0,0,0-.88-.27,1.59,1.59,0,0,0-.88.27,2.43,2.43,0,0,0-.73.79,4.56,4.56,0,0,0-.49,1.28,9,9,0,0,0,0,3.48Z"/><path class="cls-3" d="M60.08,50.34V48.88h0a2.29,2.29,0,0,1-.93,1.29,2.56,2.56,0,0,1-1.4.4,2.48,2.48,0,0,1-1.48-.46,3.83,3.83,0,0,1-1-1.23,6.39,6.39,0,0,1-.63-1.79,10.7,10.7,0,0,1-.21-2.16,11.59,11.59,0,0,1,.2-2.17A6.32,6.32,0,0,1,55.19,41a3.48,3.48,0,0,1,1-1.2,2.45,2.45,0,0,1,1.46-.45,2.4,2.4,0,0,1,1.26.36,3.24,3.24,0,0,1,.61.52,2.91,2.91,0,0,1,.49.81h0V35.48h1.2V50.34Zm-4.32-3.82a5.2,5.2,0,0,0,.41,1.28,2.55,2.55,0,0,0,.71.89,1.56,1.56,0,0,0,1,.34,1.54,1.54,0,0,0,1-.36,2.62,2.62,0,0,0,.69-.92,5,5,0,0,0,.39-1.3A9.14,9.14,0,0,0,60.12,45,8.46,8.46,0,0,0,60,43.44a4.73,4.73,0,0,0-.4-1.3,2.51,2.51,0,0,0-.71-.91,1.72,1.72,0,0,0-1.06-.34,1.57,1.57,0,0,0-1,.35,2.56,2.56,0,0,0-.68.94,5.48,5.48,0,0,0-.37,1.33,11.17,11.17,0,0,0-.11,1.54A8.93,8.93,0,0,0,55.76,46.52Z"/><path class="cls-3" d="M64.21,39.58v2.27h0a4.87,4.87,0,0,1,1.07-1.94,2.09,2.09,0,0,1,1.61-.58V41.2a2.49,2.49,0,0,0-1.23.29,2.17,2.17,0,0,0-.81.86,4.43,4.43,0,0,0-.46,1.36,11.12,11.12,0,0,0-.14,1.84v4.79h-1.2V39.58Z"/><path class="cls-3" d="M68.74,47.93a1.67,1.67,0,0,0,.45.65,1.64,1.64,0,0,0,.62.34,2.45,2.45,0,0,0,.71.11,3,3,0,0,0,.59-.06,2,2,0,0,0,.58-.23,1.38,1.38,0,0,0,.43-.49,1.83,1.83,0,0,0,.17-.83,1.41,1.41,0,0,0-.36-1,2.79,2.79,0,0,0-.88-.57,9.66,9.66,0,0,0-1.15-.39,4.94,4.94,0,0,1-1.15-.5,2.65,2.65,0,0,1-.88-.91,3.09,3.09,0,0,1-.35-1.62,3.69,3.69,0,0,1,.24-1.4,2.84,2.84,0,0,1,.64-.94,2.64,2.64,0,0,1,.87-.54,2.81,2.81,0,0,1,1-.18,3.74,3.74,0,0,1,1.14.16,2.19,2.19,0,0,1,.93.54,2.6,2.6,0,0,1,.64,1,5.5,5.5,0,0,1,.28,1.63H72a2.5,2.5,0,0,0-.18-.86,1.54,1.54,0,0,0-.4-.55,1.57,1.57,0,0,0-.53-.31,1.9,1.9,0,0,0-.58-.09,2.64,2.64,0,0,0-.55.06,1.5,1.5,0,0,0-.5.22,1.14,1.14,0,0,0-.36.42,1.33,1.33,0,0,0-.14.67A1.29,1.29,0,0,0,69,43a1.79,1.79,0,0,0,.56.5,3.51,3.51,0,0,0,.76.34l.85.28a5.56,5.56,0,0,1,.88.35,2.78,2.78,0,0,1,.77.55,2.51,2.51,0,0,1,.53.87,3.41,3.41,0,0,1,.21,1.29,4,4,0,0,1-.28,1.62,2.76,2.76,0,0,1-.72,1,2.53,2.53,0,0,1-1,.55,3.87,3.87,0,0,1-1.11.16,3.48,3.48,0,0,1-1.16-.19,2.49,2.49,0,0,1-1-.61,3.13,3.13,0,0,1-.68-1.13A5.42,5.42,0,0,1,67.36,47h1.2A2.81,2.81,0,0,0,68.74,47.93ZM69.8,38.1l-1.47-3h1.19l1,2,1-2h1.09l-1.46,3Z"/><path class="cls-3" d="M76.15,35.48v8.8l3.34-4.7h1.6L78.2,43.49l3.11,6.85H79.78l-2.5-5.62-1.13,1.54v4.08H75V35.48Z"/><path class="cls-3" d="M88.67,50.3a1.25,1.25,0,0,1-.86.27.87.87,0,0,1-.74-.39,2.22,2.22,0,0,1-.27-1.26,3.24,3.24,0,0,1-1.15,1.26,2.74,2.74,0,0,1-1.42.39,2.7,2.7,0,0,1-.94-.17,1.92,1.92,0,0,1-.77-.52A2.43,2.43,0,0,1,82,49a4.6,4.6,0,0,1-.19-1.38,4.24,4.24,0,0,1,.22-1.5,2.6,2.6,0,0,1,.55-.94,2.38,2.38,0,0,1,.79-.56c.3-.12.6-.22.91-.31s.65-.17.94-.22a3.38,3.38,0,0,0,.79-.2,1.27,1.27,0,0,0,.53-.4,1.25,1.25,0,0,0,.2-.76,2.46,2.46,0,0,0-.15-.94,1.38,1.38,0,0,0-.38-.54,1.26,1.26,0,0,0-.52-.25,2.76,2.76,0,0,0-.57-.06,1.88,1.88,0,0,0-1.27.43,2.1,2.1,0,0,0-.55,1.61H82.1a5.09,5.09,0,0,1,.28-1.69,3.07,3.07,0,0,1,.68-1.11,2.46,2.46,0,0,1,1-.61,3.46,3.46,0,0,1,1.17-.19,5.43,5.43,0,0,1,1,.1,2,2,0,0,1,.88.43,2.29,2.29,0,0,1,.64.9,4.07,4.07,0,0,1,.24,1.52V47.8a5.29,5.29,0,0,0,0,.92.31.31,0,0,0,.33.29.94.94,0,0,0,.36-.09Zm-1.94-5.52a1.21,1.21,0,0,1-.6.36,5.78,5.78,0,0,1-.77.19l-.81.17a2.25,2.25,0,0,0-.73.3,1.46,1.46,0,0,0-.53.59,2.15,2.15,0,0,0-.21,1,2,2,0,0,0,.12.74,1.3,1.3,0,0,0,.32.48,1,1,0,0,0,.44.27,1.61,1.61,0,0,0,.54.09,2,2,0,0,0,1-.24,2.23,2.23,0,0,0,.69-.6,2.68,2.68,0,0,0,.4-.79,3,3,0,0,0,.13-.8Z"/><path class="cls-4" d="M65.1,81.6c.11,3.63.08,7.25.13,10.88s0,7.25-.13,10.87C65,99.73,65,96.1,65,92.48S65,85.23,65.1,81.6Z"/><path class="cls-4" d="M57,84.18a11.56,11.56,0,0,1,16.25-.09,11.55,11.55,0,1,1-19.63,8.17A11.49,11.49,0,0,1,57,84.18Zm0,0a11.3,11.3,0,0,0,.09,16.07,11.3,11.3,0,1,0,8-19.38A11.43,11.43,0,0,0,57,84.18Z"/><path class="cls-4" d="M65.34,80.83a5.09,5.09,0,0,0-3.25,1.44A9.5,9.5,0,0,0,60,85.21a18,18,0,0,0,0,14.1,9.66,9.66,0,0,0,2.07,3,5.08,5.08,0,0,0,3.25,1.43A5.12,5.12,0,0,1,62,102.35a9.67,9.67,0,0,1-2.14-3,17.23,17.23,0,0,1,0-14.24,9.51,9.51,0,0,1,2.14-3A5.13,5.13,0,0,1,65.34,80.83Z"/><path class="cls-4" d="M65.12,80.83a5.15,5.15,0,0,1,3.33,1.35,9.48,9.48,0,0,1,2.13,3,17.23,17.23,0,0,1,0,14.24,9.64,9.64,0,0,1-2.13,3,5.14,5.14,0,0,1-3.33,1.34,5.05,5.05,0,0,0,3.24-1.43,9.49,9.49,0,0,0,2.07-3,18,18,0,0,0,0-14.1,9.53,9.53,0,0,0-2.08-2.94A5.06,5.06,0,0,0,65.12,80.83Z"/><path class="cls-4" d="M54.33,92.48c3.63-.11,7.25-.08,10.88-.13s7.25,0,10.87.13c-3.62.1-7.25.08-10.87.12S58,92.58,54.33,92.48Z"/><path class="cls-4" d="M56.11,98.71c3-.11,6-.08,9-.13s6,0,9,.13c-3,.11-6,.08-9,.12S59.11,98.82,56.11,98.71Z"/><path class="cls-4" d="M56.05,86c3-.11,6.08-.08,9.12-.13s6.08,0,9.12.13c-3,.11-6.08.08-9.12.12S59.09,86.14,56.05,86Z"/><path class="cls-4" d="M61.51,94l-.31-1.76-.1-.74h0c0,.24-.05.41-.07.52s-.13.77-.34,2h-.93l-.61-3h.73l.28,1.67c0,.19.06.46.09.82h0c0-.1,0-.25,0-.44s0-.33.05-.38l.3-1.67h.93l.29,1.67a5.43,5.43,0,0,1,.09.82h0c0-.33.06-.6.1-.82L62.35,91h.7l-.6,3Z"/><path class="cls-4" d="M65.53,94l-.3-1.76-.11-.74h0c0,.24,0,.41-.06.52s-.14.77-.35,2h-.93l-.6-3h.72l.28,1.67c0,.19.06.46.09.82h0c0-.1,0-.25,0-.44s0-.33,0-.38l.3-1.67h.93l.3,1.67c0,.18.06.45.09.82h0a7.05,7.05,0,0,1,.09-.82L66.37,91h.71l-.61,3Z"/><path class="cls-4" d="M69.55,94l-.3-1.76-.1-.74h0c0,.24,0,.41-.07.52s-.13.77-.35,2h-.93l-.6-3h.73l.27,1.67a5.77,5.77,0,0,1,.09.82h0c0-.1,0-.25,0-.44s0-.33,0-.38l.3-1.67h.93l.3,1.67a5.43,5.43,0,0,1,.09.82h0c0-.33.06-.6.1-.82L70.4,91h.7l-.6,3Z"/><path class="cls-4" d="M71.41,80.91a6,6,0,0,1,2.66.18,3.68,3.68,0,0,1,1.2.65,4.42,4.42,0,0,1,.47.5,2.24,2.24,0,0,1,.38.58,7.19,7.19,0,0,1,0,5.34A19,19,0,0,1,73.77,93a28.11,28.11,0,0,1-3.41,4.19,25.09,25.09,0,0,1-8.92,6,11.54,11.54,0,0,1-2.65.59,5.82,5.82,0,0,1-2.71-.29,3.64,3.64,0,0,1-2-1.81,5.34,5.34,0,0,1-.4-2.64,5.31,5.31,0,0,0,.51,2.58,3.43,3.43,0,0,0,2,1.64,5.63,5.63,0,0,0,2.58.21,12,12,0,0,0,2.56-.64,25.21,25.21,0,0,0,8.69-6A23.89,23.89,0,0,0,75.79,88a7,7,0,0,0,.11-5.11,2.12,2.12,0,0,0-.33-.56,3.29,3.29,0,0,0-.42-.49A3.78,3.78,0,0,0,74,81.2,6,6,0,0,0,71.41,80.91Z"/></svg>