<?xml version="1.0" encoding="utf-8"?>
<!-- Generator: Adobe Illustrator 22.1.0, SVG Export Plug-In . SVG Version: 6.00 Build 0)  -->
<svg version="1.1" id="Layer_1" xmlns="http://www.w3.org/2000/svg" xmlns:xlink="http://www.w3.org/1999/xlink" x="0px" y="0px"
	 viewBox="0 0 1440 230" style="enable-background:new 0 0 1440 230;" xml:space="preserve">
<style type="text/css">
	.st0{fill:url(#SVGID_1_);}
	.st1{fill:url(#SVGID_2_);}
	.st2{fill:url(#SVGID_3_);}
	.st3{fill:url(#SVGID_4_);}
</style>
<g>
	<linearGradient id="SVGID_1_" gradientUnits="userSpaceOnUse" x1="390.6856" y1="-229.4749" x2="390.6856" y2="-93.9622">
		<stop  offset="0" style="stop-color:#FFFFFF"/>
		<stop  offset="1" style="stop-color:#FFEE90"/>
	</linearGradient>
	<path class="st0" d="M781.4-229.5v88.1c-34.4,4.8-72.4,9.4-116.5,13.2c-153.3,13-306.8,27.4-460.1,33.6C134.5-91.8,65.8-97.6,0-118
		v-59.8l0-51.7H781.4z"/>
	<linearGradient id="SVGID_2_" gradientUnits="userSpaceOnUse" x1="720.015" y1="-324.0153" x2="720.015" y2="-93.9523">
		<stop  offset="0" style="stop-color:#FFFFFF"/>
		<stop  offset="0.2375" style="stop-color:#FCFDFC"/>
		<stop  offset="0.4281" style="stop-color:#F2F8F2"/>
		<stop  offset="0.6026" style="stop-color:#E1F0E1"/>
		<stop  offset="0.7674" style="stop-color:#C9E4C9"/>
		<stop  offset="0.9239" style="stop-color:#ABD5AB"/>
		<stop  offset="1" style="stop-color:#99CC99"/>
	</linearGradient>
	<path class="st1" d="M1440-152.1v21.9c-87.5,30.2-180.1,38.8-275.2,35.5c-88.5-3.1-176.9-8.3-265.4-14.3
		c-88.1-6-176.2-12.8-264.2-19.3C422.8-144,210.8-156.4,0-145.3L0-197L0-324h1440l0,127.1L1440-152.1z"/>
</g>
<g>
	
		<linearGradient id="SVGID_3_" gradientUnits="userSpaceOnUse" x1="4708.0195" y1="94.4891" x2="4708.0195" y2="230.0046" gradientTransform="matrix(1 0 0 1 -3839.3599 0)">
		<stop  offset="0" style="stop-color:#FFFFFF"/>
		<stop  offset="1" style="stop-color:#99CC99"/>
	</linearGradient>
	<path class="st2" d="M1440,193.8c-69.5,30.2-143.1,38.9-218.5,35.6c-140.1-6.2-280.2-20.6-420.3-33.6
		c-168.5-15.8-336.7-28.2-503.9-17.1l0-84.1H1440L1440,193.8z"/>
	
		<linearGradient id="SVGID_4_" gradientUnits="userSpaceOnUse" x1="4559.355" y1="-9.094947e-13" x2="4559.355" y2="230.031" gradientTransform="matrix(1 0 0 1 -3839.3599 0)">
		<stop  offset="0" style="stop-color:#FFFFFF"/>
		<stop  offset="0.2293" style="stop-color:#FFFFFC"/>
		<stop  offset="0.4134" style="stop-color:#FFFDF2"/>
		<stop  offset="0.5819" style="stop-color:#FFFAE1"/>
		<stop  offset="0.741" style="stop-color:#FFF7C9"/>
		<stop  offset="0.8922" style="stop-color:#FFF2AB"/>
		<stop  offset="1" style="stop-color:#FFEE90"/>
	</linearGradient>
	<path class="st3" d="M1440,179.8c-217.2-13-435.7-0.3-654.6,16c-176.5,13-353.1,27.4-529.6,33.6c-88,3-174-4.1-255.7-29.2L0,0h1440
		L1440,179.8z"/>
</g>
</svg>
