<svg id="Layer_1" data-name="Layer 1" xmlns="http://www.w3.org/2000/svg" xmlns:xlink="http://www.w3.org/1999/xlink" viewBox="0 0 1440 163.36"><defs><style>.cls-1{fill:url(#linear-gradient);}.cls-2{fill:url(#linear-gradient-2);}.cls-3{fill:#666;}</style><linearGradient id="linear-gradient" x1="390.7" y1="69.41" x2="390.7" y2="-66.15" gradientTransform="matrix(1, 0, 0, -1, 0, 97.26)" gradientUnits="userSpaceOnUse"><stop offset="0" stop-color="#fff"/><stop offset="1" stop-color="#ffee90"/></linearGradient><linearGradient id="linear-gradient-2" x1="720" y1="97.26" x2="720" y2="-66.06" gradientTransform="matrix(1, 0, 0, -1, 0, 97.26)" gradientUnits="userSpaceOnUse"><stop offset="0" stop-color="#fff"/><stop offset="0.19" stop-color="#fcfdfc"/><stop offset="0.36" stop-color="#f2f8f2"/><stop offset="0.53" stop-color="#e1f0e1"/><stop offset="0.69" stop-color="#c9e4c9"/><stop offset="0.85" stop-color="#abd5ab"/><stop offset="1" stop-color="#9c9"/></linearGradient></defs><title>KrivinicaY_novo</title><path class="cls-1" d="M781.4,27.86V116c-34.4,4.8-72.4,9.4-116.5,13.2-153.3,13-306.8,27.4-460.1,33.6-70.3,2.8-139-3-204.8-23.4V27.86Z"/><path class="cls-2" d="M1440,105.26v21.9c-87.5,30.2-180.1,38.8-275.2,35.5-88.5-3.1-176.9-8.3-265.4-14.3-88.1-6-176.2-12.8-264.2-19.3C422.8,113.36,210.8,101,0,112.06V0H1440V105.26Z"/><path class="cls-3" d="M408.2,66.9h.11L417.78,52h8.12L415.8,67.94,427,89.18h-8.43L411,73.93l-2.76,4.21v11h-7.49V52h7.49Z"/><path class="cls-3" d="M428,69.09a9.5,9.5,0,0,1,.78-4.09,7.14,7.14,0,0,1,2.11-2.65A8.32,8.32,0,0,1,434,60.89a15.77,15.77,0,0,1,3.83-.44,17.69,17.69,0,0,1,5.21.62,7.24,7.24,0,0,1,3.07,1.77,6,6,0,0,1,1.48,2.73A14.55,14.55,0,0,1,448,69V83.76a20.19,20.19,0,0,0,.18,3.08,10.76,10.76,0,0,0,.71,2.34H442a6,6,0,0,1-.54-1.43c-.12-.51-.24-1-.34-1.49H441a6.07,6.07,0,0,1-2.88,2.84,11.79,11.79,0,0,1-4.25.65,7.11,7.11,0,0,1-3.17-.65,5.28,5.28,0,0,1-2.08-1.8,8,8,0,0,1-1.15-2.57,11.64,11.64,0,0,1-.36-2.84,12.64,12.64,0,0,1,.41-3.41A6.61,6.61,0,0,1,428.84,76a6.84,6.84,0,0,1,2.19-1.7,16.71,16.71,0,0,1,3.2-1.19l4.06-1.1a4.29,4.29,0,0,0,2.23-1.14,3.2,3.2,0,0,0,.63-2.14,3.81,3.81,0,0,0-.76-2.52,3.16,3.16,0,0,0-2.57-.91,3.08,3.08,0,0,0-2.5,1,4,4,0,0,0-.83,2.65v.78H428Zm11.56,7a10.44,10.44,0,0,1-1.51.49A5.46,5.46,0,0,0,435,78.14a4.39,4.39,0,0,0-.94,3,5.74,5.74,0,0,0,.62,2.76A2.19,2.19,0,0,0,436.73,85a5.07,5.07,0,0,0,1.5-.23,4.34,4.34,0,0,0,1.44-.76,3.91,3.91,0,0,0,1.06-1.35,4.32,4.32,0,0,0,.42-2V75.18A6.83,6.83,0,0,1,439.59,76.09Z"/><path class="cls-3" d="M460.2,71.64h.1l7.24-10.47h7.91l-8.07,11,9.27,17h-7.91l-6-11.51L460.2,81v8.17H453V52h7.18Z"/><path class="cls-3" d="M478.05,68.83a12.17,12.17,0,0,1,1.88-4.61,8.23,8.23,0,0,1,3.41-2.81,12.43,12.43,0,0,1,5.17-1,13.25,13.25,0,0,1,5.37.85,7.53,7.53,0,0,1,3.38,2.79A12.51,12.51,0,0,1,499,68.72a35,35,0,0,1,.52,6.46,31.65,31.65,0,0,1-.57,6.35,12.28,12.28,0,0,1-1.88,4.6,7.65,7.65,0,0,1-3.41,2.74,13.38,13.38,0,0,1-5.18.88,13.82,13.82,0,0,1-5.36-.81,7.22,7.22,0,0,1-3.38-2.7A12.29,12.29,0,0,1,478,81.6a34.88,34.88,0,0,1-.52-6.42A31.58,31.58,0,0,1,478.05,68.83Zm6.72,10.3a13.62,13.62,0,0,0,.49,3.12,4.51,4.51,0,0,0,1.17,2,3,3,0,0,0,2.08.72,3,3,0,0,0,3-2.29,24,24,0,0,0,.84-7.54,24.08,24.08,0,0,0-.84-7.55,3,3,0,0,0-3-2.29,2.92,2.92,0,0,0-2.08.73,4.42,4.42,0,0,0-1.17,2,13.8,13.8,0,0,0-.49,3.12c-.07,1.22-.11,2.53-.11,4S484.7,77.92,484.77,79.13Z"/><path class="cls-3" d="M520.42,81a4.34,4.34,0,0,0,1,2.94A3.48,3.48,0,0,0,524.17,85a4,4,0,0,0,2.65-.83,3.08,3.08,0,0,0,1-2.5,2.6,2.6,0,0,0-.78-2.05,6.11,6.11,0,0,0-1.82-1.12l-5.05-1.82a9.71,9.71,0,0,1-4.48-2.94,7.63,7.63,0,0,1-1.51-4.87,9.32,9.32,0,0,1,.58-3.26,6.92,6.92,0,0,1,1.82-2.68,9.07,9.07,0,0,1,3.2-1.82,14.48,14.48,0,0,1,4.71-.67q4.89,0,7.24,2.08a7.47,7.47,0,0,1,2.34,5.88v1.14H527.6a5.73,5.73,0,0,0-.7-3.2,2.81,2.81,0,0,0-2.47-1,3.89,3.89,0,0,0-2.37.75,2.64,2.64,0,0,0-1,2.27,2.92,2.92,0,0,0,.65,1.87,4.91,4.91,0,0,0,2.47,1.41l4.32,1.45a9.89,9.89,0,0,1,4.79,3,8.13,8.13,0,0,1,1.4,5A9,9,0,0,1,533.9,85a7.62,7.62,0,0,1-2.16,2.73,8.4,8.4,0,0,1-3.28,1.56,17.56,17.56,0,0,1-4.19.47,18.65,18.65,0,0,1-5-.57,7.4,7.4,0,0,1-3.18-1.72,6.15,6.15,0,0,1-1.63-2.78A13.11,13.11,0,0,1,514,81V80h6.45Z"/><path class="cls-3" d="M544.05,78.51a15.93,15.93,0,0,0,.18,2.42,7.8,7.8,0,0,0,.6,2.08,3.91,3.91,0,0,0,1.1,1.46,2.57,2.57,0,0,0,1.66.54,2.93,2.93,0,0,0,2.66-1.3,9.65,9.65,0,0,0,1.14-3.95h6.45q-.2,4.89-2.6,7.44t-7.55,2.55a11.93,11.93,0,0,1-6.09-1.3A8.07,8.07,0,0,1,538.38,85a13.44,13.44,0,0,1-1.28-4.78c-.15-1.77-.23-3.54-.23-5.31a36.58,36.58,0,0,1,.39-5.42,13.06,13.06,0,0,1,1.56-4.63,8.5,8.5,0,0,1,3.36-3.23A12.23,12.23,0,0,1,548,60.45a11.25,11.25,0,0,1,5.12,1,7.72,7.72,0,0,1,3.15,2.86,11.81,11.81,0,0,1,1.56,4.48,37.25,37.25,0,0,1,.42,5.86v1.61H544.05Zm7.13-9.34a7.23,7.23,0,0,0-.54-2.09,3,3,0,0,0-1.1-1.3,3.34,3.34,0,0,0-1.79-.44,3.06,3.06,0,0,0-1.8.49,3.63,3.63,0,0,0-1.12,1.3,6.36,6.36,0,0,0-.6,1.8,11,11,0,0,0-.18,2V72h7.34A27,27,0,0,0,551.18,69.17Z"/><path class="cls-3" d="M580.64,61.17v3h.11a7.86,7.86,0,0,1,2.68-2.84,7.25,7.25,0,0,1,3.67-.85,7,7,0,0,1,6.5,3.46q2.08,3.47,2.08,11.27T593.6,86.37a7.1,7.1,0,0,1-6.5,3.38,6.61,6.61,0,0,1-6-3.17H581v11.6h-7.18v-37Zm1,20.9a3.19,3.19,0,0,0,6.14,0,25.26,25.26,0,0,0,.7-6.89,25.29,25.29,0,0,0-.7-6.9,3.19,3.19,0,0,0-6.14,0,25.22,25.22,0,0,0-.71,6.9A25.18,25.18,0,0,0,581.66,82.07Z"/><path class="cls-3" d="M606.3,61.17v3.75h.11a10.28,10.28,0,0,1,2.65-3.25,6,6,0,0,1,3.8-1.22l.65,0,.65.08v6.87L613,67.34l-1.12,0a6.75,6.75,0,0,0-1.87.26,5,5,0,0,0-1.72.86A4.32,4.32,0,0,0,607.08,70a5.41,5.41,0,0,0-.46,2.37V89.18h-7.19v-28Z"/><path class="cls-3" d="M616.35,69.09a9.5,9.5,0,0,1,.78-4.09,7,7,0,0,1,2.11-2.65,8.18,8.18,0,0,1,3.12-1.46,15.71,15.71,0,0,1,3.83-.44,17.62,17.62,0,0,1,5.2.62,7.18,7.18,0,0,1,3.07,1.77A6,6,0,0,1,636,65.57a14.55,14.55,0,0,1,.39,3.46V83.76a20.19,20.19,0,0,0,.18,3.08,10.7,10.7,0,0,0,.7,2.34h-6.87a6,6,0,0,1-.55-1.43c-.12-.51-.23-1-.33-1.49h-.11a6,6,0,0,1-2.89,2.84,11.73,11.73,0,0,1-4.24.65,7.12,7.12,0,0,1-3.18-.65A5.35,5.35,0,0,1,617,87.3a8,8,0,0,1-1.14-2.57,11.19,11.19,0,0,1-.37-2.84,12.22,12.22,0,0,1,.42-3.41A6.59,6.59,0,0,1,617.15,76a7.07,7.07,0,0,1,2.19-1.7,17,17,0,0,1,3.2-1.19l4.06-1.1a4.33,4.33,0,0,0,2.24-1.14,3.2,3.2,0,0,0,.63-2.14,3.87,3.87,0,0,0-.76-2.52,3.17,3.17,0,0,0-2.58-.91,3.06,3.06,0,0,0-2.49,1A4,4,0,0,0,622.8,69v.78h-6.45Zm11.55,7a10.06,10.06,0,0,1-1.51.49,5.53,5.53,0,0,0-3.12,1.56,4.44,4.44,0,0,0-.94,3,5.63,5.63,0,0,0,.63,2.76A2.19,2.19,0,0,0,625,85a5.09,5.09,0,0,0,1.51-.23A4.2,4.2,0,0,0,628,84a3.82,3.82,0,0,0,1.07-1.35,4.32,4.32,0,0,0,.42-2V75.18A6.69,6.69,0,0,1,627.9,76.09Z"/><path class="cls-3" d="M661.53,61.17l-7,28h-8.33l-7.23-28h7.49l4,20h.1l3.8-20Z"/><path class="cls-3" d="M671.26,51.6v6.14h-7.18V51.6Zm0,9.57v28h-7.18v-28Z"/><path class="cls-3" d="M683.39,52V89.18H676.2V52Z"/><path class="cls-3" d="M694.94,61.17v3.28h.11a7.3,7.3,0,0,1,3-3,8.84,8.84,0,0,1,4.17-1,7.08,7.08,0,0,1,5.28,1.87q1.85,1.87,1.85,6.09V89.18h-7.19V69.87a4.85,4.85,0,0,0-.72-3.05,2.94,2.94,0,0,0-2.35-.86q-3.79,0-3.8,4.64V89.18h-7.18v-28Z"/><path class="cls-3" d="M713.37,68.83a12.16,12.16,0,0,1,1.87-4.61,8.36,8.36,0,0,1,3.41-2.81,12.48,12.48,0,0,1,5.18-1,13.2,13.2,0,0,1,5.36.85,7.61,7.61,0,0,1,3.39,2.79,12.33,12.33,0,0,1,1.76,4.63,34.89,34.89,0,0,1,.53,6.46,31.6,31.6,0,0,1-.58,6.35,12.11,12.11,0,0,1-1.87,4.6A7.71,7.71,0,0,1,729,88.87a13.41,13.41,0,0,1-5.18.88,13.78,13.78,0,0,1-5.36-.81,7.22,7.22,0,0,1-3.38-2.7,12,12,0,0,1-1.77-4.64,34.82,34.82,0,0,1-.53-6.42A31.53,31.53,0,0,1,713.37,68.83Zm6.71,10.3a13.57,13.57,0,0,0,.5,3.12,4.51,4.51,0,0,0,1.17,2,2.94,2.94,0,0,0,2.08.72,3,3,0,0,0,3-2.29,24.39,24.39,0,0,0,.83-7.54,24.46,24.46,0,0,0-.83-7.55,3,3,0,0,0-3-2.29,2.9,2.9,0,0,0-2.08.73,4.42,4.42,0,0,0-1.17,2,13.76,13.76,0,0,0-.5,3.12c-.07,1.22-.1,2.53-.1,4S720,77.92,720.08,79.13Z"/><path class="cls-3" d="M764.74,85.9a6.76,6.76,0,0,1-3,3,9.38,9.38,0,0,1-4.16.88,7.25,7.25,0,0,1-5.28-1.8c-1.24-1.19-1.85-3.2-1.85-6V61.17h7.18V80.49a4.76,4.76,0,0,0,.73,3,2.93,2.93,0,0,0,2.34.86c2.54,0,3.8-1.54,3.8-4.63V61.17h7.19v28h-6.88V85.9Z"/><path class="cls-3" d="M786.18,67H775.51V61.17h19.16v5.52L783.48,83.35h11.19v5.83H775V83.66Z"/><path class="cls-3" d="M797.58,68.83a12.33,12.33,0,0,1,1.88-4.61,8.3,8.3,0,0,1,3.41-2.81,12.45,12.45,0,0,1,5.18-1,13.23,13.23,0,0,1,5.36.85,7.53,7.53,0,0,1,3.38,2.79,12.51,12.51,0,0,1,1.77,4.63,35,35,0,0,1,.52,6.46,31.65,31.65,0,0,1-.57,6.35,12.12,12.12,0,0,1-1.88,4.6,7.68,7.68,0,0,1-3.4,2.74,13.45,13.45,0,0,1-5.18.88,13.75,13.75,0,0,1-5.36-.81,7.2,7.2,0,0,1-3.39-2.7,12.29,12.29,0,0,1-1.77-4.64,35.78,35.78,0,0,1-.52-6.42A31.58,31.58,0,0,1,797.58,68.83Zm6.72,10.3a13.62,13.62,0,0,0,.49,3.12,4.51,4.51,0,0,0,1.17,2,3,3,0,0,0,2.09.72,3.05,3.05,0,0,0,3-2.29,24.39,24.39,0,0,0,.83-7.54,24.46,24.46,0,0,0-.83-7.55,3.05,3.05,0,0,0-3-2.29,2.94,2.94,0,0,0-2.09.73,4.42,4.42,0,0,0-1.17,2,13.8,13.8,0,0,0-.49,3.12c-.07,1.22-.1,2.53-.1,4S804.23,77.92,804.3,79.13Z"/><path class="cls-3" d="M829.44,61.17v3.75h.1a10.31,10.31,0,0,1,2.66-3.25,5.93,5.93,0,0,1,3.8-1.22l.65,0,.65.08v6.87l-1.12-.08-1.12,0a6.7,6.7,0,0,0-1.87.26,4.88,4.88,0,0,0-1.72.86A4.22,4.22,0,0,0,830.22,70a5.41,5.41,0,0,0-.47,2.37V89.18h-7.18v-28Z"/><path class="cls-3" d="M847,71.64h.1l7.24-10.47h7.91l-8.07,11,9.27,17h-7.91l-6-11.51L847,81v8.17H839.8V52H847Z"/><path class="cls-3" d="M879.46,85.9a6.76,6.76,0,0,1-3,3,9.38,9.38,0,0,1-4.16.88,7.25,7.25,0,0,1-5.28-1.8c-1.24-1.19-1.85-3.2-1.85-6V61.17h7.18V80.49a4.76,4.76,0,0,0,.73,3,2.91,2.91,0,0,0,2.34.86q3.79,0,3.8-4.63V61.17h7.18v28h-6.87V85.9Z"/><path class="cls-3" d="M898.3,61.17V91a11.27,11.27,0,0,1-.39,3.12,5,5,0,0,1-1.33,2.26,5.87,5.87,0,0,1-2.52,1.38,14,14,0,0,1-4,.47l-1.3,0-1.46-.08V92.87a1.84,1.84,0,0,0,.57.11h.57c1.18,0,1.92-.36,2.22-1.07a9.12,9.12,0,0,0,.44-3.25V61.17Zm0-9.57v6.14h-7.18V51.6Z"/><path class="cls-3" d="M909.13,78.51a15.93,15.93,0,0,0,.18,2.42,7.8,7.8,0,0,0,.6,2.08A4,4,0,0,0,911,84.47a2.59,2.59,0,0,0,1.67.54,2.9,2.9,0,0,0,2.65-1.3,9.48,9.48,0,0,0,1.15-3.95h6.45q-.21,4.89-2.6,7.44c-1.6,1.7-4.11,2.55-7.55,2.55a11.93,11.93,0,0,1-6.09-1.3A8.09,8.09,0,0,1,903.45,85a13.43,13.43,0,0,1-1.27-4.78q-.24-2.66-.24-5.31a36.58,36.58,0,0,1,.39-5.42,13.07,13.07,0,0,1,1.57-4.63,8.54,8.54,0,0,1,3.35-3.23,12.25,12.25,0,0,1,5.83-1.19,11.29,11.29,0,0,1,5.13,1,7.72,7.72,0,0,1,3.15,2.86,12.16,12.16,0,0,1,1.56,4.48,37.25,37.25,0,0,1,.42,5.86v1.61H909.13Zm7.13-9.34a7.56,7.56,0,0,0-.55-2.09,2.93,2.93,0,0,0-1.09-1.3,3.38,3.38,0,0,0-1.8-.44,3,3,0,0,0-1.79.49,3.63,3.63,0,0,0-1.12,1.3,6.36,6.36,0,0,0-.6,1.8,11,11,0,0,0-.18,2V72h7.34C916.43,70.93,916.36,70,916.26,69.17Z"/><path class="cls-3" d="M953.11,85.9a6.76,6.76,0,0,1-3,3,9.38,9.38,0,0,1-4.16.88A7.25,7.25,0,0,1,940.7,88c-1.24-1.19-1.85-3.2-1.85-6V61.17H946V80.49a4.76,4.76,0,0,0,.73,3,2.93,2.93,0,0,0,2.34.86q3.79,0,3.8-4.63V61.17h7.18v28h-6.87V85.9Z"/><path class="cls-3" d="M971.38,61.17v3.75h.1a10.31,10.31,0,0,1,2.66-3.25,6,6,0,0,1,3.8-1.22l.65,0,.65.08v6.87l-1.12-.08-1.12,0a6.7,6.7,0,0,0-1.87.26,4.88,4.88,0,0,0-1.72.86A4.22,4.22,0,0,0,972.16,70a5.41,5.41,0,0,0-.47,2.37V89.18h-7.18v-28Z"/><path class="cls-3" d="M988.92,51.6v6.14h-7.18V51.6Zm0,9.57v28h-7.18v-28Z"/><path class="cls-3" d="M1000.47,61.17v3.28h.11a7.26,7.26,0,0,1,3-3,8.77,8.77,0,0,1,4.16-1,7.08,7.08,0,0,1,5.28,1.87q1.85,1.87,1.85,6.09V89.18h-7.18V69.87a4.84,4.84,0,0,0-.73-3.05,2.93,2.93,0,0,0-2.34-.86c-2.54,0-3.8,1.55-3.8,4.64V89.18H993.6v-28Z"/><path class="cls-3" d="M1018.74,62.32a13.88,13.88,0,0,1,.65-4.32,9.29,9.29,0,0,1,1.93-3.38,8.86,8.86,0,0,1,3.23-2.22,11.85,11.85,0,0,1,4.5-.8q5.52,0,8.25,2.73a9.88,9.88,0,0,1,2.73,7.31,11.43,11.43,0,0,1-.7,4.06,14,14,0,0,1-2.58,4.06l-2.08,2.35a12.19,12.19,0,0,0-2,2.75,7.51,7.51,0,0,0-.6,3.23v.78h-6.45v-2a11.67,11.67,0,0,1,.73-4.4,13.29,13.29,0,0,1,2.49-3.77l2-2.24a7,7,0,0,0,1.54-2.57,9.73,9.73,0,0,0,.44-2.94,5.44,5.44,0,0,0-.88-3.21,3.08,3.08,0,0,0-2.66-1.22,3,3,0,0,0-2.84,1.59,8.72,8.72,0,0,0-.86,4.14v1.3h-6.87Zm13.75,26.86h-7.19V82.31h7.19Z"/></svg>