<svg id="Layer_1" data-name="Layer 1" xmlns="http://www.w3.org/2000/svg" viewBox="0 0 65.88 65.88"><defs><style>.cls-1{fill:#939598;}.cls-2{fill:#231f20;}.cls-3{fill:#2e3192;}.cls-4{fill:#ed1c24;}.cls-5{fill:#009444;}.cls-6{fill:#fff200;}.cls-7{fill:#fff;}</style></defs><title>SlovoslagacLogoColor</title><path class="cls-1" d="M65.88,9.87V56a10,10,0,0,1-10.27,9.87H10.27A10,10,0,0,1,0,56V9.87A10,10,0,0,1,10.27,0H55.61A10,10,0,0,1,65.88,9.87Z"/><path class="cls-2" d="M65.88,10.36V33.72H0V10.36A10.27,10.27,0,0,1,10.27,0H55.61A10.28,10.28,0,0,1,65.88,10.36Z"/><path class="cls-3" d="M31.15,59.41v1.48c-11.62-.57-16.87-4.43-16.87-4.43V41h1.37C16.45,47.9,19,58.05,31.15,59.41Z"/><path class="cls-4" d="M48.7,55.42S45.51,60,37.08,60.89V59.3c8.88-1.93,6.83-12.42-1-17.54l-8.62-5.21H46.31C51.89,42.35,53,49.3,48.7,55.42Z"/><path class="cls-5" d="M38.79,30.88H19.47C13,25,11.93,19.24,15.76,12.81c0,0,2.85-5.36,12.08-6.27v1.6C19.87,10,20.1,19.08,29,24.78Z"/><path class="cls-6" d="M49.38,10v13.9H47.9C47.22,17.71,44.48,9.27,33.76,8V6.54C44.71,7,49.38,10,49.38,10Z"/><path class="cls-7" d="M46.31,36.55H27.43L24.54,34.8a43.48,43.48,0,0,1-5.07-3.92H38.79l1.7,1.06A29.28,29.28,0,0,1,46.31,36.55Z"/><rect class="cls-2" x="13.95" y="30.88" width="39.63" height="2.83"/><rect class="cls-1" x="13.95" y="33.72" width="39.63" height="2.83"/></svg>